<svg width="291" height="352" viewBox="0 0 291 352" fill="none" xmlns="http://www.w3.org/2000/svg">
<g filter="url(#filter0_d_23_410)">
<path fill-rule="evenodd" clip-rule="evenodd" d="M178.237 163.128C179.266 163.385 223.905 169.174 234.582 172.647C245.259 176.12 241.914 205.322 230.98 207.38C220.046 209.438 191.101 206.094 184.926 205.322C178.752 204.55 178.237 163.128 178.237 163.128V163.128Z" fill="#F6C1AD"/>
<path fill-rule="evenodd" clip-rule="evenodd" d="M178.237 163.128C178.862 163.284 195.572 165.48 210.99 167.959C201.684 174.605 190.622 178.832 179.003 180.591C178.34 171.383 178.237 163.128 178.237 163.128V163.128Z" fill="#D49F8C"/>
<path fill-rule="evenodd" clip-rule="evenodd" d="M198.828 166.087C212.386 168.097 228.677 170.726 234.582 172.647C245.259 176.12 241.915 205.322 230.98 207.38C223.332 208.82 206.875 207.616 195.56 206.498C196.825 201.365 198.392 192.178 198.82 181.395C199.165 172.699 199.029 168.299 198.828 166.087Z" fill="#D83135"/>
<path fill-rule="evenodd" clip-rule="evenodd" d="M198.828 166.087C202.759 166.67 206.92 167.305 210.99 167.959C207.254 170.627 203.234 172.902 199.01 174.789C199.079 170.302 198.97 167.649 198.828 166.087Z" fill="#B23437"/>
<path fill-rule="evenodd" clip-rule="evenodd" d="M155.341 277.675C155.341 277.675 167.31 286.692 175.18 302.596C183.049 318.499 184.197 324.566 184.197 324.566C184.197 324.566 213.084 325.688 225.035 324.732C236.986 323.776 235.791 322.581 235.791 322.581C235.791 322.581 234.954 316.964 228.142 311.347C221.33 305.73 218.94 305.969 218.94 305.969C218.94 305.969 208.788 268.156 197.038 251.217C185.287 234.278 180.556 231.836 180.556 231.836L155.341 277.675V277.675Z" fill="#005FB3"/>
<path fill-rule="evenodd" clip-rule="evenodd" d="M172.053 296.936C173.139 298.711 174.192 300.599 175.18 302.596C183.049 318.5 184.197 324.566 184.197 324.566C184.197 324.566 213.084 325.688 225.035 324.732C236.986 323.776 235.791 322.581 235.791 322.581C235.791 322.581 234.954 316.964 228.142 311.347C221.33 305.73 218.94 305.969 218.94 305.969C218.94 305.969 214.931 291.038 209.036 275.738C200.526 280.661 180.286 292.349 172.053 296.936V296.936Z" fill="#ED3237"/>
<path fill-rule="evenodd" clip-rule="evenodd" d="M119.682 146.093C119.682 146.093 70.5106 215.773 68.0394 231.834C65.5683 247.895 115.234 276.805 115.234 276.805C115.234 276.805 151.062 277.794 155.016 278.041C158.969 278.288 171.818 261.979 183.431 228.375C195.045 194.771 191.585 173.521 187.632 159.436C184.222 147.288 126.237 132.984 119.682 146.093V146.093Z" fill="#FEFEFE"/>
<path fill-rule="evenodd" clip-rule="evenodd" d="M168.717 261.931C173.325 253.838 178.49 242.673 183.431 228.375C185.835 221.419 187.591 214.995 188.833 209.052L187.623 207.3L177.848 238.718L168.946 242.558L177.673 203.459L167.899 200.318L160.568 241.685L154.633 242.383L161.615 198.921L151.84 195.954L144.859 240.987H133.687L141.018 197.525L131.593 195.256L123.04 235.925L113.265 232.085L122.516 194.732L113.963 192.812L103.665 228.245L93.1923 223.183L106.458 190.892L97.3816 189.67L82.7196 216.725C82.7196 216.725 75.563 237.845 79.4031 242.209C83.2433 246.573 114.487 262.456 115.883 262.631C116.812 262.747 146.853 263.712 168.717 261.931V261.931Z" fill="#ED3237"/>
<path fill-rule="evenodd" clip-rule="evenodd" d="M77.8746 210.388C72.5415 219.738 68.6866 227.627 68.0394 231.834C65.5683 247.895 115.234 276.805 115.234 276.805C115.234 276.805 151.06 277.822 155.016 278.041C161.08 278.376 172.301 263.613 181.744 233.114C176.439 239.2 172.67 240.226 150.268 238.19C127.866 236.153 90.5224 220.025 77.8746 210.388V210.388Z" fill="#005FB3"/>
<path fill-rule="evenodd" clip-rule="evenodd" d="M77.8744 210.388C76.7158 212.419 75.6274 214.381 74.626 216.252C81.8573 223.488 103.071 242.165 134.983 248.684C159.116 253.615 172.267 247.095 179.244 239.649C180.079 237.557 180.913 235.38 181.744 233.114C176.439 239.2 172.67 240.226 150.268 238.19C127.866 236.153 90.5222 220.025 77.8744 210.388V210.388Z" fill="#201E1E"/>
<path fill-rule="evenodd" clip-rule="evenodd" d="M119.681 146.093C119.681 146.093 103.616 168.861 89.3896 191.367C92.8328 193.625 97.583 196.008 103.694 197.463C118.075 200.887 134.854 199.175 153.686 200.545C167.354 201.539 180.119 206.682 187.926 213.092C193.917 188.119 190.949 171.254 187.632 159.436C184.222 147.288 126.237 132.984 119.681 146.093V146.093Z" fill="#005FB3"/>
<path fill-rule="evenodd" clip-rule="evenodd" d="M119.682 146.093C119.682 146.093 115.977 151.344 110.551 159.292C131.826 180.394 164.286 186.253 191.039 177.808C190.43 170.58 189.064 164.537 187.632 159.436C184.222 147.288 126.237 132.984 119.682 146.093V146.093Z" fill="#004582"/>
<path fill-rule="evenodd" clip-rule="evenodd" d="M164.286 183.677C176.425 185.009 176.18 183.82 165.553 189.837C168.038 201.794 169.093 201.194 160.087 192.946C149.483 199.003 150.38 199.822 155.441 188.707C146.402 180.494 145.902 181.601 158.036 182.979C163.054 171.845 161.847 171.711 164.286 183.677V183.677Z" fill="#FEFEFE"/>
<path fill-rule="evenodd" clip-rule="evenodd" d="M115.349 276.801C115.349 276.801 100.798 252.546 86.037 240.892C71.2761 229.239 68.9934 229.298 68.9934 229.298C68.9934 229.298 54.4433 251.51 43.826 275.076C33.2086 298.641 28.5472 308.223 28.5472 308.223C28.5472 308.223 14.3041 318.322 16.117 325.573C17.9298 332.824 37.87 334.896 55.7384 330.752C73.6068 326.609 77.7503 322.984 78.5271 318.322C79.304 313.661 79.304 311.848 79.304 311.848C79.304 311.848 100.539 289.577 107.531 283.621C114.523 277.665 115.349 276.801 115.349 276.801V276.801Z" fill="#005FB3"/>
<path fill-rule="evenodd" clip-rule="evenodd" d="M42.7135 277.542C32.883 299.31 28.5472 308.223 28.5472 308.223C28.5472 308.223 14.3041 318.322 16.117 325.573C17.9298 332.824 37.87 334.896 55.7384 330.752C73.6068 326.609 77.7503 322.984 78.5271 318.322C79.304 313.661 79.304 311.848 79.304 311.848C79.304 311.848 85.1077 305.761 91.6459 299.101C78.087 294.116 58.2657 286.598 51.1879 282.729C47.6181 280.778 44.8412 279.024 42.7135 277.542V277.542Z" fill="#ED3237"/>
<path fill-rule="evenodd" clip-rule="evenodd" d="M25.1445 294.486C25.1445 294.486 31.3949 303.266 52.9738 312.642C74.5526 322.017 85.1189 319.488 85.1189 319.488C85.1189 319.488 83.6307 314.874 86.3093 310.558C88.9881 306.243 98.5126 299.695 98.5126 299.695C98.5126 299.695 64.284 288.384 53.8667 281.836C43.4494 275.288 39.729 272.758 39.729 272.758C39.729 272.758 39.2823 283.771 33.4783 288.831C27.6744 293.891 25.1445 294.486 25.1445 294.486V294.486Z" fill="#D83135"/>
<path fill-rule="evenodd" clip-rule="evenodd" d="M175.579 312.413L219.767 295.681C219.767 295.681 217.817 292.757 215.38 284.471C212.944 276.186 212.294 271.313 212.294 271.313L168.431 296.655C168.431 296.655 171.843 300.392 173.142 304.128C174.442 307.865 175.579 312.413 175.579 312.413V312.413Z" fill="#D83135"/>
<path fill-rule="evenodd" clip-rule="evenodd" d="M142.722 237.977C142.722 237.977 138.485 251.535 143.779 252.823C149.074 254.111 159.334 255.001 162.769 250.85C166.203 246.7 166.763 239.551 166.763 239.551C164.579 240.161 151.476 239.694 142.722 237.977Z" fill="#FEFEFE"/>
<path fill-rule="evenodd" clip-rule="evenodd" d="M114.206 142.927C114.206 142.927 68.2509 163.166 58.2501 190.549C48.2495 217.931 65.1554 227.932 95.1574 233.17C125.16 238.409 129.922 232.456 134.446 220.313C138.97 208.169 137.78 196.263 124.207 190.311C110.635 184.358 101.348 184.834 101.348 184.834C101.348 184.834 119.445 159.594 118.73 151.022C118.016 142.45 114.206 142.927 114.206 142.927V142.927Z" fill="#F6C1AD"/>
<path fill-rule="evenodd" clip-rule="evenodd" d="M114.206 142.927C114.206 142.927 82.5647 156.863 66.0791 177.253C72.4694 176.722 81.0954 176.588 88.9061 178.466C96.1535 180.209 100.543 181.484 103.105 182.314C108.082 176.388 119.938 160.005 119.293 152.26C118.647 144.515 114.206 142.927 114.206 142.927Z" fill="#005FB3"/>
<path fill-rule="evenodd" clip-rule="evenodd" d="M114.206 142.927C114.206 142.927 109.155 145.152 102.039 149.124C105.959 154.794 110.546 159.713 115.626 163.879C117.955 159.454 119.54 155.224 119.293 152.26C118.648 144.515 114.206 142.927 114.206 142.927V142.927Z" fill="#004582"/>
<path d="M82.5915 135.357C91.2308 136.655 98.2343 129.966 98.2343 120.417C98.2343 110.867 91.2308 102.072 82.5915 100.774C73.9522 99.4752 66.9487 106.164 66.9487 115.714C66.9487 125.264 73.9522 134.058 82.5915 135.357Z" fill="#F6C1AD"/>
<path fill-rule="evenodd" clip-rule="evenodd" d="M94.247 131.349C91.383 134.453 87.2227 136.053 82.5919 135.357C73.9526 134.058 66.9492 125.264 66.9492 115.714C66.9492 115.415 66.9561 115.119 66.9696 114.826C67.6417 112.994 68.9699 111.489 71.4052 111.098C78.0208 110.037 86.3253 114.848 86.7476 118.064C87.1697 121.28 84.9176 125.601 88.0144 128.396C89.3536 129.605 91.6929 130.861 94.247 131.349V131.349Z" fill="#D49F8C"/>
<path fill-rule="evenodd" clip-rule="evenodd" d="M94.2474 131.349C92.7236 133.001 90.8325 134.226 88.6991 134.907C75.2019 135.091 74.6398 120.703 79.1473 117.744C82.1354 115.782 84.8645 116.505 86.5494 117.377C86.6509 117.612 86.7187 117.842 86.748 118.064C87.1702 121.28 84.9181 125.601 88.0148 128.396C89.354 129.605 91.6933 130.861 94.2474 131.349Z" fill="#A1796A"/>
<path fill-rule="evenodd" clip-rule="evenodd" d="M95.3473 51.2227C95.3473 51.2227 96.0857 36.6431 85.2893 28.5226C74.4928 20.4022 64.0655 20.6789 64.8961 29.8144C65.7267 38.9499 78.8299 43.8405 78.8299 43.8405C78.8299 43.8405 72.2784 41.3493 65.173 42.5487C58.0676 43.7483 56.6834 50.5767 60.7436 52.6991C64.8039 54.8215 81.6904 57.313 81.6904 57.313C81.6904 57.313 75.7846 57.9591 76.9843 62.0191C78.1841 66.0792 86.5811 67.4633 91.1027 65.5255C95.6243 63.5879 95.3473 51.2227 95.3473 51.2227Z" fill="#E6E7E8"/>
<path fill-rule="evenodd" clip-rule="evenodd" d="M238.386 51.2227C238.386 51.2227 237.647 36.6431 248.444 28.5226C259.24 20.4022 269.668 20.6789 268.837 29.8144C268.007 38.9499 254.903 43.8405 254.903 43.8405C254.903 43.8405 261.455 41.3493 268.56 42.5487C275.665 43.7483 277.05 50.5767 272.989 52.6991C268.929 54.8215 252.043 57.313 252.043 57.313C252.043 57.313 257.948 57.9591 256.749 62.0191C255.549 66.0792 247.152 67.4633 242.63 65.5255C238.109 63.5879 238.386 51.2227 238.386 51.2227Z" fill="#E6E7E8"/>
<path d="M93.996 70.5932C97.3001 71.4053 101.11 67.4605 102.506 61.7823C103.901 56.1041 102.354 50.8427 99.0499 50.0306C95.7459 49.2185 91.936 53.1633 90.5404 58.8415C89.1448 64.5197 90.6919 69.7811 93.996 70.5932Z" fill="#E6E7E8"/>
<path d="M239.737 70.5932C236.433 71.4053 232.623 67.4605 231.227 61.7823C229.832 56.1041 231.379 50.8427 234.683 50.0306C237.987 49.2185 241.797 53.1633 243.192 58.8415C244.588 64.5197 243.041 69.7811 239.737 70.5932Z" fill="#E6E7E8"/>
<path d="M248.034 135.357C239.395 136.655 232.392 129.966 232.392 120.417C232.392 110.867 239.395 102.072 248.034 100.774C256.674 99.4752 263.677 106.164 263.677 115.714C263.677 125.264 256.674 134.058 248.034 135.357Z" fill="#F6C1AD"/>
<path fill-rule="evenodd" clip-rule="evenodd" d="M236.379 131.349C239.243 134.453 243.404 136.053 248.034 135.357C256.674 134.058 263.677 125.264 263.677 115.714C263.677 115.415 263.67 115.119 263.657 114.826C262.985 112.994 261.656 111.489 259.221 111.098C252.606 110.037 244.301 114.848 243.879 118.064C243.457 121.28 245.709 125.601 242.612 128.396C241.273 129.605 238.934 130.861 236.379 131.349Z" fill="#D49F8C"/>
<path fill-rule="evenodd" clip-rule="evenodd" d="M236.379 131.349C237.903 133.001 239.794 134.226 241.928 134.907C255.425 135.091 255.987 120.703 251.48 117.744C248.492 115.782 245.762 116.505 244.077 117.377C243.976 117.612 243.908 117.842 243.879 118.064C243.457 121.28 245.709 125.601 242.612 128.396C241.273 129.605 238.934 130.861 236.379 131.349Z" fill="#A1796A"/>
<path fill-rule="evenodd" clip-rule="evenodd" d="M236.048 129.347C212.407 194.736 93.9674 186.86 90.7443 94.2685C89.3735 54.8864 111.766 14.6356 162.455 12.1276C205.076 10.0186 231.073 30.2162 239.322 64.7772C244.075 84.6887 242.975 110.187 236.048 129.347V129.347Z" fill="#005FB3"/>
<path fill-rule="evenodd" clip-rule="evenodd" d="M234.01 134.267C210.784 184.618 127.845 185.811 99.9248 131.569C101.179 128.893 103.053 126.6 105.794 125.192C116.471 119.71 122.675 132.406 141.72 129.232C147.598 128.252 161.551 121.692 166.452 121.854C171.357 121.693 185.302 128.252 191.184 129.232C210.229 132.406 216.433 119.71 227.11 125.192C230.737 127.055 232.848 130.467 234.01 134.267Z" fill="#F6C1AD"/>
<path fill-rule="evenodd" clip-rule="evenodd" d="M159.398 107.304C159.398 107.304 149.363 103.431 138.535 97.4447C127.707 91.4586 122.601 87.057 117.759 87.057C112.917 87.057 108.428 100.79 115.382 113.818C119.97 122.412 129.229 126.409 137.932 125.584C146.147 124.805 154.13 120.653 159.398 107.304Z" fill="#F6C1AD"/>
<path fill-rule="evenodd" clip-rule="evenodd" d="M159.398 107.304C159.398 107.304 149.363 103.431 138.535 97.4447C127.707 91.4586 122.601 87.057 117.759 87.057C115.95 87.057 114.19 88.9761 113.058 92.0591C116.482 92.3452 121.771 93.8439 129.799 98.2226C142.757 105.291 151.703 110.129 157.258 111.969C158.012 110.555 158.727 109.004 159.398 107.304Z" fill="#D49F8C"/>
<path fill-rule="evenodd" clip-rule="evenodd" d="M176.457 107.304C176.457 107.304 186.492 103.431 197.32 97.4447C208.148 91.4586 213.254 87.057 218.095 87.057C222.937 87.057 227.426 100.79 220.472 113.818C215.885 122.412 206.625 126.409 197.922 125.584C189.707 124.805 181.724 120.653 176.457 107.304V107.304Z" fill="#F6C1AD"/>
<path fill-rule="evenodd" clip-rule="evenodd" d="M176.457 107.304C176.457 107.304 186.492 103.431 197.32 97.4447C208.148 91.4586 213.254 87.057 218.095 87.057C220.175 87.057 222.188 89.5912 223.259 93.5137C219.875 93.0091 215.831 93.1388 211.671 94.9213C202.341 98.9203 183.379 108.464 178.047 110.9C177.494 109.783 176.962 108.586 176.457 107.304V107.304Z" fill="#D49F8C"/>
<path fill-rule="evenodd" clip-rule="evenodd" d="M158.79 107.064C156.465 106.134 147.79 102.561 138.535 97.4446C131.408 93.5044 126.76 90.2508 123.034 88.4871C121.009 91.2325 117.058 98.327 120.33 108.764C126.273 127.727 151.459 123.756 158.79 107.064Z" fill="#FEFEFE"/>
<path fill-rule="evenodd" clip-rule="evenodd" d="M158.79 107.064C156.465 106.134 147.79 102.561 138.535 97.4446C131.407 93.5044 126.76 90.2508 123.034 88.4871C122.224 89.5855 121.106 91.3807 120.265 93.8067C122.907 94.7654 126.055 96.1802 129.799 98.2226C141.936 104.843 150.553 109.507 156.161 111.583C157.184 110.204 158.073 108.695 158.79 107.064V107.064Z" fill="#E6E7E8"/>
<path fill-rule="evenodd" clip-rule="evenodd" d="M177.064 107.064C179.39 106.134 188.064 102.561 197.32 97.4446C204.447 93.5044 209.095 90.2508 212.82 88.4871C214.845 91.2325 218.796 98.327 215.525 108.764C209.581 127.727 184.396 123.756 177.064 107.064Z" fill="#FEFEFE"/>
<path fill-rule="evenodd" clip-rule="evenodd" d="M177.064 107.064C179.39 106.134 188.064 102.561 197.32 97.4446C204.447 93.5044 209.095 90.2508 212.82 88.4871C213.618 89.569 214.715 91.3266 215.551 93.6976C214.28 93.9629 212.981 94.3597 211.671 94.9213C202.799 98.7237 185.221 107.539 178.931 110.49C178.225 109.417 177.597 108.275 177.064 107.064V107.064Z" fill="#E6E7E8"/>
<path fill-rule="evenodd" clip-rule="evenodd" d="M151.259 103.823C147.818 102.254 143.592 100.211 139.203 97.8119C135.219 99.0395 132.323 102.75 132.323 107.138C132.323 112.527 136.691 116.895 142.08 116.895C147.469 116.895 151.837 112.527 151.837 107.138C151.837 105.974 151.633 104.858 151.259 103.823Z" fill="#004582"/>
<path fill-rule="evenodd" clip-rule="evenodd" d="M133.302 111.402C134.885 114.654 138.221 116.895 142.08 116.895C143.854 116.895 145.518 116.421 146.951 115.594C147.047 115.172 147.097 114.737 147.097 114.29C147.097 110.692 143.84 107.775 139.823 107.775C136.964 107.775 134.491 109.253 133.302 111.402V111.402Z" fill="#0098DA"/>
<path fill-rule="evenodd" clip-rule="evenodd" d="M151.259 103.823C147.818 102.254 143.592 100.211 139.203 97.8119C137.395 98.3689 135.811 99.4372 134.621 100.848C141.533 104.601 147.125 107.573 151.52 109.614C151.726 108.823 151.837 107.993 151.837 107.138C151.837 105.974 151.633 104.858 151.259 103.823Z" fill="#002C52"/>
<path fill-rule="evenodd" clip-rule="evenodd" d="M184.595 103.823C188.037 102.254 192.262 100.211 196.651 97.8119C200.636 99.0395 203.532 102.75 203.532 107.138C203.532 112.527 199.164 116.895 193.775 116.895C188.386 116.895 184.018 112.527 184.018 107.138C184.018 105.974 184.222 104.858 184.595 103.823Z" fill="#004582"/>
<path fill-rule="evenodd" clip-rule="evenodd" d="M203.326 109.14C202.402 113.568 198.477 116.895 193.775 116.895C192.723 116.895 191.711 116.728 190.762 116.42C190.687 116.006 190.647 115.581 190.647 115.147C190.647 111.004 194.197 107.646 198.576 107.646C200.358 107.646 202.002 108.202 203.326 109.14V109.14Z" fill="#0098DA"/>
<path fill-rule="evenodd" clip-rule="evenodd" d="M184.595 103.823C188.037 102.254 192.262 100.211 196.651 97.8119C198.106 98.2599 199.415 99.0395 200.491 100.061C194.786 102.782 188.671 105.784 184.058 108.026C184.032 107.733 184.018 107.437 184.018 107.138C184.018 105.974 184.222 104.858 184.595 103.823Z" fill="#002C52"/>
<path d="M160.372 107.524C160.372 107.524 162.529 107.794 163.967 106.835C165.405 105.876 165.345 104.947 165.345 104.947" stroke="#004582" stroke-width="0.4362" stroke-miterlimit="22.9256" stroke-linecap="round" stroke-linejoin="round"/>
<path d="M175.778 107.524C175.778 107.524 173.621 107.794 172.182 106.835C170.744 105.876 170.804 104.947 170.804 104.947" stroke="#004582" stroke-width="0.4362" stroke-miterlimit="22.9256" stroke-linecap="round" stroke-linejoin="round"/>
<path d="M110.806 89.6649C111.115 88.6802 114.414 87.0634 115.683 87.125" stroke="#004582" stroke-width="0.4362" stroke-miterlimit="22.9256" stroke-linecap="round" stroke-linejoin="round"/>
<path d="M224.945 89.9754C224.635 88.9909 221.336 87.3741 220.068 87.4357" stroke="#004582" stroke-width="0.4362" stroke-miterlimit="22.9256" stroke-linecap="round" stroke-linejoin="round"/>
<path d="M142.588 112.829C145.675 112.829 148.178 110.327 148.178 107.239C148.178 104.152 145.675 101.649 142.588 101.649C139.5 101.649 136.998 104.152 136.998 107.239C136.998 110.327 139.5 112.829 142.588 112.829Z" fill="#201E1E"/>
<path d="M193.266 112.829C196.354 112.829 198.857 110.327 198.857 107.239C198.857 104.152 196.354 101.649 193.266 101.649C190.179 101.649 187.676 104.152 187.676 107.239C187.676 110.327 190.179 112.829 193.266 112.829Z" fill="#201E1E"/>
<path d="M137.912 104.698C139.54 104.698 140.86 103.379 140.86 101.751C140.86 100.123 139.54 98.8032 137.912 98.8032C136.285 98.8032 134.965 100.123 134.965 101.751C134.965 103.379 136.285 104.698 137.912 104.698Z" fill="#FEFEFE"/>
<path d="M197.942 104.698C199.57 104.698 200.89 103.379 200.89 101.751C200.89 100.123 199.57 98.8032 197.942 98.8032C196.314 98.8032 194.995 100.123 194.995 101.751C194.995 103.379 196.314 104.698 197.942 104.698Z" fill="#FEFEFE"/>
<path d="M144.773 111.407C145.531 111.407 146.145 110.793 146.145 110.035C146.145 109.277 145.531 108.662 144.773 108.662C144.015 108.662 143.401 109.277 143.401 110.035C143.401 110.793 144.015 111.407 144.773 111.407Z" fill="#FEFEFE"/>
<path d="M191.082 111.407C191.839 111.407 192.454 110.793 192.454 110.035C192.454 109.277 191.839 108.662 191.082 108.662C190.324 108.662 189.709 109.277 189.709 110.035C189.709 110.793 190.324 111.407 191.082 111.407Z" fill="#FEFEFE"/>
<path d="M169.741 99.0036C169.741 99.0036 169.544 96.7504 169.741 95.4832" stroke="#004582" stroke-width="0.4362" stroke-miterlimit="22.9256" stroke-linecap="round" stroke-linejoin="round"/>
<path d="M155.15 82.9858C155.416 84.5091 154.537 85.07 153.186 84.2388C151.834 83.4078 150.522 81.4987 150.256 79.9755C149.583 76.1325 149.014 71.2669 148.929 66.1982C148.88 65.978 148.875 65.7113 148.92 65.4007C148.918 65.2306 148.918 65.0603 148.918 64.8897C148.919 58.5356 149.722 51.9339 152.061 46.6305C154.419 41.2825 158.333 37.2748 164.545 36.1876C165.663 35.992 166.839 35.8896 168.076 35.8898C169.361 35.8899 170.579 36.0122 171.731 36.2457C178.487 37.6158 183.107 42.5592 186.11 49.409C189.165 56.3784 189.576 61.7632 189.575 68.915C189.574 74.8195 188.876 80.8451 187.803 86.1409C187.571 87.2692 186.282 87.1144 184.923 85.7952C183.565 84.4761 182.652 82.4918 182.883 81.3636C183.753 77.0741 184.365 72.2949 184.535 67.5196C182.516 66.622 175.463 63.8395 165.823 63.9377C160.055 63.9965 156.295 64.6717 154.006 65.3123C153.94 66.5143 153.91 67.7195 153.91 68.9164C153.91 74.111 154.473 79.1182 155.15 82.9858V82.9858ZM184.398 59.8768C184.074 55.6789 183.302 51.802 181.939 48.6912C180.567 45.5613 178.173 43.2449 174.376 42.475C173.423 42.2819 172.393 42.1804 171.285 42.1804C170.143 42.1804 169.084 42.2699 168.105 42.4411C162.494 43.4233 158.952 47.0579 156.812 51.9103C155.758 54.3002 155.042 56.9908 154.585 59.8111C157.241 58.866 161.889 57.728 168.994 57.6556C175.472 57.5896 180.837 58.7745 184.398 59.8768V59.8768Z" fill="#FEFEFE"/>
<path fill-rule="evenodd" clip-rule="evenodd" d="M129.305 132.406L190.954 151.985C190.954 151.985 188.623 162.823 165.082 162.59C147.444 162.416 125.026 153.798 129.305 132.406Z" fill="#634338"/>
<path fill-rule="evenodd" clip-rule="evenodd" d="M151.051 160.702C144.614 158.984 138.603 156.045 134.45 151.689C134.912 146.32 139.252 142.11 144.539 142.11C150.134 142.11 154.67 146.824 154.67 152.638C154.67 155.875 153.263 158.771 151.051 160.702Z" fill="#F7ADAF"/>
<path fill-rule="evenodd" clip-rule="evenodd" d="M164.868 162.586C151.253 162.4 134.882 157.192 130.13 144.988C133.301 146.823 148.5 155.484 157.857 158.395C161.84 159.634 163.889 161.142 164.868 162.586V162.586Z" fill="#FEFEFE"/>
<path fill-rule="evenodd" clip-rule="evenodd" d="M131.028 132.954L190.747 151.92C183.329 159.148 165.401 158.058 149.815 150.47C135.272 143.39 132.041 135.918 131.028 132.954Z" fill="#FEFEFE"/>
<path d="M163.276 126.258C153.403 130.166 168.254 142.199 178.997 133.885C181.572 131.892 182.112 129.095 178.066 126.501" stroke="#A1796A" stroke-width="0.4362" stroke-miterlimit="22.9256" stroke-linecap="round" stroke-linejoin="round"/>
<path fill-rule="evenodd" clip-rule="evenodd" d="M117.403 189.149C117.504 188.54 120.952 180.833 127.747 182.76C134.542 184.686 131.804 193.307 131.804 193.307C131.804 193.307 142.047 197.972 143.568 202.941C145.089 207.911 139.004 212.272 139.004 212.272C139.004 212.272 141.439 219.574 139.309 221.704C137.179 223.833 134.035 225.253 134.035 225.253C134.035 225.253 135.252 228.296 133.528 229.817C131.804 231.338 130.384 231.642 130.384 231.642C130.384 231.642 131.906 235.598 124.502 236.003C117.099 236.409 111.318 234.989 111.318 234.989L117.403 189.149V189.149Z" fill="#D83135"/>
<path fill-rule="evenodd" clip-rule="evenodd" d="M112.984 235.176L91.8208 233.584L102.964 184.234C102.964 184.234 108.115 185.077 112.703 185.92C117.292 186.763 118.977 187.793 118.977 187.793L112.984 235.176V235.176Z" fill="#D83135"/>
<path fill-rule="evenodd" clip-rule="evenodd" d="M237.443 207.673C237.537 208.597 236.32 212.198 232.387 212.568C228.454 212.937 223.491 208.319 224.333 205.825C225.176 203.39 229.015 203.109 232.012 204.139C235.009 205.169 237.443 207.673 237.443 207.673Z" fill="#D83135"/>
<path fill-rule="evenodd" clip-rule="evenodd" d="M242.125 202.735C242.593 203.39 242.219 207.417 238.848 208.541C235.476 209.664 229.015 207.042 229.764 203.858C230.513 200.674 235.664 199.551 235.664 199.551L242.125 202.735V202.735Z" fill="#D83135"/>
<path fill-rule="evenodd" clip-rule="evenodd" d="M244.934 190.936C244.934 190.936 250.178 195.056 248.305 198.895C246.433 202.735 241.47 206.012 237.162 203.952C232.854 201.892 232.386 198.708 232.386 198.708L244.934 190.936Z" fill="#D83135"/>
<path fill-rule="evenodd" clip-rule="evenodd" d="M233.885 172.207C233.885 172.207 245.122 178.294 247.65 182.882C250.179 187.471 243.811 196.554 238.754 195.618C233.698 194.681 233.885 172.207 233.885 172.207V172.207Z" fill="#D83135"/>
<path d="M235.289 180.354C235.289 180.354 242.781 189.718 241.938 194.213C241.095 198.708 236.694 200.206 233.135 197.21C229.577 194.213 229.015 191.778 229.015 191.778C229.015 191.778 229.202 194.588 224.52 194.4C219.838 194.213 217.872 190.936 217.872 190.936" stroke="#B23437" stroke-width="0.4363" stroke-miterlimit="22.9256" stroke-linecap="round" stroke-linejoin="round"/>
<path d="M90.3212 63.9657C90.0273 60.4697 91.5102 55.07 94.5696 51.7581" stroke="#BDBFC1" stroke-width="0.2181" stroke-miterlimit="22.9256" stroke-linecap="round" stroke-linejoin="round"/>
<path d="M243.383 63.9657C243.677 60.4697 242.194 55.07 239.135 51.7581" stroke="#BDBFC1" stroke-width="0.2181" stroke-miterlimit="22.9256" stroke-linecap="round" stroke-linejoin="round"/>
<path d="M104.12 181.58L110.39 172.779" stroke="#004582" stroke-width="0.4362" stroke-miterlimit="22.9256" stroke-linecap="round" stroke-linejoin="round"/>
<path d="M117.969 256.537C143.498 256.537 164.194 235.842 164.194 210.312C164.194 184.783 143.498 164.088 117.969 164.088C92.4397 164.088 71.7441 184.783 71.7441 210.312C71.7441 235.842 92.4397 256.537 117.969 256.537Z" fill="#ED3237"/>
<path d="M117.969 248.047C138.809 248.047 155.704 231.153 155.704 210.312C155.704 189.472 138.809 172.578 117.969 172.578C97.1287 172.578 80.2344 189.472 80.2344 210.312C80.2344 231.153 97.1287 248.047 117.969 248.047Z" fill="#FEFEFE"/>
<path d="M117.969 239.557C134.12 239.557 147.213 226.463 147.213 210.312C147.213 194.161 134.12 181.068 117.969 181.068C101.818 181.068 88.7246 194.161 88.7246 210.312C88.7246 226.463 101.818 239.557 117.969 239.557Z" fill="#ED3237"/>
<path d="M117.969 232.717C130.343 232.717 140.374 222.686 140.374 210.312C140.374 197.938 130.343 187.907 117.969 187.907C105.595 187.907 95.564 197.938 95.564 210.312C95.564 222.686 105.595 232.717 117.969 232.717Z" fill="#005FB3"/>
<path fill-rule="evenodd" clip-rule="evenodd" d="M121.631 206.696C135.858 206.668 135.42 205.323 123.895 213.663C128.317 227.184 129.462 226.353 117.969 217.969C106.475 226.353 107.62 227.185 112.042 213.663C100.516 205.323 100.08 206.669 114.306 206.696C118.676 193.157 117.261 193.157 121.631 206.696Z" fill="#FEFEFE"/>
<path d="M102.134 274.901C102.134 274.901 112.105 276.284 113.488 276.357" stroke="#004582" stroke-width="0.4362" stroke-miterlimit="22.9256" stroke-linecap="round" stroke-linejoin="round"/>
<path d="M156.721 277.885C157.23 277.812 163.562 276.939 166.765 276.284" stroke="#004582" stroke-width="0.4362" stroke-miterlimit="22.9256" stroke-linecap="round" stroke-linejoin="round"/>
</g>
<defs>
<filter id="filter0_d_23_410" x="0.95752" y="0.977173" width="289.289" height="350.887" filterUnits="userSpaceOnUse" color-interpolation-filters="sRGB">
<feFlood flood-opacity="0" result="BackgroundImageFix"/>
<feColorMatrix in="SourceAlpha" type="matrix" values="0 0 0 0 0 0 0 0 0 0 0 0 0 0 0 0 0 0 127 0" result="hardAlpha"/>
<feOffset dy="4"/>
<feGaussianBlur stdDeviation="7.5"/>
<feComposite in2="hardAlpha" operator="out"/>
<feColorMatrix type="matrix" values="0 0 0 0 0 0 0 0 0 0 0 0 0 0 0 0 0 0 0.5 0"/>
<feBlend mode="normal" in2="BackgroundImageFix" result="effect1_dropShadow_23_410"/>
<feBlend mode="normal" in="SourceGraphic" in2="effect1_dropShadow_23_410" result="shape"/>
</filter>
</defs>
</svg>
