<svg width="408" height="708" viewBox="0 0 408 708" fill="none" xmlns="http://www.w3.org/2000/svg">
<path fill-rule="evenodd" clip-rule="evenodd" d="M116.204 497.437C118.38 499.785 120.339 503.101 122.081 507.624C123.895 512.081 125.418 517.628 126.942 524.26L147.475 518.713C147.548 518.47 143.194 523.654 134.125 534.024C124.838 544.633 108.223 563.256 92.986 581.039C77.6043 598.639 61.1342 617.324 42.7776 638.479L41.9795 655.599L52.4275 664.461L175.264 511.361L208.642 502.924L119.977 648.487L91.68 694.838L109.529 706.353L126.652 702.857C134.996 684.593 144.428 665.305 154.948 643.847C165.396 622.267 178.094 596.168 189.703 574.831C201.311 553.192 215.966 529.867 223.874 516.243C231.642 502.862 235.628 495.631 236.136 494.546L267.412 487.19L356.074 618.528L383.283 628.536L405.193 624.981C399.023 614.795 391.552 603.702 382.483 591.465C373.339 579.11 362.457 565.486 351.211 551.563C339.745 537.52 324.581 519.679 314.933 507.805C305.356 495.868 298.318 487.01 293.818 480.741L327.195 471.7V448.795L298.097 455.908L297.589 448.795C297.448 447.71 296.647 446.987 294.904 446.386C293.165 445.723 289.464 445.421 287.433 445.48C285.256 445.542 283.08 445.902 282.064 446.808C280.832 447.59 280.395 448.855 280.466 450.605C280.032 452.413 279.669 454.101 279.669 456.152C279.524 458.078 279.524 460.07 279.669 462.359C272.922 463.804 263.054 465.855 249.777 468.991C236.354 472.003 219.884 475.862 199.784 480.564C199.929 477.548 200.292 474.896 200.074 472.123C199.929 469.351 199.566 466.699 198.986 464.167C197.752 462.538 196.083 461.574 193.979 461.034C191.658 460.371 189.046 460.371 186.434 461.034C183.822 461.696 181.427 463.023 178.96 465.011C179.251 468.569 179.251 472.123 178.96 475.44C178.67 478.693 177.872 481.948 176.856 484.964C164.594 487.917 153.566 490.447 143.481 492.56C133.254 494.601 124.257 496.23 116.204 497.437V497.437Z" fill="#A16121"/>
<path fill-rule="evenodd" clip-rule="evenodd" d="M19.7049 78.5167L3.37988 91.054C8.31366 115.164 14.626 147.471 22.6071 190.086C30.6608 232.7 42.4873 302.077 50.8312 344.27C58.7398 386.22 63.9638 412.983 70.4212 440.167C76.661 467.052 82.538 488.389 88.3424 504.903L176.86 484.952C177.803 482.543 178.747 479.949 179.109 476.937C179.4 473.863 179.037 469.403 179.4 467.052C179.69 464.642 179.4 463.134 181.359 462.29C183.318 461.083 187.526 460.72 190.646 460.962C193.621 461.083 196.305 462.047 198.99 463.614C199.352 466.99 199.933 470.184 199.933 472.957C199.86 475.852 200.005 478.082 199.57 480.371C213.211 477.238 226.488 474.223 239.981 471.09C253.549 467.834 266.537 464.942 280.034 461.748V450.597C279.597 449.03 280.25 447.702 281.703 446.86C283.152 445.837 286.344 444.75 289.029 444.993C291.643 445.113 294.328 446.074 297.375 447.884L297.667 456.445L346.132 444.149C343.738 415.637 341.053 390.986 338.079 368.805C334.886 346.622 331.115 333.844 327.852 312.086C324.515 290.146 321.975 263.143 318.563 238.551C315.008 213.777 310.8 187.739 307.317 165.075C303.546 142.351 300.499 122.22 297.087 103.534C260.466 95.9948 227.373 90.2084 196.684 85.9289C165.848 81.5891 137.261 79.0575 113.971 77.6712C90.8254 76.2246 73.8474 76.5863 58.248 76.8876C42.3543 77.0651 29.8022 77.6076 19.717 78.5117L19.7049 78.5167Z" fill="#C0C0C0"/>
<path fill-rule="evenodd" clip-rule="evenodd" d="M245.721 433.06C239.699 432.939 232.514 433.482 223.878 434.446C214.954 435.352 204.435 436.978 193.987 438.666C183.539 440.114 175.123 441.619 161.99 443.911C148.785 446.262 133.331 449.153 115.337 452.591C110.476 424.382 105.832 398.343 101.406 372.607C96.7626 346.81 92.5544 322.639 88.7815 299.855C85.0086 277.192 82.179 257.422 79.1316 237.29C75.8666 216.977 71.1505 191.963 69.4817 179.667C67.7404 167.491 67.4502 162.549 68.6111 164.598C72.1663 173.097 76.0843 182.198 80.3651 192.566C84.5008 202.933 88.056 212.577 93.8604 226.139C99.4472 239.58 104.599 253.564 114.902 272.973C125.204 292.442 144.649 325.231 155.315 341.807C165.763 358.083 171.422 362.722 177.59 370.136C183.467 377.369 184.7 378.034 191.085 385.146C197.47 392.197 206.247 403.468 215.462 411.726C224.531 419.801 234.616 426.671 245.721 433.06V433.06Z" fill="#E4AD64"/>
<path fill-rule="evenodd" clip-rule="evenodd" d="M87.9797 206.543C90.3741 211.666 94.0744 216.488 98.5003 221.913C102.926 227.157 109.311 233.606 114.898 238.006C120.194 242.226 125.564 244.938 131.295 247.771C136.737 250.604 142.179 253.015 148.999 254.763C155.892 256.149 164.526 256.692 172.144 256.872C179.327 256.993 185.93 256.451 192.75 255.486C199.28 254.281 205.302 252.955 212.485 250.604C219.593 248.193 226.416 246.204 235.195 241.864C243.827 237.584 253.189 231.798 263.856 224.746C263.203 238.971 261.966 255.185 260.444 274.352C258.558 293.399 255.15 318.715 254.134 338.666C253.189 358.496 253.189 375.132 255.005 392.49C256.744 409.672 259.646 425.822 264.29 441.433C254.712 438.843 243.611 432.996 230.989 423.232C218.144 413.347 201.386 397.434 188.542 383.388C175.627 369.284 166.412 357.048 154.441 339.026C142.251 320.582 125.999 292.674 116.567 275.074C107.062 257.775 102.418 245.66 97.6296 235.232C92.6958 224.563 88.6327 216.547 87.1091 211.423C85.658 206.179 87.5444 204.914 87.9797 204.13C88.0523 203.167 88.0523 204.192 87.9797 206.543V206.543Z" fill="#F5C080"/>
<path fill-rule="evenodd" clip-rule="evenodd" d="M58.9575 121.975C59.3203 127.882 60.6263 135.115 63.1657 144.337C65.5601 153.499 68.9702 165.072 73.6863 176.524C78.3298 188.037 85.3677 202.864 90.882 212.147C96.3236 221.128 99.8788 224.202 106.046 229.988C111.778 235.714 116.567 240.777 126.289 245.66C136.157 250.241 150.813 256.148 164.09 257.594C177.15 258.92 190.065 257.715 203.706 253.737C200.151 252.169 199.425 249.638 200.731 246.383C201.964 243.068 205.665 238.969 212.12 233.846C218.435 228.3 230.626 221.972 238.605 214.618C246.296 207.084 249.996 194.908 259.213 190.146C268.353 185.505 279.746 183.998 293.677 186.289C292.953 178.513 291.575 170.014 289.539 160.792C287.507 151.51 284.823 141.685 281.485 131.077C266.398 127.34 249.128 124.446 228.883 122.638C208.567 120.709 183.245 120.107 160.755 119.865C138.045 119.444 111.417 120.227 94.2941 120.589C77.2415 120.83 65.5601 121.372 58.9575 121.975V121.975Z" fill="#85D1DD"/>
<path fill-rule="evenodd" clip-rule="evenodd" d="M270.612 318.42C273.296 322.639 275.106 328.305 276.051 336.563C277.067 344.76 277.212 354.404 276.489 366.64C277.505 367.785 278.807 368.027 280.697 367.364C282.366 366.461 285.776 362.845 287.007 362.783C288.023 362.845 286.284 367.184 288.243 367.665C290.053 368.087 296.73 364.773 298.761 364.896C300.575 364.775 299.414 366.099 299.997 367.005C300.43 367.667 300.285 369.475 302.099 369.415C303.768 369.294 306.452 367.97 310.153 365.919L306.744 314.926C302.824 317.457 299.707 319.085 297.093 319.808C294.408 320.471 292.306 320.23 290.782 319.085C292.161 322.942 291.074 324.811 287.805 324.69C284.468 324.448 278.736 322.579 270.612 318.42V318.42Z" fill="#85D1DD"/>
<path fill-rule="evenodd" clip-rule="evenodd" d="M254.992 368.381C257.457 367.839 259.416 367.174 260.869 366.632C262.318 365.969 262.971 365.187 263.409 364.522C262.538 367.775 262.685 369.768 263.846 370.489C264.932 371.151 268.703 369.041 270.156 369.041C271.462 368.862 270.156 370.548 271.825 370.126C273.423 369.525 277.702 366.692 279.371 366.267C280.532 365.845 278.863 367.173 280.242 366.993C281.695 366.451 286.701 363.857 288.225 363.857C289.386 363.857 287.427 366.208 288.225 366.993C288.948 367.536 291.054 368.139 292.866 367.655C294.535 367.054 296.351 365.666 298.31 363.499C298.018 366.995 298.963 368.741 300.849 369.404C302.663 370.006 305.711 368.862 309.703 366.632L314.345 431.309C306.073 434.321 298.092 436.73 289.529 438.301C280.967 439.868 272.696 440.589 263.848 440.71C260.003 427.813 257.751 416.72 256.228 407.197C254.849 397.734 255.43 390.077 255.43 383.75C255.139 377.24 254.992 372.115 254.992 368.381V368.381Z" fill="#108632"/>
<path fill-rule="evenodd" clip-rule="evenodd" d="M270.169 316.662C271.622 321.062 272.783 325.703 273.943 331.309C275.03 336.794 276.408 343.243 276.916 349.512C277.279 355.658 277.136 361.868 276.483 368.38C273.361 368.681 270.821 369.103 268.862 369.403C266.686 369.646 265.162 370.97 264.292 370.126C263.346 369.162 264.221 365.364 263.858 364.521C263.346 363.735 263.713 364.278 262.189 365.244C260.591 365.967 257.907 367.233 254.136 369.041L255.438 322.571C258.63 322.149 261.244 321.546 263.858 320.521C266.251 319.495 268.353 318.29 270.169 316.662V316.662Z" fill="#A16121"/>
<path fill-rule="evenodd" clip-rule="evenodd" d="M203.276 252.72C201.607 251.153 200.519 249.586 200.301 247.778C200.084 245.849 200.519 243.799 201.607 241.871C202.551 239.821 203.857 237.651 205.816 235.602C200.231 233.071 196.819 230.84 195.295 228.912C193.844 226.922 195.15 225.536 196.964 224.029C198.488 222.522 201.245 221.136 204.945 219.87C200.809 213.782 198.415 208.96 197.762 205.163C197.109 201.306 198.342 198.895 201.172 197.448C203.929 195.941 207.632 195.399 213.361 196.062C213.069 191.541 213.216 187.924 213.795 185.212C214.303 182.319 215.03 180.691 217.132 179.667C219.309 178.582 222.213 178.22 226.421 178.582C224.753 173.519 224.753 169.902 226.421 167.069C228.016 164.236 233.24 162.609 236.507 162.187C239.77 161.584 242.384 162.368 245.721 164.297C248.914 166.346 251.961 169.179 255.44 173.7C255.369 170.987 256.601 168.576 258.344 166.708C260.013 164.658 264.001 162.609 266.398 162.187C268.792 161.705 270.892 163.031 272.708 164.297C274.522 165.562 276.045 167.431 277.279 169.179C278.514 170.625 279.169 172.012 279.822 173.338C283.378 173.036 285.915 173.338 288.239 174.724C290.415 175.99 291.865 178.1 292.88 181.053L306.303 314.924C305.142 316.612 303.33 317.697 300.863 318.42C298.324 319.083 295.349 319.204 291.649 318.782C290.125 321.795 288.386 323.543 286.135 324.026C283.666 324.387 280.911 323.061 278.156 321.916C275.326 320.952 272.932 319.324 270.172 317.697C267.851 320.59 265.456 322.579 262.989 323.664C260.305 324.689 257.84 324.99 255.01 324.327L263.864 224.753C257.042 230.659 249.567 235.361 241.15 239.761C232.444 243.98 220.256 248.019 213.797 250.249C207.412 252.298 204.002 253.202 203.276 252.72V252.72Z" fill="#259B5E"/>
<path fill-rule="evenodd" clip-rule="evenodd" d="M114.027 162.179C110.835 165.554 108.73 168.809 107.715 172.666C106.626 176.404 106.626 180.743 107.715 184.541C108.876 188.278 109.819 191.653 114.462 194.667C118.816 197.5 129.119 200.574 134.705 201.297C140.074 201.96 144.21 200.453 147.693 198.163C151.103 195.511 153.642 191.774 155.311 186.289C157.996 185.505 159.955 184.058 161.188 182.431C162.349 180.563 162.204 177.73 162.422 175.801C162.567 173.751 162.422 172.003 161.986 170.557C163.292 167.965 163.873 165.735 163.728 163.203C163.437 160.611 162.712 157.839 160.753 155.85C158.504 153.74 156.109 152.113 151.901 150.967C147.548 149.581 141.018 147.351 135.939 148.195C130.787 148.798 125.273 153.258 121.645 155.548C118.018 157.839 115.478 160.129 114.027 162.179V162.179Z" fill="#F7F619"/>
<path fill-rule="evenodd" clip-rule="evenodd" d="M36.6104 94.0074C38.134 99.0705 39.3675 103.893 40.0205 108.715C40.6735 113.537 40.8186 118.117 40.4558 122.698C69.8408 121.071 95.4529 120.348 119.541 119.865C143.412 119.504 164.743 119.624 182.665 120.227C200.368 120.348 206.683 120.348 225.112 122.337C243.396 124.567 264.874 127.761 291.208 132.825L288.235 116.369C274.52 112.331 254.275 108.413 225.545 104.857C196.67 100.999 146.316 96.8403 117.875 94.7307C89.4328 92.6211 69.9879 92.6814 56.42 92.6211C42.8501 92.4403 36.2476 92.9827 36.6104 94.0074V94.0074Z" fill="#A16121"/>
<path fill-rule="evenodd" clip-rule="evenodd" d="M125.854 78.274C125.418 73.03 124.257 65.9778 122.081 56.6352C119.686 46.9912 115.188 30.5963 112.794 22.3386C110.327 14.2015 108.513 9.62058 107.352 8.3548L114.462 2.44784C119.541 4.13554 124.91 5.64242 130.86 6.96847C136.592 8.17398 143.63 9.5603 149.434 10.4644C155.021 11.3083 160.608 12.0919 165.396 12.5741C166.92 18.9632 169.387 27.9442 173.378 40.1801C177.296 52.2351 182.157 67.0628 188.542 84.9042C176.643 83.2165 165.832 81.8302 155.311 80.7452C144.791 79.5414 135.068 78.8784 125.854 78.274V78.274Z" fill="#A16121"/>
<path fill-rule="evenodd" clip-rule="evenodd" d="M105.683 8.41675L114.607 0.0385056C120.049 2.63034 126.942 4.55914 135.576 6.48794C144.283 8.35647 154.15 9.56198 166.049 10.7675L189.993 85.9306L186.292 85.5086L163.655 13.721C156.98 13.2388 150.015 12.2141 142.469 10.6469C134.923 9.0195 126.797 6.84959 118.38 4.13721C127.813 25.4746 134.633 41.3872 138.551 53.0203C142.324 64.3537 142.686 73.0317 142.179 72.7906C141.453 72.3084 139.712 62.9055 135.286 51.3326C130.787 39.6995 124.112 24.1486 115.26 3.95639L109.891 9.86335C116.059 28.9103 120.339 43.8585 123.532 55.4313C126.579 67.0042 128.103 74.4783 128.103 78.577L125.636 78.6975C122.951 65.7384 120.484 54.9491 118.235 45.8476C115.696 36.8063 114.172 30.5377 111.995 24.4499C109.891 18.0608 107.787 12.9374 105.683 8.41675V8.41675Z" fill="black" stroke="black" stroke-width="0.036" stroke-miterlimit="10"/>
<path fill-rule="evenodd" clip-rule="evenodd" d="M18.6165 77.1907C45.8249 76.2866 69.1877 75.8044 89.7935 75.9852C110.182 75.8646 121.718 76.166 140.873 77.6126C159.955 79.1195 177.078 81.0483 203.706 85.2675C230.334 89.306 261.68 94.791 299.404 101.723V105.58C255.206 96.3582 217.336 89.8485 183.815 85.3881C150.44 80.8675 127.295 80.1442 100.086 79.3003C72.8054 78.3962 46.6129 78.5167 20.9282 79.9031C25.5718 115.465 32.7548 158.863 42.7674 212.448C52.7801 266.033 70.919 351.322 80.4238 398.815C89.7109 446.011 95.5879 477.051 98.345 493.809C96.8939 492.302 93.9191 479.643 88.6226 454.93C83.5437 430.217 76.796 396.284 67.2912 346.615C57.3511 296.353 38.3416 202.206 30.1428 157.419C21.944 112.934 17.8083 87.8594 18.026 81.0483L5.83667 91.054C12.6569 129.751 21.5812 176.223 32.3194 233.062C43.2028 289.962 60.3984 383.567 70.1934 429.258C79.9159 474.585 86.0106 498.934 89.5658 503.696C111.405 498.574 129.399 494.295 144.128 491.1C158.711 487.785 169.74 485.553 177.213 484.167L176.487 485.674L87.5342 506.167C85.2124 505.866 81.8023 497.308 77.0137 479.345C72.0073 461.322 65.3322 429.077 59.2376 399.361C53.0703 369.525 48.064 343.424 40.5908 301.533C32.8273 259.022 20.1301 184.114 13.3824 148.364C6.48967 112.862 2.13634 93.6943 0.0322266 89.7162C3.07956 86.823 6.05434 84.2311 9.24678 82.1818C12.3687 80.1341 15.4886 78.3861 18.6085 77.1806L18.6165 77.1907Z" fill="black" stroke="black" stroke-width="0.036" stroke-miterlimit="10"/>
<path fill-rule="evenodd" clip-rule="evenodd" d="M40.2379 123.844C40.0202 120.83 39.5849 116.912 38.6416 111.427C37.771 106.002 36.465 99.3116 34.7236 91.3553C82.6828 91.1745 127.014 93.1636 169.967 97.0815C212.773 101.12 251.957 106.846 289.758 114.923C291.427 130.715 292.006 138.43 291.498 138.973C290.919 139.334 289.466 132.041 286.852 117.093C263.413 112.512 239.55 108.534 214.659 105.399C189.481 102.205 167.279 99.613 137.966 97.865C108.363 95.9965 76.2939 94.6102 39.5083 93.9472C40.4515 98.4075 40.9594 103.23 41.0319 108.172C41.177 113.175 40.8143 118.238 40.2338 123.844H40.2379Z" fill="black" stroke="black" stroke-width="0.036" stroke-miterlimit="10"/>
<path fill-rule="evenodd" clip-rule="evenodd" d="M46.9133 121.613C63.6011 120.589 118.453 118.66 147.403 118.419C175.772 118.176 193.766 118.238 217.348 120.468C240.782 122.698 279.528 130.052 287.653 131.619C295.416 133.066 281.052 130.474 265.235 128.967C249.343 127.219 222.427 122.698 193.403 121.674C163.873 120.348 115.551 122.156 91.2448 122.457C67.1563 122.698 56.7809 123.844 49.5253 123.783C42.1247 123.48 30.4432 122.518 46.9133 121.613V121.613Z" fill="black" stroke="black" stroke-width="0.036" stroke-miterlimit="10"/>
<path fill-rule="evenodd" clip-rule="evenodd" d="M116.929 150.244C112.939 149.882 110.399 151.992 109.311 156.573C108.005 161.154 107.134 171.762 110.037 177.73C112.721 183.516 120.049 189.182 126.434 191.713C132.746 194.124 141.163 194.366 147.475 192.437C153.57 190.327 161.043 185.023 162.93 180.02C164.743 174.897 163.002 169.05 157.996 162.239C160.39 167.242 161.551 171.22 161.769 174.836C161.914 178.332 161.551 180.261 158.721 183.154C155.529 185.987 149.362 190.689 143.267 191.472C136.955 192.075 127.668 190.387 122.153 187.072C116.494 183.516 112.721 176.645 110.835 171.34C108.948 165.916 110.399 159.225 111.56 155.669C112.649 152.113 114.245 150.304 116.929 150.244V150.244Z" fill="black" stroke="black" stroke-width="0.036" stroke-miterlimit="10"/>
<path fill-rule="evenodd" clip-rule="evenodd" d="M155.529 175.802C160.245 173.813 163.292 171.402 164.961 168.811C166.339 166.098 167.645 163.386 164.961 160.01C161.986 156.514 154.876 150.186 148.708 148.438C142.396 146.69 135.286 145.966 128.465 149.523C121.428 153.079 111.85 162.12 108.44 169.172C105.03 175.923 105.32 185.145 108.513 190.57C111.705 195.814 120.775 199.611 127.305 201.299C133.689 202.866 141.235 202.565 146.314 200.636C151.03 198.586 154.078 193.101 155.746 190.027C157.343 186.893 157.415 184.301 155.964 182.011C154.368 186.17 152.772 189.786 150.595 192.619C148.491 195.573 147.765 197.984 143.339 199.189C138.551 200.214 128.465 199.973 122.879 198.225C117.219 196.175 112.068 191.836 109.964 187.556C107.787 183.096 108.005 177.49 109.819 172.608C111.487 167.665 115.551 162.783 119.759 158.865C123.822 154.887 128.683 151.15 134.052 149.764C139.131 148.377 146.096 149.04 150.74 150.849C155.166 152.476 159.229 157.177 161.261 160.071C163.147 163.024 163.365 165.797 162.494 168.389C161.551 171.041 159.229 173.512 155.529 175.802V175.802Z" fill="black" stroke="black" stroke-width="0.036" stroke-miterlimit="10"/>
<path fill-rule="evenodd" clip-rule="evenodd" d="M136.81 141.384C142.106 131.8 145.299 127.4 146.677 127.942C147.911 128.605 147.33 133.849 144.646 144.578C146.677 136.321 147.185 132.041 145.879 131.499C144.428 130.896 141.671 134.271 136.81 141.384Z" fill="black" stroke="black" stroke-width="0.036" stroke-miterlimit="10"/>
<path fill-rule="evenodd" clip-rule="evenodd" d="M167.863 154.463C170.403 152.776 183.463 147.351 185.785 146.808C187.598 146.145 182.374 148.978 179.908 150.666C177.296 152.233 173.45 155.488 171.419 156.211C169.314 156.694 165.324 156.031 167.863 154.463Z" fill="black" stroke="black" stroke-width="0.036" stroke-miterlimit="10"/>
<path fill-rule="evenodd" clip-rule="evenodd" d="M171.709 174.296C174.466 175.501 183.317 181.649 185.712 183.457C187.743 185.025 186.655 185.326 184.116 184.12C181.286 182.734 171.926 177.611 169.75 175.983C167.645 174.416 168.951 172.849 171.709 174.296Z" fill="black" stroke="black" stroke-width="0.036" stroke-miterlimit="10"/>
<path fill-rule="evenodd" clip-rule="evenodd" d="M164.236 197.133C164.889 198.218 177.15 210.816 178.311 209.128C179.327 207.259 170.766 187.73 170.258 186.585C169.532 185.259 175.409 200.147 174.466 201.955C173.45 203.583 163.51 195.928 164.236 197.133V197.133Z" fill="black" stroke="black" stroke-width="0.036" stroke-miterlimit="10"/>
<path fill-rule="evenodd" clip-rule="evenodd" d="M137.1 208.468C136.954 210.035 134.415 218.594 133.109 220.885C131.73 222.874 128.683 223.055 128.756 221.427C128.683 219.86 131.658 213.652 133.182 211.603C134.488 209.252 137.1 206.961 137.1 208.468V208.468Z" fill="black" stroke="black" stroke-width="0.036" stroke-miterlimit="10"/>
<path fill-rule="evenodd" clip-rule="evenodd" d="M109.746 199.913C109.238 200.576 103.652 206.241 102.491 205.759C101.185 205.096 103.434 195.392 101.983 195.693C100.241 195.874 92.9134 207.025 92.8408 206.603C92.9134 205.759 99.3708 194.247 101.547 192.559C103.289 191.052 103.361 195.512 104.014 197.321C104.377 198.828 103.942 201.781 104.958 202.263C105.973 202.565 109.891 199.31 109.746 199.913V199.913Z" fill="black" stroke="black" stroke-width="0.036" stroke-miterlimit="10"/>
<path fill-rule="evenodd" clip-rule="evenodd" d="M100.822 158.502C92.4055 148.558 87.1815 141.866 85.4402 138.43C83.4812 134.934 86.1658 135.899 89.8661 137.827C93.4939 139.515 98.9355 143.071 106.772 148.737C100.967 145.181 96.6863 142.891 93.639 141.384C90.374 139.756 88.8503 139.093 88.7778 139.877C88.7052 140.66 92.1879 143.132 94.2194 146.326C96.251 149.461 98.3551 153.439 100.822 158.502V158.502Z" fill="black" stroke="black" stroke-width="0.036" stroke-miterlimit="10"/>
<path fill-rule="evenodd" clip-rule="evenodd" d="M58.0867 126.255C63.0205 148.677 68.5347 167.302 74.9196 183.275C81.0143 198.886 85.948 209.253 95.8882 220.645C105.828 232.218 118.671 244.936 134.705 251.386C150.74 257.353 169.75 261.391 191.444 257.474C212.995 253.556 236.065 243.851 262.329 228.12L259.789 273.929L261.313 273.748L265.596 221.55C253.626 231.073 240.997 238.547 227.72 244.213C214.079 249.999 200.078 253.797 186.002 255.364C171.636 256.509 157.633 256.328 143.992 251.808C130.427 247.22 117.076 240.171 105.613 228.049C94.0037 215.509 82.8302 196.17 75.2118 178.389C67.4484 160.543 62.4421 142.038 59.9026 121.967L57.1455 121.605C57.4357 123.112 57.726 124.679 58.0887 126.246L58.0867 126.255Z" fill="black" stroke="black" stroke-width="0.036" stroke-miterlimit="10"/>
<path fill-rule="evenodd" clip-rule="evenodd" d="M80.2163 196.413C90.3741 224.923 102.999 252.59 118.381 281.281C133.617 309.851 153.933 342.46 172.072 366.329C190.21 389.955 210.597 408.762 226.273 421.78C241.872 434.56 254.277 441.07 264.582 442.215C270.243 442.575 277.059 441.793 285.839 440.106C294.62 438.235 304.27 435.704 316.169 431.786C314.355 408.582 312.614 386.7 311.237 364.999C309.713 343.181 308.26 322.869 307.17 302.677L303.837 301.23C305.576 327.751 307.245 351.258 308.839 372.656C310.292 393.993 311.668 412.319 312.976 428.533C301.077 433.353 291.208 436.548 282.213 438.115C273.289 439.622 270.967 442.637 259.866 437.875C248.4 432.873 232.438 425.517 214.734 408.64C196.958 391.462 170.548 359.938 154.223 336.854C137.753 313.769 128.321 293.275 116.929 271.154C105.321 248.792 95.2353 226.852 85.8756 204.189C83.9892 201.597 82.1028 199.005 80.2163 196.413V196.413Z" fill="black" stroke="black" stroke-width="0.036" stroke-miterlimit="10"/>
<path fill-rule="evenodd" clip-rule="evenodd" d="M201.664 252.77C198.617 251.143 197.311 249.094 197.746 246.381C198.181 243.548 200.285 240.535 204.348 236.677C195.642 233 191.941 229.625 192.667 226.31C193.465 222.995 204.929 217.57 209.137 216.786C213.128 215.761 215.738 217.088 216.971 220.523C212.692 220.101 208.847 220.342 205.437 221.247C201.591 222.151 197.818 224.26 196.367 225.948C194.989 227.515 195.206 229.082 197.601 230.649C199.85 232.096 203.986 233.904 210.008 235.411C205.074 238.847 202.535 241.8 201.591 244.754C200.648 247.647 201.809 250.118 204.784 252.409C203.768 252.529 202.752 252.65 201.664 252.77V252.77Z" fill="black" stroke="black" stroke-width="0.036" stroke-miterlimit="10"/>
<path fill-rule="evenodd" clip-rule="evenodd" d="M202.47 214.379C199.205 211.244 197.246 208.23 196.593 205.337C195.868 202.324 194.707 198.526 198.697 196.959C202.688 195.151 215.748 193.704 220.246 195.392C224.525 197.08 225.908 200.937 224.38 206.965C223.364 202.745 221.7 199.973 218.795 198.406C215.677 196.658 210.816 197.321 207.332 197.622C203.776 197.863 199.425 198.285 198.48 200.274C197.537 202.082 200.439 206.603 201.309 208.954C201.962 211.305 202.253 213.113 202.47 214.379Z" fill="black" stroke="black" stroke-width="0.036" stroke-miterlimit="10"/>
<path fill-rule="evenodd" clip-rule="evenodd" d="M213.071 191.474C212.273 186.833 212.638 183.397 214.74 180.926C216.701 178.334 220.109 177.189 224.97 176.827C223.664 171.764 224.533 168.147 227.002 165.315C229.471 162.542 235.493 159.227 240.062 160.251C244.56 161.156 248.986 164.652 253.63 170.98C259.069 163.506 264.078 159.709 268.357 160.071C272.639 160.372 276.485 164.35 279.603 172.487C281.417 171.764 283.378 171.764 285.48 172.246C287.441 172.728 289.543 173.934 291.794 175.622V179.479C289.035 177.008 286.933 175.441 284.682 174.778C282.434 174.115 280.548 174.356 278.734 175.501C277.936 171.463 276.487 168.389 274.088 166.52C271.478 164.29 267.415 162.904 264.656 163.747C261.756 164.652 259.795 168.087 257.909 171.945C256.095 175.622 254.932 180.203 254.138 185.688C254.138 180.866 253.192 176.526 251.016 172.909C248.839 169.172 244.123 164.772 241.076 163.627C237.668 162.421 233.675 163.506 231.353 165.254C228.814 166.821 226.422 169.956 226.422 173.03C226.422 175.923 227.871 179.178 231.063 182.794C227 181.107 223.737 180.263 221.27 180.263C218.801 180.082 216.987 180.685 215.83 182.553C214.303 184.422 213.654 187.315 213.071 191.474V191.474Z" fill="black" stroke="black" stroke-width="0.036" stroke-miterlimit="10"/>
<path fill-rule="evenodd" clip-rule="evenodd" d="M256.302 199.193C253.833 196.661 253.759 194.672 255.794 192.984C257.681 191.357 266.095 188.464 268.49 189.187C270.884 189.85 270.958 192.442 269.505 196.962C272.406 195.154 274.729 194.431 277.051 194.792C279.373 194.973 282.858 196.962 282.712 198.891C282.275 200.88 279.812 203.352 275.022 206.546C278.577 203.352 280.391 200.941 280.175 199.554C279.738 197.987 276.112 197.203 273.79 197.686C271.394 198.228 269.215 199.373 266.678 202.025C267.984 197.445 267.984 194.431 266.678 192.984C265.229 191.658 260.585 191.779 258.914 193.105C257.171 194.19 256.302 196.058 256.302 199.193V199.193Z" fill="black" stroke="black" stroke-width="0.036" stroke-miterlimit="10"/>
<path fill-rule="evenodd" clip-rule="evenodd" d="M247.233 209.071C243.821 208.95 241.497 209.433 239.974 210.759C238.379 211.964 238.087 214.375 238.305 216.364C238.45 218.173 239.18 219.86 240.774 221.668C235.112 218.956 231.126 217.992 228.804 219.016C226.335 219.981 225.827 222.693 226.698 227.395C226.19 223.055 227.859 220.885 230.906 220.403C234.028 219.981 238.889 221.247 245.49 224.682C241.574 219.981 239.758 216.545 240.05 213.893C240.34 211.181 242.733 209.734 247.233 209.071V209.071Z" fill="black" stroke="black" stroke-width="0.036" stroke-miterlimit="10"/>
<path fill-rule="evenodd" clip-rule="evenodd" d="M278.371 363.978C279.169 356.986 279.242 350.235 278.297 342.821C277.355 335.408 275.396 328.235 272.712 320.399C278.805 325.04 283.525 327.331 286.86 327.271C290.053 327.271 292.159 324.86 292.596 320.279C295.859 321.484 298.544 321.544 300.938 320.701C303.26 319.796 305.146 317.988 306.599 315.035L306.237 311.9C303.26 315.637 300.43 317.446 297.746 317.988C294.99 318.229 292.376 317.205 289.912 314.251C289.619 318.531 288.896 321.243 287.443 322.629C285.774 323.775 284.466 323.051 281.273 321.846C278.081 320.459 273.802 318.35 268.433 315.035C271.406 325.101 273.439 334.323 274.526 343.183C275.612 351.923 275.687 360.002 275.034 367.653C276.124 366.449 277.21 365.242 278.371 363.978V363.978Z" fill="black" stroke="black" stroke-width="0.036" stroke-miterlimit="10"/>
<path fill-rule="evenodd" clip-rule="evenodd" d="M254.65 366.205C257.405 365.962 259.144 365.06 260.668 364.154C262.05 362.95 262.774 361.745 262.845 359.876C264.658 361.805 265.966 363.493 266.474 365.18C266.982 366.806 266.69 368.433 265.896 369.82C267.274 369.82 268.361 369.096 269.159 367.648C269.667 366.022 270.39 362.344 270.537 361.262C270.757 360.177 270.757 360.177 270.537 361.262C270.975 361.743 271.12 362.766 271.265 363.853C271.265 364.879 270.898 367.348 270.973 368.011C273.728 366.988 275.979 365.723 277.72 364.457C279.46 362.95 280.697 360.236 281.421 360.236C281.858 360.419 279.897 364.998 281.129 365.118C282.289 365.06 284.974 363.129 288.896 359.575C288.243 364.457 288.821 366.505 290.635 366.625C292.449 366.505 295.206 364.152 299.489 359.334C299.122 363.973 299.852 366.747 301.376 367.65C303.044 368.435 305.221 367.348 308.776 364.397L309.5 367.772C305.509 370.366 302.823 371.209 300.868 370.967C299.054 370.424 297.967 368.798 298.183 365.42C294.193 368.192 290.928 369.52 289.184 369.399C287.37 369.22 286.284 367.712 286.719 364.638C283.527 367.469 281.131 369.157 279.536 369.942C278.013 370.605 278.013 368.435 276.777 369.036C275.254 369.579 271.628 372.653 270.612 373.137C269.451 373.438 271.045 370.724 269.814 370.786C268.361 370.724 263.721 373.259 262.558 372.775C261.252 372.174 261.18 370.185 262.339 367.049C260.89 368.376 259.584 369.038 258.13 369.701C256.607 370.243 255.23 370.424 253.707 370.243C253.995 368.916 254.283 367.591 254.65 366.205V366.205Z" fill="black" stroke="black" stroke-width="0.036" stroke-miterlimit="10"/>
<path fill-rule="evenodd" clip-rule="evenodd" d="M256.302 329.136C255.141 341.613 255.212 356.742 256.228 374.762C257.173 392.846 259.35 413.34 262.468 436.966C259.638 430.095 257.681 420.694 256.012 408.757C254.126 396.584 253.328 378.921 252.82 365.301C252.527 351.677 252.237 342.636 253.618 327.446C254.779 311.895 256.81 294.416 259.71 273.621L261.379 273.138L256.302 329.136V329.136Z" fill="black" stroke="black" stroke-width="0.036" stroke-miterlimit="10"/>
<path fill-rule="evenodd" clip-rule="evenodd" d="M243.182 432.39C235.419 432.089 221.055 433.475 199.796 436.792C178.319 440.045 150.603 444.807 115.559 451.559C110.48 421.301 104.095 382.906 96.114 334.082C88.0603 285.138 78.7006 228.299 67.7447 160.791L66.0034 155.004C67.7448 171.7 70.9372 195.449 75.871 227.395C80.8773 259.401 88.5682 307.199 95.3159 345.413C101.918 383.449 107.941 419.128 114.471 454.089C130.65 450.652 147.048 447.34 164.824 444.383C182.673 441.189 205.528 437.755 219.674 435.947C233.605 434.138 242.311 433.537 247.175 433.896C245.867 433.417 244.565 432.933 243.182 432.39V432.39Z" fill="black" stroke="black" stroke-width="0.036" stroke-miterlimit="10"/>
<path fill-rule="evenodd" clip-rule="evenodd" d="M200.223 479.355C208.42 477.605 218.87 475.495 232.365 472.363C245.859 469.289 261.387 465.491 280.034 460.969L278.944 463.02C260.227 466.876 244.917 470.493 231.349 473.629C217.856 476.703 207.479 479.534 199.135 481.886L200.223 479.355V479.355Z" fill="black" stroke="black" stroke-width="0.036" stroke-miterlimit="10"/>
<path fill-rule="evenodd" clip-rule="evenodd" d="M297.659 456.567L347.505 445.416C344.093 409.189 340.753 380.74 337.782 357.776C334.59 335.051 331.76 319.259 329.001 309.675L326.317 308.229C330.599 331.796 334.37 354.46 337.347 377.364C340.324 400.269 342.5 422.09 344.169 444.209C335.823 445.776 327.844 447.705 320.224 449.513C312.46 451.263 305.278 453.373 298.385 455.36C298.167 455.723 297.951 456.145 297.659 456.567V456.567Z" fill="black" stroke="black" stroke-width="0.036" stroke-miterlimit="10"/>
<path fill-rule="evenodd" clip-rule="evenodd" d="M299.251 103.772C300.487 109.86 303.827 129.811 308.974 165.012C314.198 200.272 321.02 248.794 330.013 313.108L326.966 310.275C317.533 246.021 310.496 197.741 305.272 162.842C300.048 128.183 297 108.594 295.839 103.35C296.93 103.471 298.091 103.591 299.251 103.772V103.772Z" fill="black" stroke="black" stroke-width="0.036" stroke-miterlimit="10"/>
<path fill-rule="evenodd" clip-rule="evenodd" d="M281.777 135.055C284.172 138.792 287.146 154.584 290.992 182.672C294.767 211.001 299.116 250.421 304.344 303.222L307.537 304.247C302.167 248.673 298.1 209.314 294.767 184.3C291.429 159.526 290.121 163.685 288.015 155.609C285.697 147.291 283.807 140.6 281.777 135.055V135.055Z" fill="black" stroke="black" stroke-width="0.036" stroke-miterlimit="10"/>
<path fill-rule="evenodd" clip-rule="evenodd" d="M294.475 480.125C298.538 485.309 307.46 496.518 321.538 513.996C335.614 531.478 363.838 565.471 378.494 584.337C392.933 602.964 402.655 616.404 407.95 625.324L382.124 630.027L354.916 619.419C347.225 608.749 336.557 592.715 321.538 570.596C306.446 548.294 288.382 520.988 265.96 487.296L267.484 486.573C273.944 495.431 280.47 505.075 288.162 516.168C295.638 527.017 300.787 535.275 312.323 552.333C323.715 569.511 338.516 590.969 356.725 618.091L382.269 627.496L403.963 624.301C397.286 614.358 389.74 603.685 381.033 591.813C372.109 579.698 362.242 566.499 351.723 553.356C341.13 540.157 328.36 526.292 318.493 514.058C308.478 501.762 299.991 490.971 292.445 480.726C293.098 480.547 293.747 480.363 294.475 480.125Z" fill="black" stroke="black" stroke-width="0.036" stroke-miterlimit="10"/>
<path fill-rule="evenodd" clip-rule="evenodd" d="M277.505 484.83C293.683 504.781 306.745 520.573 316.683 533.594C326.623 546.491 326.26 546.011 336.853 561.439C347.154 576.93 361.014 597.424 378.716 624.788C377.484 621.897 373.714 614.845 366.309 602.971C358.983 590.976 345.489 569.096 335.33 554.268C325.099 539.442 313.783 526.481 304.713 514.667C295.352 502.914 287.082 492.788 279.607 484.049C278.952 484.287 278.228 484.53 277.505 484.83V484.83Z" fill="black" stroke="black" stroke-width="0.036" stroke-miterlimit="10"/>
<path fill-rule="evenodd" clip-rule="evenodd" d="M207.549 502.678C200.947 514.072 188.25 535.225 168.66 567.534C148.852 599.96 123.312 641.671 90.3721 694.955L108.874 707.973L126.868 704.055C147.909 658.489 167.136 619.067 186.218 583.927C205.01 548.79 222.641 519.555 239.401 494.842L235.263 495.205C227.792 505.571 216.617 523.957 201.745 551.26C186.726 578.566 158.719 632.512 146.022 658.007C133.325 683.324 126.722 697.85 125.924 702.311L110.76 705.807L93.1292 694.234C108.148 669.881 123.095 645.953 137.969 621.721C152.77 597.07 169.82 569.824 182.155 549.513C194.344 529.38 203.849 513.829 210.961 501.956C209.871 502.196 208.71 502.435 207.549 502.678Z" fill="black" stroke="black" stroke-width="0.036" stroke-miterlimit="10"/>
<path fill-rule="evenodd" clip-rule="evenodd" d="M219.964 499.848L223.373 499.728C216.554 509.973 204.002 531.372 185.428 565.788C166.636 600.146 142.475 645.654 111.857 704.179C109.97 704 111.784 698.696 116.718 688.267C121.797 677.6 131.737 659.817 141.75 641.435C151.617 622.749 165.911 596.468 175.706 578.624C185.355 560.845 191.958 548.85 199.431 535.648C206.759 522.331 213.509 510.699 219.964 499.848V499.848Z" fill="black" stroke="black" stroke-width="0.036" stroke-miterlimit="10"/>
<path fill-rule="evenodd" clip-rule="evenodd" d="M115.623 498.274C118.017 501.588 119.904 505.325 121.573 510.149C123.096 514.848 124.402 520.273 125.2 526.421C151.175 519.491 174.901 513.102 198.046 507.013C221.048 500.806 240.203 495.681 262.187 490.015C284.027 484.289 305.721 478.985 328.358 473.379L329.007 448.546L326.975 448.725L324.728 471.511C294.327 478.862 263.782 486.459 231.928 494.777C199.933 502.912 168.008 511.533 134.487 520.633C131.368 508.759 129.263 501.948 128.465 499.718C127.522 497.667 128.538 503.815 129.263 507.674C129.916 511.228 130.86 515.809 132.383 521.415L128.103 523.707C126.651 517.258 124.838 512.072 123.459 507.674C121.718 503.272 120.412 499.897 118.743 497.546C117.727 497.791 116.711 498.032 115.623 498.274V498.274Z" fill="black" stroke="black" stroke-width="0.036" stroke-miterlimit="10"/>
<path fill-rule="evenodd" clip-rule="evenodd" d="M146.895 518.4L42.2696 637.502L40.6733 655.827L52.4999 667.098L176.57 512.19L172.797 512.553L52.1371 662.578L43.4305 655.949L43.9383 638.166L149.652 517.979C148.781 518.098 147.838 518.22 146.895 518.4V518.4Z" fill="black" stroke="black" stroke-width="0.036" stroke-miterlimit="10"/>
<path fill-rule="evenodd" clip-rule="evenodd" d="M160.317 516.24L46.5503 654.995C47.2758 651.979 49.2348 648.123 52.4273 643.663C55.4021 638.898 57.5787 637.274 65.4147 627.63C73.1782 617.865 84.4968 604.844 99.661 586.279C114.898 567.536 133.254 544.932 155.819 516.844C157.27 516.662 158.794 516.483 160.317 516.24Z" fill="black" stroke="black" stroke-width="0.036" stroke-miterlimit="10"/>
<path fill-rule="evenodd" clip-rule="evenodd" d="M164.453 490.807C167.5 490.564 169.532 489.963 171.636 488.999C173.45 488.034 174.683 486.948 175.917 485.022C176.86 482.671 177.803 480.14 178.166 476.761C178.674 473.448 178.601 469.953 178.529 465.793C179.037 463.742 180.415 462.235 182.665 461.27C184.841 460.005 189.049 459.826 191.952 460.067C194.926 460.368 197.103 461.754 199.57 463.742C200.658 470.613 201.094 475.737 200.876 480.018C200.441 484.056 199.86 485.623 198.046 488.455C196.378 491.107 195.362 494.002 190.283 496.411C184.769 498.82 176.933 500.813 165.904 502.621C168.008 501.715 170.62 500.63 174.538 499.364C178.311 497.919 184.478 497.439 188.324 495.145C191.879 492.794 195.072 488.634 196.813 485.682C198.482 482.549 198.337 480.741 198.627 477.245C198.772 473.629 198.917 469.468 198.482 464.527C197.031 463.02 195.072 462.176 192.895 461.754C190.573 461.212 187.018 461.391 184.986 462.056C182.737 462.719 181.141 464.107 179.907 465.974C180.27 470.677 180.343 474.531 179.835 478.211C179.254 481.766 178.239 485.022 176.788 487.252C175.409 489.178 173.232 490.084 171.346 490.686C169.097 491.349 167.065 491.17 164.453 490.807V490.807Z" fill="black" stroke="black" stroke-width="0.036" stroke-miterlimit="10"/>
<path fill-rule="evenodd" clip-rule="evenodd" d="M179.472 469.275C180.343 470.479 181.794 471.264 184.116 471.385C186.365 471.385 190.138 470.963 192.895 470.119C195.434 469.275 197.539 467.768 199.207 466.081L199.425 468.733C197.974 470.178 196.015 471.264 193.548 471.986C190.718 472.528 186.655 473.314 184.188 473.193C181.867 473.131 180.053 472.47 179.327 471.444C179.327 470.72 179.4 469.999 179.472 469.275Z" fill="black" stroke="black" stroke-width="0.036" stroke-miterlimit="10"/>
<path fill-rule="evenodd" clip-rule="evenodd" d="M267.689 470.782C270.158 470.6 272.188 469.997 273.786 469.212C275.31 468.488 276.541 467.286 277.486 465.836C278.357 464.09 278.865 461.438 279.3 458.844C279.663 455.949 279.663 453.118 279.589 449.443C280.096 447.693 281.187 446.428 283.144 445.642C285.179 444.74 288.372 444.318 291.056 444.619C293.521 444.983 295.406 445.947 297.512 447.755C298.382 453.42 298.743 458.121 298.598 461.617C298.457 464.932 297.582 466.437 296.28 468.73C294.898 471.08 293.884 473.433 289.603 475.541C284.887 477.53 278.283 479.274 268.925 480.783C270.664 479.939 272.915 479.095 276.251 478.01C279.302 476.987 284.813 476.264 288.005 474.456C291.056 472.467 293.737 468.85 295.188 466.379C296.567 463.785 296.419 462.098 296.712 459.208C296.857 456.192 296.927 452.517 296.641 448.417C295.335 447.151 293.737 446.369 291.85 446.066C289.674 445.644 287.064 445.644 285.177 446.309C283.287 446.851 281.84 448.059 280.824 449.684C281.112 453.485 281.187 457.101 280.749 460.053C280.316 463.007 279.371 465.779 278.21 467.708C276.979 469.396 275.163 470.056 273.564 470.6C271.827 471.082 269.866 471.14 267.689 470.782V470.782Z" fill="black" stroke="black" stroke-width="0.036" stroke-miterlimit="10"/>
<path fill-rule="evenodd" clip-rule="evenodd" d="M280.467 452.465C281.195 453.55 282.428 453.972 284.458 454.215C286.272 454.274 289.682 453.852 291.859 453.189C294.035 452.407 295.633 451.263 297.228 449.755L297.447 452.043C296.286 453.189 294.618 454.094 292.441 454.757C290.19 455.358 286.419 455.78 284.458 455.78C282.426 455.722 281.05 455.238 280.324 454.335C280.326 453.731 280.397 453.13 280.467 452.465V452.465Z" fill="black" stroke="black" stroke-width="0.036" stroke-miterlimit="10"/>
</svg>
