<svg width="281" height="462" viewBox="0 0 281 462" fill="none" xmlns="http://www.w3.org/2000/svg">
<g clip-path="url(#clip0_19_63)">
<path d="M104.083 3.81309C113.441 1.21086 123.769 -1.11745 133.818 0.904074C134.586 1.23826 136.424 0.953377 136.455 1.77513C134.361 1.70392 132.392 1.16155 130.337 0.986246C121.761 0.0877919 113.023 1.74773 105.277 4.24587C115.868 4.25683 126.421 6.95768 134.346 11.9594C141.689 16.6873 148.217 22.0561 153.746 27.8906C155.289 29.4519 156.08 31.4241 158.266 32.6294C162.895 30.7229 167.594 28.5425 173.115 28.285C182.497 27.4249 191.639 30.3011 199.012 34.1852C208.17 39.0719 215.451 45.5145 221.398 52.4008C230.958 63.6096 237.27 76.2701 239.014 89.3251C240.17 99.0657 238.58 109.36 231.284 117.867C229.756 119.971 226.996 121.396 225.073 123.286C230.152 122.058 234.083 119.254 238.937 117.763C236.029 120.086 231.54 121.302 227.957 123.11C231.028 124.321 234.789 124.946 237.417 126.556C237.208 126.819 236.781 127.345 236.572 127.608C238.084 133.716 237.518 139.978 238.053 146.13C246.458 147.374 254.809 148.837 262.997 150.656C264.594 150.924 265.812 151.987 267.58 151.762C271.759 151.57 276.14 153 278.303 155.586C281.071 158.835 281.164 162.845 280.381 166.494C279.357 171.413 276.613 176.053 273.255 180.392C269.727 184.813 264.842 188.9 258.407 191.278C252.08 193.442 243.256 193.787 238.193 189.81C237.851 198.444 238.479 207.121 237.952 215.739C226.794 219.217 215.652 222.713 204.525 226.23C205.448 233.05 206.689 239.871 208.317 246.631C208.061 246.708 207.542 246.861 207.286 246.938C206.611 245.596 207.325 244.046 205.999 242.857C206.169 242.04 206.247 241.208 205.913 240.424C204.642 235.932 203.835 231.38 202.951 226.843C200.68 226.668 199.137 228.377 196.919 228.481C196.966 228.202 197.059 227.632 197.105 227.353C210.116 223.184 223.259 219.207 236.27 215.021C237.037 212.079 236.37 208.973 236.58 205.971C236.518 200.35 236.603 194.724 236.494 189.103C224.639 183.69 213.52 177.215 204.975 169.222C201.362 166.022 202.068 161.459 204.463 157.991C208.689 152.047 216.381 147.193 225.593 145.533C229.02 144.881 232.563 145.363 236.006 145.709C236.363 139.693 236.308 133.596 235.006 127.63C230.322 130.139 224.833 131.689 219.762 133.738C212.287 136.445 204.743 139.058 197.237 141.715C196.5 141.282 195.872 141.337 195.337 141.874C165.167 131.268 135.137 120.453 104.749 110.148C95.4293 107.261 86.4271 103.81 76.8977 101.301C76.2929 103.3 76.4247 105.349 76.3084 107.382C75.5252 116.701 74.6568 126.008 74.1528 135.338C72.478 150.656 71.7956 166.011 70.4232 181.345C70.493 182.107 69.9812 183.181 71.1211 183.685C102.586 195.272 134.26 206.595 165.609 218.346C175.425 221.754 185.583 224.663 195.508 227.906L195.647 228.596C195.717 228.832 195.841 229.298 195.911 229.528C189.747 227.528 183.769 225.26 177.612 223.25C176.899 223.584 175.294 223.704 175.627 224.559C177.03 231.133 178.48 237.707 179.907 244.287C180.217 245.525 180.171 246.889 181.272 247.963L180.814 248.165L180.295 248.324C181.365 249.612 181.272 251.151 181.667 252.581C192.949 305.157 204.254 357.727 215.551 410.298C219.234 427.089 222.638 443.908 226.5 460.677C231.842 459.373 236.735 457.324 241.798 455.588C240.053 443.009 237.564 430.48 235.533 417.918C226.43 364.455 217.273 310.991 208.17 257.528C207.542 254.4 207.27 251.239 206.41 248.143C207.038 247.798 207.705 247.486 208.41 247.212C208.046 248.801 208.557 250.395 208.798 251.973C219.925 317.171 231.051 382.369 242.186 447.567C242.48 450.449 243.543 453.358 243.364 456.229C237.813 458.184 232.408 460.409 226.539 461.86C226.19 461.833 225.476 461.773 225.12 461.745C207.922 382.659 191.065 303.53 174.037 224.422C171.269 224.756 168.579 225.337 165.826 225.687C165.369 273.552 164.655 321.417 163.291 369.276C163.167 370.695 163.345 372.152 162.825 373.549C157.654 373.171 152.544 372.431 147.426 371.812C146 371.747 146.403 370.476 146.287 369.824C144.627 326.533 143.604 283.232 142.348 239.937C142.138 235.795 142.317 231.637 141.851 227.512C132.438 227.331 123.033 226.339 113.992 224.455C112.379 224.143 110.766 223.776 109.115 223.66C100.376 245.76 91.1492 267.756 82.271 289.834C63.2742 336.537 44.2928 383.24 25.3193 429.949C16.9064 429.242 8.57102 427.747 0.212402 426.656C0.646616 423.879 2.2982 421.238 3.23641 418.521C31.3285 349.871 59.5834 281.255 87.5824 212.589C84.9926 208.469 85.202 203.84 84.8686 199.424C84.4576 196.203 84.9461 192.954 84.4421 189.744C79.1773 187.93 73.9745 186.013 68.7871 184.09C69.8494 165.677 71.4467 147.275 72.9665 128.879C68.888 126.825 65.5848 124.102 61.5374 122.009C58.9476 120.492 55.0861 119.396 54.5744 116.755C53.6827 111.726 57.9628 106.982 63.3285 103.947C66.6316 102.024 70.935 101.049 75.2151 101.405C75.2539 101.005 75.3469 100.2 75.3934 99.7943C78.3631 99.0383 81.2553 98.1234 84.2715 97.4386C84.1707 96.584 82.4959 96.7702 81.9376 96.1183C78.6345 94.2885 75.2849 92.4149 72.9355 89.9168C72.1989 89.0731 70.6481 88.4157 71.0513 87.2817C71.4157 87.2762 72.1368 87.2652 72.4935 87.2598C71.4312 88.2842 73.8814 89.1279 74.0365 87.7802C73.7419 87.6159 73.1448 87.2817 72.8424 87.1118L72.5555 86.6078C76.2386 84.4932 80.1388 82.5867 83.8373 80.4885C84.5352 80.1653 85.1322 79.4586 86.117 79.6558C90.9476 83.3701 95.7394 87.7857 102.788 89.4018C102.501 88.3226 101.229 87.7035 100.399 86.8763C91.1724 78.4122 84.4344 68.6333 80.3791 58.3558C76.2386 47.6237 74.6801 36.1355 78.3399 25.2226C80.8443 17.7665 86.5589 10.4145 96.1736 6.47558C98.6316 5.30868 101.609 4.9526 104.083 3.81309V3.81309ZM87.1094 13.8495C79.1463 21.8424 77.3241 32.0322 77.9754 41.5701C79.596 59.9281 90.2032 77.9465 107.959 91.4452C111.325 93.9708 115.085 96.2279 118.319 98.8465C119.133 100.846 119.52 103.043 118.869 105.092C119.195 104.988 119.846 104.78 120.172 104.676C127.716 107.606 135.369 110.4 143.069 113.129C156.591 117.867 170.052 122.716 183.8 127.131C186.242 127.761 188.669 128.874 191.352 128.72C191.6 127.592 192.065 126.173 193.911 125.871C196.547 125.526 199.113 126.348 201.711 126.578C207.999 127.531 214.838 126.748 220.242 124.25C226.414 121.472 230.64 116.985 233.362 112.263C236.308 107.064 237.564 101.46 237.782 95.8827C237.975 82.5648 232.625 69.4112 224.29 57.5505C216.73 47.4046 206.464 37.6037 191.763 32.2294C184.141 29.4957 174.859 28.4274 166.764 30.7393C163.841 31.4296 161.166 32.5253 158.274 33.2594C155.335 32.6622 154.738 30.312 153.071 28.7945C147.806 23.3545 141.735 18.3144 135.253 13.581C128.716 8.46971 118.885 6.13592 109.433 5.3799C100.337 4.62936 92.1882 8.90249 87.1094 13.8495ZM84.8298 80.7898C84.3258 81.6609 84.7833 81.9183 86.1945 81.5568C86.5744 80.7186 86.1169 80.4611 84.8298 80.7898ZM75.1065 85.9614C73.9047 86.7777 75.4942 87.5392 75.8974 88.2897C78.7818 90.5194 81.9299 92.5793 85.3183 94.4364C84.8763 95.0555 83.8063 95.554 83.9614 96.3265C85.2175 96.5018 85.3803 94.8857 86.7605 95.3897C86.3961 96.1238 85.6517 97.5536 87.5359 97.4769C87.6367 96.6333 87.6057 95.7896 87.5359 94.9514L88.288 96.0033C90.2497 95.943 91.1181 97.6303 92.9713 97.203C92.2967 97.6906 91.5756 98.1617 90.8855 98.6329C91.3585 98.7205 92.2967 98.8849 92.7619 98.9671C92.7154 98.6384 92.6147 97.9864 92.5604 97.6632C92.9946 97.6851 93.8475 97.729 94.2739 97.7509C96.6156 95.9704 98.841 94.1132 101.268 92.3875C100.965 91.0946 102.772 91.3083 103.974 91.2316C104.114 91.7246 104.385 92.7107 104.517 93.2038L103.051 92.6998C100.787 94.1406 98.841 95.8279 96.7242 97.3838C96.6389 97.6029 96.4605 98.0522 96.3752 98.2768C97.8407 98.3918 98.9883 99.23 100.555 99.0438C99.5078 99.5587 98.6161 101.454 100.609 101.273C100.415 100.468 100.795 99.7724 101.725 99.1698C102.183 99.6738 103.02 101.005 101.818 101.268L101.904 101.739C103.811 102.051 103.106 100.506 102.826 99.7614C107.533 101.224 112.72 101.838 117.652 102.884C117.396 101.728 117.318 100.539 116.682 99.4601C114.023 96.584 109.572 94.8199 106.843 92.015C106.851 92.2615 106.874 92.7546 106.882 93.0066C106.362 93.034 105.308 93.0997 104.788 93.1271C104.92 92.4423 104.951 91.7356 105.323 91.0892C103.943 91.5055 102.997 90.4701 101.935 90.0647C101.4 90.5851 101.167 91.1768 101.252 91.8452C98.3524 91.374 96.1116 89.9223 93.5761 88.9307C93.1109 88.6787 92.1882 88.1801 91.7229 87.9281C92.1106 87.2488 92.7697 86.8105 93.7002 86.6078C92.6999 85.1889 91.4826 86.8927 90.8855 87.5392C88.7765 86.0764 86.4426 84.7178 84.9151 82.899C84.4809 82.1977 83.2325 82.0005 82.3641 82.4278C79.8519 83.4906 77.7816 85.1013 75.1065 85.9614ZM86.4116 82.2251C86.0859 83.1017 86.4969 83.3701 87.6444 83.0359C88.1329 82.0608 87.722 81.7923 86.4116 82.2251ZM88.823 83.4523C87.6677 83.7755 87.5901 84.1316 88.5981 84.5206C89.738 84.0713 89.8155 83.7153 88.823 83.4523ZM89.6372 84.9972C89.0556 85.6491 90.4978 86.1203 91.1259 85.6546C92.1804 84.9041 90.2807 84.1974 89.6372 84.9972ZM94.2042 87.3529C94.1964 87.5939 94.1732 88.076 94.1577 88.3116C95.8868 89.2922 96.2357 86.449 94.2042 87.3529ZM96.5691 88.4814C96.0031 89.3306 96.3985 89.599 97.7632 89.2868C98.1974 88.3226 97.8019 88.0596 96.5691 88.4814ZM73.9977 88.7882C73.6333 89.6593 74.0675 89.977 75.3158 89.7415C75.7501 88.8594 75.3081 88.5417 73.9977 88.7882ZM99.3062 89.5004C98.1974 91.3521 101.842 89.5442 99.3062 89.5004V89.5004ZM75.6493 90.377C75.6571 90.5961 75.6803 91.0344 75.6958 91.259C77.6808 92.026 77.4559 89.0731 75.6493 90.377ZM77.8048 91.5165C77.6187 91.6753 77.2311 91.9931 77.0372 92.152C77.7351 93.8119 80.3869 90.9905 77.8048 91.5165ZM79.3711 92.8094C78.1615 93.286 79.4642 94.4748 80.5109 93.9872C82.147 93.527 80.6195 92.0205 79.3711 92.8094ZM81.6275 94.2064C81.263 95.1048 81.6817 95.4006 82.8758 95.0939C83.3488 94.1625 82.9301 93.8667 81.6275 94.2064ZM89.6294 97.1263C89.4278 97.2797 89.0246 97.592 88.8308 97.7454C88.6912 99.2629 91.8082 96.9729 89.6294 97.1263ZM84.9771 98.359C82.8216 99.0164 80.5187 99.4382 78.4794 100.238C80.3791 101.126 82.5889 101.619 84.6282 102.353C118.838 113.255 152.133 125.499 185.753 137.272C189.266 138.411 192.585 139.907 196.229 140.822C205.533 137.458 214.97 134.27 224.22 130.818C227.562 129.416 231.416 128.479 234.114 126.43C231.679 125.4 228.942 124.743 226.438 123.79C224.778 124.283 222.855 124.233 221.39 125.017C215.706 127.756 208.426 128.66 201.719 127.696C199.361 127.46 197.074 126.868 194.686 126.868C192.251 127.099 193.779 130.019 190.925 129.909C186.25 129.471 182.109 127.701 177.837 126.414C159.096 120.053 140.432 113.561 122.056 106.692C120.381 106.155 118.823 105.377 116.931 105.437C113.178 104.659 109.417 103.93 105.664 103.196C99.6473 101.783 93.3047 100.879 87.753 98.6C86.9466 98.1837 85.8766 98.0248 84.9771 98.359V98.359ZM94.0801 98.8082C93.5916 99.7669 94.0103 100.079 95.3284 99.745C95.6231 98.852 95.2044 98.5398 94.0801 98.8082ZM97.2514 99.2026C96.2822 99.2574 96.0108 100.605 97.0343 100.698C98.2982 100.775 98.8642 99.0054 97.2514 99.2026ZM104.742 101.515C103.726 103.18 107.541 101.454 104.742 101.515V101.515ZM107.479 102.002C106.975 102.955 107.339 103.268 108.572 102.928C109.037 101.969 108.665 101.657 107.479 102.002ZM63.9953 104.949C59.3663 107.711 55.6134 111.77 56.0399 116.202C56.0476 117.911 58.1954 118.974 59.9788 119.862C64.6389 122.064 68.5856 124.913 72.7804 127.526C73.0905 127.016 73.2766 126.496 73.3386 125.954C73.8039 118.163 74.649 110.389 75.1298 102.599C71.1521 102.139 67.0348 103.12 63.9953 104.949V104.949ZM110.231 102.495C109.751 103.487 110.13 103.794 111.387 103.405C111.782 102.495 111.394 102.188 110.231 102.495ZM113.348 103.191L112.984 103.563C113.527 104.917 115.411 102.769 113.348 103.191ZM115.961 103.673C115.496 104.533 115.892 104.834 117.163 104.577C117.59 103.607 117.186 103.306 115.961 103.673ZM213.233 151.62C208.24 154.901 203.843 159.355 204.045 164.368C204.021 166.97 206.611 168.964 208.798 170.865C215.024 176.152 222.421 180.699 230.245 184.775C232.385 185.734 234.331 187.076 236.75 187.629C234.634 183.066 235.843 178.152 237.549 173.626C240.053 167.036 244.923 160.791 252.211 156.244C255.491 154.43 259.035 152.337 263.385 152.195C262.648 151.614 261.539 151.499 260.57 151.258C251.653 149.412 242.628 147.818 233.501 146.596C226.027 145.385 218.637 148.174 213.233 151.62V151.62ZM261.516 152.962C252.785 154.874 246.706 160.265 242.488 165.727C238.937 170.915 236.518 176.623 236.564 182.419C236.595 185.756 238.278 189.612 242.946 191.064C248.319 192.593 254.638 191.984 259.585 189.941C266.052 187.207 270.51 182.671 273.79 177.982C277.248 173.09 279.737 167.693 279.489 162.171C279.327 159.18 278.039 155.926 274.527 154.041C270.852 152.053 265.773 152.102 261.516 152.962V152.962ZM87.7452 191.102C87.1947 192.193 86.8691 193.354 86.9156 194.521C87.722 198.038 89.9628 201.479 93.7932 203.867C102.028 209.335 113.294 211.575 124.064 213.252C133.26 214.791 142.759 214.681 152.148 214.594C130.725 206.705 109.301 198.8 87.7452 191.102V191.102ZM89.8077 213.235C94.6694 216.517 100.454 219.07 106.292 221.403C109.316 222.713 112.868 223.047 116.21 223.759C124.615 225.419 133.338 226.17 142.037 226.465C149.194 226.208 156.429 226.082 163.446 224.91C167.323 224.077 171.696 224.126 175.239 222.669C169.602 221.097 164.244 219.086 158.886 217.097C157.716 216.719 156.599 216.013 155.242 216.15C146.186 216.873 137.044 216.095 128.127 214.928C117.628 213.575 107.06 211.63 97.833 207.718C92.5449 205.494 88.4198 201.972 86.5201 197.824C86.4969 202.991 86.2487 208.557 89.8077 213.235V213.235ZM88.7377 214.249C86.1169 220.258 83.597 226.296 80.9762 232.311C79.1385 236.88 76.7813 241.367 75.3624 246.001C83.0076 246.631 90.715 247.19 98.4223 247.459C101.438 239.362 104.796 231.319 107.673 223.195C103.299 221.338 98.6704 219.765 94.5841 217.596C92.5061 216.588 90.8002 215.257 88.7377 214.249ZM154.358 226.871C151.063 227.09 147.721 226.915 144.503 227.556C144.395 227.775 144.17 228.213 144.061 228.432C144.263 231.911 143.402 235.505 144.658 238.901C144.86 245.815 144.526 252.751 145.015 259.648C151.21 260.042 157.468 260.02 163.686 260.212C163.95 252.723 163.802 245.229 163.903 237.74C163.702 233.795 164.345 229.802 163.609 225.901C160.538 226.312 157.437 226.52 154.358 226.871ZM75.4399 246.62C69.2369 261.149 63.4293 275.771 57.4201 290.349C38.8574 335.403 20.5352 380.512 1.91049 425.555C4.25214 426.355 6.95046 426.382 9.4627 426.832C14.3786 427.401 19.2868 428.426 24.2182 428.656C47.7743 370.662 71.3769 312.673 94.933 254.674C95.6386 252.433 97.1971 250.231 97.2747 247.963C89.9938 247.524 82.7363 246.933 75.4399 246.62V246.62ZM144.48 260.223C145.015 284.131 145.891 308.033 146.527 331.935C147.015 344.886 147.124 357.859 148.031 370.793C152.552 371.243 157.049 372.059 161.6 372.229C162.019 364.477 162.073 356.714 162.321 348.956C162.872 319.543 163.578 290.13 163.849 260.711C157.406 260.524 150.916 260.163 144.48 260.223Z" fill="black" stroke="black" stroke-width="1.31935"/>
<path d="M105.277 4.2459C113.023 1.74775 121.761 0.0878148 130.337 0.986269C132.392 1.16158 134.361 1.70394 136.455 1.77516C136.757 1.78064 137.37 1.79159 137.672 1.79159L138.044 2.06003C139.75 3.23788 142.053 3.9172 144.317 4.40477C144.496 4.45408 144.845 4.56365 145.023 4.61844C145.457 5.10054 146 5.51688 146.651 5.87297C156.359 10.7597 163.578 17.6515 169.975 24.6529C171.169 25.7978 171.975 27.9728 174.573 27.5947C180.745 26.3621 186.568 23.9626 193.166 23.9571C196.911 23.7435 200.401 24.8063 204.006 25.2774C204.285 25.2884 204.836 25.3048 205.107 25.3158L205.425 25.5897C207.193 27.0743 209.953 27.8851 212.504 28.5316C212.706 28.5809 213.117 28.6904 213.319 28.7452C214.365 30.2627 216.614 31.2269 218.793 31.8022C219.018 31.8953 219.46 32.0815 219.677 32.1747C219.793 33.2156 221.15 33.7141 222.104 34.3715C223.678 35.3193 224.802 36.656 226.733 37.297L227.182 37.4777L227.283 37.9379C227.299 38.9076 228.299 39.7951 229.687 39.9595L230.23 40.1019L230.416 40.5128C230.796 41.718 232.052 42.622 232.982 43.63C244.706 55.6276 251.227 69.8988 253.351 84.3398C252.816 86.3504 253.336 88.361 253.049 90.388C253.538 91.8452 253.925 93.3682 253.359 94.8583C252.01 100.906 250.335 107.152 245.326 112.296C243.915 113.94 241.806 115.21 240.379 116.832C240.255 117.002 240.015 117.353 239.891 117.522C239.65 117.583 239.178 117.703 238.937 117.763C234.083 119.254 230.152 122.058 225.073 123.286C226.996 121.396 229.757 119.971 231.284 117.868C238.58 109.36 240.17 99.0657 239.015 89.3251C237.27 76.2702 230.958 63.6096 221.398 52.4009C215.451 45.5145 208.17 39.072 199.013 34.1853C191.639 30.3011 182.497 27.4249 173.115 28.285C167.594 28.5425 162.895 30.7229 158.266 32.6294C156.08 31.4241 155.289 29.4519 153.746 27.8906C148.217 22.0561 141.689 16.6873 134.346 11.9595C126.422 6.9577 115.869 4.25685 105.277 4.2459V4.2459Z" fill="#424242" stroke="#424242" stroke-width="1.31935"/>
<path opacity="0.83" d="M138.044 2.06001C139.587 1.96688 140.844 2.76125 142.193 3.17213C142.844 3.583 144.395 3.59944 144.317 4.40476C142.053 3.91719 139.75 3.23787 138.044 2.06001Z" fill="#090909" stroke="#090909" stroke-width="1.31935"/>
<path d="M145.022 4.61841C148.675 5.736 151.505 7.94925 154.536 9.75711C161.6 14.7753 167.431 20.566 172.649 26.5812C173.611 27.7262 175.673 26.7291 177.022 26.499C184.265 24.3351 192.352 22.3464 200.23 24.0393C201.4 24.472 203.432 24.3241 204.006 25.2774C200.4 24.8062 196.911 23.7434 193.166 23.9571C186.567 23.9626 180.744 26.3621 174.572 27.5947C171.975 27.9727 171.168 25.7978 169.974 24.6528C163.577 17.6515 156.359 10.7597 146.651 5.87295C145.999 5.51685 145.457 5.10051 145.022 4.61841V4.61841Z" fill="black" stroke="black" stroke-width="1.31935"/>
<path d="M87.1093 13.8495C92.188 8.90251 100.337 4.62938 109.432 5.37992C118.884 6.13594 128.716 8.46973 135.253 13.5811C141.735 18.3144 147.806 23.3545 153.071 28.7945C154.738 30.312 155.335 32.6623 158.274 33.2594C161.166 32.5253 163.841 31.4296 166.764 30.7393C174.859 28.4275 184.141 29.4958 191.763 32.2295C206.464 37.6038 216.73 47.4046 224.29 57.5505C232.625 69.4112 237.975 82.5648 237.781 95.8828C237.564 101.46 236.308 107.064 233.362 112.263C230.64 116.985 226.414 121.472 220.242 124.25C214.838 126.748 207.999 127.531 201.711 126.578C199.113 126.348 196.547 125.526 193.91 125.871C192.065 126.173 191.6 127.592 191.352 128.72C188.669 128.874 186.242 127.761 183.799 127.131C170.052 122.716 156.591 117.867 143.069 113.129C135.369 110.4 127.716 107.606 120.172 104.676C119.846 104.78 119.195 104.988 118.869 105.092C119.52 103.043 119.133 100.846 118.318 98.8466C115.085 96.2279 111.324 93.9708 107.959 91.4453C90.2031 77.9465 79.5958 59.9281 77.9753 41.5701C77.324 32.0322 79.1461 21.8424 87.1093 13.8495V13.8495ZM108.913 36.2561C105.114 37.2257 102.485 39.691 101.229 42.3152L101.089 42.3809C99.1432 46.4842 99.4224 50.8614 100.268 55.0907C100.872 57.1177 101.454 59.1776 102.632 61.0841C103.323 62.4153 104.214 63.6808 104.974 64.9957L105.083 65.0121C108.556 69.9207 114.124 74.5719 121.916 76.0127C122.25 76.0291 122.924 76.062 123.258 76.0784C123.893 76.0729 125.157 76.0565 125.785 76.051L126.561 76.2318L126.933 75.9469C131.322 75.2238 134.307 72.4353 135.695 69.5482C137.827 65.4011 137.346 60.9197 136.493 56.6356C135.757 54.8004 135.206 52.9323 134.09 51.1847C131.539 46.9115 128.166 42.737 123.11 39.6965L123.172 39.5541C119.257 37.2312 114.155 35.3521 108.913 36.2561V36.2561ZM173.006 60.9636C167.943 64.5409 167.237 69.9974 167.656 74.7965C168.059 77.9301 169.075 81.1678 170.905 84.0768C174.123 89.9661 179.643 95.817 188.01 98.4905C188.793 98.7041 189.568 98.9835 190.421 99.1095C192.802 99.2684 195.399 99.2629 197.531 98.3754C200.85 97.1702 202.641 94.6994 203.944 92.3437C204.246 91.637 204.51 90.9248 204.758 90.2126C205.898 85.3971 205.091 80.4666 203.184 75.799C202.92 75.2512 202.633 74.7143 202.37 74.1829C200.121 70.3535 197.097 66.7049 192.949 63.7575L192.964 63.648C192.08 63.0508 191.243 62.4153 190.235 61.9387C188.173 60.8978 186.048 59.9062 183.637 59.3255L183.567 59.2434C179.899 58.5914 175.751 59.0023 173.006 60.9636V60.9636Z" fill="#EFEFEF" stroke="#EFEFEF" stroke-width="1.31935"/>
<path opacity="0.86" d="M205.425 25.5897C207.286 25.7321 208.774 26.6634 210.403 27.2551C211.031 27.6933 212.543 27.7536 212.504 28.5315C209.953 27.8851 207.193 27.0743 205.425 25.5897Z" fill="#0C0C0C" stroke="#0C0C0C" stroke-width="1.31935"/>
<path opacity="0.88" d="M213.318 28.7452C215.334 29.4903 217.552 30.449 218.793 31.8021C216.614 31.2269 214.365 30.2627 213.318 28.7452Z" fill="#0D0D0D" stroke="#0D0D0D" stroke-width="1.31935"/>
<path opacity="0.75" d="M219.676 32.1747C222.313 33.6045 225.096 35.2809 226.732 37.297C224.802 36.656 223.677 35.3193 222.103 34.3715C221.149 33.7141 219.793 33.2156 219.676 32.1747V32.1747Z" fill="#060606" stroke="#060606" stroke-width="1.31935"/>
<path d="M108.913 36.2561C114.155 35.3521 119.257 37.2312 123.172 39.554L123.11 39.6965L122.94 40.1621C126.336 42.6438 129.43 45.383 131.484 48.5441C132.213 49.4809 132.531 50.7354 134.09 51.1847C135.206 52.9323 135.757 54.8004 136.493 56.6356C135.447 57.934 136.245 59.446 136.276 60.843C136.734 65.2805 135.865 70.1946 131.376 73.5638C130.143 74.5938 127.995 74.8019 126.933 75.9469L126.561 76.2318L125.785 76.051C125.219 75.3662 123.684 75.2566 123.258 76.0784C122.924 76.062 122.25 76.0291 121.916 76.0127C122.033 75.8483 122.257 75.5141 122.374 75.3498C115.45 74.5061 110.379 70.4466 106.998 66.3598C106.416 65.8831 106.191 64.9244 105.083 65.0121L104.974 64.9956C105.765 63.6973 104.238 61.8291 102.632 61.0841C101.454 59.1776 100.872 57.1177 100.268 55.0907C101.314 53.2445 100.283 51.2559 100.461 49.3439C100.275 47.1526 101.027 45.0269 101.524 42.8904L101.089 42.3809L101.229 42.3152C103.005 41.5537 103.447 39.9321 104.873 38.9076C105.951 37.8174 108.06 37.4832 108.913 36.2561V36.2561Z" fill="#424242" stroke="#424242" stroke-width="1.31935"/>
<path d="M101.229 42.3152C102.485 39.691 105.114 37.2257 108.913 36.2561C108.06 37.4832 105.951 37.8174 104.873 38.9076C103.447 39.9321 103.005 41.5537 101.229 42.3152V42.3152Z" fill="black" stroke="black" stroke-width="1.31935"/>
<path opacity="0.87" d="M227.283 37.9379C228.376 37.8119 229.958 39.2199 229.686 39.9594C228.299 39.7951 227.298 38.9076 227.283 37.9379Z" fill="#0A0A0A" stroke="#0A0A0A" stroke-width="1.31935"/>
<path d="M122.94 40.1622L123.111 39.6965C128.166 42.737 131.539 46.9115 134.09 51.1847C132.531 50.7354 132.213 49.4809 131.485 48.5441C129.43 45.3831 126.336 42.6439 122.94 40.1622V40.1622Z" fill="black" stroke="black" stroke-width="1.31935"/>
<path d="M230.416 40.5128C231.33 40.7045 231.679 41.4222 232.276 41.9043C245.768 55.3044 253.491 71.6683 254.204 88.0542C252.754 87.3803 253.941 85.4738 253.351 84.3398C251.227 69.8988 244.706 55.6276 232.982 43.63C232.052 42.6219 230.795 41.718 230.416 40.5128V40.5128Z" fill="black" stroke="black" stroke-width="1.31935"/>
<path d="M101.089 42.3809L101.524 42.8904C101.027 45.0269 100.275 47.1526 100.461 49.3439C100.283 51.2559 101.314 53.2445 100.267 55.0907C99.4223 50.8614 99.1432 46.4842 101.089 42.3809V42.3809Z" fill="black" stroke="black" stroke-width="1.31935"/>
<path d="M136.276 60.843C136.245 59.446 135.447 57.934 136.494 56.6356C137.346 60.9197 137.827 65.401 135.695 69.5482C134.307 72.4353 131.322 75.2238 126.933 75.9469C127.995 74.8019 130.143 74.5937 131.376 73.5638C135.866 70.1946 136.734 65.2805 136.276 60.843V60.843Z" fill="black" stroke="black" stroke-width="1.31935"/>
<path d="M173.006 60.9635C175.751 59.0023 179.9 58.5914 183.567 59.2433C181.908 60.1254 179.551 59.1447 177.666 59.7035C172.045 60.8868 169.44 65.1929 168.672 68.9729C167.966 70.8904 168.858 72.9612 167.656 74.7964C167.238 69.9974 167.943 64.5409 173.006 60.9635V60.9635Z" fill="black" stroke="black" stroke-width="1.31935"/>
<path d="M183.567 59.2433L183.637 59.3255C185.149 60.8376 188.01 61.3251 190.065 62.4537L190.235 61.9387C191.243 62.4153 192.081 63.0508 192.965 63.648L192.949 63.7575C192.926 63.9219 192.879 64.2561 192.856 64.4204C195.531 66.6063 198.051 68.9291 199.78 71.5642C200.478 72.5065 200.85 73.7117 202.37 74.1829C202.634 74.7143 202.921 75.2512 203.184 75.799C202.106 76.5002 203.114 77.5247 203.238 78.3574C204.843 82.0279 204.371 85.9066 204.262 89.6757L204.758 90.2126C204.51 90.9248 204.246 91.637 203.944 92.3437C201.711 93.2476 201.579 95.428 199.625 96.5895C197.338 98.5398 193.562 98.4576 190.421 99.1095C189.569 98.9835 188.793 98.7041 188.01 98.4905C187.661 97.9974 187.149 97.6249 186.475 97.3729C179.605 94.5296 175.061 89.61 171.913 84.5809C171.657 84.4549 171.161 84.2028 170.905 84.0768C169.075 81.1678 168.059 77.9301 167.656 74.7965C168.858 72.9612 167.966 70.8904 168.672 68.973C169.44 65.1929 172.045 60.8869 177.666 59.7035C179.551 59.1447 181.908 60.1254 183.567 59.2433V59.2433Z" fill="#424242" stroke="#424242" stroke-width="1.31935"/>
<path d="M183.637 59.3255C186.048 59.9062 188.173 60.8978 190.235 61.9387L190.065 62.4537C188.01 61.3251 185.149 60.8375 183.637 59.3255Z" fill="black" stroke="black" stroke-width="1.31935"/>
<path d="M102.633 61.0841C104.238 61.8291 105.765 63.6973 104.974 64.9957C104.215 63.6809 103.323 62.4153 102.633 61.0841Z" fill="black" stroke="black" stroke-width="1.31935"/>
<path d="M192.856 64.4204C192.879 64.256 192.926 63.9219 192.949 63.7575C197.097 66.7049 200.121 70.3535 202.37 74.1829C200.85 73.7117 200.478 72.5065 199.78 71.5642C198.051 68.9291 195.531 66.6063 192.856 64.4204V64.4204Z" fill="black" stroke="black" stroke-width="1.31935"/>
<path d="M105.083 65.0121C106.191 64.9244 106.416 65.8832 106.998 66.3598C110.378 70.4466 115.449 74.5061 122.374 75.3498C122.257 75.5142 122.032 75.8483 121.916 76.0127C114.123 74.5719 108.556 69.9207 105.083 65.0121Z" fill="black" stroke="black" stroke-width="1.31935"/>
<path d="M123.258 76.0784C123.684 75.2566 125.22 75.3662 125.786 76.051C125.158 76.0565 123.894 76.0729 123.258 76.0784Z" fill="#0D0D0D" stroke="#0D0D0D" stroke-width="1.31935"/>
<path d="M203.238 78.3574C203.114 77.5247 202.106 76.5002 203.184 75.799C205.092 80.4666 205.898 85.3971 204.758 90.2126L204.262 89.6757C204.37 85.9066 204.843 82.0279 203.238 78.3574V78.3574Z" fill="black" stroke="black" stroke-width="1.31935"/>
<path d="M84.8296 80.7898C86.1168 80.4611 86.5743 80.7186 86.1943 81.5568C84.7831 81.9183 84.3256 81.6609 84.8296 80.7898Z" fill="#909090" stroke="#909090" stroke-width="1.31935"/>
<path d="M75.1065 85.9614C77.7815 85.1013 79.8518 83.4907 82.364 82.4279C83.2325 82.0005 84.4808 82.1978 84.915 82.899C86.4425 84.7178 88.7764 86.0764 90.8855 87.5392C91.4825 86.8927 92.6999 85.1889 93.7001 86.6078C92.7696 86.8105 92.1106 87.2488 91.7229 87.9281C92.1881 88.1801 93.1108 88.6787 93.5761 88.9307C96.1116 89.9223 98.3524 91.374 101.252 91.8452C101.167 91.1768 101.4 90.5852 101.935 90.0647C102.997 90.4701 103.943 91.5055 105.323 91.0892C104.951 91.7356 104.92 92.4423 104.788 93.1271L104.47 93.3901L105.253 94.0858C105.199 95.9868 105.052 97.8878 104.904 99.7888C104.385 99.7834 103.346 99.7724 102.826 99.7614C103.105 100.506 103.811 102.051 101.904 101.739L101.818 101.268C103.02 101.005 102.183 99.6738 101.725 99.1698C100.795 99.7724 100.415 100.468 100.609 101.273C98.616 101.454 99.5077 99.5587 100.554 99.0438C98.9882 99.23 97.8406 98.3918 96.3752 98.2768C96.4605 98.0522 96.6388 97.603 96.7241 97.3838C98.8409 95.828 100.787 94.1406 103.051 92.6998L104.517 93.2038C104.385 92.7108 104.113 91.7247 103.974 91.2316C102.772 91.3083 100.965 91.0946 101.268 92.3875C98.8409 94.1132 96.6155 95.9704 94.2739 97.7509C93.8474 97.729 92.9945 97.6851 92.5603 97.6632C92.6146 97.9864 92.7153 98.6384 92.7619 98.9671C92.2966 98.8849 91.3584 98.7205 90.8855 98.6329C91.5755 98.1618 92.2967 97.6906 92.9712 97.203C91.1181 97.6304 90.2497 95.943 88.288 96.0033L87.5358 94.9514C87.6056 95.7896 87.6366 96.6333 87.5358 97.477C85.6516 97.5537 86.396 96.1238 86.7604 95.3897C85.3802 94.8857 85.2174 96.5018 83.9613 96.3265C83.8062 95.554 84.8763 95.0555 85.3182 94.4365C81.9298 92.5793 78.7817 90.5194 75.8973 88.2897C75.4941 87.5392 73.9046 86.7777 75.1065 85.9614V85.9614Z" fill="#EBEBEB" stroke="#EBEBEB" stroke-width="1.31935"/>
<path d="M86.4117 82.2251C87.7221 81.7923 88.1331 82.0608 87.6446 83.0359C86.497 83.3701 86.086 83.1017 86.4117 82.2251Z" fill="#D6D6D6" stroke="#D6D6D6" stroke-width="1.31935"/>
<path d="M88.8232 83.4523C89.8156 83.7153 89.7381 84.0714 88.5983 84.5206C87.5903 84.1316 87.6678 83.7755 88.8232 83.4523Z" fill="#A3A3A3" stroke="#A3A3A3" stroke-width="1.31935"/>
<path d="M170.905 84.0768C171.161 84.2028 171.657 84.4549 171.913 84.5809C175.061 89.61 179.605 94.5296 186.474 97.3729C187.149 97.6249 187.661 97.9974 188.01 98.4905C179.643 95.817 174.123 89.9661 170.905 84.0768V84.0768Z" fill="black" stroke="black" stroke-width="1.31935"/>
<path d="M89.6373 84.9972C90.2809 84.1974 92.1806 84.9041 91.126 85.6546C90.498 86.1203 89.0558 85.6492 89.6373 84.9972Z" fill="#CBCBCB" stroke="#CBCBCB" stroke-width="1.31935"/>
<path d="M72.4937 87.2598L72.8426 87.1118C73.145 87.2817 73.742 87.6159 74.0367 87.7802C73.8816 89.1279 71.4314 88.2842 72.4937 87.2598V87.2598Z" fill="#CBCBCB" stroke="#CBCBCB" stroke-width="1.31935"/>
<path d="M94.2042 87.3529C96.2357 86.449 95.8868 89.2922 94.1577 88.3116C94.1732 88.076 94.1965 87.594 94.2042 87.3529Z" fill="#EFEFEF" stroke="#EFEFEF" stroke-width="1.31935"/>
<path d="M96.5691 88.4815C97.8019 88.0596 98.1973 88.3226 97.7631 89.2868C96.3985 89.5991 96.003 89.3306 96.5691 88.4815Z" fill="#959595" stroke="#959595" stroke-width="1.31935"/>
<path d="M73.9976 88.7882C75.308 88.5417 75.7499 88.8595 75.3157 89.7415C74.0673 89.977 73.6332 89.6593 73.9976 88.7882Z" fill="#949494" stroke="#949494" stroke-width="1.31935"/>
<path d="M253.863 88.8978H254.204C254.608 92.3766 253.809 95.9156 253.065 99.3725C251.374 105.985 247.668 112.751 240.302 117.237L240.379 116.832C241.806 115.21 243.915 113.939 245.326 112.296C250.335 107.152 252.01 100.906 253.359 94.8583C254.685 92.9573 252.623 90.8043 253.863 88.8978V88.8978Z" fill="black" stroke="black" stroke-width="1.31935"/>
<path d="M99.3061 89.5004C101.842 89.5443 98.1973 91.3521 99.3061 89.5004V89.5004Z" fill="#CCCCCC" stroke="#CCCCCC" stroke-width="1.31935"/>
<path d="M75.6494 90.377C77.456 89.0731 77.6809 92.0259 75.6959 91.259C75.6804 91.0344 75.6572 90.5961 75.6494 90.377Z" fill="#D6D6D6" stroke="#D6D6D6" stroke-width="1.31935"/>
<path d="M77.8047 91.5165C80.3867 90.9905 77.7349 93.8119 77.0371 92.152C77.231 91.9931 77.6186 91.6753 77.8047 91.5165Z" fill="#8E8E8E" stroke="#8E8E8E" stroke-width="1.31935"/>
<path d="M106.881 93.0066C106.874 92.7546 106.85 92.2615 106.843 92.015C109.572 94.8199 114.023 96.584 116.682 99.4601C117.318 100.539 117.396 101.728 117.651 102.884C112.72 101.838 107.533 101.224 102.826 99.7614C103.346 99.7724 104.385 99.7834 104.904 99.7888C105.052 97.8878 105.199 95.9868 105.253 94.0858L104.47 93.3901L104.788 93.1271C105.307 93.0997 106.362 93.034 106.881 93.0066V93.0066Z" fill="#868686" stroke="#868686" stroke-width="1.31935"/>
<path d="M79.3714 92.8094C80.6197 92.0205 82.1472 93.527 80.5112 93.9872C79.4644 94.4748 78.1618 93.286 79.3714 92.8094Z" fill="#CBCBCB" stroke="#CBCBCB" stroke-width="1.31935"/>
<path d="M199.625 96.5895C201.579 95.428 201.711 93.2477 203.944 92.3437C202.641 94.6994 200.85 97.1702 197.532 98.3754C195.399 99.2629 192.802 99.2684 190.421 99.1095C193.562 98.4576 197.338 98.5398 199.625 96.5895V96.5895Z" fill="black" stroke="black" stroke-width="1.31935"/>
<path d="M81.6273 94.2064C82.9299 93.8667 83.3486 94.1625 82.8757 95.0939C81.6816 95.4007 81.2629 95.1048 81.6273 94.2064Z" fill="#9A9A9A" stroke="#9A9A9A" stroke-width="1.31935"/>
<path d="M89.6294 97.1263C91.8082 96.9729 88.6912 99.2629 88.8307 97.7454C89.0246 97.592 89.4278 97.2797 89.6294 97.1263Z" fill="#D6D6D6" stroke="#D6D6D6" stroke-width="1.31935"/>
<path d="M84.9772 98.359C85.8766 98.0248 86.9467 98.1837 87.7531 98.6C93.3048 100.879 99.6474 101.783 105.664 103.196C109.417 103.93 113.178 104.659 116.931 105.437C118.823 105.377 120.381 106.155 122.056 106.692C140.432 113.561 159.096 120.053 177.837 126.414C182.109 127.701 186.25 129.471 190.925 129.909C193.779 130.019 192.251 127.099 194.686 126.868C197.074 126.868 199.361 127.46 201.719 127.696C208.426 128.66 215.706 127.756 221.39 125.017C222.856 124.233 224.778 124.283 226.438 123.79C228.942 124.743 231.679 125.4 234.114 126.43C231.416 128.479 227.562 129.416 224.22 130.818C214.97 134.27 205.534 137.458 196.229 140.822C192.585 139.907 189.266 138.411 185.754 137.272C152.133 125.499 118.838 113.255 84.6283 102.353C82.589 101.619 80.3792 101.126 78.4795 100.238C80.5187 99.4382 82.8216 99.0164 84.9772 98.359V98.359Z" fill="#9A9C97" stroke="#9A9C97" stroke-width="1.31935"/>
<path d="M94.0802 98.8082C95.2045 98.5398 95.6232 98.852 95.3286 99.745C94.0104 100.079 93.5918 99.7669 94.0802 98.8082Z" fill="#989898" stroke="#989898" stroke-width="1.31935"/>
<path d="M97.2512 99.2026C98.864 99.0054 98.298 100.775 97.0341 100.698C96.0106 100.605 96.282 99.2574 97.2512 99.2026Z" fill="#EFEFEF" stroke="#EFEFEF" stroke-width="1.31935"/>
<path d="M76.8977 101.301C86.4272 103.81 95.4293 107.261 104.749 110.148C135.137 120.453 165.167 131.268 195.337 141.874C195.733 154.847 195.392 167.836 195.508 180.814C195.492 196.515 195.508 212.211 195.508 227.906C185.583 224.663 175.425 221.754 165.609 218.346C134.26 206.595 102.586 195.271 71.1211 183.685C69.9813 183.181 70.493 182.107 70.4233 181.345C71.7957 166.011 72.478 150.656 74.1528 135.338C74.6568 126.008 75.5253 116.701 76.3084 107.382C76.4247 105.349 76.2929 103.3 76.8977 101.301V101.301Z" fill="#303030" stroke="#303030" stroke-width="1.31935"/>
<path d="M104.742 101.515C107.541 101.454 103.726 103.18 104.742 101.515V101.515Z" fill="#8A8A8A" stroke="#8A8A8A" stroke-width="1.31935"/>
<path d="M107.479 102.002C108.665 101.657 109.037 101.969 108.572 102.928C107.339 103.268 106.975 102.955 107.479 102.002Z" fill="#757575" stroke="#757575" stroke-width="1.31935"/>
<path d="M63.9953 104.949C67.0348 103.12 71.1521 102.139 75.1298 102.599C74.6491 110.389 73.8039 118.163 73.3387 125.954C73.2767 126.496 73.0906 127.016 72.7804 127.526C68.5856 124.913 64.6389 122.064 59.9789 119.862C58.1955 118.974 56.0477 117.911 56.0399 116.202C55.6135 111.77 59.3663 107.711 63.9953 104.949V104.949Z" fill="#424242" stroke="#424242" stroke-width="1.31935"/>
<path d="M110.231 102.495C111.394 102.188 111.782 102.495 111.387 103.405C110.131 103.793 109.751 103.487 110.231 102.495Z" fill="#707070" stroke="#707070" stroke-width="1.31935"/>
<path d="M113.348 103.191C115.411 102.769 113.527 104.917 112.984 103.563L113.348 103.191Z" fill="#818181" stroke="#818181" stroke-width="1.31935"/>
<path d="M115.961 103.673C117.186 103.306 117.59 103.607 117.163 104.577C115.891 104.834 115.496 104.533 115.961 103.673Z" fill="#717171" stroke="#717171" stroke-width="1.31935"/>
<path d="M219.762 133.738C224.833 131.689 230.323 130.139 235.006 127.63C236.309 133.596 236.363 139.693 236.006 145.709C232.563 145.363 229.02 144.881 225.593 145.533C216.381 147.193 208.689 152.047 204.464 157.991C202.068 161.459 201.362 166.022 204.975 169.222C213.52 177.215 224.639 183.69 236.495 189.103C236.603 194.724 236.518 200.35 236.58 205.971C236.37 208.973 237.037 212.079 236.27 215.021C223.259 219.207 210.116 223.184 197.105 227.353C196.997 211.279 197.082 195.206 197.059 179.132C197.167 166.658 196.834 154.178 197.237 141.715C204.743 139.058 212.287 136.445 219.762 133.738Z" fill="#303030" stroke="#303030" stroke-width="1.31935"/>
<path d="M195.337 141.874C195.872 141.337 196.5 141.282 197.237 141.715C196.834 154.178 197.167 166.658 197.059 179.132C197.082 195.206 196.997 211.279 197.105 227.353C197.059 227.632 196.966 228.202 196.919 228.481C196.601 228.514 195.965 228.569 195.648 228.597L195.508 227.906C195.508 212.211 195.492 196.515 195.508 180.814C195.392 167.836 195.733 154.847 195.337 141.874V141.874Z" fill="#747474" stroke="#747474" stroke-width="1.31935"/>
<path d="M213.233 151.62C218.637 148.174 226.027 145.385 233.501 146.596C242.628 147.818 251.653 149.412 260.57 151.258C261.539 151.499 262.648 151.614 263.385 152.195C259.035 152.337 255.491 154.43 252.211 156.244C244.923 160.791 240.053 167.036 237.549 173.626C235.843 178.152 234.634 183.066 236.75 187.629C234.331 187.076 232.385 185.734 230.245 184.775C222.421 180.699 215.024 176.152 208.798 170.865C206.611 168.964 204.021 166.97 204.045 164.368C203.843 159.355 208.24 154.901 213.233 151.62V151.62Z" fill="#9A9C97" stroke="#9A9C97" stroke-width="1.31935"/>
<path d="M261.516 152.962C265.773 152.102 270.852 152.053 274.527 154.041C278.039 155.926 279.326 159.18 279.489 162.171C279.737 167.693 277.248 173.09 273.79 177.982C270.51 182.671 266.052 187.207 259.585 189.941C254.638 191.984 248.319 192.593 242.946 191.064C238.278 189.612 236.595 185.756 236.564 182.419C236.518 176.623 238.937 170.915 242.488 165.727C246.706 160.265 252.785 154.874 261.516 152.962V152.962ZM263.377 155.438C258.414 156.287 254.359 158.747 251.149 161.459C245.396 166.285 242.139 172.377 240.782 178.562C240.301 181.302 239.999 184.309 241.906 186.829C243.248 188.648 246.349 189.169 249.04 189.152C255.197 189.355 260.648 186.621 264.385 183.389C269.471 178.875 273.046 173.5 274.868 167.885C275.798 164.428 276.419 160.473 273.666 157.339C271.472 154.956 266.905 154.852 263.377 155.438V155.438Z" fill="#9A9C97" stroke="#9A9C97" stroke-width="1.31935"/>
<path d="M263.377 155.438C266.905 154.852 271.472 154.956 273.666 157.339C276.419 160.473 275.799 164.428 274.868 167.885C273.046 173.5 269.471 178.875 264.385 183.389C260.648 186.621 255.197 189.355 249.04 189.152C246.35 189.169 243.248 188.648 241.907 186.829C239.999 184.309 240.302 181.302 240.782 178.562C242.139 172.377 245.396 166.285 251.149 161.459C254.359 158.747 258.414 156.287 263.377 155.438V155.438ZM259.996 158.473C257.251 159.268 255.515 162.412 258.539 163.683C261.935 164.724 266.021 162.04 264.997 159.569C264.307 158.145 261.718 157.788 259.996 158.473V158.473Z" fill="black" stroke="black" stroke-width="1.31935"/>
<path d="M259.996 158.473C261.718 157.788 264.308 158.145 264.998 159.569C266.021 162.04 261.935 164.724 258.539 163.683C255.515 162.412 257.252 159.268 259.996 158.473V158.473Z" fill="#DEDEDE" stroke="#DEDEDE" stroke-width="1.31935"/>
<path d="M87.7452 191.102C109.301 198.8 130.725 206.705 152.148 214.594C142.759 214.681 133.26 214.791 124.064 213.252C113.294 211.575 102.028 209.335 93.7932 203.867C89.9628 201.479 87.7219 198.038 86.9155 194.521C86.869 193.354 87.1947 192.193 87.7452 191.102V191.102Z" fill="#9A9C97" stroke="#9A9C97" stroke-width="1.31935"/>
<path d="M89.8079 213.235C86.2489 208.557 86.4971 202.991 86.5203 197.824C88.42 201.972 92.5451 205.494 97.8332 207.718C107.06 211.63 117.629 213.575 128.127 214.928C137.044 216.095 146.186 216.873 155.242 216.15C156.599 216.013 157.716 216.719 158.887 217.097C164.245 219.086 169.603 221.097 175.24 222.669C171.696 224.126 167.323 224.077 163.446 224.91C156.429 226.082 149.194 226.208 142.038 226.465C133.338 226.17 124.615 225.419 116.21 223.759C112.868 223.047 109.317 222.713 106.293 221.403C100.454 219.07 94.6696 216.517 89.8079 213.235V213.235Z" fill="#424242" stroke="#424242" stroke-width="1.31935"/>
<path d="M88.7376 214.249C90.8002 215.257 92.506 216.588 94.584 217.596C98.6703 219.765 103.299 221.338 107.672 223.195C104.796 231.319 101.438 239.362 98.4222 247.459C90.7149 247.19 83.0076 246.631 75.3623 246.001C76.7813 241.367 79.1385 236.88 80.9761 232.311C83.5969 226.296 86.1168 220.258 88.7376 214.249Z" fill="#443523" stroke="#443523" stroke-width="1.31935"/>
<path d="M175.627 224.559C175.294 223.704 176.899 223.584 177.612 223.25C183.769 225.26 189.747 227.528 195.911 229.528C195.841 229.298 195.717 228.832 195.647 228.597C195.965 228.569 196.601 228.514 196.919 228.481C199.137 228.377 200.68 226.668 202.951 226.843C203.835 231.38 204.642 235.932 205.913 240.424C205.89 241.92 205.316 243.52 206.394 244.911C206.495 245.766 207.201 247.316 205.627 247.672C198.912 248.127 192.166 247.82 185.436 247.913C184.024 248.039 182.567 247.393 181.272 247.963C180.171 246.889 180.217 245.525 179.907 244.287C178.48 237.707 177.03 231.133 175.627 224.559Z" fill="#433528" stroke="#433528" stroke-width="1.31935"/>
<path d="M154.359 226.871C157.437 226.52 160.538 226.312 163.609 225.901C164.345 229.802 163.702 233.796 163.903 237.74C163.803 245.229 163.95 252.723 163.686 260.212C157.468 260.021 151.21 260.042 145.015 259.648C144.527 252.751 144.86 245.815 144.659 238.901C143.402 235.505 144.263 231.911 144.061 228.432C144.17 228.213 144.395 227.775 144.503 227.556C147.721 226.915 151.063 227.09 154.359 226.871Z" fill="#433528" stroke="#433528" stroke-width="1.31935"/>
<path d="M75.4401 246.62C82.7364 246.933 89.994 247.524 97.2748 247.963C97.1973 250.231 95.6388 252.433 94.9332 254.674C71.3771 312.673 47.7745 370.662 24.2184 428.656C19.287 428.426 14.3788 427.401 9.46285 426.832C6.95062 426.382 4.2523 426.355 1.91064 425.555C20.5353 380.512 38.8576 335.403 57.4202 290.349C63.4294 275.771 69.237 261.149 75.4401 246.62V246.62ZM78.6812 248.971C75.4866 250.077 75.3238 253.09 74.4011 255.243C51.6204 310.86 28.7156 366.449 5.91935 422.06C4.44613 425.44 12.0604 426.886 14.1927 424.087C35.9344 370.415 57.6218 316.722 79.379 263.05C80.4956 259.533 83.4033 256.24 82.7675 252.504C82.6899 250.954 81.4958 248.434 78.6812 248.971Z" fill="#7A4300" stroke="#7A4300" stroke-width="1.31935"/>
<path d="M180.814 248.165C187.979 247.667 195.26 248.187 202.471 247.908C203.781 247.804 205.099 247.979 206.41 248.143C207.27 251.239 207.542 254.4 208.17 257.528C217.273 310.991 226.43 364.455 235.533 417.918C237.565 430.48 240.054 443.009 241.798 455.588C236.735 457.324 231.842 459.373 226.5 460.677C222.638 443.908 219.235 427.089 215.552 410.298C204.254 357.727 192.949 305.157 181.667 252.581C181.272 251.151 181.365 249.612 180.295 248.324L180.814 248.165V248.165ZM182.575 248.91C182.637 251.452 183.955 253.89 184.203 256.432C198.671 322.523 213.125 388.615 227.57 454.7C227.322 457.379 232.501 458.201 235.099 456.941C237.588 455.281 235.58 452.816 235.479 450.822C220.731 386.735 206.123 322.633 191.383 258.536C191.112 254.8 188.219 251.398 184.49 248.85C184.009 248.867 183.055 248.894 182.575 248.91Z" fill="#794314" stroke="#794314" stroke-width="1.31935"/>
<path d="M78.681 248.971C81.4957 248.434 82.6898 250.954 82.7673 252.504C83.4031 256.24 80.4954 259.533 79.3789 263.05C57.6217 316.722 35.9343 370.415 14.1926 424.087C12.0603 426.886 4.44598 425.44 5.9192 422.06C28.7154 366.449 51.6202 310.86 74.4009 255.243C75.3236 253.09 75.4865 250.077 78.681 248.971V248.971ZM76.0215 254.734C53.1942 310.63 30.0801 366.471 7.25288 422.367C6.57055 423.758 8.58652 424.509 10.1916 424.733C11.2151 424.432 12.7348 424.317 13.0605 423.413C33.3522 373.187 53.7137 322.978 74.021 272.758C76.2773 267.329 78.2391 261.834 80.8986 256.503C81.4104 254.334 82.1857 251.584 79.8208 249.831C76.8279 250.274 76.7581 253.025 76.0215 254.734V254.734Z" fill="black" stroke="black" stroke-width="1.31935"/>
<path d="M182.574 248.91C183.055 248.894 184.009 248.867 184.489 248.85C188.219 251.398 191.111 254.8 191.383 258.536C206.123 322.633 220.731 386.735 235.479 450.822C235.579 452.816 237.588 455.281 235.099 456.941C232.501 458.201 227.321 457.379 227.57 454.7C213.124 388.615 198.671 322.523 184.203 256.432C183.954 253.89 182.636 251.452 182.574 248.91ZM184.009 249.842C188.653 269.728 192.763 289.68 197.213 309.594C207.813 358.127 218.436 406.66 229.051 455.188C229.834 457.565 236.362 456.804 234.819 454.109C219.762 388.215 204.626 322.321 189.545 256.427C188.545 253.961 186.606 251.628 184.009 249.842V249.842Z" fill="black" stroke="black" stroke-width="1.31935"/>
<path d="M76.0213 254.734C76.7579 253.025 76.8277 250.274 79.8206 249.831C82.1856 251.584 81.4102 254.334 80.8984 256.503C78.2389 261.834 76.2772 267.329 74.0208 272.758C53.7136 322.978 33.352 373.187 13.0603 423.413C12.7347 424.317 11.2149 424.432 10.1914 424.733C8.58635 424.509 6.57038 423.758 7.25271 422.367C30.0799 366.471 53.1941 310.63 76.0213 254.734V254.734Z" fill="#DEAC00" stroke="#DEAC00" stroke-width="1.31935"/>
<path d="M184.009 249.842C186.606 251.628 188.545 253.961 189.545 256.427C204.626 322.321 219.762 388.215 234.82 454.109C236.363 456.804 229.834 457.565 229.051 455.188C218.436 406.66 207.813 358.127 197.214 309.594C192.763 289.68 188.653 269.728 184.009 249.842V249.842Z" fill="#DE9B05" stroke="#DE9B05" stroke-width="1.31935"/>
<path d="M144.48 260.223C150.916 260.163 157.406 260.525 163.849 260.711C163.578 290.13 162.872 319.543 162.322 348.957C162.073 356.714 162.019 364.477 161.6 372.229C157.049 372.059 152.552 371.243 148.031 370.793C147.124 357.859 147.015 344.886 146.527 331.935C145.891 308.033 145.015 284.131 144.48 260.223Z" fill="#794314" stroke="#794314" stroke-width="1.31935"/>
</g>
<defs>
<clipPath id="clip0_19_63">
<rect width="281" height="462" fill="white"/>
</clipPath>
</defs>
</svg>
