<svg width="692" height="519" viewBox="0 0 692 519" fill="none" xmlns="http://www.w3.org/2000/svg">
<path d="M213.012 142.178L37.6973 255.026L285.677 454.684C285.677 454.684 398.084 356.665 451.28 309.995C451.28 309.995 459.23 302.896 458.611 296.206C457.474 283.902 450.053 281.304 450.053 281.304L242.183 140.305C242.183 140.305 235.408 137.044 228.416 137.788C218.994 138.79 213.018 142.183 213.018 142.183L213.012 142.178Z" fill="#5FD35F" stroke="#217821" stroke-width="10" stroke-linecap="round" stroke-linejoin="round"/>
<path d="M447.143 295.445L278.174 443.587L272.51 428.122L275.449 405.314L437.593 264.677C437.593 264.677 436.109 274.403 438.326 283.156C440.543 291.909 447.142 295.45 447.142 295.45L447.143 295.445Z" fill="#F0F0F0" stroke="#646464" stroke-linejoin="round"/>
<path d="M200.078 111.488L38.6309 214.543L288.419 411.104L444.921 274.486C444.921 274.486 452.871 267.387 452.253 260.696C451.116 248.392 443.694 245.794 443.694 245.794L231.873 107.585C231.873 107.585 225.097 104.325 218.106 105.068C208.683 106.07 200.082 111.489 200.082 111.489L200.078 111.488Z" fill="url(#paint0_linear_18_38)" stroke="#217821" stroke-width="10" stroke-linecap="round" stroke-linejoin="round"/>
<path d="M38.6722 214.522C38.6722 214.522 35.2017 218.801 34.1257 222.356C32.4979 227.734 32.0255 238.614 33.6416 245.337C34.9509 250.783 37.4877 255.07 37.4877 255.07L285.428 454.54C285.428 454.54 280.413 437.915 282.062 427.67C284.635 415.952 288.436 411.065 288.436 411.065L38.6722 214.522Z" fill="url(#paint1_linear_18_38)" stroke="#217821" stroke-width="10" stroke-linecap="round" stroke-linejoin="round"/>
<path d="M217.046 161.288L132.484 214.499C129.307 216.498 129.737 220.366 133.444 223.138L179.36 257.477C183.067 260.25 188.647 260.877 191.824 258.878L276.386 205.667C279.563 203.668 279.133 199.801 275.426 197.028L229.51 162.689C225.803 159.916 220.223 159.289 217.046 161.288Z" fill="white" stroke="#676767" stroke-width="5.2859"/>
<path d="M254.562 101.123L44.7983 181.928L223.473 423.687L453.482 313.148C453.482 313.148 462.92 308.535 463.994 301.909C465.968 289.725 459.46 285.136 459.46 285.136L286.197 106.284C286.197 106.284 280.477 101.237 273.55 99.9905C264.213 98.3108 254.566 101.12 254.566 101.12L254.562 101.123Z" fill="#4B82D5" stroke="#304F84" stroke-width="10" stroke-linecap="round" stroke-linejoin="round"/>
<path d="M452.588 299.038L219.008 413.455L211.135 394.802L216.646 368.632L448.917 258.107C448.917 258.107 445.038 269.682 445.344 278.173C445.65 286.665 452.589 299.035 452.589 299.035L452.588 299.038Z" fill="#F0F0F0" stroke="#646464" stroke-linecap="round" stroke-linejoin="round"/>
<path d="M259.894 53.5838L42.2402 135.784L227.497 376.148L462.76 264.214C462.76 264.214 472.198 259.6 473.271 252.975C475.245 240.791 468.738 236.202 468.738 236.202L291.529 58.7515C291.529 58.7515 285.809 53.7046 278.882 52.4582C269.546 50.7785 259.899 53.588 259.899 53.588L259.894 53.5838Z" fill="url(#paint2_linear_18_38)" stroke="#304F84" stroke-width="10" stroke-linecap="round" stroke-linejoin="round"/>
<path d="M42.2687 135.775C42.2687 135.775 38.6119 138.08 37.0785 146.296C35.7256 153.543 36.2202 158.657 37.2463 165.947C38.1217 172.167 40.2926 175.591 40.2926 175.591L223.36 423.488C223.36 423.488 220.671 416.091 219.582 409.605C218.493 403.12 219.075 392.775 220.974 387.468C222.873 382.161 227.335 376.022 227.335 376.022L42.2687 135.775Z" fill="url(#paint3_linear_18_38)" stroke="#304F84" stroke-width="10" stroke-linecap="round" stroke-linejoin="round"/>
<path d="M252.013 114.27L146.605 154.477C142.645 155.987 141.747 159.969 144.598 163.37L179.919 205.496C182.771 208.897 188.293 210.43 192.253 208.919L297.66 168.713C301.62 167.202 302.519 163.22 299.667 159.819L264.346 117.693C261.495 114.292 255.973 112.759 252.013 114.27Z" fill="white" stroke="#676767" stroke-width="5.4877"/>
<path d="M210.217 61.6992L60.4087 176.556L338.484 358.365L505.987 235.125C505.987 235.125 512.972 227.299 512.035 220.651C510.764 211.626 502.166 206.691 502.166 206.691L239.076 56.8481C239.076 56.8481 232.036 54.2936 225.145 55.7466C215.857 57.705 210.216 61.6917 210.216 61.6917L210.217 61.6992Z" fill="#FF5555" stroke="#A02C2C" stroke-width="10" stroke-linecap="round" stroke-linejoin="round"/>
<path d="M499.234 223.861L330.009 348.085L322.966 333.271L323.828 310.267L486.938 192.809C486.938 192.809 486.342 202.64 489.342 211.127C492.342 219.614 499.232 223.86 499.232 223.86L499.234 223.861Z" fill="#F0F0F0" stroke="#646464" stroke-linejoin="round"/>
<path d="M212.959 38.1161L57.667 136.163L337.268 314.715L496.44 197.64C496.44 197.64 503.615 189.782 502.488 183.167C500.892 173.797 492.619 169.207 492.619 169.207L244.251 30.9842C244.251 30.9842 237.212 28.4297 230.32 29.8828C221.032 31.8411 212.961 38.1118 212.961 38.1118L212.959 38.1161Z" fill="url(#paint4_linear_18_38)" stroke="#A02C2C" stroke-width="10" stroke-linecap="round" stroke-linejoin="round"/>
<path d="M57.7062 136.137C57.7062 136.137 54.6397 140.75 53.8907 144.399C52.7579 149.918 53.2737 160.796 55.4917 167.322C57.2884 172.61 60.202 176.618 60.202 176.618L338.218 358.253C338.218 358.253 331.72 342.217 332.433 331.851C333.932 319.925 337.272 314.673 337.272 314.673L57.7062 136.137Z" fill="url(#paint5_linear_18_38)" stroke="#A02C2C" stroke-width="10" stroke-linecap="round" stroke-linejoin="round"/>
<path d="M247.14 85.1621L165.506 143.291C162.439 145.475 163.072 149.311 166.919 151.86L214.568 183.431C218.415 185.98 224.02 186.276 227.087 184.092L308.721 125.963C311.788 123.779 311.155 119.943 307.308 117.394L259.659 85.8232C255.812 83.2744 250.207 82.9784 247.14 85.1621Z" fill="white" stroke="#676767" stroke-width="5.2859"/>
<defs>
<linearGradient id="paint0_linear_18_38" x1="500.996" y1="286.692" x2="5.6042" y2="199.238" gradientUnits="userSpaceOnUse">
<stop stop-color="#ABE6AB"/>
<stop offset="0.5" stop-color="#66D266"/>
<stop offset="1" stop-color="#6CD76C"/>
</linearGradient>
<linearGradient id="paint1_linear_18_38" x1="361.636" y1="493.388" x2="19.8122" y2="253.926" gradientUnits="userSpaceOnUse">
<stop stop-color="#8EDC8E"/>
<stop offset="0.23205" stop-color="#7AD77A"/>
<stop offset="0.63308" stop-color="#66D266"/>
<stop offset="1" stop-color="#6CD76C"/>
</linearGradient>
<linearGradient id="paint2_linear_18_38" x1="193.086" y1="178.401" x2="360.491" y2="296.972" gradientUnits="userSpaceOnUse">
<stop stop-color="#4B82D5"/>
<stop offset="1" stop-color="#80A5DD"/>
</linearGradient>
<linearGradient id="paint3_linear_18_38" x1="78.4429" y1="204.466" x2="270.479" y2="427.785" gradientUnits="userSpaceOnUse">
<stop stop-color="#4B82D5"/>
<stop offset="1" stop-color="#80A5DD"/>
</linearGradient>
<linearGradient id="paint4_linear_18_38" x1="425.261" y1="204.29" x2="277.667" y2="139.485" gradientUnits="userSpaceOnUse">
<stop stop-color="#FF6969"/>
<stop offset="1" stop-color="#FF5151"/>
</linearGradient>
<linearGradient id="paint5_linear_18_38" x1="309.834" y1="315.461" x2="177.043" y2="244.983" gradientUnits="userSpaceOnUse">
<stop stop-color="#FF6969"/>
<stop offset="1" stop-color="#FF5151"/>
</linearGradient>
</defs>
</svg>
