<svg width="299" height="299" viewBox="0 0 299 299" fill="none" xmlns="http://www.w3.org/2000/svg">
<g clip-path="url(#clip0_16_2)">
<path d="M149.33 0C122.85 0 98.02 6.97002 76.45 19.08C76.44 19.09 76.41 19.07 76.4 19.08C62.44 26.92 49.95 37.01 39.23 48.75C14.96 75.31 0 110.54 0 149.33C0 231.76 66.92 298.65 149.33 298.65C151.93 298.65 154.44 298.4 157.01 298.27C161.13 298.06 165.19 297.73 169.21 297.19C206.55 292.19 239.53 273.49 262.84 246.17C285.1 220.09 298.61 186.28 298.61 149.33C298.61 130.46 295 112.5 288.61 95.88C285.48 87.73 281.61 79.92 277.16 72.53C257.88 40.5 227.01 16.33 190.29 5.84C177.25 2.12 163.56 0 149.33 0V0Z" fill="url(#paint0_radial_16_2)"/>
<path d="M128.19 4.71002C127.65 4.71002 126.8 4.80001 126.44 5.29001C126.08 5.76001 125.75 6.37 125.36 6.75C125.14 6.98 124.9 7.63 124.29 7.63C123.95 7.63 122.79 7.44 122.54 7.63C122.08 7.97 121.42 8.31001 121.28 8.89001C121.09 9.65001 120.45 9.52 119.91 10.06C119.61 10.36 118.9 10.92 118.45 11.03C117.87 11.18 117.35 11.33 116.7 11.33C116.21 11.33 115.52 11.21 115.05 11.33C114.27 11.52 113.86 12.23 113.2 12.4C112.59 12.55 112.32 12.79 112.03 13.18C111.65 13.67 110.79 13.95 110.18 13.95C109.25 13.95 109.2 14.13 108.52 14.64C108.04 15 107.19 15.12 106.58 15.12C105.75 15.12 104.58 15.15 103.85 15.51C103.36 15.76 102.7 15.85 102.49 16.39C102.15 17.24 101.86 17.34 101.03 17.75C100.54 17.99 99.4798 18.33 99.0798 18.73C98.7798 19.03 98.6098 20.11 98.1998 20.19C98.2298 20.2 98.8398 20.74 98.9798 20.77C99.5798 20.92 100.36 20.87 101.03 20.87C101.83 20.87 102.54 20.97 103.36 20.97C104.07 20.97 104.5 20.48 105.12 20.48C105.94 20.48 106.77 20.48 107.55 20.67C108.2 20.84 108.81 21.06 109.5 21.06C110.22 21.06 110.63 21.02 111.25 20.87C112.04 20.67 112.51 20.71 112.9 20.19C113.25 19.72 113.54 19.44 113.97 19.12C114.32 18.86 115.63 17.46 115.92 17.46C116.65 17.46 117.18 17.24 117.87 17.07C118.34 16.95 118.36 15.81 118.84 15.9C119.12 15.96 119.7 16.66 120.01 16.58C120.28 16.52 120.61 16.44 120.89 16.49C121.16 16.53 121.39 16.74 121.47 17.07C121.63 17.72 121.82 17.7 122.15 18.14C122.31 18.36 123.12 19.32 123.03 19.7C122.91 20.16 122.8 20.94 122.93 21.45C123.06 21.97 123.08 22.54 123.32 23.01C123.48 23.33 123.92 24.06 124 24.37C124.15 24.98 124.49 24.97 124.78 25.54C125.12 26.23 124.95 26.52 124.68 27.2C124.45 27.77 124.12 28.44 124.29 29.14C124.33 29.29 124.35 29.48 124.39 29.63C124.5 30.07 124.56 30.3 124.68 30.41C124.8 30.52 124.97 30.51 125.46 30.51C126.04 30.51 126.83 30.51 127.12 30.8C127.51 31.19 127.9 31.41 127.9 31.97C127.9 32.37 127.67 33.44 127.31 33.62C127.05 33.75 126.24 34.46 126.24 34.89C126.24 35.43 126.34 36.04 126.34 36.54C126.34 36.65 126.31 36.83 126.34 36.93C126.5 37.58 126.64 38.41 126.92 38.98C127.15 39.43 127.65 39.82 127.9 40.44C128.11 40.98 128.13 41.79 128.38 42.29C128.66 42.84 128.93 43.29 129.16 43.75C129.43 44.29 129.6 45.35 130.04 45.79C130.55 46.31 130.76 46.66 131.21 47.25C131.59 47.76 132.07 48.41 132.47 48.81C132.83 49.17 133.19 49.63 133.64 50.08C134.57 51.01 135.13 51.55 136.27 52.12C136.85 52.41 137.53 52.7 138.12 53C138.79 53.33 139.35 53.78 139.87 54.17C140.46 54.61 141.08 55.25 141.91 55.04C142.64 54.86 143.76 55 144.45 54.65C144.67 54.54 144.92 54.47 145.13 54.26C145.33 54.06 145.51 53.76 145.32 53.39C145.17 53.08 144.84 52.59 144.84 52.12C144.84 51.32 144.64 50.61 144.64 49.79C144.64 49.2 144.61 48.76 144.74 48.23C144.84 47.81 144.87 47.21 144.74 46.67C144.57 46.01 144.71 45.38 144.54 44.72C144.41 44.18 144.45 43.48 144.45 42.87C144.45 42.3 144.41 41.83 144.54 41.31C144.7 40.7 144.64 40.07 144.64 39.46C144.64 38.95 144.55 38.37 144.74 38C144.93 37.63 145.17 36.72 145.71 36.54C146.17 36.39 147.76 36.05 147.76 35.47C147.76 34.83 147.69 34.35 147.56 33.82C147.41 33.2 147 32.6 147.37 31.87C147.78 31.04 148.6 30.81 149.12 30.12C149.41 29.72 149.93 29.31 150.38 28.85C150.73 28.51 151.48 28.21 151.65 27.88C151.86 27.45 152.14 26.82 152.14 26.32C152.14 25.97 152.29 24.74 151.94 24.57C151.44 24.32 150.87 24.4 150.87 23.79C150.87 23.38 151.31 22.43 151.16 22.13C150.93 21.66 150.66 21.25 149.9 21.06C149.29 20.91 148.46 20.8 147.85 20.67C147.48 20.6 146.64 20.49 146.49 20.19C146.32 19.84 146.15 18.9 145.81 18.73C145.26 18.45 144.63 18.43 143.96 18.43C143.79 18.43 141.69 17.93 142.4 17.75C143.11 17.57 143.09 17.45 143.37 16.88C143.54 16.55 143.86 16 143.57 15.61C143.16 15.07 142.61 14.84 142.21 14.44C141.67 13.91 140.44 13.66 139.68 13.66C139.57 13.66 139.49 13.69 139.38 13.66C138.95 13.56 138.55 13.12 138.22 12.79C137.72 12.29 136.82 12.07 136.17 11.91C135.68 11.79 135.38 11.37 134.81 11.23C134.24 11.09 133.64 11.08 133.06 10.94C132.29 10.75 131.47 10.6 130.72 10.45C130.44 10.39 128.46 10.25 128.58 9.77002C128.65 9.48002 129.03 8.79001 129.45 8.79001C130.04 8.79001 130.73 8.91001 131.3 8.79001C132.05 8.65001 132.82 8.5 133.64 8.5C134.39 8.5 135.15 8.55001 135.88 8.70001C136.79 8.88001 137.8 8.76002 138.7 8.99002C139.41 9.17002 140.5 9.28 141.23 9.28C142.27 9.28 143.48 9.18002 144.54 9.18002C146.17 9.18002 147.62 8.79001 149.22 8.79001C150.14 8.79001 150.46 8.23002 151.16 8.11002C151.52 8.05002 151.82 7.95001 151.94 7.82001C152.06 7.69001 151.96 7.56002 151.45 7.43002C150.84 7.28002 150.14 7.49002 149.51 7.33002C149.03 7.22002 148.28 7.04001 147.76 7.04001C147 7.04001 146.36 6.94 145.61 6.94C145.08 6.94 144.6 7.10002 144.06 7.24002C143.34 7.41002 142.66 7.24002 141.91 7.24002H139.58C138.53 7.24002 137.43 7.04001 136.46 7.04001C135.83 7.04001 135.21 6.94 134.71 6.94C133.72 6.94 132.56 6.94 131.79 6.56C131.07 6.19 130.55 5.98 129.75 5.78C129.38 5.68 128.52 4.71002 128.19 4.71002V4.71002ZM190.3 5.87C189.08 6.13 187.82 6.27 186.7 6.56C185.28 6.91 184.4 7.56002 183.09 7.24002C182.18 7.01002 181.32 6.94 180.37 6.75C180.68 7.06 180.53 7.46001 180.27 7.82001C180.01 8.18001 179.59 8.45001 179.39 8.60001C179.37 8.62001 177.15 8.87001 177.06 8.89001C176.53 9.02001 176.74 9.38002 177.06 9.77002C177.38 10.16 177.87 10.51 178.03 10.55C179.24 10.85 180.75 11.57 181.83 12.1C182.29 12.34 182.51 12.52 182.61 12.79C182.71 13.06 182.7 13.43 182.8 13.86C183.01 14.7 183.13 14.95 183.87 15.32C184.52 15.64 185.97 15.71 186.7 15.71C187.87 15.71 189.61 16.29 190.49 16.58C191.23 16.83 192.34 17.65 192.83 18.14C193.34 18.65 193.83 18.96 194.39 19.7C195.03 20.56 195.68 21.03 196.53 21.45C197.26 21.82 198.41 21.81 198.86 22.04C199.7 22.45 200.72 23.11 201.3 23.69C201.98 24.38 202.53 25.02 203.05 25.54C203.73 26.22 203.89 26.97 204.71 27.59C205.54 28.21 206.21 28.7 206.85 29.34C207.59 30.08 208.24 30.44 208.89 31.09C209.4 31.6 209.91 32.34 210.74 32.55C211.88 32.84 212.6 32.11 213.57 31.87C214.04 31.75 215.75 33.53 216 33.72C216.57 34.15 217.13 35 217.36 35.47C217.63 36.01 218.53 36.74 218.92 37.13C219.67 37.88 219.85 38.03 220.77 38.49C221.15 38.68 221.58 38.71 221.94 38.59C222.3 38.47 222.55 38.2 222.62 37.91C222.82 37.09 223.13 36.66 222.91 35.76C222.78 35.24 222.86 34.64 223.11 34.21C223.35 33.78 223.75 33.55 224.47 33.91C224.98 34.17 225.31 35.01 225.54 35.47C225.86 36.12 226.32 36.98 226.32 37.91V40.15C226.32 40.5 230.41 42.78 230.5 42.87C231.03 43.4 231.74 43.73 232.35 44.14C233.03 44.59 233.47 45.04 234.4 45.5C234.92 45.76 235.21 46.25 235.37 46.77C235.54 47.28 235.58 47.8 235.47 48.23C235.35 48.71 235.76 49.81 235.57 50.56C235.42 51.15 235.31 51.62 235.37 51.93C235.43 52.24 235.68 52.37 236.35 52.71C237.31 53.19 237.67 53.95 238.68 54.56C239.21 54.87 239.63 58.59 239.95 59.23C240.32 59.97 240.73 60.97 240.53 61.76C240.32 62.63 239.95 63.27 239.95 64.2C239.95 64.86 239.43 65.79 239.27 66.43C239.11 67.05 238.82 67.71 238.68 68.19C238.55 68.67 238.57 68.98 239.27 69.26C240.17 69.62 241.65 70.04 242.58 70.04H245.5C245.96 70.04 246.43 70.97 246.86 71.98C247.29 73 247.65 74.09 247.74 74.52C247.92 75.42 248.15 75.81 248.71 76.37C249.44 77.1 250.51 77.73 250.75 78.7C251.03 79.82 251.42 80.1 250.95 81.04C250.72 81.5 249.12 81.86 248.61 82.11C247.88 82.48 246.65 82.61 245.59 82.89C245.06 83.03 244.58 83.23 244.23 83.47C243.88 83.71 243.65 84.03 243.65 84.45C243.65 85.4 244.03 85.8 244.43 86.59C244.86 87.45 245.25 88.11 245.79 88.83C245.88 88.94 245.98 89.12 246.08 89.22C246.67 89.81 246.61 90.74 247.15 91.46C247.9 92.45 248.26 93.29 248.81 94.38C249.33 95.43 250.51 96.23 251.14 97.49C251.5 98.2 252.12 99.54 252.12 100.51C252.12 101.28 252.52 102.03 252.7 102.75C252.84 103.31 253.4 103.84 253.97 104.21C254.53 104.58 255.11 104.86 255.62 104.99C256.53 105.22 257.59 105.09 258.54 105.09C259.55 105.09 260.17 104.8 261.07 104.8C261.59 104.8 262.33 103.44 262.63 103.04C263.28 102.18 263.66 101.65 263.9 100.71C264.02 100.2 264.16 99.69 264.19 99.15C264.22 98.61 264.12 98.1 263.7 97.69C263.35 97.33 263.29 96.98 263.31 96.62C263.34 96.25 263.45 95.89 263.7 95.55C263.84 95.36 263.9 93.03 263.9 92.92C263.9 92.82 262.66 91.27 262.44 90.97C261.89 90.24 261.75 89.31 261.36 88.54C260.95 87.7 260.88 86.97 260.88 85.91V83.47C260.88 82.36 260.37 81.99 259.81 81.43C259.22 80.84 259.24 80.33 259.03 79.48C258.88 78.9 258.95 78.56 259.13 78.31C259.3 78.07 259.64 77.9 260 77.63C260.6 77.18 260.78 76.23 260.78 75.49C260.78 74.95 260.61 74.41 260.59 74.03C260.56 73.65 260.64 73.36 261.07 73.25C261.47 73.15 261.91 73.48 262.24 73.83C262.57 74.19 262.79 74.63 262.92 74.81C263.43 75.48 263.53 75.87 264.19 76.37C265.07 77.03 266.35 77.35 267.11 77.73C267.91 78.13 268.64 78.54 269.25 78.99C270 79.56 270.63 80.08 271.1 80.55C271.55 81 271.68 81.87 272.07 82.4C272.49 82.96 272.95 83.09 273.44 83.57C273.96 84.09 274.25 85.1 274.51 85.62C274.79 86.18 274.99 86.4 275.19 86.39C275.39 86.39 275.64 86.12 276.06 85.91C276.33 85.77 275.65 83.75 275.58 83.47C275.39 82.71 274.31 81.63 274.02 81.04C273.71 80.41 273.81 80.14 274.02 80.16C274.23 80.18 274.58 80.43 274.8 80.65C275.44 81.29 276.06 81.51 276.55 82.5C276.77 82.93 277.58 83.53 278.01 83.96C278.65 84.6 278.56 85.17 278.79 86.1C278.87 86.43 279.08 86.51 279.28 86.49C279.48 86.47 279.72 86.31 279.96 86.1C280.43 85.69 280.91 85.07 281.03 84.84C281.32 84.25 281.41 83.6 281.61 82.99C281.88 82.18 281.75 81.49 281.52 80.84C281.28 80.2 280.89 79.62 280.64 78.99C280.42 78.44 280.07 77.95 279.76 77.44C278.83 75.88 278.05 74.4 277.23 72.76C277.19 72.68 277.17 72.65 277.14 72.57C257.86 40.53 227.03 16.36 190.3 5.87V5.87ZM95.2798 18.73C94.7898 18.73 94.0098 19.65 93.7298 19.8C93.0998 20.11 92.4398 20.83 91.8798 21.26C91.2798 21.7 90.7798 22.1 90.2198 22.52C89.5798 23.01 89.1498 23.11 88.1798 23.11C87.2498 23.11 87.2298 23.53 86.5198 23.89C85.6898 24.3 84.9198 25.62 84.5698 26.32C84.2498 26.98 83.7698 27.8 83.4098 28.17C82.9598 28.62 82.1698 28.89 81.6498 29.14C81.0398 29.45 81.2598 30.66 81.2598 31.29C81.2598 31.71 79.6198 31.77 79.5098 31.77C79.2898 31.77 77.9998 29.87 77.8598 29.73C77.1698 29.04 77.5298 28.92 76.4898 28.66C75.9398 28.52 75.4798 28.56 75.2298 28.46C74.9798 28.36 74.8398 28.08 74.8398 27.39C74.8398 26.64 75.7398 26.3 76.1098 25.93C76.5498 25.49 77.4298 25.17 77.8598 24.96C78.4798 24.64 78.7498 24.07 79.2198 23.59C79.8098 23.01 79.8998 22.33 79.8998 21.45C79.8998 21.18 78.5198 20.61 78.2498 20.48C77.6298 20.17 77.2398 19.49 76.4898 19.12C76.4798 19.12 76.4098 19.11 76.3998 19.12C62.4398 26.96 49.9298 36.97 39.2098 48.71C39.0898 49.32 39.0298 50.04 38.8198 50.47C38.4098 51.28 37.8398 51.45 37.2598 52.02C36.8298 52.46 36.5998 53.26 36.2898 53.68C35.8398 54.28 35.1498 54.53 34.6298 55.04C34.1298 55.54 34.1498 56.69 34.1498 57.38C34.1498 58.04 34.4398 58.28 34.7298 58.26C35.0198 58.23 35.2798 57.94 35.5098 57.48C35.7898 56.91 37.2198 56.03 37.7498 55.63C38.4798 55.08 39.5098 54.73 39.8898 53.97C40.2298 53.29 40.5598 52.86 40.7698 52.02C41.0498 50.91 41.6598 50.43 42.2298 49.3C42.4298 49.93 42.7598 50.71 43.3998 51.34C43.6898 51.63 43.8198 52.06 43.7798 52.41C43.7498 52.77 43.5298 53.11 43.3998 53.39C43.1798 53.83 42.2898 54.49 41.8398 54.95C41.2798 55.5 40.9798 55.49 40.6698 56.11C40.3298 56.78 39.7798 56.95 39.5998 57.67C39.4298 58.34 39.0898 58.85 38.9198 59.52C38.6798 60.48 38.8398 61.06 38.1398 61.76C37.6598 62.23 37.3998 63.17 37.2598 63.71C37.0198 64.67 36.5898 64.92 35.9998 65.36C35.3498 65.85 35.1098 66.86 34.9298 67.6C34.6798 68.58 33.5198 69.63 33.0798 70.52C32.6898 71.29 32.3898 71.4 31.9998 72.18C31.7398 72.72 31.6998 73.61 31.5198 74.32C31.3198 75.11 30.8798 75.86 30.3498 76.56C30.2598 76.68 30.0598 76.75 29.9598 76.85C29.4398 77.37 29.0798 78.57 29.0798 79.29C29.0798 79.95 28.1898 81.12 28.0098 81.82C27.7798 82.77 27.5898 83.54 27.2298 84.25C26.7998 85.13 26.3798 85.48 25.9698 86.3C25.5198 87.2 25.2498 87.73 24.8998 88.44C24.6098 89.01 24.6098 89.84 24.6098 90.58C24.6098 91.24 24.3798 92.27 24.2198 92.92C24.0398 93.63 24.2198 94.62 24.2198 95.35C24.2198 96.31 23.8798 96.86 23.3398 97.4C22.7098 98.02 22.3098 98.39 22.0798 99.34C21.9198 99.95 21.5198 100.74 21.1998 101.39C20.7698 102.24 20.7198 102.74 20.1298 103.53C19.6798 104.13 19.3598 105.05 19.1498 105.87C18.9398 106.74 18.8698 107.42 18.4698 108.2C18.0798 109 17.9898 109.55 17.7898 110.35C17.5998 111.12 17.2698 111.68 17.0098 112.2C16.6398 112.95 16.6198 113.75 16.4298 114.53C16.2198 115.38 16.1398 116.41 16.1398 117.26C16.1398 118.01 15.7498 118.92 15.7498 119.79C15.7498 120.69 15.6498 121.43 15.4598 122.22C15.2598 122.99 15.3598 123.81 15.3598 124.66C15.3598 125.87 15.0698 127.03 15.0698 128.26C15.0698 129.21 15.4398 129.37 15.6498 130.21C15.8298 130.95 15.7598 131.82 15.9398 132.55C16.0298 132.9 16.1398 133.19 16.1398 133.62C16.4298 134.79 17.2098 135.14 17.2098 136.34C17.2098 137.29 17.3098 137.71 17.4998 138.48C17.6898 139.24 17.4998 140.24 17.4998 141.02C17.4998 141.8 17.1998 142.81 17.0098 143.55C16.9898 143.65 17.0098 143.74 17.0098 143.84C17.0098 144.77 16.7198 145.76 16.7198 146.76C16.7198 147.05 17.2998 148.4 17.4998 148.81C17.8798 149.56 18.0798 150.64 18.2798 151.43C18.5698 152.61 18.8998 153.63 19.3498 154.74C19.6998 155.63 19.7498 156.32 20.1298 157.28C20.3798 157.9 20.0898 159.07 20.2298 159.61C20.4098 160.37 20.4198 161.26 20.4198 162.05C20.4198 162.93 20.6098 163.64 20.6098 164.48C20.6098 165.32 20.7198 166.07 20.9098 166.82C21.1298 167.71 20.9998 168.38 21.2998 168.96C21.7898 169.95 22.2498 170.16 22.4598 171C22.6798 171.85 22.9698 172.62 23.1498 173.34C23.3598 174.18 24.2098 174.89 24.4098 175.68C24.6798 176.77 25.6698 177.73 26.1598 178.89C26.4698 179.61 26.4798 180.49 26.7498 181.03C27.0098 181.55 28.1998 182 28.5998 182.3C28.9698 182.58 28.9698 182.89 29.0798 183.18C29.1998 183.46 29.3998 183.72 29.9598 183.86C30.6298 184.02 31.0698 184.69 31.5198 185.02C32.1098 185.47 31.2098 183.6 31.0298 182.88C30.8298 182.07 30.0198 181.23 29.6698 180.64C29.3398 180.1 29.6198 178.8 29.3798 178.31C28.9698 177.5 28.6098 176.82 28.3998 175.97C28.1798 175.07 27.7498 174.24 27.5298 173.34C27.2998 172.43 26.9498 171.8 26.5498 171C26.0798 170.05 25.4798 169.7 25.4798 168.57C25.4798 167.84 24.9298 166.58 24.6098 165.94C24.2698 165.27 24.4098 163.91 24.4098 163.12C24.4098 162.34 24.1198 161.7 24.1198 160.88C24.1198 159.91 23.8598 158.95 23.6298 158.05C23.4298 157.23 23.1498 156.5 23.1498 155.62C23.1498 154.97 23.3198 154.75 23.4398 154.84C23.5598 154.93 23.6298 155.36 23.6298 155.91C23.6298 156.52 24.4498 157.15 24.6098 157.76C24.8198 158.62 24.9698 159.51 25.1898 160.39C25.3598 161.08 24.9998 162.07 25.1898 162.83C25.4098 163.69 25.8698 164.19 25.8698 165.16C25.8698 165.98 26.1598 166.57 26.1598 167.3C26.1598 167.84 26.8098 168.92 26.9398 169.45C27.1498 170.28 27.3198 171.15 27.5298 171.98C27.6998 172.68 28.0998 173.59 28.3098 174.41C28.4698 175.08 28.8898 175.9 29.3798 176.55C29.7998 177.12 29.8798 178.15 30.1598 178.7C30.5898 179.57 30.7998 180.08 31.2298 180.94C31.5698 181.63 31.8298 182.16 31.9998 182.88C32.2098 183.7 32.9098 184.8 33.2698 185.51C33.6098 186.19 33.9898 186.93 34.1498 187.56C34.3798 188.48 34.5998 189.54 35.0198 190.38C35.3598 191.06 35.6998 191.73 35.9998 192.33C36.4198 193.18 36.9798 193.8 37.5498 194.37C38.2598 195.08 39.2298 195.42 40.0898 195.83C40.9398 196.25 41.6198 196.71 41.8398 197.59C42.0298 198.34 42.6398 199.19 42.9098 199.73C43.2998 200.52 44.0498 201.26 44.6598 201.87C46.2798 203.49 47.6398 205.21 49.7198 206.25C50.4298 206.6 50.8998 206.81 51.7698 207.03C52.6498 207.25 53.3598 207.34 54.0998 207.71C54.8498 208.09 55.5498 208.2 56.4398 208.2C56.7898 208.2 57.6798 209.02 58.2898 209.17C58.8298 209.31 59.6998 208.99 60.4298 209.17C61.4298 209.42 61.7498 208.53 62.7698 208.78C63.7098 209.02 65.1498 211.18 65.9798 211.8C66.7098 212.35 67.4798 212.93 68.3198 213.65C69.0798 214.31 69.6198 214.68 70.5598 214.92C71.2998 215.1 71.7198 215.21 72.3098 215.5C72.9398 215.82 73.9998 215.6 74.7398 215.6C75.4598 215.6 76.1698 216.64 76.5898 217.06C77.5898 218.06 78.7598 218.62 79.4098 219.49C79.9898 220.26 80.3098 221.27 80.9698 221.93C81.5598 222.52 82.3998 223.25 83.1098 223.97C83.7098 224.57 84.3898 224.98 84.5698 225.72C84.7698 226.52 85.7298 226.89 86.3298 227.18C86.9798 227.51 87.8598 227.71 88.4698 227.87C89.0098 228 89.8898 229.2 90.3198 229.52C90.6498 229.77 92.3198 229.33 92.8498 229.33C93.5398 229.33 94.3798 230.32 94.7998 230.88C95.2698 231.52 95.5698 232.05 96.4498 232.05C97.3598 232.05 98.1198 231.65 98.6898 231.08C99.1498 230.62 99.2698 229.39 99.2698 228.74C99.2698 228.14 100.82 229.51 101.12 229.81C101.6 230.29 102.22 231.01 102.58 231.37C103.27 232.06 104.2 232.95 104.53 233.61C104.86 234.27 104.67 235.15 105.02 235.85C105.41 236.63 105.72 237.08 106.19 237.7C106.68 238.36 106.67 238.89 106.67 239.94C106.67 240.78 106.87 241.45 106.87 242.28C106.87 243 106.25 243.28 106.09 243.93C105.89 244.71 105.6 245.26 105.6 246.27C105.6 246.97 104.34 247.67 104.34 248.7C104.34 249.48 105.12 250.66 105.31 251.43C105.53 252.31 105.78 253.43 106.19 254.25C106.66 255.19 107.39 255.07 107.65 256.1C107.87 256.99 107.93 257.9 108.13 258.73C108.33 259.52 108.82 259.83 109.01 260.58C109.17 261.23 109.67 261.83 110.08 262.24C110.58 262.74 111.44 263.23 112.12 263.4C113.37 263.71 113.83 264.22 114.46 265.06C115.02 265.8 115.3 266.59 116.12 267.2C116.93 267.81 117.29 267.89 117.87 268.47C118 268.6 118.1 268.66 118.26 268.76C119.03 269.28 119.25 269.94 120.21 270.41C120.98 270.8 121.65 271.45 122.35 271.87C123.24 272.41 123.7 272.79 124.59 273.24C125.35 273.62 125.93 274.35 126.63 274.7C127.39 275.08 127.95 275.39 128.87 275.57C129.61 275.72 130.57 276 131.21 276.16C132.17 276.4 133.1 276.57 133.83 276.94C134.53 277.28 135.28 278.1 135.68 278.5C136.26 279.07 137.22 279.51 137.92 279.86C138.45 280.12 139.18 280.58 139.68 280.83C140.66 281.32 141.05 282.03 141.91 282.68C142.58 283.18 143.04 283.81 143.57 284.34C144.22 284.98 144.61 285.86 145.13 286.38C145.75 287 146.01 287.67 146.2 288.43C146.43 289.37 147.09 289.91 147.46 290.67C147.84 291.41 148.91 291.85 149.41 292.52C149.9 293.16 150.84 293.46 151.36 293.98C152.03 294.65 152.63 294.86 153.21 295.63C153.77 296.38 154.37 296.6 154.76 296.99C155.32 297.55 156.12 297.82 156.61 298.07C156.76 298.14 156.86 298.2 157 298.26C161.12 298.05 165.15 297.73 169.17 297.19C169.21 297.11 169.34 297.09 169.37 296.99C169.62 295.97 170.88 295.17 171.41 294.37C171.97 293.54 172.84 293.44 173.55 293.29C174.4 293.13 174.77 292.56 175.4 291.93C176.05 291.29 176.66 290.67 177.25 289.89C177.84 289.11 178.04 288.57 178.52 287.94C179.08 287.19 179.2 286.48 179.59 285.7C180.04 284.8 180.51 284.12 181.24 283.75C182.1 283.33 182.34 282.68 183.09 282.49C184.1 282.24 184.54 281.83 185.43 281.61C186.16 281.43 187.35 279.69 187.77 279.27C188.38 278.66 188.8 278.25 189.42 277.42C189.65 277.12 189.84 276.72 190.1 276.45C190.31 276.19 190.48 276.03 190.69 275.77C191.03 275.34 191.05 273.94 191.17 273.43C191.35 272.72 191.72 271.76 192.05 271.1C192.39 270.41 192.28 269.47 192.63 268.76C193.03 267.97 193.28 267.28 193.61 266.62C193.98 265.88 193.73 265.01 194.09 264.28C194.47 263.53 194.7 262.79 194.97 262.24C195.37 261.45 195.22 261.18 196.24 260.68C196.78 260.41 197.33 259.48 197.79 259.02C198.22 258.59 198.46 257.3 198.67 256.88C199.04 256.15 199.95 255.5 200.42 255.03C200.8 254.66 201.15 253.82 201.49 253.47C201.91 253.06 201.97 251.85 202.08 251.43C202.25 250.76 202.2 249.97 202.37 249.29C202.56 248.53 201.82 247.96 201.49 247.63C200.87 247.01 200.45 246.19 199.64 245.59C198.95 245.07 198.47 244.8 198.09 244.42C197.59 243.92 196.7 243.67 196.04 243.35C195.48 243.07 194.97 242.96 194.09 242.96H191.56C190.68 242.96 190.21 243.15 189.42 243.15C188.58 243.15 188.02 243.35 187.18 243.35H184.85C184.15 243.35 183.62 242.96 182.8 242.96C181.96 242.96 181.89 242.39 181.44 241.79C181.04 241.25 179.97 241.11 179.3 241.11C178.38 241.11 177.54 241.01 176.47 241.01C175.25 241.01 175.05 241.33 174.14 241.79C173.5 242.11 172.88 242.56 172.48 242.96C172.02 243.42 170.99 243.71 170.44 243.93C169.71 244.22 168.79 244.1 168.1 243.93C167.64 243.81 167.49 243.51 167.42 243.15C167.35 242.8 167.42 242.35 167.42 241.89C167.42 240.98 167.95 240.58 168.49 240.04C168.84 239.68 168.78 238.44 168.78 237.89C168.78 236.81 168.9 236.67 168.49 235.85C168.14 235.15 167.42 234.88 167.03 234.49C166.57 234.02 166.21 233.18 165.77 232.73C165.34 232.3 164.89 231.47 164.6 230.88C164.31 230.3 163.48 229.98 162.94 229.72C162.27 229.38 161.25 229.27 160.7 229.13C160.03 228.96 159.06 229.13 158.37 229.13H156.13C155.3 229.13 154.66 229.33 153.89 229.33C153.31 229.33 152.75 229.72 151.94 229.72C151.31 229.72 150.72 228.83 150.29 228.25C149.72 227.5 149.02 227.38 148.53 226.89C148.01 226.37 147.38 226.23 146.98 225.82C146.49 225.34 145.17 225.1 144.54 224.94C143.62 224.71 142.85 224.49 142.21 224.17C141.32 223.72 141.28 223.29 140.84 222.41C140.47 221.66 140.16 221.25 140.16 220.47C140.16 219.85 139.78 218.83 139.58 218.42C139.43 218.12 139.19 217.8 139.09 217.64C138.79 217.04 139.05 216.71 139.19 216.47C139.33 216.24 139.38 216.13 138.8 215.99C138.73 215.97 137.38 217.25 137.24 217.35C136.63 217.81 136.16 217.72 135.29 217.93C134.01 218.26 133.88 218.2 132.76 217.64C132.3 217.41 132.22 217.14 132.08 216.96C131.94 216.79 131.81 216.69 131.11 216.86C130.4 217.04 129.87 217.53 129.26 217.84C128.57 218.18 128.21 218.26 127.6 218.71C126.97 219.19 125.85 219.54 125.27 219.98C124.73 220.38 123.31 219.63 123.03 219.49C122.3 219.13 122.28 217.85 122.15 217.35C121.98 216.67 121.79 216.59 121.57 216.77C121.35 216.95 121.08 217.45 120.89 217.84C120.63 218.34 120.27 218.48 119.91 218.52C119.56 218.55 119.26 218.49 118.94 218.32C118.85 218.28 119.04 216.28 119.04 215.99C119.04 215.61 117.81 214.57 117.67 214.43C117.31 214.06 117.07 214.15 116.9 214.43C116.72 214.71 116.57 215.17 116.41 215.5C116.03 216.26 116.01 217.19 115.82 218.13C115.67 218.93 115.63 219.76 115.63 220.56C115.63 221.12 115.15 221.53 114.75 221.93C114.39 222.29 114.33 221.78 114.36 221.05C114.4 220.32 114.56 219.42 114.46 218.91C114.3 218.09 113.98 217.38 113.78 216.57C113.61 215.9 113.65 215.23 113.39 214.72C113.15 214.23 112.72 214.64 112.32 215.21C111.92 215.78 111.51 216.55 111.35 216.77C110.72 217.6 109.39 218.37 108.91 219.01C108.69 219.3 107.42 219.8 107.06 219.98C106.24 220.39 105.21 221.61 104.53 222.12C103.88 222.61 103.95 223.99 103.95 224.75C103.95 225.7 104.27 225.57 103.75 226.6C103.51 227.09 103.12 227.06 102.78 226.89C102.44 226.72 102.23 226.44 102.1 226.31C101.56 225.77 101.14 225.53 100.35 225.33C99.4798 225.12 98.8098 225.55 98.1098 225.72C97.1498 225.96 96.2798 226.37 95.3798 226.6C94.6498 226.78 93.5898 226.57 92.9498 226.41C92.3998 226.27 91.8798 225.53 91.3898 225.04C90.7698 224.42 90.5498 224.22 89.9298 223.39C89.4598 222.75 89.2998 222.31 88.6598 221.83C87.8798 221.24 87.7098 221.57 87.2998 220.76C86.9498 220.06 86.7198 219.59 86.3298 219.2C85.9298 218.81 86.0298 217.83 86.0298 217.06C86.0298 216.3 85.8398 215.34 85.8398 214.53C85.8398 213.74 85.6798 212.93 85.5498 212.38C85.3798 211.7 85.4498 210.73 85.4498 210.05C85.4498 209.47 84.4798 208.9 83.9898 208.78C83.1798 208.58 82.6098 208.39 81.3598 208.39H76.1098C75.5198 208.39 75.3698 208.27 75.0298 208.1C74.8998 208.1 74.1598 206.05 74.1598 205.76C74.1598 204.92 73.9598 204.25 73.9598 203.43C73.9598 202.62 73.8098 201.86 73.6698 201.29C73.5098 200.65 73.5598 199.89 73.3798 199.14C73.2098 198.47 73.3798 197.5 73.3798 196.81C73.3798 195.96 73.5698 195.56 73.5698 194.66C73.5698 194.06 73.6698 193.23 73.6698 192.52C73.6698 191.62 73.1598 190.95 72.4098 190.57C71.7498 190.25 70.9498 190.38 70.1698 190.38C69.3598 190.38 68.8498 190.59 68.1198 190.77C67.2898 190.98 66.8898 191.91 66.5598 192.23C66.0098 192.78 65.9598 193.66 65.7898 194.37C65.6098 195.06 65.6898 196.03 65.6898 196.71C65.6898 197.09 64.8298 198.18 64.7098 198.66C64.4998 199.52 63.3198 200.04 62.7698 200.31C61.9598 200.72 60.5598 200.23 59.9398 199.92C59.4398 199.67 58.5498 198.23 58.2898 197.88C57.8698 197.32 57.4098 196.9 57.0198 196.51C56.4998 195.99 56.0398 195.72 55.4698 194.96C55.0198 194.37 54.6998 193.72 54.4898 193.3C54.1198 192.56 54.0198 192.07 53.6198 191.26C53.2498 190.52 52.7698 189.75 52.3498 188.92C51.8898 188 51.8698 187.57 51.2798 186.97C50.6698 186.36 50.4998 185.5 50.4998 184.64C50.4998 183.77 50.2098 182.86 50.2098 182.01C50.2098 181.22 49.9198 180.49 49.9198 179.67V177.33C49.9198 176.61 50.3998 176.01 50.3998 175.19C50.3998 174.29 50.2098 173.89 50.2098 173.05C50.2098 172.03 50.2898 171.53 50.6998 170.52C50.9598 169.87 51.7098 169.37 51.9598 168.86C52.2698 168.25 52.5898 167.8 53.0298 167.21C53.4798 166.61 54.1598 166.27 54.8798 166.04C55.5998 165.81 56.3498 165.62 57.0198 165.45C58.0798 165.19 58.9698 165.31 59.9398 165.55C60.9998 165.82 62.0398 165.94 63.1598 165.94C63.6998 165.94 63.9598 166.21 64.2298 166.43C64.4998 166.65 64.7698 166.85 65.2998 166.72C65.8398 166.59 65.6898 164.84 65.6898 164.38C65.6898 163.83 65.4698 163.54 65.4898 163.31C65.5098 163.08 65.7598 162.89 66.2698 162.63C67.1698 162.18 67.2998 162.05 68.4098 162.05C69.3998 162.05 70.3198 162.24 71.2398 162.24C71.7798 162.24 72.5798 162.86 73.0898 163.12C73.5798 163.37 73.8898 163.37 74.2598 163.41C74.6198 163.45 74.9498 163.59 75.3298 164.09C75.8398 164.78 76.5798 165.25 77.0798 165.75C77.6198 166.29 78.6498 166.58 79.1198 166.82C79.4698 166.99 79.4098 168.76 79.5098 169.15C79.6998 169.91 80.1498 170.52 80.4898 171.2C80.9598 172.15 81.1798 173.18 81.5598 174.12C81.8198 174.79 82.0798 175.45 82.3398 175.97C82.7498 176.79 82.9798 177.17 83.6998 177.53C84.2898 177.82 84.8998 177.85 85.5498 178.01C86.3198 178.21 86.9398 177.52 87.2998 177.04C87.5798 176.67 87.4998 176.11 87.3998 175.58C87.2898 175.05 87.0898 174.52 86.9098 174.22C86.3398 173.26 86.5098 172.33 86.1298 171.2C85.8398 170.31 85.2198 169.47 84.7698 168.86C84.3198 168.26 84.2298 167.21 83.8898 166.53C83.5298 165.8 83.2998 165.23 83.1098 164.48C82.9298 163.75 82.8798 162.97 82.7198 162.34C82.4798 161.36 83.0498 160.55 83.6998 159.9C84.1798 159.42 84.2398 159.09 84.3798 158.54C85.1598 157.76 85.5698 156.83 86.0298 155.91C86.4298 155.13 86.6198 154.49 86.6198 153.58C86.6198 153.1 87.0598 152.6 87.5898 152.12C88.1198 151.63 88.7498 151.16 89.0498 150.75C89.6198 150 90.3898 149.24 90.8098 148.42C91.1498 147.72 91.8398 147.2 92.0698 146.27C92.2298 145.64 92.1798 144.87 92.3598 144.13C92.5698 143.31 92.7498 142.59 92.9498 141.8C93.1498 141 93.1398 140.31 92.9498 139.56C92.7598 138.82 92.4498 138.08 92.1698 137.51C91.7798 136.74 91.2498 136.3 90.8098 135.86C90.4598 135.51 90.5098 134.08 90.5098 133.52C90.5098 133.02 91.9998 133.03 92.4598 133.03C93.1698 133.03 94.0098 132.57 94.4998 132.45C94.9598 132.33 95.5898 131.24 95.8698 130.7C96.2098 130.01 96.4398 129.37 96.6498 128.55C96.8698 127.67 96.4498 126.99 96.4498 126.22C96.4498 125.55 97.1898 124.83 97.7198 124.56C98.4798 124.18 98.9298 123.88 99.8598 123.88C100.76 123.88 101.52 124.07 102.39 124.07C103.43 124.07 103.66 123.77 104.04 123C104.33 122.43 104.24 121.35 104.24 120.67C104.24 119.88 104.19 119.11 104.04 118.52C103.93 118.05 104.14 117.57 104.24 117.16C104.11 116.64 105.18 115.05 105.31 114.92C105.82 114.41 106.38 113.9 107.06 113.56C107.65 113.27 108.33 112.78 108.91 112.2C109.54 111.56 110.08 110.83 110.47 110.44C111.04 109.87 111.12 109.31 111.64 108.79C111.88 108.54 111.77 110.57 111.64 110.83C111.45 111.21 111.55 111.48 111.74 111.81C111.93 112.13 112.24 112.47 112.32 112.78C112.45 113.29 112.24 113.63 112.22 113.85C112.21 114.08 112.32 114.24 113 114.24C113.96 114.24 114.21 113.97 114.56 113.27C114.94 112.51 115.61 112.43 116.31 111.9C116.84 111.51 117.14 110.88 117.67 110.35C118.3 109.72 118.74 109.58 119.33 108.79C119.84 108.11 120.52 108.1 121.28 107.72C122.34 107.18 121.85 106.45 123.03 106.16C123.75 105.98 124.21 105.35 124.49 104.8C124.78 104.21 124 103.37 124 102.75C124 101.76 123.73 101.39 123.22 100.71C122.95 100.34 122.68 100.27 122.44 100.32C122.21 100.36 122.05 100.52 121.86 100.71C121.4 101.17 121.18 102.36 120.89 102.95C120.48 103.76 120.68 104.29 120.01 104.8C119.52 105.17 118.22 103.79 117.87 103.53C117.26 103.07 116.34 102.95 115.53 102.95C115.03 102.95 114.78 103.14 114.56 103.24C114.34 103.34 114.12 103.33 113.78 102.65C113.51 102.12 113.6 100.98 113.49 100.51C113.38 100.09 113.12 99.91 113 99.73C112.88 99.56 112.96 99.29 113.39 98.86C113.95 98.29 114.27 98.54 114.27 97.49C114.27 96.71 114.95 96.13 115.53 95.84C116.29 95.46 115.88 94.87 116.99 94.87C117.77 94.87 118.57 94.61 119.04 94.38C119.48 94.16 119.74 93.86 119.72 93.6C119.7 93.34 119.46 93.21 118.94 93.21C117.97 93.21 117.4 93.79 116.41 93.79C115.79 93.79 114.81 94.46 114.27 94.57C113.49 94.73 112.74 94.66 111.93 94.87C111.09 95.07 110.45 95.72 109.59 95.94C108.84 96.12 107.9 97.36 107.74 97.98C107.5 98.95 106.71 99.8 105.99 100.51C105.28 101.23 104.93 101.25 104.24 100.9C104.15 100.86 105.29 98.91 105.51 98.47C106.01 97.46 106.17 96.83 107.06 95.94C107.74 95.26 108.45 94.85 109.01 94.28C109.67 93.62 109.99 92.94 110.86 92.72C111.75 92.5 112.74 92.63 113.68 92.63C114.57 92.63 115.16 92.24 115.92 92.24C116.63 92.24 117.43 91.25 118.06 90.78C118.78 90.23 119.96 90.26 120.79 90.09C121.74 89.91 122.13 89.66 122.44 89.02C122.79 88.33 123.71 88.44 124.2 87.95C124.54 87.61 124.58 87.24 124.68 86.98C124.78 86.72 124.86 86.52 125.36 86.39C126.13 86.2 126.97 86.26 127.6 86.1C128.28 85.93 129.15 86.1 129.84 86.1C130.39 86.1 130.75 86.02 130.91 85.81C131.07 85.6 131.11 85.24 131.11 84.84C131.11 84.08 130.67 83.42 130.14 82.89C129.52 82.28 129.19 81.68 128.77 80.84C128.41 80.12 128.08 79.27 127.8 78.7C127.47 78.04 127.21 77.24 126.92 76.66C126.53 75.87 125.72 75.46 125.07 75.29C124.41 75.13 123.6 74.41 123.22 74.03C122.76 73.57 122.31 73.1 121.86 72.76C121.21 72.28 120.91 72.22 120.59 71.59C120.3 71 119.89 70.48 119.52 69.75C119.24 69.18 118.83 68.84 118.55 68.28C118.25 67.69 118.46 66.75 118.26 66.34C117.98 65.78 117.77 64.87 117.48 64.29C117.15 63.64 116.94 63.51 116.6 62.83C116.17 61.96 116.7 61.47 116.12 60.88C115.56 60.33 115.53 59.86 114.85 59.52C114.43 59.31 114.27 59.12 114.07 59.03C113.87 58.95 113.66 59 113.2 59.23C113.11 59.27 112.5 60.72 112.42 60.88C112.06 61.59 111.57 61.73 110.86 62.44C110.21 63.1 109.83 63.53 109.5 64.2C109.2 64.78 108.03 64.39 107.65 64.29C107.29 64.2 107.23 63.85 107.26 63.42C107.29 62.99 107.35 62.5 107.26 62.15C107.09 61.48 107.26 60.51 107.26 59.81C107.26 59.48 107.62 59.47 108.04 59.42C108.45 59.38 108.97 59.27 109.2 59.03C109.5 58.74 109.67 58.58 109.69 58.35C109.71 58.13 109.58 57.85 109.2 57.48C108.77 57.04 107.67 57.22 107.16 57.09C106.08 56.82 105.65 56.93 104.82 56.31C104.09 55.76 103.67 55.3 103.46 54.46C103.32 53.91 102.16 54.01 101.61 53.87C100.83 53.68 100.03 53.68 99.1798 53.68C98.4498 53.68 97.8898 54.27 97.1298 54.46C96.7098 54.57 96.3498 54.39 96.0598 54.36C95.7798 54.34 95.5398 54.4 95.3798 55.04C95.1698 55.9 94.8198 56.45 94.4998 57.09C94.2398 57.61 94.2098 58.47 94.2098 59.23C94.2098 60.18 93.9598 60.34 94.2098 61.37C94.3898 62.07 94.1498 62.99 94.0198 63.51C93.8198 64.31 94.2198 65.06 94.0198 65.85C93.7598 66.86 93.4798 67.22 93.9198 68.09C94.3298 68.9 94.7498 69.08 94.9898 70.04C95.1798 70.81 94.6998 71.6 94.6998 72.37C94.6998 73.04 93.7198 73.84 93.4298 74.22C93.0798 74.7 92.6498 75.51 92.6498 76.17C92.6498 76.7 91.3898 77.1 91.0998 77.24C90.3198 77.63 89.9098 78.27 89.4398 78.9C89.0798 79.38 89.0498 80.54 89.0498 81.14C89.0498 81.9 88.8598 82.66 88.8598 83.47V85.81C88.8598 86.6 89.0498 86.99 88.8598 87.76C88.6698 88.5 87.7798 88.98 87.2998 89.22C86.8398 89.45 86.4098 89.19 86.1298 88.83C85.8498 88.46 85.6498 87.94 85.6498 87.66V85.13C85.6498 84.47 85.4498 83.69 85.4498 82.99V80.55C85.4498 79.6 85.1498 79.16 84.9598 78.41C84.8498 77.94 83.7698 77.21 83.4098 76.85C82.8798 76.32 82.1598 75.89 81.5598 75.59C81.0598 75.34 80.3498 74.67 79.9998 74.32C79.2598 73.58 78.7998 73.29 78.4398 72.57C78.0698 71.83 77.0998 71.69 76.2998 71.69C75.4498 71.69 74.6198 71.5 73.9598 71.01C73.4898 70.66 73.3798 69.47 73.3798 68.97C73.3798 67.99 73.2598 67.21 73.0898 66.34C72.9398 65.62 73.0298 64.63 73.1798 64C73.3998 63.12 74.3598 62.44 74.6398 61.86C75.0498 61.05 76.3298 60.47 76.9798 59.81C77.6098 59.18 77.9498 58.26 78.7298 57.67C79.7298 56.93 80.7598 56.37 81.8498 55.82C82.4198 55.53 82.4998 54.72 82.7198 54.26C83.1298 53.45 83.3798 52.73 83.8898 52.22C84.5198 51.59 85.0698 51.04 85.6498 50.47C86.1398 49.97 87.5398 50.08 87.7898 50.08C88.1298 50.08 88.7598 51.92 88.8598 52.12C89.0698 52.55 89.2298 52.78 89.5398 52.9C89.8498 53.02 90.3198 52.98 90.7098 52.9C91.4898 52.74 92.3798 52.32 93.4298 52.02C94.0198 51.86 94.7198 50.75 95.2798 50.47C95.8298 50.19 95.8698 48.9 95.8698 48.23C95.8698 47.34 95.7698 46.87 95.7698 46.09C95.7698 45.64 94.4798 45.15 94.2098 45.01C93.8398 44.83 93.7998 44.39 93.9198 43.94C94.0398 43.49 94.3298 43.04 94.4998 42.87C94.9898 42.39 95.8198 42.06 96.4498 41.9C97.2898 41.69 98.0598 41.73 98.6898 41.41C99.3798 41.07 99.5598 40.64 100.05 40.15C100.82 39.37 100.9 38.89 101.12 38C101.29 37.35 101.2 36.34 101.32 35.86C101.52 35.08 102.27 34.34 102.58 33.91C102.82 33.6 102.92 33.33 103.17 33.14C103.42 32.94 103.75 32.84 104.34 32.84C104.9 32.84 105.26 32.87 105.51 33.04C105.75 33.21 105.89 33.51 106.09 33.91C106.38 34.49 106.19 35.56 106.19 36.25C106.19 37.08 105.54 37.38 105.12 37.81C104.73 38.2 106.47 39.02 106.67 39.17C106.98 39.4 106.81 39.91 106.48 40.44C106.15 40.97 105.66 41.49 105.6 41.61C105.35 42.11 104.7 42.62 104.34 43.36C103.85 44.34 103.75 44.48 102.39 44.82C101.51 45.04 100.79 45.72 100.25 45.99C99.8598 46.18 99.8498 46.45 99.9598 46.77C100.06 47.08 100.23 47.43 100.35 47.55C101.02 48.22 101.31 48.2 102.2 48.42C103.24 48.68 103.62 48.37 104.24 49.2C104.66 49.76 104.84 50.01 105.12 50.56C105.51 51.36 105.97 51.84 106.19 52.71C106.28 53.09 107.73 53.23 108.23 53.49C108.88 53.81 109.9 53.88 110.47 54.17C111.19 54.53 111.52 54.74 112.32 54.95C112.97 55.11 113.18 55.43 113.97 55.63C114.45 55.75 114.74 55.78 114.95 55.63C115.15 55.47 115.23 55.17 115.34 54.75C115.42 54.4 115.04 53.97 114.66 53.68C114.27 53.39 113.89 53.25 113.78 53.19C112.96 52.79 112.65 52.64 112.12 52.12C111.7 51.7 111.51 51.33 111.54 51.05C111.57 50.77 111.82 50.58 112.12 50.27C112.42 49.97 112.75 50.07 113.1 50.27C113.45 50.48 113.85 50.82 113.97 50.95C114.31 51.29 114.71 51.2 115.05 50.95C115.38 50.71 115.59 50.25 115.63 50.08C115.78 49.46 115.92 49.05 115.92 48.13C115.92 47.17 115.28 47 115.53 45.99C115.64 45.56 115.28 45.24 114.85 45.01C114.43 44.79 113.93 44.61 113.68 44.43C112.9 43.84 112.52 43.86 112.12 43.07C111.84 42.5 112.03 42.19 112.32 42.09C112.61 41.99 112.98 42.04 113.2 42.09C114.08 42.31 114.24 42.75 114.85 43.36C115.54 44.05 115.54 44.43 116.31 44.82C117.06 45.19 117.05 45.79 117.87 45.79C118.39 45.79 118.45 44.22 118.45 43.75C118.45 42.92 118.06 42.3 118.06 41.41C118.06 41.06 118.89 40.45 119.04 40.15C119.27 39.69 119.24 39.28 119.04 38.98C118.83 38.67 118.47 38.41 118.26 38.2C117.7 37.64 117.23 37.4 116.9 36.74C116.51 35.98 115.71 35.65 115.05 34.99C114.95 34.79 114.61 34.99 114.27 35.08C113.92 35.17 113.58 35.15 113.39 34.4C113.21 33.68 113.62 32.71 113.78 32.06C113.96 31.33 114.38 31.12 114.56 30.41C114.7 29.85 115 29.69 115.14 29.53C115.28 29.37 115.31 29.19 115.05 28.66C114.86 28.28 113.86 27.87 113.49 27.68C112.87 27.37 112.48 26.87 112.12 26.51C111.78 26.17 111.93 24.7 111.93 24.18C111.93 23.79 111.74 23.48 111.44 23.3C111.14 23.13 110.79 23.07 110.47 22.91C109.91 22.63 109.27 22.62 108.43 22.62C107.75 22.62 106.71 22.48 106.09 22.33C105.37 22.15 104.43 22.5 103.95 22.62C103.27 22.79 102.31 22.62 101.61 22.62C100.81 22.62 100.53 22.33 99.7598 22.13C99.2698 22.01 98.1298 23 97.7198 23.2C97.2998 23.41 97.1198 23.26 97.0398 22.91C96.9498 22.57 96.9398 22.08 96.9398 21.74V19.41C96.9398 19.08 96.6998 18.9 96.3498 18.82C96.0098 18.74 95.5798 18.73 95.2798 18.73V18.73ZM179.69 28.17C179.27 28.26 178.92 28.6 178.81 29.05C178.68 29.57 178.62 30.31 178.52 30.7C178.49 30.83 176.59 30.46 175.5 30.9C175.04 31.08 174.38 31.37 173.94 31.48C173.35 31.63 173.53 32.05 173.65 32.55C173.81 33.17 175.55 33.29 176.08 33.43C176.46 33.52 176.96 34.2 177.35 34.6C177.74 34.99 178.4 35.26 178.81 35.57C179.13 35.81 179.46 36.52 179.88 36.93C180.31 37.37 181.06 37.57 181.63 37.71C182.33 37.89 182.76 37.52 183.48 37.52C184.07 37.52 184.59 37.81 185.24 37.81C185.91 37.81 186.38 37.52 186.99 37.52C187.48 37.52 187.69 36.72 187.96 36.35C188.32 35.87 188.35 35.12 188.35 34.5C188.35 33.92 188.16 33.36 188.06 32.94C187.94 32.45 186.96 32.2 186.7 31.68C186.37 31.02 186.35 30.86 185.63 30.31C185.13 29.94 184.24 29.52 183.87 29.34C183.29 29.05 182.87 28.81 182.41 28.46C182.11 28.23 181.65 28.17 181.15 28.17H180.08C179.93 28.13 179.82 28.14 179.69 28.17V28.17ZM213.95 40.73C213.33 40.81 213.18 41.76 213.18 42.58C213.18 43.41 212.06 44.17 211.72 44.43C211.23 44.79 213.66 45.75 213.86 45.79C214.68 46 215.36 46.7 216.19 46.86C216.79 46.98 217.79 47.64 218.53 47.94C218.96 48.11 219.09 48.73 219.21 49.4C219.33 50.06 219.41 50.74 219.41 51.15C219.41 52 219.4 52.88 219.6 53.68C219.81 54.51 220.04 54.83 219.8 55.82C219.68 56.3 219.62 56.66 219.6 56.99C219.58 57.32 219.63 57.61 219.99 57.96C220.63 58.6 222.43 58.26 223.2 59.03C223.97 59.8 224.56 60.32 225.44 61.37C225.89 61.91 225.4 62.89 226.03 63.51C226.46 63.94 227.88 64.02 228.36 63.9C228.7 63.82 228.87 61.89 228.95 61.57C229.05 61.16 229.65 60.95 230.31 60.88C230.97 60.82 231.73 60.92 232.06 61.08C232.65 61.37 232.71 62.29 232.55 62.93C232.43 63.41 232.53 63.73 232.74 64C232.96 64.27 233.27 64.51 233.62 64.68C234.26 65 235.12 64.89 235.57 64.78C236.28 64.6 236.6 63.59 236.93 62.93C237.15 62.48 237.25 62.15 237.32 61.86C237.39 61.57 237.44 61.31 237.9 61.08C238.56 60.75 238.86 60.24 238.68 59.52C238.48 58.73 238.26 58 237.9 57.28C237.42 56.32 236.41 55.97 235.57 55.34C234.92 54.85 234.99 54.68 234.79 53.87C234.65 53.33 233.72 52.91 233.13 52.61C232.59 52.34 232.23 51.38 231.58 51.05C230.62 50.57 229.71 50.43 228.85 49.79C227.97 49.13 227.2 48.89 226.32 48.23C225.46 47.58 224.71 46.81 223.98 46.09C223.26 45.37 222.56 45.05 222.03 44.53C221.39 43.88 220.38 43.51 219.7 43.16C218.82 42.72 218.32 42.2 217.56 41.9C216.63 41.53 215.97 41.43 215.12 41.22C214.83 41.14 214.5 40.88 214.25 40.73C214.14 40.7 214.04 40.72 213.95 40.73V40.73ZM128.87 86.98C128.61 87.24 128.13 87.01 127.8 87.17C127.45 87.35 127.29 88.02 127.21 88.34C127.08 88.86 127.13 89.35 127.02 89.9C126.9 90.52 127.08 91.51 127.21 92.04C127.32 92.46 126.65 92.98 126.44 93.4C126.22 93.84 125.94 94.19 125.66 94.57C125.32 95.02 125.37 95.99 125.27 96.52C125.14 97.15 125.11 97.63 124.98 98.18C124.87 98.59 124.88 99 124.88 99.44C124.88 99.78 125.68 99.99 125.95 100.12C126.24 100.27 126.39 99.92 126.53 99.54C126.67 99.15 126.79 98.7 127.02 98.47C127.49 98 127.73 97.79 128.38 97.79C128.81 97.79 129.26 97.69 129.75 97.69C130.02 97.69 130.57 97.86 130.82 97.98C131.29 98.22 131.57 98.44 131.89 98.76C132.26 99.14 132.15 99.58 132.76 99.73C133.26 99.86 133.57 100.12 134.13 100.12H137.05C137.64 100.12 137.63 99.75 137.63 99.15C137.63 98.63 137.71 98.26 137.83 97.79C137.95 97.3 137.72 96.98 137.63 96.62C137.53 96.19 136.83 95.72 136.56 95.45C135.96 94.84 135.29 94.95 135.1 94.18C135.01 93.83 135.2 93.3 135.2 92.92C135.2 92.55 135.29 92.17 135.29 91.75C135.29 91.25 134.98 91.03 134.81 90.68C134.59 90.25 134.19 90.29 133.74 90.29C133.31 90.29 132.7 90.18 132.28 90.09C131.8 90 131.53 90.03 131.21 89.7C130.85 89.35 130.52 89.4 130.52 88.83C130.52 88.53 130.32 88.2 130.23 87.85C130.13 87.45 130.05 87.3 129.75 87.08C129.56 86.94 129.07 86.98 128.87 86.98V86.98ZM273.63 90.68C273.13 90.75 273.12 92.56 272.56 93.11C272.05 93.63 271.52 93.76 271.1 94.18C270.38 94.91 269.51 95.58 268.76 96.33C268.13 96.96 268.02 98.23 267.69 99.05C267.46 99.64 267.69 100.93 267.69 101.58C267.69 102.41 266.74 103.71 266.43 104.5C266.23 105 266.06 105.23 265.75 105.38C265.43 105.53 265.02 105.54 264.48 105.67C263.61 105.89 262.9 106.07 262.14 106.45C261.59 106.73 261.16 107.93 260.88 108.5C260.58 109.08 260.75 110.19 260.59 110.83C260.33 111.87 260.39 113.05 260.59 114.05C260.75 114.86 260.88 115.6 261.07 116.38C261.28 117.23 260.92 117.98 260.78 118.52C260.58 119.34 260.29 120.08 260.1 120.86C259.9 121.66 260.88 122.45 260.88 123.3C260.88 124.19 261.11 125.01 260.88 125.92C260.73 126.52 261.01 127.39 261.36 128.26C261.72 129.13 262.2 130.04 262.34 130.6C262.43 130.98 260.32 133.55 260.1 134.1C259.82 134.81 259.41 135.74 258.93 136.54C258.45 137.34 259.03 138.24 259.03 139.07C259.03 139.93 259.22 140.88 259.22 141.8C259.22 142.92 259.42 144.08 259.42 145.2C259.42 146.21 258.39 147.65 258.15 148.61C257.92 149.53 258.17 150.69 258.54 151.43C258.82 151.99 258.31 153.41 258.15 154.06C257.88 155.16 258.44 156.39 258.44 157.47V157.96C258.44 159.46 259.67 161.47 260 163.12C260.18 164.02 259.68 164.52 259.51 165.16C259.27 166.15 259.8 166.9 260 167.69C260.32 168.98 260.06 170.1 259.51 171.2C259.24 171.75 259.23 172.18 259.32 172.66C259.41 173.14 259.61 173.64 259.81 174.12C260.18 175.05 259.85 176.32 260.1 177.33C260.31 178.19 260 179.76 260 180.74C260 181.45 259.72 181.78 259.51 182.2C259.31 182.62 259.2 183.1 259.42 183.95C259.47 184.16 259.46 184.43 259.51 184.64C259.69 185.35 261.19 186.87 261.85 187.36C262.31 187.71 262.45 188.08 262.53 188.43C262.62 188.79 262.63 189.15 262.63 189.7C262.63 190.87 262.76 191.58 263.51 192.33C263.96 192.79 264.85 192.72 265.36 193.4C265.77 193.95 265.75 195.51 265.75 196.22C265.75 197.09 265.77 197.59 266.04 198.07C266.31 198.56 266.8 199.03 267.4 199.63C267.66 199.89 267.92 200.05 268.18 200.31C268.79 200.92 268.9 202.01 269.54 202.65C270.14 203.24 271.06 203.99 271.88 204.4C272.37 204.65 272.88 204.48 273.34 204.21C273.8 203.94 274.18 203.58 274.51 203.33C275.47 202.61 276.18 201.93 276.65 200.99C277.29 199.72 278.41 198.33 278.69 196.9C278.8 196.36 278.96 196 279.28 195.74C279.6 195.47 280.1 195.27 280.54 195.05C281.33 194.66 282.07 193.8 282.49 193.11C282.95 192.34 283.78 191.82 284.63 192.04C285.29 192.2 285.75 192.69 286.09 193.2C286.43 193.72 286.74 194.24 286.87 194.76C287.08 195.59 286.24 196.61 285.9 197.29C285.33 198.43 285.59 199.29 284.83 200.31C284.14 201.23 283.8 202.57 283.37 203.43C282.79 204.59 282.93 206.36 282.68 207.61C282.57 208.17 282.18 209.27 281.91 209.95C281.59 210.74 281.22 212.24 281.22 213.07C281.22 214.16 280.08 215.06 279.57 216.08C278.96 217.3 278.51 218.54 278.01 219.78C277.63 220.73 277.17 221.73 276.65 222.61C276.18 223.39 275.79 224.2 275.58 225.04C275.38 225.82 274.87 226.46 274.51 227.18C274.16 227.87 274.1 228.58 273.73 229.33C273.03 230.72 271.48 233.13 270.32 234.29C269.32 235.29 268.02 236.66 267.5 237.7C267.16 238.38 266.94 238.91 266.62 239.55C266.15 240.48 265.53 241.54 264.97 242.66C264.57 243.45 263.89 243.84 263.51 244.61C263.11 245.41 262.93 245.74 262.82 246.17C285.08 220.08 298.65 186.25 298.65 149.29C298.65 130.43 295.01 112.46 288.62 95.84C287.97 95.89 286.82 96.13 286.09 96.13C285.62 96.13 285.27 96.49 285.02 96.91C284.77 97.33 284.62 97.84 284.53 98.18C284.3 99.1 284.35 100.15 284.63 101.1C284.91 102.05 285.38 102.91 285.9 103.43C286.29 103.83 286.53 104.21 286.48 104.5C286.43 104.8 286.14 104.99 285.51 104.99C284.83 104.99 284.43 104.88 284.14 104.7C283.86 104.52 283.71 104.27 283.37 103.92C282.71 103.26 282.11 102.71 281.22 102.26C280.44 101.88 279.78 101.54 279.08 101.19C278.58 100.94 278.16 99.54 277.91 99.05C277.53 98.29 277.23 97.52 277.23 96.62C277.23 96 276.61 95.07 276.36 94.57C276.06 93.97 275.64 93.33 275.29 92.63C274.89 91.84 274.53 91.31 273.83 90.78C273.74 90.71 273.7 90.67 273.63 90.68V90.68ZM89.0498 171.78C88.9398 171.83 88.8098 171.93 88.6598 172.08C88.2298 172.51 88.3298 172.42 87.5898 171.98C87.7498 171.98 89.6298 174.23 90.0298 174.9C90.2198 175.21 90.7498 175.31 91.2898 175.29C91.8298 175.27 92.3498 175.16 92.6498 175.09C93.3398 174.96 93.5198 174.54 93.4298 174.12C93.3398 173.7 92.9798 173.21 92.6498 173.05C91.8098 172.63 91.2298 172.3 90.3198 172.08C89.5598 171.89 89.3798 171.64 89.0498 171.78V171.78ZM90.8098 178.31C90.2298 178.41 89.3598 178.78 89.0498 179.09C88.8098 179.33 89.0098 179.79 89.2498 180.25C89.4798 180.72 89.8198 181.11 89.9298 181.33C90.2298 181.92 91.9998 182.1 92.6498 182.1C93.2098 182.1 93.4598 181.85 93.5298 181.52C93.5998 181.19 93.5198 180.79 93.4298 180.45C93.2798 179.84 92.5298 179.25 92.1698 178.89C91.7998 178.52 92.1298 178.81 91.2898 178.31C91.1798 178.28 90.9998 178.27 90.8098 178.31ZM82.9198 183.56C81.8098 183.56 80.7598 183.6 79.7098 184.44C78.4298 185.47 76.8798 187.33 76.0098 187.65C76.1998 188.13 76.3498 188.55 76.6898 188.72C77.0198 188.9 77.5298 188.89 78.0498 188.63C78.8998 188.2 79.4698 188.02 80.1898 187.65C80.9498 187.28 81.5198 186.97 82.3398 186.97C83.3798 186.97 84.0698 187.33 84.9598 187.56C85.6398 187.73 86.1498 187.96 86.9098 188.34C87.6998 188.73 88.4198 189.07 89.0498 189.7C89.6698 190.31 90.7998 190.62 91.3898 191.06C91.9998 191.52 93.1198 192.01 93.7298 192.62C94.1198 193.01 94.9598 193.87 95.5798 194.18C96.2298 194.5 96.7898 194.44 97.3298 194.27C97.8698 194.11 98.4298 193.89 99.1798 193.89C99.7298 193.89 100.65 193.94 101.51 193.98C102.37 194.03 103.13 194.02 103.46 193.69C103.67 193.48 103.95 193.2 104.04 192.91C104.14 192.62 104.04 192.37 103.46 192.23C102.64 192.02 101.91 191.77 101.03 191.55C99.7998 191.24 100.19 190.69 99.1798 190.19C98.0298 189.61 97.6898 189.45 96.3498 189.11C95.4798 188.9 94.1498 188.76 93.4298 188.04C92.7898 187.4 92.4398 186.23 91.7798 185.9C90.6198 185.32 89.7298 184.52 88.3698 184.25C87.0198 183.98 85.3598 183.56 83.9898 183.56C83.5898 183.56 83.2898 183.57 82.9198 183.56V183.56ZM108.91 192.42C108.69 192.4 108.45 192.47 108.23 192.52C107.33 192.75 104.96 192.54 104.82 192.81C104.67 193.07 104.47 193.32 104.34 193.59C104.02 194.22 104.08 194.42 104.24 194.57C104.4 194.71 104.71 194.74 105.02 195.05C105.13 195.17 105.41 195.55 105.51 195.93C105.6 196.31 105.51 196.71 105.12 196.9C105.03 196.95 103.13 197.9 103.17 197.97C103.43 198.49 103.69 198.66 104.82 198.66C105.77 198.66 106.42 198.78 107.26 198.95C107.82 199.06 109.06 199.37 109.59 199.24C110.86 198.92 111.81 198.59 112.61 197.78C113.29 197.1 113.3 197.41 114.56 197.1C114.99 196.99 115.51 197.01 115.82 196.9C116.13 196.8 116.31 196.58 116.31 196.03C116.31 195.44 115.64 194.66 114.85 194.66C114.16 194.66 113.25 194.69 112.61 194.37C111.73 193.93 111.72 193.18 110.66 192.91C110.17 192.79 109.58 192.49 108.91 192.42V192.42ZM120.01 195.83C119.7 195.76 119.54 196.2 119.52 196.71C119.51 197.22 119.67 197.77 119.72 197.97C119.83 198.43 121.42 198.66 121.96 198.66C122.5 198.66 122.93 198.67 123.13 198.56C123.32 198.45 123.26 198.25 123.03 197.78C122.7 197.12 122.51 196.35 121.86 196.03C121.33 195.76 120.59 195.83 120.01 195.83V195.83ZM128.77 196.51C128.61 196.63 128.52 197.06 128.58 197.49C128.63 197.91 128.85 198.29 129.55 198.46C130.24 198.63 131.25 198.57 131.69 198.46C132.05 198.37 131.91 198.08 131.6 197.68C131.28 197.29 130.86 196.87 130.52 196.71C130.13 196.51 129.36 196.51 128.87 196.51C128.83 196.49 128.82 196.48 128.77 196.51V196.51ZM96.9398 197.49C96.8098 197.5 96.5798 197.59 96.4498 197.59C96.3198 197.48 94.9498 197.56 94.3098 197.88C93.8598 198.1 93.5698 198.32 93.4298 198.56C93.2998 198.8 93.2898 199.14 93.5298 199.63C93.7798 200.14 93.8198 200.47 93.9198 200.7C94.0198 200.93 94.2198 201.04 94.7998 201.19C95.7298 201.42 96.5698 201.71 97.4198 201.29C98.0798 200.95 98.3998 200 98.3998 199.24C98.3998 198.3 98.1398 197.79 97.3298 197.59C97.1998 197.55 97.0698 197.48 96.9398 197.49V197.49ZM132.86 200.99C132.36 201.1 132.45 201.85 132.96 202.36C133.57 202.96 134.2 202.76 134.61 202.55C135.06 202.33 134.89 201.95 134.52 201.67C134.14 201.39 133.57 201.19 133.54 201.19C133.25 201.04 133.03 200.96 132.86 200.99ZM135.88 205.28C135.62 205.48 134.81 206.14 134.81 206.54C134.81 206.92 135.2 206.92 135.68 206.83C136.16 206.75 136.68 206.58 136.75 206.54C137.21 206.32 136.39 205.61 135.98 205.28C135.96 205.28 135.9 205.26 135.88 205.28ZM136.46 208.78C136.48 208.81 136.54 208.95 136.56 208.98C136.63 208.92 136.67 208.79 136.66 208.78C136.65 208.78 136.55 208.74 136.46 208.78V208.78ZM136.56 208.98C136.22 209.27 135.14 210 135 210.53C134.89 210.99 136.9 210.46 136.95 210.44C137.4 210.21 136.86 209.45 136.56 208.98V208.98ZM140.65 210.05C140.6 210.51 140.12 211.77 140.55 212.09C141.19 212.57 141.48 212.43 141.62 212.19C141.77 211.94 141.75 211.57 141.62 211.31C141.38 210.83 141.1 210.5 140.65 210.05V210.05Z" fill="url(#paint1_radial_16_2)"/>
<path d="M273.74 93.72C273.74 93.72 234.66 89.93 207.77 109.37C180.88 128.82 166.19 171.5 134.95 184.44C72.49 210.31 23.89 197.21 23.89 197.21C-4.66997 128.25 28.11 49.1 97.07 20.54C166.03 -8.03 245.18 24.76 273.74 93.72V93.72Z" fill="url(#paint2_radial_16_2)"/>
</g>
<defs>
<radialGradient id="paint0_radial_16_2" cx="0" cy="0" r="1" gradientUnits="userSpaceOnUse" gradientTransform="translate(102.861 72.8968) scale(168.858 168.888)">
<stop stop-color="#007FFF"/>
<stop offset="0.39286" stop-color="#1C8EFF"/>
<stop offset="1" stop-color="#1A4A7A"/>
</radialGradient>
<radialGradient id="paint1_radial_16_2" cx="0" cy="0" r="1" gradientUnits="userSpaceOnUse" gradientTransform="translate(146.211 123.472) rotate(30.7995) scale(152.308 173.787)">
<stop stop-color="#B8FF71"/>
<stop offset="1" stop-color="#66CC00"/>
</radialGradient>
<radialGradient id="paint2_radial_16_2" cx="0" cy="0" r="1" gradientUnits="userSpaceOnUse" gradientTransform="translate(96.3276 67.5686) rotate(74.4861) scale(118.48 153.143)">
<stop stop-color="white" stop-opacity="0.86735"/>
<stop offset="1" stop-color="white" stop-opacity="0"/>
</radialGradient>
<clipPath id="clip0_16_2">
<rect width="298.65" height="298.65" fill="white"/>
</clipPath>
</defs>
</svg>
