<svg width="883" height="1143" viewBox="0 0 883 1143" fill="none" xmlns="http://www.w3.org/2000/svg">
<path fill-rule="evenodd" clip-rule="evenodd" d="M354.202 847.583C352.995 844.865 342.368 844.201 340.315 840.033C336.33 838.04 328.299 822.76 327.635 818.291C326.307 818.291 322.865 801.682 321.295 801.198C321.053 799.568 316.464 795.159 316.102 794.072C312.54 792.32 293.52 793.347 292.614 790.569C289.534 790.388 281.806 787.67 280.055 792.139C270.998 792.803 274.017 799.568 268.643 801.319C267.435 806.272 244.068 814.909 240.686 813.821C240.686 809.352 232.233 817.687 238.211 819.136C238.453 822.217 243.585 825.599 237.305 825.599C237.305 824.029 228.852 823.122 228.127 820.827C220.701 820.042 217.38 808.446 215.266 803.071C215.145 803.071 214.602 792.139 211.281 791.052C210.979 788.274 208.262 786.039 207.96 783.2C203.069 780.785 206.149 747.627 213.696 745.151C215.326 741.044 212.127 730.172 218.164 728.179C218.164 727.092 224.323 724.858 225.531 723.952C226.799 720.146 240.083 715.858 234.95 712.416C234.467 704.987 230.241 698.645 229.576 690.552C226.738 689.646 223.84 661.804 223.78 657.455C222.089 656.308 222.874 628.888 223.78 626.593C223.84 622.788 226.255 592.106 228.731 590.898C231.629 583.53 235.615 564.264 243.162 561.244C245.034 557.499 255.902 543.91 259.948 541.917C261.276 539.199 273.594 528.328 276.553 526.878C278.183 523.617 293.459 511.779 296.72 510.994C300.283 503.807 316.585 501.149 318.94 492.754C321.235 492.03 321.235 485.567 319.725 487.077C319.544 489.674 316.706 493.66 317.008 487.681C324.072 485.325 309.46 462.133 308.555 457C305.656 455.55 298.773 434.472 298.592 430.969C295.15 429.64 298.954 400.348 301.671 399.442C301.913 394.852 312.781 368.821 316.706 367.553C317.129 364.11 330.714 342.669 333.794 342.669C333.794 347.441 329.507 362.298 327.092 366.345C327.092 381.323 321.839 396.12 329.808 409.407C331.016 409.407 343.515 434.411 347.862 435.861C348.225 437.552 362.475 459.838 362.958 459.959C365.131 464.308 376.966 487.802 373.283 490.58C373.102 493.298 369.539 503.505 366.701 504.411C366.339 507.974 355.41 519.872 352.331 521.382C350.217 525.61 338.262 542.279 334.7 544.031C334.7 545.36 316.344 569.216 314.714 569.76C314.049 575.799 299.98 584.496 313.627 589.932C313.868 591.321 328.299 607.024 330.292 607.689C330.533 608.413 339.47 620.13 339.651 620.191C339.711 620.976 341.462 625.385 342.006 624.841C342.006 621.278 338.866 616.567 342.79 617.835C343.092 619.405 345.025 623.935 345.87 625.083C348.044 623.996 347.077 599.112 342.187 597.482C341.824 592.046 339.107 592.831 345.508 594.22C347.319 599.716 353.961 598.991 354.987 605.937C362.233 609.561 354.927 625.989 368.09 621.64C368.09 620.13 380.166 620.312 381.495 618.983C381.495 612.4 382.28 607.387 383.246 601.045C387.593 598.871 386.808 582.685 388.016 582.322C388.499 575.799 395.02 570.847 398.341 565.834C404.56 564.143 401.964 548.138 405.888 546.205C411.262 535.455 412.832 532.737 423.399 529.234C423.399 528.388 424.365 528.69 424.606 527.965C427.626 526.878 428.29 507.733 427.807 507.612C427.807 500.545 432.094 491.909 432.879 484.359C434.268 484.359 433.905 475.541 435.113 475.179C435.113 474.937 434.751 453.134 432.094 452.288C431.43 440.995 426.539 430.848 425.935 418.829C425.814 418.829 425.089 408.863 417.663 408.562C417.663 404.877 422.131 395.455 421.95 395.395C420.802 391.892 413.134 396.965 411.021 396.965C411.021 389.416 414.885 368.64 424.184 367.492C424.606 367.069 424.546 347.984 422.735 347.38C422.312 342.246 409.33 338.864 406.553 333.248C402.688 331.315 405.224 318.752 409.27 317.122C409.27 315.128 415.791 316.397 415.791 311.505C414.825 311.505 413.496 302.626 411.745 307.881C408.726 308.062 397.616 313.377 396.65 316.397C395.684 316.397 396.107 301.358 396.409 301.298C397.616 298.278 396.831 292.54 400.696 291.272C401.601 284.628 420.501 278.166 419.414 274.905C418.327 274.723 412.651 270.979 411.021 270.314C411.021 261.799 421.588 269.892 420.018 262.825C419.172 262.825 418.931 257.51 416.093 256.846C414.583 252.196 400.273 250.323 395.986 250.323C395.201 247.001 401.903 244.706 396.711 244.344C396.711 241.747 403.111 242.773 404.5 238.485C406.975 238.304 416.998 232.325 418.387 236.613C423.097 238.485 439.159 243.076 441.332 247.484C444.532 248.511 440.487 236.855 437.045 236.855C436.018 232.567 456.186 245.371 458.722 237.7C467.718 235.949 476.474 204.361 471.402 200.556C471.402 194.456 482.391 209.012 483.176 212.334C486.678 213.481 488.973 235.586 485.108 236.855C484.444 242.29 470.858 253.826 480.519 257.027C482.089 261.738 488.248 257.571 489.999 261.98C495.735 261.98 501.532 277.803 507.328 279.736C508.174 282.333 516.748 289.822 509.019 291.513C509.019 291.755 503.222 295.318 506.483 296.406C506.483 303.472 522.725 296.164 526.107 302.989C528.22 303.653 523.511 317.786 529.065 315.551C529.548 314.525 535.043 315.853 535.164 316.337C541.745 316.699 551.588 324.309 557.445 322.376C557.686 321.228 559.316 320.202 560.222 319.537C561.43 315.853 579.061 313.317 581.416 318.027C591.318 321.289 575.317 340.736 581.174 342.669C581.174 359.701 580.268 363.566 573.687 374.558C573.687 378.363 554.486 396.362 550.259 397.267C549.354 399.079 533.232 405.058 534.983 405.481C534.983 405.602 528.462 406.87 526.771 409.77C526.771 416.896 520.31 417.983 520.008 426.318C518.801 426.922 518.318 444.075 517.291 447.215C516.144 447.457 516.083 452.168 517.291 452.47C517.291 452.893 511.796 468.837 509.985 471.253C509.985 474.212 507.751 477.051 507.328 480.011C503.404 481.279 505.577 510.451 508.113 511.296C508.294 516.429 510.529 524.704 516.506 525.549C516.627 527.845 527.435 543.729 522.484 543.729C522.484 543.366 522.424 542.34 522.122 542.219C519.948 543.306 527.133 552.305 527.556 553.634C533.051 554.056 526.892 558.526 530.756 559.794C531.058 561.969 536.311 570.545 535.345 570.847C534.983 571.753 541.142 583.228 541.685 583.409C541.926 587.818 546.395 601.649 543.557 602.555C542.772 604.609 549.293 616.325 552.614 617.05C553.822 620.795 561.913 623.331 563.664 626.834C570.547 629.129 560.222 644.591 571.936 647.188C572.359 648.094 574.049 647.912 574.472 649.241C577.491 649.966 573.747 663.616 572.902 665.005C572.902 668.81 591.801 671.286 594.881 676.42C601.16 678.473 615.954 688.861 617.403 694.72C618.188 694.961 619.456 698.947 620.059 699.733C624.165 701.062 620.724 733.192 620.603 737.662C617.584 739.172 621.207 742.312 622.414 738.628C622.535 738.628 630.868 729.146 632.317 728.179C633.645 725.522 645.48 716.825 648.197 715.496C649.223 713.443 652.001 708.309 654.054 707.282C656.047 701.303 669.753 688.439 675.972 687.11C676.938 685.117 688.531 684.151 689.437 682.339C692.034 682.339 714.556 680.104 710.389 684.271C710.389 686.264 719.326 696.169 721.258 696.773C721.681 704.202 730.979 700.397 732.488 707.403C736.655 709.457 727.356 724.797 733.757 726.911C734.179 732.649 738.829 736.997 738.829 744.305C735.568 745.936 740.519 753.667 742.995 754.452C743.357 757.532 750.723 768.403 744.686 769.611C744.686 771.967 733.938 778.61 731.583 779.758C730.979 781.57 728.503 779.758 727.296 780.664C727.115 783.14 724.096 786.341 727.115 787.307C732.126 802.346 724.82 805.124 722.042 816.237C719.99 817.264 713.287 832.122 711.959 823.243C708.759 821.673 711.778 810.499 704.412 813.399C704.412 815.452 692.818 813.701 692.758 813.399C689.497 813.217 680.802 808.325 679.957 804.823C679.052 804.823 677.3 799.749 676.938 799.628C676.032 797.152 664.439 796.005 663.232 799.628C653.692 799.628 643.004 794.797 637.389 804.158C637.389 806.996 628.332 807.963 627.305 813.097C624.165 814.123 613.236 824.934 612.21 828.135C609.01 828.498 606.594 832.907 603.817 834.296C600.617 840.698 576.827 850.965 571.755 844.201C568.192 843.959 563.965 840.094 563.301 836.53C560.584 836.53 561.249 819.136 564.086 818.231C564.932 816.056 565.717 810.077 566.26 811.224C570.909 811.224 568.615 796.608 565.294 802.165C561.309 802.165 552.191 796.548 551.829 792.562C550.561 791.958 548.267 788.515 546.757 793.105C546.033 793.166 527.435 806.151 527.435 806.272C518.499 807.721 510.106 813.882 500.807 814.969C499.056 818.532 465.424 820.767 464.699 823.062C453.529 823.062 427.927 823.062 419.112 816.479C417.361 816.298 406.251 810.802 405.949 809.896C405.164 809.714 391.82 814.365 391.457 815.452C389.405 815.694 382.521 821.19 381.616 822.7C381.616 828.196 378.355 832.665 377.993 837.497C377.087 837.799 374.792 838.705 376.543 839.369C376.543 839.792 366.641 846.375 363.32 846.738C362.596 848.248 356.014 847.583 354.202 847.583V847.583Z" fill="black"/>
<path fill-rule="evenodd" clip-rule="evenodd" d="M375.275 843.353C373.706 842.568 376.423 840.333 376.423 842.387C375.577 842.629 376 843.112 375.275 843.353Z" fill="black"/>
<path fill-rule="evenodd" clip-rule="evenodd" d="M578.878 843.353C575.678 841.421 569.519 842.387 567.587 838.461C563.541 836.468 562.636 824.328 566.923 822.215C567.708 815.873 570.425 826.321 571.089 826.321C571.331 824.026 572.599 824.751 573.021 826.382C576.825 826.382 566.923 818.772 571.874 816.295C571.874 815.088 570.606 813.095 572.357 811.343C577.007 811.343 573.504 810.256 575.678 807.357C576.946 807.357 582.622 799.868 582.803 798.297C581.475 797.935 574.893 802.586 574.35 803.733C571.814 804.579 572.055 800.472 571.874 797.391C568.07 797.391 560.402 798.237 558.228 793.889C555.813 793.889 552.794 784.285 557.564 781.93C557.684 780.662 569.942 758.617 570.244 758.436C570.546 755.959 574.41 742.733 576.101 741.646C576.221 735.243 578.576 712.474 576.342 711.749C575.316 709.153 577.55 693.63 573.806 692.423C572.961 690.248 568.855 675.753 567.949 675.451C567.889 674.424 567.225 671.646 566.319 671.224C566.319 668.808 592.041 677.142 593.068 680.344C594.879 680.947 588.781 692.483 593.672 694.899C595.362 700.033 604.238 697.858 605.687 693.389C606.714 693.087 609.733 688.074 611.605 693.812C620.783 696.832 618.971 747.021 612.39 750.283C611.967 756.382 609.069 749.618 608.706 757.107C606.955 757.107 607.921 764.113 607.197 761.093C603.393 761.093 605.265 766.71 609.129 762.845C616.254 761.879 621.869 743.276 628.088 739.109C628.813 737.599 633.161 733.19 633.161 735.546C627.908 737.297 623.923 751.369 620.783 752.154C620.239 755.476 617.281 755.778 617.281 760.187C620.541 760.187 629.176 740.68 633.946 738.324C635.757 734.64 642.761 724.855 646.505 724.131C648.558 720.024 654.173 717.004 659.064 716.702C659.064 716.279 653.267 713.803 659.124 712.353C659.97 697.738 707.188 672.673 711.535 692.302C714.011 693.087 714.071 696.711 716.184 697.738C716.184 699.428 708.093 701.18 706.946 704.14C704.833 704.804 697.043 715.675 696.862 718.937C695.534 719.842 697.165 725.701 699.217 725.942C701.33 729.144 709.542 724.735 710.448 727.513C716.547 728.238 702.719 741.223 699.519 742.008C699.519 745.692 670.838 749.135 668.484 750.283C668.484 752.94 667.457 777.34 664.619 778.729C662.747 777.823 667.879 756.322 667.457 752.879C667.215 752.879 667.155 745.088 666.068 748.35C663.593 748.833 666.37 767.375 663.411 769.609C663.291 773.777 659.909 790.627 664.8 792.258C664.8 797.573 646.445 794.432 643.788 790.446C638.353 787.728 640.889 791.473 640.889 795.278C630.685 796.788 622.654 815.812 613.174 816.537C612.631 824.57 608.163 814.242 605.566 822.154C601.461 822.939 602.91 828.375 602.91 828.314C597.355 827.831 604.178 822.335 598.804 824.993C598.441 825.536 591.619 830.187 596.208 829.643C596.751 826.08 602.367 831.576 596.509 832.542C596.268 833.388 600.374 834.173 597.174 834.958C596.509 836.83 596.992 834.414 596.932 834.173C593.249 834.173 596.026 837.072 591.438 839.367C591.438 840.575 579.844 843.112 578.878 843.353V843.353Z" fill="#FF4864"/>
<path fill-rule="evenodd" clip-rule="evenodd" d="M418.896 791.39C415.686 794.92 410.818 799.605 409.938 801.081C404.943 809.453 389.23 809.851 384.152 814.969C383.344 815.783 381.315 812.734 384.877 812.311C386.87 807.359 392.968 806.272 393.391 800.776C395.685 799.628 392.847 796.307 392.425 799.447C384.032 805.728 387.353 800.051 387.353 791.294C382.281 791.294 376.484 821.25 376.363 826.505C374.673 827.048 371.412 837.195 369.963 837.678C368.091 843.295 359.155 839.792 355.109 842.51C352.332 837.92 345.026 837.255 342.731 831.457C336.21 831.457 337.055 814.969 332.949 812.916C332.949 808.869 324.979 797.213 328.602 795.4C329.387 792.683 312.963 789.542 311.091 787.67C310.729 783.502 293.943 785.194 291.166 785.375C289.958 783.744 299.076 774.624 292.796 774.624C292.796 778.067 278.667 792.018 275.105 788.455C274.984 782.778 270.334 774.443 275.769 770.819C278.063 766.229 284.705 760.673 285.309 755.418C289.838 753.908 279.573 766.652 283.377 765.927C284.464 757.955 292.555 749.499 293.823 740.923C296.358 739.655 298.593 732.83 300.948 731.682C301.129 729.871 311.152 713.02 305.416 715.858C305.174 718.214 295.815 733.374 293.702 734.4C293.702 736.333 283.316 744.97 281.384 745.936C280.841 745.694 273.716 740.198 273.293 739.353C268.161 738.084 274.199 744.607 272.569 745.392C271.965 752.036 264.719 730.595 265.262 742.554C269.67 744.003 268.342 752.519 265.806 746.117C263.028 745.211 263.934 740.259 261.157 739.353C260.311 740.198 262.123 744.728 260.915 744.124C260.915 740.259 251.133 733.253 260.734 730.535C261.157 723.891 270.214 725.159 272.81 720.811C275.708 721.173 271.12 727.998 270.033 728.542C270.033 733.434 276.312 726.428 276.856 724.254C281.263 722.079 282.954 706.92 276.856 704.927C275.95 696.411 254.635 699.129 250.711 697.196C250.711 681.795 278.788 680.285 288.569 684.151C288.569 685.841 302.034 687.17 302.759 692.244C309.944 692.244 312.48 709.155 315.258 708.853C315.862 698.947 328.36 714.651 328.964 717.489C336.874 720.086 347.441 755.056 348.105 762.605C351.848 764.478 350.581 788.878 355.411 789.482C355.411 788.878 355.169 777.282 356.558 782.838C358.007 782.838 357.102 788.455 360.423 788.878C361.268 794.917 365.012 789.24 361.57 786.945C361.449 785.616 354.566 767.981 354.203 767.86C352.694 764.115 350.943 747.385 348.045 745.694C347.441 738.447 342.067 727.757 337.901 722.2C337.659 717.489 326.368 706.255 332.466 703.235C333.251 703.598 334.58 705.953 336.15 706.739C337.237 710.06 346.595 706.678 347.38 703.175C353.298 700.216 353.056 679.138 347.199 676.238C348.166 672.313 357.343 672.131 360.483 671.346C361.811 665.246 372.74 670.138 370.446 665.488C359.276 665.488 339.048 666.152 335.365 677.265C332.889 678.05 329.87 693.935 328.843 694.176C328.843 701.182 322.262 691.881 321.9 698.827C320.934 699.793 320.994 694.418 319.666 694.961C319.183 701.001 316.948 693.693 316.948 695.444C310.91 695.444 311.997 688.016 306.14 687.17C305.416 684.875 295.03 681.493 292.917 681.372C291.407 678.353 276.614 680.164 275.648 678.171C272.146 678.171 256.206 679.258 254.998 682.882C248.054 683.728 244.974 701.605 244.854 707.222C243.465 707.886 243.827 709.638 242.922 710.543C241.11 710.543 238.332 698.223 238.212 695.686C236.944 695.324 231.449 670.44 231.147 666.454C230.363 666.092 230.423 663.435 230.906 662.951C235.011 666.273 240.567 667.964 244.31 662.951C250.65 660.837 254.213 635.471 250.831 634.384C249.684 631.545 250.348 621.58 247.39 619.828C247.39 616.567 241.653 611.916 238.332 611.735C237.185 608.172 225.109 622.425 229.155 614.272C230.906 613.426 230.906 588.181 234.71 585.644C235.495 576.101 246.303 557.741 254.877 552.064C257.836 546.084 268.402 540.77 270.093 535.696C271.361 535.273 292.615 517.456 292.676 517.275C294.245 517.094 312.299 503.867 312.903 502.961C315.077 502.236 338.806 485.144 339.108 484.299C339.591 484.299 325.522 488.768 325.522 491.728C323.832 491.969 330.112 476.387 329.508 478.319C326.308 479.346 324.013 488.949 323.651 480.252C321.9 479.407 324.496 478.139 324.496 476.87C317.371 476.326 318.82 458.57 312.843 455.61C312.843 450.054 306.986 443.29 305.959 436.586C304.691 436.586 305.959 434.23 304.752 433.868C303.544 430.848 303.302 405.904 304.389 405.361C304.752 400.831 309.039 381.866 312.36 379.39C315.016 380.719 309.22 396.965 313.688 397.811C313.748 390.02 314.654 367.311 321.9 362.479C322.02 361.09 326.972 353.239 326.972 356.56C325.402 357.587 322.02 369.787 321.9 372.384C320.511 373.773 322.202 367.915 320.451 368.579C320.33 372.746 321.779 382.712 317.975 382.712C314.412 379.149 320.088 393.523 320.269 393.584C320.571 399.804 334.761 431.211 340.376 433.083C341.342 440.028 351.245 446.007 353.177 453.798C354.143 454.282 363.019 469.623 363.14 470.77C365.615 471.555 369.722 486.775 369.722 489.191C367.97 489.191 370.084 493.418 368.212 494.325C367.91 501.089 353.419 521.261 346.475 524.704C346.112 526.274 326.549 548.923 326.308 548.983C326.308 552.305 315.681 559.613 315.198 564.022C312.42 564.022 306.925 580.208 305.235 573.323C304.088 573.323 296.177 561.123 298.532 560.579C300.767 556.11 311.212 547.896 315.922 547.111C316.767 544.575 318.881 544.695 314.654 545.722C314.654 546.628 298.955 554.661 297.627 558.767C294.97 559.432 295.03 552.003 290.985 552.426C290.985 554.177 296.48 567.102 297.506 567.404C299.257 572.78 304.933 576.343 305.416 583.168C305.416 583.168 295.513 578.578 294.306 574.893C289.898 574.41 288.086 567.827 283.498 567.344C283.498 569.156 287.362 570.303 287.664 573.142C291.226 573.323 312.722 592.71 314.715 596.696C315.56 596.938 319.424 600.864 319.786 601.649C322.443 601.649 338.867 625.505 338.867 629.069C336.874 629.492 320.632 632.693 320.451 633.478C320.028 633.478 315.499 634.203 315.379 634.082C315.379 629.19 313.929 622.486 316.284 617.775C320.269 616.446 315.016 597.663 311.091 595.73C310.608 593.616 306.321 593.314 308.616 596.334C307.106 599.414 301.431 614.815 296.6 605.092C292.192 605.092 295.091 599.233 296.117 597.723C298.11 597.059 297.264 582.685 295.875 589.086C294.849 589.086 295.151 590.717 295.091 591.503C293.279 591.986 288.932 595.851 288.449 592.65C283.316 591.381 286.698 573.746 286.698 573.867C282.35 575.316 282.894 591.683 286.637 594.16C287.06 598.267 291.045 602.313 292.796 605.816C296.238 606.541 297.506 611.071 300.162 611.916C301.25 619.889 311.091 624.6 312.178 631.908C314.654 631.908 311.454 635.652 310.729 636.196C306.503 636.437 275.346 648.517 274.924 651.355C273.595 651.778 262.968 658.24 266.591 657.817C266.591 655.522 282.773 651.778 283.498 649.604C285.731 649.362 306.563 641.39 307.227 640.303C309.341 640.121 324.798 635.652 324.979 635.229C330.655 635.411 312.541 643.564 311.997 645.195C309.944 645.678 301.612 651.597 305.174 652.019C306.563 649.181 329.749 638.611 333.674 637.766C334.701 634.565 356.136 629.008 360.121 627.015C366.219 626.653 384.756 617.654 386.749 626.774C386.809 626.774 392.425 632.149 392.425 634.928C387.594 637.343 387.715 644.651 381.616 645.497C381.496 646.886 381.375 662.287 379.865 654.677C373.948 652.744 371.472 670.923 380.832 673.219C380.832 675.876 390.734 670.078 392.425 671.769C392.425 677.93 386.749 686.566 381.616 689.103C381.435 690.432 382.22 695.263 384.937 694.599C386.99 688.318 399.187 687.714 402.75 680.587C407.761 680.225 402.025 669.535 407.399 673.098C407.58 676.601 411.263 687.533 406.916 688.982C406.795 695.264 410.237 687.472 411.082 693.089C413.256 694.539 419.294 716.523 419.536 719.784C422.072 720.63 425.996 751.009 425.996 754.391C423.943 754.391 425.563 767.378 423.521 769.551C422.197 770.96 420.098 790.068 418.896 791.39V791.39Z" fill="#FF4864"/>
<path fill-rule="evenodd" clip-rule="evenodd" d="M420.49 793.78C422.685 790.095 423.475 772.547 428.533 774.682C429.924 775.269 445.38 778.729 445.621 779.454C447.976 779.514 463.615 782.111 463.856 782.836C471.645 782.957 518.863 788.332 521.158 783.742C531.241 783.742 540.117 779.514 550.08 778.608C550.08 776.736 557.446 777.461 552.797 779.756C552.193 784.769 541.808 791.473 537.641 792.379C536.736 795.096 525.384 801.016 522.607 801.378C520.856 804.881 504.673 805.908 500.869 806.451C500.326 807.538 499.42 807.297 498.273 807.357C497.307 809.35 510.651 805.304 510.651 807.055C507.934 809.048 489.397 812.309 488.914 813.819C486.62 813.94 471.464 817.504 471.283 818.107C467.902 818.228 452.625 820.584 451.901 819.134C449.002 819.134 429.982 817.745 429.258 814.846C426.42 814.544 407.219 806.814 408.245 806.149C408.245 804.096 417.182 794.734 419.476 795.64C419.476 798.116 434.752 799.626 436.262 802.163C438.556 802.223 453.41 804.216 453.833 805.485C459.811 805.606 491.45 810.981 489.699 806.511C485.955 806.511 467.539 807.599 466.151 804.821C460.595 804.821 429.597 799.651 426.722 796.305C426.013 795.479 417.411 794.504 420.49 793.78V793.78Z" fill="#FF7474"/>
<path fill-rule="evenodd" clip-rule="evenodd" d="M578.759 838.403C578.518 837.195 580.329 837.195 580.329 838.403H578.759Z" fill="black"/>
<path fill-rule="evenodd" clip-rule="evenodd" d="M581.414 838.403C581.173 837.074 582.984 837.376 582.682 838.403H581.414Z" fill="black"/>
<path fill-rule="evenodd" clip-rule="evenodd" d="M584.616 838.403C584.194 836.349 591.258 834.356 591.258 836.531C588.119 836.591 588.36 838.222 584.616 838.403Z" fill="black"/>
<path fill-rule="evenodd" clip-rule="evenodd" d="M575.557 836.53C575.316 835.745 573.444 835.08 575.376 834.718C575.376 833.993 580.327 836.53 575.557 836.53Z" fill="black"/>
<path fill-rule="evenodd" clip-rule="evenodd" d="M573.021 834.112C572.961 833.266 569.76 828.193 572.9 829.219C572.9 831.877 575.436 833.81 573.021 834.112Z" fill="black"/>
<path fill-rule="evenodd" clip-rule="evenodd" d="M589.688 830.671C589.567 829.886 589.567 829.826 590.292 829.826C590.473 830.55 590.292 830.671 589.688 830.671Z" fill="black"/>
<path fill-rule="evenodd" clip-rule="evenodd" d="M591.741 830.671C589.748 828.678 594.579 828.859 592.224 830.007C592.224 830.49 592.163 830.55 591.741 830.671Z" fill="black"/>
<path fill-rule="evenodd" clip-rule="evenodd" d="M601.704 830.671C601.402 830.188 601.16 829.222 601.824 829.101C602.247 829.524 602.126 830.248 601.704 830.671Z" fill="white"/>
<path fill-rule="evenodd" clip-rule="evenodd" d="M599.045 827.468C598.622 827.046 598.683 826.381 599.408 826.623C599.408 827.287 599.588 827.106 599.045 827.468Z" fill="white"/>
<path fill-rule="evenodd" clip-rule="evenodd" d="M605.99 825.717C605.929 825.596 605.869 825.415 605.748 825.234C607.197 823.301 607.318 824.389 605.99 825.717Z" fill="white"/>
<path fill-rule="evenodd" clip-rule="evenodd" d="M595.847 822.395C590.171 822.395 599.53 818.047 599.53 821.429C596.451 821.55 597.296 821.912 595.847 822.395Z" fill="black"/>
<path fill-rule="evenodd" clip-rule="evenodd" d="M588.117 821.43C587.634 819.437 585.219 820.162 589.385 820.645C589.385 821.672 589.083 821.43 588.117 821.43Z" fill="black"/>
<path fill-rule="evenodd" clip-rule="evenodd" d="M608.407 820.645C607.803 819.376 609.796 819.678 609.373 820.524C609.071 820.524 608.769 820.584 608.407 820.645Z" fill="white"/>
<path fill-rule="evenodd" clip-rule="evenodd" d="M583.954 819.074C581.961 816.537 577.493 819.194 578.64 815.691C579.244 815.691 586.731 814.181 582.263 815.631C580.874 817.926 585.342 817.684 583.954 819.074V819.074Z" fill="black"/>
<path fill-rule="evenodd" clip-rule="evenodd" d="M231.69 818.288C227.705 816.295 222.27 811.222 221.244 806.511C217.923 806.511 219.916 790.446 220.761 792.982C224.746 793.284 235.675 800.17 233.924 803.733C231.509 804.518 233.26 817.262 231.69 818.288V818.288Z" fill="#FF7474"/>
<path fill-rule="evenodd" clip-rule="evenodd" d="M715.643 818.288C711.779 815.993 710.934 804.518 706.465 803.068C705.861 800.653 724.398 775.226 724.398 798.962C722.829 798.962 721.5 813.638 717.998 814.061C717.877 815.51 717.092 817.926 715.643 818.288V818.288Z" fill="#FF7474"/>
<path fill-rule="evenodd" clip-rule="evenodd" d="M595.847 817.503C593.915 815.57 596.33 813.215 596.33 817.321L595.847 817.503Z" fill="black"/>
<path fill-rule="evenodd" clip-rule="evenodd" d="M239.419 809.714C232.958 809.714 243.041 798.178 235.796 798.178C235.313 792.923 224.988 788.816 220.58 788.635C219.976 786.703 218.769 789.662 217.983 788.031C216.353 787.729 219.493 777.039 220.58 777.402C220.58 777.522 223.961 772.63 225.712 777.039C226.316 777.22 238.453 785.193 238.513 785.374C245.578 785.374 261.518 781.025 263.511 772.932C272.387 769.973 265.02 761.94 270.696 760.068C271.3 752.76 281.202 751.008 281.021 751.069C280.779 754.813 273.534 764.537 270.032 766.289C268.703 771.604 279.33 757.35 280.055 756.867C280.417 754.874 286.576 745.875 287.482 747.203C287.482 755.176 276.492 764.054 274.198 770.939C272.507 771.483 269.186 778.187 267.495 776.918C267.495 766.228 266.046 788.937 268.583 778.791C271.722 777.764 270.877 774.261 270.877 779.395C273.171 780.12 266.831 794.856 265.805 798.057C262.907 799.024 261.82 804.157 258.499 804.942C258.499 807.479 241.532 809.714 239.419 809.714V809.714Z" fill="#FF4864"/>
<path fill-rule="evenodd" clip-rule="evenodd" d="M693.182 809.714C685.453 809.714 676.275 792.803 679.536 786.28C681.347 785.676 680.2 770.939 683.642 777.885C684.849 778.005 693.423 781.267 693.725 781.931C699.401 782.294 714.919 786.521 718.119 781.207C719.87 781.207 719.628 779.153 721.983 778.67C723.553 773.899 723.734 785.313 720.413 785.313C719.206 781.63 711.236 790.508 709.545 791.353C708.941 793.165 695.778 805.788 703.326 806.452C706.828 811.707 696.744 809.653 693.182 809.714V809.714Z" fill="#FF4864"/>
<path fill-rule="evenodd" clip-rule="evenodd" d="M257.533 802.285C257.352 801.56 263.329 796.426 262.242 799.748C260.793 799.748 258.861 802.043 257.533 802.285Z" fill="black"/>
<path fill-rule="evenodd" clip-rule="evenodd" d="M507.572 800.534C507.451 800.111 491.812 796.306 498.756 796.306C498.756 798.239 518.078 800.232 518.018 800.534H507.572V800.534Z" fill="black"/>
<path fill-rule="evenodd" clip-rule="evenodd" d="M261.941 797.33C261.518 797.33 261.639 796.726 261.639 796.424C262.605 796.183 262.726 797.089 261.941 797.33Z" fill="black"/>
<path fill-rule="evenodd" clip-rule="evenodd" d="M264.295 797.33C264.295 796.726 264.295 796.122 264.235 795.519C265.503 795.519 265.322 797.089 264.295 797.33Z" fill="black"/>
<path fill-rule="evenodd" clip-rule="evenodd" d="M672.229 794.675C666.916 791.474 662.991 783.804 666.251 777.221C668.606 776.073 670.116 753.847 670.116 751.13C670.538 750.707 682.675 752.036 678.449 754.572C678.267 757.29 672.048 768.765 676.697 770.275C676.818 771.785 677.905 773.355 679.354 773.899C679.958 775.168 675.369 791.776 675.006 794.374C674.765 794.555 674.765 794.555 672.229 794.675V794.675Z" fill="#FF4864"/>
<path fill-rule="evenodd" clip-rule="evenodd" d="M359.395 793.89C358.912 793.406 358.792 792.078 359.878 792.44C359.878 793.165 360.059 793.709 359.395 793.89Z" fill="black"/>
<path fill-rule="evenodd" clip-rule="evenodd" d="M508.357 792.258C508.357 787.849 531.664 793.586 533.475 788.091C536.011 788.091 538.487 784.588 537.4 787.91C536.313 787.91 527.497 791.896 527.437 792.137C521.097 792.137 514.757 792.198 508.357 792.258V792.258Z" fill="black"/>
<path fill-rule="evenodd" clip-rule="evenodd" d="M571.271 791.174C571.271 788.214 572.298 781.389 575.377 780.181C575.377 778.551 578.094 778.853 577.611 780.423C575.196 780.423 585.944 787.067 577.853 787.067C577.853 787.067 571.452 791.174 571.271 791.174V791.174Z" fill="black"/>
<path fill-rule="evenodd" clip-rule="evenodd" d="M300.584 788.817C299.618 788.274 296.78 788.032 296.599 787.247C294.908 786.402 309.822 785.858 308.434 788.697C305.234 788.697 304.63 788.697 300.584 788.817Z" fill="#FF5555"/>
<path fill-rule="evenodd" clip-rule="evenodd" d="M266.228 784.649C266.167 784.649 266.046 784.589 265.926 784.528C265.926 781.206 268.462 783.924 266.228 784.649Z" fill="black"/>
<path fill-rule="evenodd" clip-rule="evenodd" d="M669.571 783.744C668.605 783.261 671.926 769.853 671.986 766.229C674.462 765.444 671.261 752.036 674.28 753.003C674.341 756.566 673.193 782.536 669.571 783.744Z" fill="black"/>
<path fill-rule="evenodd" clip-rule="evenodd" d="M211.522 782.959C209.107 778.067 207.356 752.821 213.817 750.707C215.809 736.696 229.637 756.566 229.637 762.786C223.78 764.719 214.541 774.081 213.757 780.422C212.186 780.422 214.179 782.717 211.522 782.959V782.959Z" fill="#FF7474"/>
<path fill-rule="evenodd" clip-rule="evenodd" d="M240.203 781.208C237.667 779.698 229.214 775.531 227.946 772.994C225.108 772.33 231.75 758.258 232.475 769.31C236.641 769.31 232.173 747.749 226.497 745.876C225.289 742.192 214.662 741.044 217.319 736.998C219.311 736.515 231.026 723.348 232.535 720.812C238.512 720.812 241.35 714.228 241.35 724.013C239.418 725.281 245.094 740.139 245.879 743.279C247.268 743.702 246.302 749.017 245.094 749.379C245.094 761.036 252.762 738.327 253.548 740.803C253.548 740.803 258.499 749.923 261.457 750.889C261.759 752.52 274.318 753.124 267.495 757.231C267.073 762.848 258.619 775.591 253.426 778.188C253.426 779.577 241.713 781.208 240.203 781.208V781.208Z" fill="#FF4864"/>
<path fill-rule="evenodd" clip-rule="evenodd" d="M529.428 781.208C529.367 781.088 529.307 780.906 529.186 780.725C529.669 780.061 530.454 780.906 529.428 781.208Z" fill="white"/>
<path fill-rule="evenodd" clip-rule="evenodd" d="M704.715 780.423C702.058 778.852 690.404 779.396 689.137 776.135C679.234 776.135 680.925 754.573 684.548 750.949C686.963 750.768 698.677 747.929 699.764 746.057C701.032 745.876 708.338 741.406 708.7 740.319C711.538 739.413 716.127 725.945 719.025 731.743C720.837 731.864 721.44 732.468 722.95 732.83C723.856 735.548 727.66 724.435 728.988 729.086C731.584 730.354 735.63 742.977 733.999 743.52C732.49 746.601 721.742 742.735 725.244 746.238C725.244 750.285 701.515 760.975 716.912 766.109C717.455 768.343 723.614 771.967 719.689 773.9C717.153 779.033 710.451 780.302 704.715 780.423V780.423Z" fill="#FF4864"/>
<path fill-rule="evenodd" clip-rule="evenodd" d="M603.151 778.79C603.151 777.643 603.514 774.804 604.48 774.321C605.446 772.328 605.566 778.488 603.151 778.79Z" fill="black"/>
<path fill-rule="evenodd" clip-rule="evenodd" d="M729.954 776.131C729.229 775.769 725.486 770.695 726.693 769.488C729.29 769.488 721.5 766.166 720.232 763.629C713.832 761.515 718.481 756.382 718.904 757.71C722.829 757.71 733.456 741.886 736.535 754.207C741.064 755.717 743.902 767.555 739.796 769.608C739.131 771.662 732.188 776.01 729.954 776.131V776.131Z" fill="#FF7474"/>
<path fill-rule="evenodd" clip-rule="evenodd" d="M606.775 773.718C606.292 773.718 606.473 772.631 606.473 772.329C607.62 772.027 607.5 773.476 606.775 773.718Z" fill="black"/>
<path fill-rule="evenodd" clip-rule="evenodd" d="M538.487 770.273C538.306 769.428 538.427 769.428 539.151 769.428C539.151 770.213 539.272 770.273 538.487 770.273Z" fill="black"/>
<path fill-rule="evenodd" clip-rule="evenodd" d="M729.773 770.273C729.471 768.824 731.705 769.126 731.343 770.273H729.773Z" fill="black"/>
<path fill-rule="evenodd" clip-rule="evenodd" d="M281.262 769.43C280.779 769.43 282.108 763.632 282.531 767.739C281.081 768.102 282.41 769.068 281.262 769.43Z" fill="black"/>
<path fill-rule="evenodd" clip-rule="evenodd" d="M609.794 769.43C609.612 768.645 609.733 768.645 610.458 768.645C610.458 769.249 610.397 769.31 609.794 769.43Z" fill="black"/>
<path fill-rule="evenodd" clip-rule="evenodd" d="M515.179 768.645C514.877 767.256 517.594 767.498 517.231 768.645H515.179Z" fill="black"/>
<path fill-rule="evenodd" clip-rule="evenodd" d="M540.417 768.645C540.236 767.618 544.161 766.471 544.161 765.384C542.108 764.719 545.671 765.142 546.395 764.598C547.24 764.779 541.444 768.645 540.417 768.645Z" fill="black"/>
<path fill-rule="evenodd" clip-rule="evenodd" d="M518.377 767.86C518.136 766.652 519.947 766.652 519.947 767.86H518.377Z" fill="black"/>
<path fill-rule="evenodd" clip-rule="evenodd" d="M556.175 767.859C556.175 766.651 560.463 763.571 561.127 763.752C561.127 765.202 557.504 767.195 556.175 767.859Z" fill="black"/>
<path fill-rule="evenodd" clip-rule="evenodd" d="M613.478 767.859C612.874 767.859 613.116 766.712 613.116 766.289C614.324 765.987 614.143 767.678 613.478 767.859Z" fill="black"/>
<path fill-rule="evenodd" clip-rule="evenodd" d="M521.036 767.074C521.036 766.833 521.036 766.531 520.976 766.229C522.848 766.229 522.787 766.893 521.036 767.074Z" fill="black"/>
<path fill-rule="evenodd" clip-rule="evenodd" d="M614.865 765.323C613.839 760.673 617.522 755.539 616.314 763.451C615.227 763.995 616.073 765.021 614.865 765.323Z" fill="black"/>
<path fill-rule="evenodd" clip-rule="evenodd" d="M317.914 764.538C317.914 764.296 317.853 763.994 317.793 763.692C319.001 763.692 319.001 764.356 317.914 764.538Z" fill="black"/>
<path fill-rule="evenodd" clip-rule="evenodd" d="M527.072 764.538C525.26 764.538 536.069 758.981 536.189 758.74C538.182 758.74 553.035 748.049 553.639 745.271C557.202 744.788 567.466 733.675 568.674 730.051C569.882 730.051 571.331 724.495 572.841 725.461C569.761 728.541 567.285 737.238 562.757 739.473C562.757 741.647 554.424 745.332 553.398 748.412C545.85 750.888 540.235 760.189 532.627 761.095C532.627 761.216 527.253 764.477 527.072 764.538V764.538Z" fill="black"/>
<path fill-rule="evenodd" clip-rule="evenodd" d="M548.041 764.55C547.135 764.55 558.184 756.94 558.607 755.188C564.524 753.739 568.57 741.599 572.012 740.935C572.012 747.337 552.992 762.919 548.041 764.55V764.55Z" fill="black"/>
<path fill-rule="evenodd" clip-rule="evenodd" d="M412.953 763.572C411.201 763.572 414.341 758.741 414.341 758.68C410.96 758.68 417.119 743.038 416.636 751.916C415.609 751.916 414.16 760.13 415.186 758.076C416.817 757.653 414.16 763.21 412.953 763.572V763.572Z" fill="black"/>
<path fill-rule="evenodd" clip-rule="evenodd" d="M275.405 748.53C272.749 746.96 276.734 744.967 277.579 746.718C279.934 747.684 276.07 748.53 275.405 748.53Z" fill="#FF5555"/>
<path fill-rule="evenodd" clip-rule="evenodd" d="M217.259 747.749C217.078 746.903 217.259 746.964 218.044 746.964C218.044 747.809 218.104 747.749 217.259 747.749Z" fill="black"/>
<path fill-rule="evenodd" clip-rule="evenodd" d="M546.397 742.672C545.793 741.464 548.329 740.377 549.234 740.075C549.356 739.41 563.907 720.808 564.088 720.748C564.39 718.151 570.247 710.42 567.832 714.467C567.832 723.949 552.616 737.478 546.397 742.672V742.672Z" fill="black"/>
<path fill-rule="evenodd" clip-rule="evenodd" d="M629.298 742.672C628.875 742.249 628.694 740.679 629.66 741.162C629.66 741.886 629.721 742.249 629.298 742.672Z" fill="white"/>
<path fill-rule="evenodd" clip-rule="evenodd" d="M619.335 741.886C618.671 741.222 619.215 741.101 619.758 740.92C619.758 741.403 619.637 741.585 619.335 741.886Z" fill="white"/>
<path fill-rule="evenodd" clip-rule="evenodd" d="M247.691 736.936C243.283 732.528 244.37 702.269 254.876 701.423C256.748 697.618 275.104 704.262 275.949 709.637C277.277 710.06 275.587 717.791 274.802 718.274C269.005 718.515 255.419 722.743 253.367 729.025C249.865 729.87 249.925 735.426 247.691 736.936V736.936Z" fill="#FF7474"/>
<path fill-rule="evenodd" clip-rule="evenodd" d="M545.611 733.492C545.31 732.888 547.06 730.955 547.604 730.714C550.019 727.09 547.121 732.224 545.611 733.492Z" fill="black"/>
<path fill-rule="evenodd" clip-rule="evenodd" d="M475.086 731.864C474.663 731.864 474.784 731.259 474.784 730.958C475.75 730.716 475.871 731.622 475.086 731.864Z" fill="black"/>
<path fill-rule="evenodd" clip-rule="evenodd" d="M477.319 731.864C477.319 730.052 481.304 730.233 481.304 731.743C479.976 731.743 478.647 731.803 477.319 731.864Z" fill="black"/>
<path fill-rule="evenodd" clip-rule="evenodd" d="M721.68 729.99C715.339 726.185 709.241 724.313 700.546 724.131C696.138 719.723 709.06 706.677 712.441 704.986C722.525 704.986 723.129 705.65 729.469 709.878C729.469 711.569 726.933 725.4 725.362 726.004C725.121 728.661 724.638 729.809 721.68 729.99Z" fill="#FF7474"/>
<path fill-rule="evenodd" clip-rule="evenodd" d="M550.56 728.419C550.259 727.755 557.202 718.454 558.41 718.454C558.41 720.628 551.768 727.211 550.56 728.419Z" fill="black"/>
<path fill-rule="evenodd" clip-rule="evenodd" d="M540.417 726.791C540.417 726.248 548.629 716.584 546.576 720.691C545.61 720.691 542.953 726.429 540.417 726.791Z" fill="black"/>
<path fill-rule="evenodd" clip-rule="evenodd" d="M529.309 722.561C529.188 721.776 529.188 721.715 529.913 721.715C530.094 722.44 529.913 722.561 529.309 722.561Z" fill="black"/>
<path fill-rule="evenodd" clip-rule="evenodd" d="M531.963 721.714C531.963 719.842 538.967 718.574 540.96 718.453C540.96 719.721 533.171 721.654 531.963 721.714Z" fill="black"/>
<path fill-rule="evenodd" clip-rule="evenodd" d="M703.93 721.714C703.507 721.714 703.628 721.17 703.628 720.929C704.533 720.687 704.714 721.472 703.93 721.714Z" fill="black"/>
<path fill-rule="evenodd" clip-rule="evenodd" d="M345.749 720.024C345.266 718.575 339.168 715.495 344.723 712.173C345.689 704.322 357.342 719.058 345.749 720.024Z" fill="black"/>
<path fill-rule="evenodd" clip-rule="evenodd" d="M708.878 720.025C708.577 718.636 711.233 718.696 711.233 720.025H708.878Z" fill="black"/>
<path fill-rule="evenodd" clip-rule="evenodd" d="M345.93 718.392C343.575 718.392 344.904 709.816 347.862 712.775C347.862 715.674 349.191 718.211 345.93 718.392Z" fill="#FF5555"/>
<path fill-rule="evenodd" clip-rule="evenodd" d="M608.223 716.825C608.223 714.711 608.284 714.228 610.457 714.228C610.457 716.765 610.759 716.644 608.223 716.825Z" fill="black"/>
<path fill-rule="evenodd" clip-rule="evenodd" d="M554.425 709.879C554.425 707.343 556.84 707.584 555.33 708.309C555.21 709.275 555.391 709.638 554.425 709.879Z" fill="black"/>
<path fill-rule="evenodd" clip-rule="evenodd" d="M602.366 709.032C601.762 707.099 597.475 703.777 602.909 702.992C604.298 700.214 612.269 708.489 602.366 709.032Z" fill="black"/>
<path fill-rule="evenodd" clip-rule="evenodd" d="M603.336 707.461C602.491 707.461 601.162 702.63 605.57 705.227C605.57 706.676 604.604 707.28 603.336 707.461Z" fill="#FF5555"/>
<path fill-rule="evenodd" clip-rule="evenodd" d="M338.141 705.723C329.386 705.723 338.866 680.296 343.153 678.182C353.78 678.182 351.606 705.118 338.141 705.723Z" fill="#FF5555"/>
<path fill-rule="evenodd" clip-rule="evenodd" d="M551.104 703.174C550.923 701.604 555.572 695.866 556.176 693.269C556.297 693.269 561.852 678.17 561.852 683.908C561.187 683.908 557.866 695.081 556.236 695.624C555.994 696.832 552.553 703.174 551.104 703.174V703.174Z" fill="black"/>
<path fill-rule="evenodd" clip-rule="evenodd" d="M549.415 696.71C549.415 696.408 549.415 696.046 549.355 695.684C550.442 695.684 550.321 696.529 549.415 696.71Z" fill="black"/>
<path fill-rule="evenodd" clip-rule="evenodd" d="M596.632 695.565C590.655 695.565 594.338 677.627 598.082 683.908C605.931 684.875 606.837 695.202 596.632 695.565Z" fill="#FF5555"/>
<path fill-rule="evenodd" clip-rule="evenodd" d="M550.56 694.78C550.5 694.659 555.814 684.331 556.175 681.553C557.202 681.553 558.108 675.513 560.221 675.513C560.221 679.741 553.096 692.787 550.56 694.78V694.78Z" fill="black"/>
<path fill-rule="evenodd" clip-rule="evenodd" d="M550.56 684.814C550.198 684.029 551.829 682.096 551.829 683.908C551.043 683.908 550.923 684.21 550.56 684.814Z" fill="black"/>
<path fill-rule="evenodd" clip-rule="evenodd" d="M552.253 682.278C551.227 681.251 555.695 673.702 553.521 680.345C552.012 680.707 553.401 681.915 552.253 682.278Z" fill="black"/>
<path fill-rule="evenodd" clip-rule="evenodd" d="M562.273 681.492L561.971 681.311C561.971 679.861 563.541 681.069 562.273 681.492Z" fill="black"/>
<path fill-rule="evenodd" clip-rule="evenodd" d="M272.688 676.538C272.688 675.934 272.688 675.33 272.628 674.726C276.492 674.726 274.44 676.115 272.688 676.538Z" fill="black"/>
<path fill-rule="evenodd" clip-rule="evenodd" d="M350.821 676.538C350.398 676.538 350.519 675.934 350.519 675.632C351.485 675.39 351.606 676.296 350.821 676.538Z" fill="black"/>
<path fill-rule="evenodd" clip-rule="evenodd" d="M550.56 673.098C550.439 672.796 552.372 662.951 552.734 663.072C553.338 665.669 552.613 671.044 550.56 673.098Z" fill="black"/>
<path fill-rule="evenodd" clip-rule="evenodd" d="M371.592 668.025C371.592 665.609 376.242 666.817 372.438 667.24C372.317 667.904 372.378 668.025 371.592 668.025Z" fill="black"/>
<path fill-rule="evenodd" clip-rule="evenodd" d="M549.415 665.489C549.415 664.16 549.898 657.033 550.985 657.396C550.985 658.906 551.408 665.006 549.415 665.489Z" fill="black"/>
<path fill-rule="evenodd" clip-rule="evenodd" d="M568.915 665.489C568.492 664.643 566.802 651.537 569.579 657.094C571.632 658.422 573.081 665.247 568.915 665.489Z" fill="#AD9B0C"/>
<path fill-rule="evenodd" clip-rule="evenodd" d="M236.762 664.703C232.414 662.529 230.059 660.053 229.576 654.556C227.523 654.556 230.905 646.161 228.369 645.316C226.436 640.363 227.161 614.212 237.003 613.366C239.237 609.38 246.302 620.855 246.664 622.486C252.4 624.358 250.891 658.422 241.532 663.072C240.867 665.065 238.694 664.643 236.762 664.703V664.703Z" fill="#FF5555"/>
<path fill-rule="evenodd" clip-rule="evenodd" d="M563.059 662.167C561.549 661.261 560.704 653.651 562.636 655.584C562.757 657.154 564.267 660.959 563.059 662.167Z" fill="#AD9B0C"/>
<path fill-rule="evenodd" clip-rule="evenodd" d="M575.741 661.32C575.681 661.32 576.224 658.059 576.224 661.199C576.104 661.199 575.923 661.26 575.741 661.32Z" fill="black"/>
<path fill-rule="evenodd" clip-rule="evenodd" d="M385.419 660.412C383.366 656.244 381.736 653.949 383.185 649.601C384.513 649.299 394.839 635.287 396.831 639.333C400.877 641.327 399.246 648.635 399.246 652.681C394.174 653.768 391.699 656.848 387.472 658.962C387.472 659.083 385.721 660.351 385.419 660.412Z" fill="#FF5555"/>
<path fill-rule="evenodd" clip-rule="evenodd" d="M542.953 657.998C542.832 657.998 541.323 646.583 543.376 647.248C543.376 649.603 545.247 657.274 542.953 657.998Z" fill="black"/>
<path fill-rule="evenodd" clip-rule="evenodd" d="M546.397 657.998C545.793 657.998 546.095 653.71 546.095 653.106C547.725 652.683 546.94 657.817 546.397 657.998Z" fill="black"/>
<path fill-rule="evenodd" clip-rule="evenodd" d="M578.759 657.213C578.639 656.669 578.639 656.669 578.759 656.428C579.665 656.428 579.665 657.213 578.759 657.213Z" fill="black"/>
<path fill-rule="evenodd" clip-rule="evenodd" d="M572.42 655.339C571.756 655.037 571.092 653.89 570.428 653.467C570.246 649.36 574.775 652.984 572.42 655.339Z" fill="#FF4864"/>
<path fill-rule="evenodd" clip-rule="evenodd" d="M559.737 652.14C556.356 648.758 550.439 628.827 547.057 627.74C546.393 625.988 546.574 619.224 549.292 619.526C549.292 622.847 559.919 626.532 560.522 628.404C561.971 629.129 561.428 650.993 559.737 652.14Z" fill="#FF4864"/>
<path fill-rule="evenodd" clip-rule="evenodd" d="M259.586 647.853C255.359 647.853 255.178 638.43 260.733 642.115C260.733 643.866 261.277 647.309 259.586 647.853Z" fill="black"/>
<path fill-rule="evenodd" clip-rule="evenodd" d="M258.801 644.531C258.378 644.108 258.197 642.598 259.103 643.021C259.103 643.625 259.163 644.168 258.801 644.531Z" fill="white"/>
<path fill-rule="evenodd" clip-rule="evenodd" d="M255.902 636.316C255.178 634.021 250.287 628.827 253.246 626.593C254.212 611.131 270.636 635.531 255.902 636.316Z" fill="black"/>
<path fill-rule="evenodd" clip-rule="evenodd" d="M256.869 634.381C254.997 634.381 254.514 626.651 255.661 625.926C256.506 618.739 263.812 633.656 256.869 634.381Z" fill="#FF5555"/>
<path fill-rule="evenodd" clip-rule="evenodd" d="M350.036 626.167C349.976 626.107 348.043 604.122 347.802 601.767C345.447 601.767 347.017 595.848 349.915 601.646C351.546 601.646 359.758 623.751 354.927 624.476C354.927 624.959 350.881 626.107 350.036 626.167Z" fill="#FF5555"/>
<path fill-rule="evenodd" clip-rule="evenodd" d="M397.737 623.63C397.194 623.087 397.435 622.845 398.16 622.664C398.16 623.207 398.341 623.449 397.737 623.63Z" fill="black"/>
<path fill-rule="evenodd" clip-rule="evenodd" d="M544.523 621.88C543.678 621.034 544.463 620.309 545.188 619.886C545.791 616.263 548.448 621.336 544.523 621.88Z" fill="#AD9B0C"/>
<path fill-rule="evenodd" clip-rule="evenodd" d="M309.823 620.129C309.702 620.068 302.698 609.982 302.758 609.438C303.422 609.016 305.173 607.626 305.415 606.902C307.226 606.298 310.064 595.789 311.212 599.896C313.144 600.5 314.291 619.525 309.823 620.129V620.129Z" fill="#FF5555"/>
<path fill-rule="evenodd" clip-rule="evenodd" d="M404.741 617.772C403.956 616.202 404.621 599.231 401.058 599.231C400.937 597.419 408.787 580.327 410.78 579.662C410.78 578.575 417.965 570.482 419.354 571.871C419.474 578.817 424.425 590.111 417.603 593.493C415.308 600.378 409.089 605.089 408.243 613.484C406.432 613.484 408.123 617.47 404.741 617.772Z" fill="white"/>
<path fill-rule="evenodd" clip-rule="evenodd" d="M543.738 617.772C543.497 617.289 542.772 613.847 544.1 614.511C544.282 616.323 546.455 617.41 543.738 617.772Z" fill="white"/>
<path fill-rule="evenodd" clip-rule="evenodd" d="M541.321 613.485C537.577 611.25 541.683 605.211 541.683 613.183C541.563 613.243 541.441 613.364 541.321 613.485Z" fill="#FF4864"/>
<path fill-rule="evenodd" clip-rule="evenodd" d="M398.401 611.071C397.375 607.991 394.416 602.797 398.522 608.293C399.729 608.595 399.669 610.83 398.401 611.071Z" fill="black"/>
<path fill-rule="evenodd" clip-rule="evenodd" d="M454.796 611.071C452.622 603.824 465.785 612.038 467.234 607.689C472.367 607.387 500.987 598.509 503.403 603.34C505.999 603.522 512.883 605.394 505.878 606.179C505.878 608.414 495.553 602.495 493.862 605.877C492.172 605.877 483.96 606.24 482.33 607.87C482.33 608.776 492.594 606.964 494.768 606.843C494.768 607.81 479.311 612.46 478.707 609.199C470.314 609.259 463.612 610.95 454.796 611.071V611.071Z" fill="black"/>
<path fill-rule="evenodd" clip-rule="evenodd" d="M478.828 609.198C478.828 607.688 482.813 608.171 481.908 609.077C480.881 609.077 479.855 609.137 478.828 609.198Z" fill="white"/>
<path fill-rule="evenodd" clip-rule="evenodd" d="M539.571 607.627C539.51 607.506 539.45 607.325 539.329 607.144C539.812 606.479 540.597 607.325 539.571 607.627Z" fill="white"/>
<path fill-rule="evenodd" clip-rule="evenodd" d="M393.45 601.769C393.45 601.225 393.45 600.681 393.39 600.077C395.986 600.077 394.658 601.466 393.45 601.769Z" fill="black"/>
<path fill-rule="evenodd" clip-rule="evenodd" d="M291.286 599.232C289.414 595.488 290.742 595.729 293.882 594.159C297.022 594.28 293.399 598.991 291.286 599.232Z" fill="#FF5555"/>
<path fill-rule="evenodd" clip-rule="evenodd" d="M536.25 599.232C535.706 598.145 535.283 593.434 536.974 592.589C539.208 592.589 537.638 598.809 536.25 599.232Z" fill="#FF4864"/>
<path fill-rule="evenodd" clip-rule="evenodd" d="M453.046 590.956C452.502 588.903 449.121 590.655 449.725 589.084C462.284 589.024 471.764 587.272 482.874 586.668C482.874 588.48 481.002 586.608 480.519 588.118C471.583 588.42 461.801 590.473 453.046 590.956V590.956Z" fill="black"/>
<path fill-rule="evenodd" clip-rule="evenodd" d="M469.892 581.596C469.831 581.415 450.63 577.489 456.065 577.489C456.548 579.422 476.232 579.664 477.862 579.664C477.862 579.603 493.863 575.074 493.863 577.369C490.301 577.61 487.523 579.483 484.081 579.966C483.598 580.993 471.824 581.596 469.892 581.596V581.596Z" fill="black"/>
<path fill-rule="evenodd" clip-rule="evenodd" d="M506.786 579.06C506.424 577.973 500.447 577.913 500.93 576.704C504.552 576.704 524.659 577.489 524.418 577.489C522.727 580.086 509.021 579.06 506.786 579.06V579.06Z" fill="black"/>
<path fill-rule="evenodd" clip-rule="evenodd" d="M290.32 570.845C289.595 567.04 292.372 563.598 291.587 570.725C291.165 570.725 290.742 570.785 290.32 570.845Z" fill="black"/>
<path fill-rule="evenodd" clip-rule="evenodd" d="M281.926 567.344C281.323 565.532 280.96 565.411 283.315 566.559C283.315 567.646 283.073 567.223 281.926 567.344Z" fill="black"/>
<path fill-rule="evenodd" clip-rule="evenodd" d="M499.056 565.773C498.573 563.84 519.707 561.424 520.371 563.115C528.764 563.115 503.404 564.685 503.042 565.652C501.713 565.652 500.385 565.712 499.056 565.773V565.773Z" fill="black"/>
<path fill-rule="evenodd" clip-rule="evenodd" d="M279.512 564.807C279.27 563.478 281.081 563.78 280.779 564.807H279.512Z" fill="black"/>
<path fill-rule="evenodd" clip-rule="evenodd" d="M478.89 560.7C478.89 557.982 495.192 559.251 495.796 557.439C496.098 557.439 520.25 556.835 520.915 559.674C525.141 559.674 517.473 559.613 515.903 559.613C515.903 557.801 490.181 559.553 482.271 559.734C481.969 561.123 480.278 560.64 478.89 560.7Z" fill="black"/>
<path fill-rule="evenodd" clip-rule="evenodd" d="M415.488 559.735C414.764 559.01 415.669 555.99 416.575 555.688C416.938 553.755 424.425 554.601 419.473 557.56C419.473 557.681 416.092 559.553 415.488 559.735Z" fill="black"/>
<path fill-rule="evenodd" clip-rule="evenodd" d="M480.82 548.014C480.82 545.055 482.329 536.72 485.53 536.418C485.952 537.928 483.477 547.652 480.82 548.014Z" fill="black"/>
<path fill-rule="evenodd" clip-rule="evenodd" d="M317.793 544.692C317.793 543.605 326.729 536.659 325.28 532.975C321.778 531.224 329.567 511.414 330.473 507.79C330.594 507.79 336.934 501.147 335.303 506.159C331.379 507.428 333.19 525.063 335.545 517.936C335.666 517.936 340.919 509.24 342.791 508.333C343.274 506.763 348.406 501.569 349.493 501.025C351.244 489.792 349.493 482.846 346.957 472.579C344.844 471.552 343.394 466.66 340.617 465.754C339.953 456.936 328.178 451.742 326.065 443.226C322.503 443.226 316.525 413.994 315.438 413.632C315.438 412.968 313.929 405.177 315.378 405.66C315.378 409.344 321.537 435.677 324.556 436.643C324.797 440.146 332.888 453.554 336.934 454.883C337.236 456.453 339.953 457.722 340.557 459.654C341.583 459.654 339.832 451.561 339.832 449.809C344.059 449.809 345.085 461.949 347.078 462.613C347.802 471.009 347.078 450.051 350.7 457.359C358.308 461.164 348.346 478.739 352.935 480.249C352.935 480.853 349.251 485.141 352.15 486.108C352.391 493.537 353.78 503.502 346.474 507.126C344.783 510.568 339.349 512.26 338.866 517.755C336.089 517.755 337.236 523.795 334.881 524.58C334.639 525.607 333.975 525.486 333.794 526.936C326.005 528.868 326.609 543.847 317.793 544.692V544.692Z" fill="black"/>
<path fill-rule="evenodd" clip-rule="evenodd" d="M412.168 537.991C411.142 535.878 421.104 528.751 422.493 530.804C422.493 533.703 414.523 537.689 412.168 537.991Z" fill="#FF5555"/>
<path fill-rule="evenodd" clip-rule="evenodd" d="M441.332 536.42C441.332 530.924 440.245 527.784 445.317 528.75C446.827 533.401 449.001 536.179 441.332 536.42Z" fill="black"/>
<path fill-rule="evenodd" clip-rule="evenodd" d="M443.083 533.761C442.418 532.433 443.445 531.345 443.445 533.46C443.324 533.52 443.203 533.641 443.083 533.761Z" fill="white"/>
<path fill-rule="evenodd" clip-rule="evenodd" d="M327.394 530.562C326.126 529.294 328.903 514.134 329.93 513.651C333.492 515.403 331.258 527.603 327.877 529.596C327.877 530.019 327.635 530.321 327.394 530.562Z" fill="#FF5555"/>
<path fill-rule="evenodd" clip-rule="evenodd" d="M426.417 529.474C425.391 527.42 428.409 522.951 428.409 527.602C427.202 528.387 428.047 529.232 426.417 529.474Z" fill="white"/>
<path fill-rule="evenodd" clip-rule="evenodd" d="M435.656 527.056C429.678 527.056 435.414 508.877 435.112 506.22C432.818 506.22 435.112 498.852 436.984 502.596C441.875 504.227 443.565 522.044 439.701 523.01C439.52 527.238 440.063 526.936 435.656 527.056Z" fill="#FF5555"/>
<path fill-rule="evenodd" clip-rule="evenodd" d="M477.319 491.122C477.078 490.337 466.45 488.404 472.851 488.404C473.636 491.665 490.482 486.471 490.482 490.155C485.41 490.276 482.27 491.001 477.319 491.122Z" fill="black"/>
<path fill-rule="evenodd" clip-rule="evenodd" d="M485.11 486.049C484.688 483.935 506.002 484.66 497.307 485.264C496.945 486.895 487.103 486.049 485.11 486.049Z" fill="black"/>
<path fill-rule="evenodd" clip-rule="evenodd" d="M478.89 485.202C478.89 483.753 481.305 483.874 481.305 485.082C480.52 485.082 479.735 485.142 478.89 485.202Z" fill="black"/>
<path fill-rule="evenodd" clip-rule="evenodd" d="M339.832 483.513C339.772 482.546 341.523 480.311 341.221 483.392C340.798 483.392 340.315 483.452 339.832 483.513Z" fill="black"/>
<path fill-rule="evenodd" clip-rule="evenodd" d="M470.015 482.666C469.592 482.666 469.713 482.122 469.713 481.881C470.619 481.639 470.8 482.425 470.015 482.666Z" fill="black"/>
<path fill-rule="evenodd" clip-rule="evenodd" d="M349.251 473.367C348.648 472.099 351.063 461.771 351.183 461.832C351.183 463.402 351.486 473.126 349.251 473.367Z" fill="#FF5555"/>
<path fill-rule="evenodd" clip-rule="evenodd" d="M333.069 469.076C332.888 468.291 333.009 468.291 333.734 468.291C333.734 469.016 333.854 469.076 333.069 469.076Z" fill="black"/>
<path fill-rule="evenodd" clip-rule="evenodd" d="M344.179 465.877C343.998 465.696 343.153 459.535 344.722 461.106C344.843 462.978 346.594 465.273 344.179 465.877Z" fill="#FF5555"/>
<path fill-rule="evenodd" clip-rule="evenodd" d="M515.359 463.34C514.815 463.34 515.057 461.407 515.057 460.985C516.385 460.622 516.083 463.099 515.359 463.34Z" fill="black"/>
<path fill-rule="evenodd" clip-rule="evenodd" d="M473.998 444.015C473.515 442.445 456.85 437.251 454.314 434.714C449.483 434.05 452.684 430.426 453.71 433.627C457.695 434.05 463.431 438.7 467.839 439.787C468.141 440.754 480.58 444.015 473.998 444.015Z" fill="black"/>
<path fill-rule="evenodd" clip-rule="evenodd" d="M437.046 443.23C436.382 441.236 432.337 436.646 437.59 436.646C438.193 438.579 441.997 442.626 437.046 443.23Z" fill="black"/>
<path fill-rule="evenodd" clip-rule="evenodd" d="M436.2 440.693C436.2 440.271 436.2 439.364 436.804 439.969C436.804 440.391 436.623 440.512 436.2 440.693Z" fill="white"/>
<path fill-rule="evenodd" clip-rule="evenodd" d="M501.11 440.693C497.125 436.707 478.165 439.727 476.233 434.774C469.591 434.412 453.349 425.715 448.639 421.004C448.639 419.977 449.484 380.418 446.042 376.975C445.559 376.975 443.446 364.292 442.118 364.292C441.937 362.057 434.932 347.321 437.71 348.408C437.71 350.461 441.272 346.898 437.77 345.75C437.046 343.576 434.51 338.684 436.019 344.844C431.128 347.26 426.298 336.932 422.253 339.952C416.637 336.63 421.528 335 415.429 335C412.773 332.342 419.716 327.027 413.558 330.108C413.558 332.282 410.478 325.155 414.161 323.947C414.161 323.887 406.493 324.793 411.746 322.196C412.471 316.096 424.305 314.888 428.532 315.914C428.532 318.149 434.147 316.397 434.389 313.982C425.754 313.499 430.887 302.99 431.128 296.648C432.698 295.621 431.249 290.306 433.483 289.582C433.846 286.38 440.91 263.128 443.627 275.328C446.948 276.113 447.31 298.339 447.733 282.274C447.552 282.274 441.514 268.503 442.118 266.933C443.446 266.51 449.303 258.84 449.605 257.934C457.636 256.786 463.915 251.049 466.451 262.645C471.221 264.215 466.934 293.749 470.316 294.836C470.919 299.426 469.953 282.092 472.127 281.005C473.636 277.925 479.856 261.799 487.282 264.759C490 270.194 495.555 270.315 495.555 278.71C495.072 278.71 493.2 284.267 490.724 284.81C490.724 285.535 484.082 283.602 482.211 283.602C481.425 281.187 478.407 285.293 482.09 287.105C482.09 291.152 474.12 300.634 480.459 304.862C480.761 310.358 485.049 310.599 476.595 310.599C475.931 309.694 474.723 301.359 473.033 301.359C473.033 304.922 476.716 311.143 472.308 311.626C472.308 313.861 471.523 314.465 475.81 312.351C479.01 312.351 488.248 313.559 478.044 313.921C477.38 316.156 468.927 314.888 469.893 317.304C474.905 317.304 478.95 317.364 485.532 317.243C485.954 315.914 499.963 315.975 499.721 316.458C496.642 316.76 490.905 318.934 490.664 322.196C490.845 322.256 507.208 318.451 507.691 318.209C511.012 318.149 521.035 316.277 523.209 318.451C522.485 319.9 507.51 317.968 506.665 321.35C504.129 321.652 488.611 324.913 488.067 327.208C486.558 327.208 486.799 326.846 485.894 326.544C484.988 319.055 462.587 321.35 460.413 327.994C453.65 330.228 453.711 337.295 454.798 343.999C454.918 343.999 462.043 350.642 462.104 350.884C465.908 350.884 459.749 344.905 458.662 343.818C458.722 330.772 463.976 330.47 473.274 325.819C476.837 325.699 478.95 324.672 482.211 325.94C482.995 327.571 488.732 334.516 486.618 335.181C486.618 336.147 484.746 350.28 486.679 342.549C489.637 341.1 485.894 333.369 489.637 331.497C493.441 323.826 520.432 321.773 525.323 329.926C526.228 330.228 529.308 333.127 529.972 333.007C529.972 329.322 522.183 327.088 520.673 324.068C512.884 323.464 529.851 322.014 530.153 323.041C533.534 323.041 552.373 321.592 553.701 325.638C562.396 326.122 568.253 319.961 578.276 319.961C586.73 328.417 570.125 336.993 570.487 342.428C579.544 343.153 573.144 373.291 567.046 376.311C567.046 379.874 547.905 395.215 544.282 395.577C542.772 400.228 514.877 408.925 509.986 409.589C509.986 410.435 509.321 410.374 509.02 410.978C511.435 413.394 522.243 408.804 522.364 408.925C522.364 423.058 506.967 415.146 500.083 412.85C498.694 408.562 480.339 408.2 477.742 403.006C468.866 401.738 454.858 380.055 454.556 372.023C450.088 369.788 453.952 359.037 451.175 359.339C451.175 362.782 446.888 360.729 447.673 360.97C447.854 365.56 452.624 386.336 456.851 387.726C458.481 399.261 476.293 406.811 485.592 411.462C486.739 414.965 496.762 414.662 498.211 420.46C503.223 420.46 497.849 419.796 499.117 418.045C505.095 418.045 496.461 415.146 502.378 416.595C502.378 419.011 514.816 420.702 515.722 421.608C515.722 423.722 515.179 444.257 509.986 440.391C509.684 439.486 502.257 440.693 501.11 440.693V440.693Z" fill="#FF4864"/>
<path fill-rule="evenodd" clip-rule="evenodd" d="M433.905 429.578C432.818 429.578 433 423.237 433.06 423.116C436.441 423.116 436.079 428.974 433.905 429.578Z" fill="#FF5555"/>
<path fill-rule="evenodd" clip-rule="evenodd" d="M497.609 416.414C496.341 416.414 496.401 413.333 498.092 413.877C498.092 414.904 499.964 415.749 497.609 416.414Z" fill="#FF5555"/>
<path fill-rule="evenodd" clip-rule="evenodd" d="M429.799 414.54C426.961 411.701 428.591 390.925 429.738 390.502C430.524 390.502 431.007 390.442 431.188 391.106C434.931 392.314 436.26 413.634 429.799 414.54Z" fill="#FF5555"/>
<path fill-rule="evenodd" clip-rule="evenodd" d="M422.977 405.48C422.675 405.178 421.95 400.769 423.339 401.434C423.339 402.521 423.702 404.755 422.977 405.48Z" fill="white"/>
<path fill-rule="evenodd" clip-rule="evenodd" d="M413.738 392.012C410.9 389.173 421.044 372.323 422.916 369.242C424.184 369.242 426.599 391.891 420.259 391.891C419.897 390.744 414.825 392.012 413.738 392.012Z" fill="#FF5555"/>
<path fill-rule="evenodd" clip-rule="evenodd" d="M540.417 391.227C540.116 389.656 545.55 389.958 545.127 391.227H540.417Z" fill="black"/>
<path fill-rule="evenodd" clip-rule="evenodd" d="M547.844 387.724C547.421 385.67 554.003 383.556 554.305 383.979C552.554 385.731 550.44 387.422 547.844 387.724Z" fill="black"/>
<path fill-rule="evenodd" clip-rule="evenodd" d="M463.189 384.402C462.645 384.402 462.886 382.59 462.886 382.167C464.215 381.805 463.913 384.16 463.189 384.402Z" fill="black"/>
<path fill-rule="evenodd" clip-rule="evenodd" d="M550.38 382.831C550.018 381.02 562.517 370.028 565.294 367.25C566.381 360.545 571.091 364.773 567.166 366.042C566.563 371.055 555.875 382.409 550.38 382.831V382.831Z" fill="black"/>
<path fill-rule="evenodd" clip-rule="evenodd" d="M460.837 379.329C459.569 379.329 460.958 370.45 461.32 368.578C463.011 368.095 461.864 379.026 460.837 379.329Z" fill="black"/>
<path fill-rule="evenodd" clip-rule="evenodd" d="M557.022 371.115C557.022 368.276 563 365.437 563.423 361.995C562.758 361.33 560.826 365.618 561.249 361.813C564.207 360.847 566.985 351.063 569.279 351.063C569.279 354.264 568.977 361.089 565.475 362.84C564.63 365.437 560.162 370.873 557.022 371.115Z" fill="black"/>
<path fill-rule="evenodd" clip-rule="evenodd" d="M458.784 368.397C457.395 364.109 461.622 354.506 461.199 360.062C458.965 360.606 460.837 368.035 458.784 368.397Z" fill="black"/>
<path fill-rule="evenodd" clip-rule="evenodd" d="M455.761 364.29C455.58 364.109 456.184 355.774 455.339 358.311C451.052 358.311 459.626 347.56 459.626 351.607C455.701 353.177 462.041 351.305 461.981 351.486C460.29 352.029 456.909 363.928 455.761 364.29V364.29Z" fill="black"/>
<path fill-rule="evenodd" clip-rule="evenodd" d="M560.523 358.432C560.221 357.042 564.931 345.99 565.595 347.379C566.743 347.922 563.24 358.13 560.523 358.432Z" fill="black"/>
<path fill-rule="evenodd" clip-rule="evenodd" d="M456.305 357.646C456.305 356.74 458.056 353.479 458.539 353.358C458.539 354.264 457.03 357.163 456.305 357.646Z" fill="white"/>
<path fill-rule="evenodd" clip-rule="evenodd" d="M475.748 353.358C475.386 352.271 469.227 347.258 473.635 345.809C473.635 340.856 468.865 342.97 468.865 339.165C475.144 339.165 479.251 341.037 482.39 345.748C484.202 346.654 484.081 351.788 482.269 352.694C481.907 353.781 477.016 353.358 475.748 353.358V353.358Z" fill="black"/>
<path fill-rule="evenodd" clip-rule="evenodd" d="M536.131 350.157C536.131 349.312 536.071 348.466 536.01 347.56C539.331 347.56 538.063 349.915 536.131 350.157Z" fill="black"/>
<path fill-rule="evenodd" clip-rule="evenodd" d="M433.905 348.285C432.879 347.681 428.591 344.359 428.773 344.178C430.222 344.178 438.434 347.56 433.905 348.285Z" fill="#FF5555"/>
<path fill-rule="evenodd" clip-rule="evenodd" d="M536.131 345.084C536.131 340.675 537.399 340.554 537.399 344.963C536.976 344.963 536.554 345.024 536.131 345.084Z" fill="black"/>
<path fill-rule="evenodd" clip-rule="evenodd" d="M437.77 342.547C437.77 340.554 440.246 340.554 440.246 342.426C439.461 342.426 438.615 342.487 437.77 342.547Z" fill="black"/>
<path fill-rule="evenodd" clip-rule="evenodd" d="M534.381 341.641C534.079 340.312 530.879 337.594 534.079 337.594C534.26 338.682 536.253 341.219 534.381 341.641Z" fill="black"/>
<path fill-rule="evenodd" clip-rule="evenodd" d="M564.51 340.796C564.088 339.527 559.559 336.266 563.303 335.058C563.544 331.615 573.567 323.764 573.567 329.925C569.22 330.468 573.99 340.313 564.51 340.796V340.796Z" fill="black"/>
<path fill-rule="evenodd" clip-rule="evenodd" d="M441.332 333.186C441.212 332.703 453.107 329.501 453.771 327.448C455.28 327.327 461.439 322.858 460.111 321.529C458.299 321.529 445.559 323.1 444.593 320.08C431.128 318.63 435.294 298.096 445.257 294.774C446.465 288.613 462.707 284.869 467.779 284.688C468.625 287.647 457.816 284.567 463.975 292.841C468.504 293.928 471.523 314.584 467.236 316.697C465.424 322.254 457.575 325.395 453.771 329.2C452.865 332.823 444.291 333.186 441.332 333.186V333.186Z" fill="black"/>
<path fill-rule="evenodd" clip-rule="evenodd" d="M448.154 319.898C444.048 315.792 434.629 314.523 440.486 305.705C442.72 304.981 448.879 293.868 452.804 291.935C456.185 285.11 461.619 294.894 464.699 296.706C465.484 301.417 471.28 304.316 462.163 304.981C462.042 305.343 453.588 311.745 457.634 313.074C457.815 316.033 458.117 315.308 459.627 316.818C459.627 319.657 450.328 319.838 448.154 319.898V319.898Z" fill="white"/>
<path fill-rule="evenodd" clip-rule="evenodd" d="M508.537 315.007C505.156 310.899 489.457 313.919 497.97 309.692C498.091 308.846 503.948 305.766 505.337 303.894C508.598 303.894 523.089 301.719 523.089 307.215C523.089 307.215 522.062 312.289 520.13 313.255C520.13 314.161 509.865 315.007 508.537 315.007V315.007Z" fill="#FF4864"/>
<path fill-rule="evenodd" clip-rule="evenodd" d="M424.85 313.859C418.148 313.859 419.476 307.638 419.476 307.759C420.986 308.182 419.235 304.86 417.725 304.86C416.155 295.257 425.213 302.323 425.213 293.868C420.08 292.176 427.205 290.969 428.413 290.365C429.077 284.869 429.439 298.518 427.748 298.941C427.748 301.055 427.809 313.014 424.85 313.859V313.859Z" fill="#FF4864"/>
<path fill-rule="evenodd" clip-rule="evenodd" d="M489.212 313.074C489.152 312.953 489.032 312.772 488.911 312.59C489.575 311.926 489.998 312.832 489.212 313.074Z" fill="white"/>
<path fill-rule="evenodd" clip-rule="evenodd" d="M463.974 312.288C463.491 311.805 463.37 308.061 463.913 307.276C467.476 307.276 467.174 311.987 463.974 312.288Z" fill="white"/>
<path fill-rule="evenodd" clip-rule="evenodd" d="M491.752 308.786C491.088 308.121 491.692 307.517 490.786 307.215C489.82 300.632 481.548 303.531 481.246 302.323C476.657 302.323 484.386 282.695 487.465 292.056C488.431 292.176 493.02 293.988 493.262 294.653C501.776 295.378 497.79 306.914 496.583 307.276C496.583 308.423 492.598 308.786 491.752 308.786V308.786Z" fill="white"/>
<path fill-rule="evenodd" clip-rule="evenodd" d="M399.67 308C396.832 305.162 403.292 292.418 405.889 291.15C407.217 288.432 417.422 280.339 417.422 284.688C415.489 285.291 413.074 303.229 412.349 304.739C408.123 304.981 403.353 306.792 399.67 308Z" fill="#FF4864"/>
<path fill-rule="evenodd" clip-rule="evenodd" d="M486.014 307.215C484.625 305.826 487.946 304.377 487.946 306.914C487.765 307.094 487.765 307.094 486.014 307.215Z" fill="white"/>
<path fill-rule="evenodd" clip-rule="evenodd" d="M501.11 305.645C500.324 304.014 500.868 300.149 500.868 298.277C501.774 297.854 506.423 304.92 501.11 305.645Z" fill="#FF4864"/>
<path fill-rule="evenodd" clip-rule="evenodd" d="M419.775 304.86L419.473 304.679C419.473 303.048 420.982 304.497 419.775 304.86Z" fill="black"/>
<path fill-rule="evenodd" clip-rule="evenodd" d="M434.69 304.86C434.268 302.988 432.214 303.108 431.973 300.692C432.336 300.632 438.072 304.437 434.69 304.86Z" fill="black"/>
<path fill-rule="evenodd" clip-rule="evenodd" d="M472.55 301.357C471.524 300.33 473.275 298.518 472.973 301.296C472.852 301.296 472.732 301.296 472.55 301.357Z" fill="black"/>
<path fill-rule="evenodd" clip-rule="evenodd" d="M501.11 297.25C499.902 294.774 503.344 295.74 501.593 296.586C501.593 297.069 501.532 297.129 501.11 297.25Z" fill="white"/>
<path fill-rule="evenodd" clip-rule="evenodd" d="M422.192 296.404C421.89 295.801 422.373 295.317 422.976 294.894C423.641 295.015 422.554 296.102 422.192 296.404Z" fill="#82750F"/>
<path fill-rule="evenodd" clip-rule="evenodd" d="M501.895 292.962C493.381 287.888 496.883 291.633 498.876 285.654C501.351 285.171 499.782 278.768 502.499 282.815C510.529 283.359 509.14 291.935 501.895 292.962Z" fill="#FF4864"/>
<path fill-rule="evenodd" clip-rule="evenodd" d="M420.56 292.176C418.93 289.7 423.096 290.606 422.371 292.056C421.767 292.056 421.163 292.116 420.56 292.176Z" fill="white"/>
<path fill-rule="evenodd" clip-rule="evenodd" d="M424.85 290.546C418.933 290.546 425.333 275.93 427.024 282.755C428.171 283.117 427.507 290.183 424.85 290.546Z" fill="#FF5555"/>
<path fill-rule="evenodd" clip-rule="evenodd" d="M492.717 288.674C492.295 288.251 496.521 279.735 496.582 277.319C499.239 274.662 499.299 284.385 497.306 284.869C497.306 285.473 493.019 288.613 492.717 288.674Z" fill="#FF4864"/>
<path fill-rule="evenodd" clip-rule="evenodd" d="M429.799 287.103C428.591 284.627 429.618 279.795 426.297 278.708C426.056 275.628 436.863 262.884 440.124 262.884C440.426 263.549 432.939 275.87 432.637 278.708C431.248 278.708 430.886 286.016 429.799 287.103Z" fill="#FF4864"/>
<path fill-rule="evenodd" clip-rule="evenodd" d="M421.345 272.004C419.776 270.434 423.338 267.293 423.338 271.763C423.096 271.883 423.096 271.883 421.345 272.004Z" fill="white"/>
<path fill-rule="evenodd" clip-rule="evenodd" d="M448.154 271.219C446.645 271.219 449.12 264.877 447.067 264.394C447.067 261.556 451.053 270.253 448.154 271.219Z" fill="black"/>
<path fill-rule="evenodd" clip-rule="evenodd" d="M473.335 269.649C471.101 266.87 471.947 258.898 468.022 257.63C467.237 255.214 464.641 255.456 464.882 252.134C467.418 250.866 475.932 255.999 476.475 258.354C481.366 259.985 475.328 267.655 473.335 269.649V269.649Z" fill="#FF4864"/>
<path fill-rule="evenodd" clip-rule="evenodd" d="M426.417 267.716C423.035 263.488 424.364 255.697 418.447 253.342C417.601 250.805 395.019 247.906 401.962 244.463C404.136 244.403 414.159 232.324 416.152 238.303C420.499 238.726 439.58 247.423 441.331 250.986C447.731 251.771 444.954 246.698 447.369 243.497C448.033 243.799 447.429 245.43 448.577 245.007C448.878 239.33 453.045 250.201 456.366 243.497C459.143 242.591 470.253 229.606 470.676 227.492C473.816 225.922 473.333 214.567 477.741 214.205C478.163 204.541 481.967 216.439 482.329 219.037C484.322 219.701 481.967 237.638 479.552 240.055C477.861 240.477 475.989 248.208 474.842 248.57C474.359 254.489 458.901 244.403 457.03 250.141C450.871 250.563 445.316 252.254 443.565 257.569C439.761 257.871 428.953 263.669 427.685 267.595C427.262 267.595 426.839 267.656 426.417 267.716V267.716Z" fill="#FF5151"/>
<path fill-rule="evenodd" clip-rule="evenodd" d="M440.547 256.18L440.366 254.731C441.151 254.549 443.083 256.18 440.547 256.18Z" fill="black"/>
<path fill-rule="evenodd" clip-rule="evenodd" d="M474.121 204.964C473.879 204.662 473.879 204.662 473.879 204.179C474.604 204.239 474.966 204.723 474.121 204.964Z" fill="white"/>
<path fill-rule="evenodd" clip-rule="evenodd" d="M424.646 646.257C424.472 642.355 423.272 638.747 418.449 637.705C417.362 634.383 402.75 627.86 408.245 624.176C409.271 617.714 415.43 599.414 420.925 595.79C422.072 591.079 424.97 597.421 426.057 597.421C426.057 591.502 426.842 577.852 423.461 574.47C423.461 566.921 426.419 566.014 432.578 563.961C432.578 559.129 414.102 567.585 412.532 572.296C410.479 572.96 406.313 582.624 404.2 578.335C402.63 578.335 400.275 596.696 395.867 597.783C395.867 599.655 403.777 611.976 398.282 612.822C398.282 614.634 399.731 614.332 400.033 615.902C395.082 616.989 399.007 628.042 403.294 628.706C405.347 632.813 416.638 640.966 420.925 641.993C420.925 644.892 421.831 656.247 417.906 654.556C416.276 656.186 422.555 657.817 417.725 658.844C417 661.139 413.377 674.788 417.423 677.446C417.423 678.292 416.215 680.224 415.249 680.707C415.068 683.123 411.928 688.498 411.928 684.271C414.162 679.801 411.203 674.849 410.72 670.44C409.151 670.198 404.743 663.132 404.32 666.937C398.946 669.051 403.596 682.942 394.297 684.996C394.297 687.593 387.776 685.6 392.425 682.821C392.606 681.372 394.72 675.09 395.746 674.426C395.806 670.078 396.772 668.749 395.625 666.454C390.553 666.454 381.617 674.607 379.866 666.514C375.7 663.736 378.779 655.401 383.368 664.582C390.07 664.823 388.198 664.521 391.821 659.629C394.78 659.629 399.188 655.522 401.603 654.314C401.965 649.362 402.388 644.288 402.388 638.792C397.98 637.947 397.558 626.169 392.667 626.169C391.338 620.674 379.987 619.707 385.24 609.198C386.508 608.775 390.553 598.387 390.916 596.817C391.701 596.575 390.252 580.751 396.531 579.664C397.92 576.825 400.516 578.275 400.275 578.275C398.765 574.47 410.841 572.175 401.845 571.692C401.784 571.873 394.237 579.242 395.988 574.772C400.637 573.262 402.509 566.317 407.399 563.901C408.849 559.552 411.325 545.117 415.853 542.883C416.759 541.071 424.97 534.004 425.333 538.595C428.352 539.44 429.499 532.253 430.405 536.3C435.235 537.87 429.257 525.187 434.511 527.24C438.496 535.273 446.345 518.543 443.326 515.523C443.205 515.523 439.945 503.263 439.462 501.995C430.465 500.243 438.315 482.486 438.556 476.266C439.884 474.937 442.3 484.54 443.507 484.057C443.205 467.81 434.813 454.281 433.484 438.276C432.639 438.276 431.854 432.418 432.276 431.512C445.017 431.512 431.914 414.238 430.948 422.03C430.163 422.815 430.344 420.58 429.62 420.58C427.989 415.628 433.786 416.292 434.692 412.125C437.168 410.917 435.779 390.442 432.095 389.234C431.19 386.516 425.091 386.033 429.62 376.974C431.914 375.826 425.635 336.991 433.725 353.238C441.455 355.775 443.749 391.228 446.104 392.013C446.587 415.748 448.881 439.061 449.727 462.435C451.66 462.435 449.254 468.675 450.331 470.356C450.742 475.928 452.332 489.249 452.254 489.699C451.97 491.351 452.733 493.994 453.772 495.23C456.915 498.969 458.092 514.157 461.874 518.084C461.184 520.44 462.235 526.895 461.38 527.18C461.199 531.891 451.659 563.901 448.7 564.867C448.278 566.86 444.896 578.758 443.628 579.181C443.584 580.426 441.349 589.39 440.677 594.037C440.531 594.801 440.377 595.764 440.524 596.52C440.504 600.151 440.944 605.946 441.288 607.401C441.847 609.757 442.541 612.761 442.058 612.761C441.213 616.264 433.835 635.154 432.095 637.161C430.299 639.234 426.89 643.008 424.646 646.257V646.257Z" fill="#FF4864"/>
<path fill-rule="evenodd" clip-rule="evenodd" d="M569.345 695.311C568.307 695.762 566.646 696.697 566.319 697.756L564.449 698.343C562.397 704.624 559.559 695.565 563.423 692.967C563.423 679.137 561.431 698.282 558.472 700.034C558.412 700.517 558.351 701.061 558.291 701.604C555.392 702.57 546.154 705.469 545.309 708.127C537.761 708.852 530.636 713.986 522.606 715.012C522.606 716.462 515.058 716.099 515.058 717.488C506.061 717.972 498.332 720.448 488.974 720.87C488.974 720.931 437.952 722.622 436.865 719.361C431.612 717.851 421.105 721.172 420.139 712.657C418.811 712.657 416.577 697.376 414.584 696.712C414.282 693.209 412.229 692.847 413.437 689.102C417.543 688.619 417.785 684.391 420.139 682.821C420.139 680.767 418.086 656.548 424.426 652.743C424.443 652.352 424.467 651.949 424.491 651.537C426.476 649.989 430.156 645.77 431.129 644.046C434.379 638.28 448.657 611.518 442.408 606.512C442.159 606.312 441.663 598.305 441.378 595.099C442.837 589.72 445.859 573.537 447.733 573.081C448.458 564.685 451.779 569.095 457.334 565.773C462.949 565.773 491.751 568.793 492.476 566.618C493.562 566.256 454.375 565.652 450.692 565.652C449.484 563.78 455.462 555.264 455.462 552.606C455.764 552.063 457.636 546.325 458.481 546.325C459.93 537.386 462.225 532.736 472.127 532.011C473.275 528.568 502.197 526.575 502.197 526.273C500.808 526.273 495.615 525.307 495.615 526.092C492.596 526.213 470.014 528.266 469.652 531.166C458.179 532.434 464.64 529.897 462.889 517.274C462.746 517.228 462.619 517.222 462.505 517.249C462.479 514.524 461.742 508.22 461.198 507.792C459.549 506.492 455.73 491.052 454.557 488.465C454.317 487.938 452.27 476.27 451.083 470.767L451.115 470.769C451.115 455.066 447.975 438.578 448.699 423.358C449.545 422.512 457.515 428.612 459.749 428.975C459.749 433.263 493.321 441.356 497.789 441.537C497.91 441.779 517.836 443.349 511.797 444.859C510.409 447.637 501.653 446.55 499.057 446.55C498.514 448.543 510.107 447.396 512.22 447.396C513.669 448.845 507.51 465.092 507.269 468.293C506.303 468.293 501.714 486.533 500.023 486.955C498.997 493.116 496.038 494.022 489.94 494.324C489.94 494.626 499.359 495.954 494.045 498.612C493.683 501.994 485.17 512.443 485.894 514.315C488.128 514.315 494.589 505.92 495.072 503.625C496.4 502.96 499.54 495.048 500.627 495.592C500.627 502.236 500.808 506.826 502.439 513.409C506.363 514.677 501.653 520.777 501.593 521.079C498.453 521.2 481.969 523.375 481.486 525.307C489.336 525.307 497.547 521.865 505.578 522.106C505.941 523.676 509.201 529.173 507.933 530.441C507.329 530.441 496.702 530.501 497.487 532.071C510.831 532.192 509.563 532.736 514.213 542.037C515.541 542.701 521.458 553.995 521.76 555.565C525.866 556.894 528.946 569.215 529.248 573.02C532.81 574.772 523.753 593.736 523.149 598.145C521.821 598.99 515.783 606.661 516.507 606.903C516.507 609.077 522.243 603.702 523.873 603.339C525.625 596.333 532.87 618.861 534.863 620.19C540.297 628.343 545.731 637.04 549.355 646.1C550.441 646.462 552.796 651.717 550.26 652.321C550.26 654.072 549.535 654.072 553.52 654.676C554.426 657.454 560.404 666.393 555.453 668.024C555.091 669.352 556.962 673.459 554.426 674.727C554.426 683.606 557.929 659.749 560.465 671.285C561.827 671.723 568.287 687.381 570.996 695.054C570.437 694.939 569.843 695.03 569.345 695.311V695.311Z" fill="#FF7474"/>
<path fill-rule="evenodd" clip-rule="evenodd" d="M488.431 783.745C483.963 781.51 450.09 781.45 448.399 778.067C444.776 777.765 423.099 774.685 425.515 768.645C429.62 766.592 426.239 741.648 425.937 736.998C424.066 735.729 425.092 726.549 426.179 729.81C426.36 729.81 434.27 729.327 434.693 730.656C442.24 730.837 474.181 733.615 473.638 730.837C464.762 730.717 425.877 730.052 424.307 726.851C423.22 726.73 417.061 718.214 425.333 719.362C425.998 721.476 449.305 721.778 452.142 722.684C452.142 722.865 494.047 724.496 494.892 721.899C499.541 720.026 523.573 719.543 525.445 715.738C533.234 715.738 545.733 709.94 552.556 706.558C554.669 702.33 556.541 710.846 557.809 704.927C559.862 704.263 567.591 697.74 566.866 701.605C566.263 701.605 565.417 706.437 563.545 706.86C563.545 706.981 554.669 713.262 554.307 709.88C553.039 709.88 552.677 711.45 552.616 712.537C550.865 713.081 541.325 716.946 541.023 718.335C541.808 718.335 553.703 714.832 547.725 717.792C547.725 719.604 553.522 713.201 556.662 712.416C557.326 710.423 560.707 709.698 562.338 709.095C563.787 710.544 558.473 716.282 558.473 718.335C561.613 718.335 564.33 708.189 567.712 706.498C567.766 704.216 568.289 702.308 568.764 700.831C569.177 700.802 569.518 700.65 569.881 700.473L571.579 699.568V699.567C571.873 699.419 572.133 699.212 572.343 698.961C575.692 700.921 574.142 728.612 576.044 729.207C576.044 733.434 572.904 740.38 572.965 740.198C578.097 738.508 565.96 760.371 565.417 762.666C564.089 762.908 557.749 775.108 555.696 777.161C551.771 774.021 544.284 778.309 538.427 778.913C537.944 779.638 530.396 781.208 531.121 779.698C537.038 778.852 541.808 774.987 547.484 773.598C547.846 772.813 559.077 767.558 554.367 768.042C554.367 770.216 530.034 779.275 526.773 779.758C526.773 780.845 510.772 783.08 510.772 783.563L488.431 783.745V783.745Z" fill="#FF7474"/>
</svg>
