<svg width="433" height="493" viewBox="0 0 433 493" fill="none" xmlns="http://www.w3.org/2000/svg">
<path d="M355.113 30.4749C353.344 30.4602 351.537 30.5626 349.692 30.7897C273.619 39.2986 212.353 90.6065 155.849 137.735C119.959 139.58 83.0065 139.006 48.4897 150.508C36.5169 154.311 23.7714 162.97 23.9314 176.91C23.7243 206.795 41.0726 234.891 64.1616 252.888C61.159 261.312 52.5559 268.531 55.6242 278.16C55.8501 285.417 59.483 291.95 63.3234 297.898C55.7745 307.565 48.6689 323.764 59.7289 333.506C66.0447 340.039 72.3878 346.741 80.0497 351.73C101.106 370.574 125.739 385.314 148.894 401.504C160.867 411.377 171.832 398.124 178.816 389.126C193.744 403.16 216.014 403.378 228.985 386.764C251.801 402.916 278.834 419.388 308.069 415.971C325.671 412.263 332.033 392.487 334.114 376.862C337.982 341.979 330.885 307.04 324.061 272.976C344.392 243.392 366.286 214.844 385.544 184.497C404.934 154.471 409.518 116.604 403.569 81.8628C400.011 57.1812 381.685 30.6961 355.113 30.4759L355.113 30.4749ZM61.6861 368.885C45.2019 368.699 25.4892 374.706 18.3563 390.56C17.1515 394.222 22.7985 394.542 25.3305 394.627C25.8387 397.29 28.5493 398.739 30.2059 400.707C21.744 417.79 10.383 434.226 7.75693 453.521C3.45538 462.492 2.10995 479.698 2.85354 489.685C14.8169 484.291 29.3876 481.476 40.6262 475.735C57.2676 472.62 74.6724 465.474 83.7743 450.311C96.7354 461.898 110.044 441.841 113.084 430.574C115.033 413.687 114.469 389.035 97.4696 379.481C93.3475 373.401 86.5651 370.267 79.4106 370.078C77.7597 370.034 76.0889 370.147 74.4264 370.417C70.6646 369.474 66.3025 368.937 61.6874 368.885L61.6861 368.885Z" fill="#FC9A67"/>
<path d="M355.114 30.4749C353.344 30.4602 351.537 30.5626 349.692 30.7897C273.62 39.2986 212.353 90.6065 155.85 137.735C119.96 139.58 83.0068 139.006 48.49 150.508C36.5172 154.311 23.7717 162.97 23.9317 176.91C23.7246 206.795 41.0729 234.891 64.1619 252.888C61.1593 261.312 52.5562 268.531 55.6244 278.16C58.1941 284.448 70.3928 290.858 63.3236 297.899C55.7748 307.565 48.6692 323.764 59.7292 333.506C66.045 340.039 72.3881 346.741 80.05 351.73C102.593 367.082 127.753 378.084 150.014 393.907C153.044 396.683 157.271 397.568 161.186 396.335C168.81 395.544 171.55 380.09 178.816 389.125C193.744 403.16 216.014 403.377 228.985 386.763C251.801 402.915 278.834 419.387 308.069 415.971C325.671 412.262 332.034 392.486 334.114 376.861C337.983 341.978 330.886 307.039 324.061 272.975C344.392 243.391 366.286 214.843 385.544 184.497C404.934 154.471 409.518 116.603 403.569 81.8622C400.011 57.1805 381.685 30.6955 355.113 30.4752L355.114 30.4749ZM352.196 38.2756C364.049 38.2601 375.645 44.2558 382.918 53.587C397.855 73.504 398.946 100.179 396.762 124.021C382.333 89.8254 358.257 58.5107 323.75 42.9235C331.45 41.1163 339.223 39.4209 347.111 38.6585C348.803 38.4032 350.502 38.2783 352.195 38.2761L352.196 38.2756ZM311.649 48.3894C323.623 48.6982 335.447 58.3893 344.561 65.5965C366.163 80.9013 380.518 105.045 389.827 129.433C400.031 142.958 388.387 160.069 382.89 173.351C348.205 226.663 310.299 277.83 270.278 327.161C220.373 281.463 151.764 257.272 111.497 201.089C133.325 174.565 155.792 148.219 182.063 125.958C220.174 99.5373 255.311 67.6569 299.72 51.6461C303.649 49.2248 307.659 48.2856 311.65 48.3885L311.649 48.3894ZM266.992 102.399C264.188 102.366 261.405 102.452 258.662 102.655C210.084 106.947 176.593 164.025 190.383 209.365C201.847 244.417 244.429 267.535 279.528 253.51C298.099 244.06 315.315 231.07 327.532 214.005C341.594 191.839 344.192 162.98 337.171 138.074C323.221 114.138 294.099 102.719 266.99 102.399L266.992 102.399ZM263.011 110.135C288.646 109.827 318.503 119.241 330.941 143.232C336.118 168.646 332.871 198.193 314.526 217.95C303.287 230.224 289.215 240.068 274.249 247.288C235.864 260.211 190.693 224.906 194.967 184.253C197.678 149.633 223.572 112.585 260.544 110.194C261.362 110.164 262.184 110.145 263.01 110.135L263.011 110.135ZM253.796 123.456C249.118 123.484 244.185 125.376 240.161 127.542C217.533 140.333 200.817 166.001 200.675 192.243C199.264 201.684 208.271 209.195 217.383 206.974C224.979 205.213 221.75 194.729 223.811 189.335C224.338 176.026 233.506 165.022 244.538 158.471C246.232 157.266 248.002 156.183 249.762 155.082C259.428 150.376 274.16 138.563 263.703 127.522C260.919 124.541 257.434 123.434 253.796 123.456L253.796 123.456ZM254.177 128.03C267.421 128.491 262.215 144.653 253.264 147.373C233.912 156.428 215.999 173.842 218.56 197.035C218.682 208.631 201.655 199.925 204.883 191.265C207.331 163.978 225.854 133.819 254.177 128.03L254.177 128.03ZM145.302 146.394C146.507 146.451 147.712 146.601 148.917 146.771C126.308 169.078 106.371 193.889 86.9908 219.002C86.5296 221.317 84.6567 222.654 83.2449 224.339C77.8515 230.542 74.7079 239.841 68.8625 244.999C52.5034 235.879 43.0532 217.891 35.8055 201.184C31.4852 188.628 27.5228 169.266 42.6017 162.376C74.1535 146.45 110.946 148.163 145.302 146.393L145.302 146.394ZM108.329 205.618C126.957 230.1 151.166 249.424 176.307 266.781C201.1 283.526 228.321 297.645 250.478 317.816C256.088 321.647 262.959 326.173 266.319 331.736C253.509 349.206 238.524 365.348 223.323 380.851C216.875 385.943 209.354 395.845 200.092 391.835C183.093 385.03 168.842 373.049 154.365 362.13C124.029 337.488 94.2012 311.885 68.1848 282.649C61.869 277.887 62.7532 269.887 66.9701 264.164C78.9523 243.504 92.6673 223.624 108.33 205.618H108.329ZM233.959 209.899C232.595 209.901 231.142 210.163 229.62 210.737C215.624 214.973 231.983 243.72 241.857 229.996C248.66 222.592 243.507 209.884 233.959 209.899V209.899ZM233.279 214.902C239.798 214.62 242.459 222.506 238.271 227.53C232.303 231.408 225.103 219.031 231.137 215.266C231.89 215.05 232.605 214.932 233.279 214.903V214.902ZM85.4363 262.436C72.5317 262.393 81.8302 286.375 93.3546 280.392C99.5293 274.378 96.7432 264.738 88.3189 262.78C87.2553 262.548 86.2966 262.439 85.4363 262.436V262.436ZM87.4689 267.754C90.9882 268.053 94.6115 272.274 90.3059 274.338C86.6068 278.555 80.9219 270.65 85.1481 268.25C85.8505 267.826 86.6567 267.685 87.4689 267.754V267.754ZM317.051 281.478C318.435 281.319 318.238 285.71 318.544 287.216C323.909 323.37 336.805 366.45 317.405 399.593C316.078 403.659 311.729 406.39 307.691 407.274C284.904 412.244 259.122 397.787 239.929 384.402C237.708 383.621 235.703 382.115 234.63 379.978C264.628 350.046 289.986 315.887 315.814 282.407C316.327 281.795 316.731 281.516 317.051 281.479L317.051 281.478ZM71.844 299.079C101.258 328.089 131.624 356.467 165.538 380.252C165.575 384.431 160.267 391.622 155.693 388.272C125.902 366.971 89.4191 354.575 64.6359 326.648C58.0941 317.047 66.6402 306.976 71.8453 299.079L71.844 299.079ZM137.918 301.192C134.069 301.12 129.736 304.378 126.87 306.186C120.667 315.88 134.512 328.568 143.379 320.689C149.177 314.609 141.158 308.717 141.534 302.551C140.431 301.61 139.201 301.217 137.918 301.192L137.918 301.192ZM134.871 306.468C138.241 308.595 144.754 315.174 137.808 317.179C129.29 320.7 127.85 308.577 134.871 306.468ZM185.377 345.524C182.89 345.514 180.577 346.311 179.185 348.325C177.651 356.118 182.866 365.117 190.99 366.35C197.343 362.764 196.439 354.546 194.246 348.701C192.059 346.885 188.575 345.537 185.377 345.524H185.377ZM186.039 350.573C190.596 350.454 193.398 355.283 191.948 359.837C187.694 361.522 180.87 353.795 183.986 350.943C184.701 350.708 185.388 350.59 186.039 350.573L186.039 350.573ZM79.4132 370.086C77.7623 370.042 76.0914 370.155 74.429 370.425C56.9866 370.557 27.9686 372.741 25.3331 394.635C25.8413 397.298 28.5519 398.747 30.2085 400.714C21.7466 417.798 10.3856 434.234 7.75951 453.529C7.91952 461.841 5.039 472.589 10.7054 479.498C20.6262 480.91 30.6139 476.053 40.6288 475.743C57.2703 472.627 74.675 465.482 83.777 450.319C87.5326 447.532 93.8475 450.244 97.556 446.262C117.69 429.536 113.822 397.57 97.4722 379.489C93.35 373.409 86.5677 370.274 79.4132 370.085V370.086ZM73.9422 377.895C100.208 377.817 112.62 420.511 95.4574 438.591C90.5911 445.999 82.1575 430.61 79.0796 441.83C66.975 465.427 38.6526 469.06 15.1871 471.837C14.1234 447.157 25.2576 423.776 37.9269 403.295C40.9389 398.56 36.61 395.294 33.372 392.744C39.9985 380.423 56.1599 379.989 68.5091 378.502C70.3787 378.097 72.1909 377.901 73.942 377.896L73.9422 377.895ZM69.483 388.644C59.8163 388.887 50.7557 396.862 47.4529 405.609C43.1984 418.457 59.0303 426.335 69.7606 426.034C88.8023 426.937 94.5816 389.853 73.6477 389.034C72.257 388.733 70.8637 388.61 69.4827 388.644L69.483 388.644ZM66.5431 393.059C70.5026 393.011 72.9639 398.718 77.263 395.02C89.7253 402.851 77.9122 428.322 62.6547 420.397C47.4817 418.703 52.2915 395.84 64.7446 393.477C65.3811 393.191 65.9776 393.066 66.5432 393.059L66.5431 393.059Z" fill="black"/>
<path d="M311.646 48.3893C307.655 48.2863 303.646 49.2255 299.716 51.6469C255.307 67.6577 220.17 99.538 182.059 125.959C155.788 148.22 133.321 174.566 111.494 201.09C151.761 257.274 220.369 281.465 270.274 327.162C310.296 277.831 348.202 226.664 382.886 173.351C388.383 160.07 400.026 142.959 389.824 129.433C376.119 107.22 363.299 84.3188 344.568 65.5973C335.457 58.3891 323.634 48.6989 311.652 48.3892L311.646 48.3893ZM266.989 102.399C294.1 102.718 323.222 114.138 337.168 138.074C344.19 162.98 341.592 191.839 327.529 214.005C315.311 231.07 298.096 244.06 279.525 253.51C244.425 267.535 201.844 244.417 190.379 209.365C176.59 164.025 210.08 106.947 258.658 102.655C261.401 102.452 264.184 102.366 266.988 102.399L266.989 102.399ZM267.326 126.9C266.193 126.898 264.981 127.094 263.695 127.523C274.152 138.563 259.421 150.376 249.754 155.083C255.241 155.638 263.863 149.962 270.49 149.698C281.732 145.425 278.28 126.926 267.326 126.901L267.326 126.9ZM254.169 128.03C225.847 133.819 207.323 163.977 204.876 191.265C201.647 199.924 218.674 208.631 218.552 197.034C215.992 173.842 233.904 156.427 253.256 147.372C262.207 144.652 267.413 128.491 254.169 128.03L254.169 128.03ZM145.294 146.394C135.448 158.79 119.646 164.71 110.883 178.104C102.694 189.823 92.5469 200.121 84.838 212.159C86.9465 213.863 87.5956 216.413 86.9838 219.001C106.364 193.889 126.301 169.078 148.91 146.77C147.705 146.601 146.5 146.45 145.295 146.394L145.294 146.394ZM244.531 158.47C233.499 165.021 224.331 176.026 223.804 189.335C221.743 194.728 224.972 205.213 217.376 206.973C210.552 207.547 208.518 209.205 215.851 211.219C229.941 208.094 226.986 189.693 230.318 178.962C232.426 170.425 240.097 165.465 244.531 158.471V158.47ZM233.27 214.903C232.596 214.932 231.881 215.05 231.128 215.266C225.094 219.032 232.294 231.409 238.262 227.531C242.45 222.507 239.789 214.622 233.27 214.903V214.903ZM92.6655 261.878C91.3451 261.83 89.8851 262.105 88.3049 262.789C96.7291 264.747 99.5152 274.387 93.3406 280.401C104.319 278.359 101.908 262.212 92.6655 261.877V261.878ZM176.294 266.781C198.753 286.952 225.71 300.864 250.465 317.816C228.308 297.645 201.087 283.526 176.294 266.781ZM87.4547 267.763C86.6426 267.695 85.8363 267.836 85.134 268.259C80.9077 270.659 86.5926 278.565 90.2918 274.348C94.5975 272.283 90.9742 268.062 87.4547 267.763V267.763ZM317.037 281.487C316.717 281.524 316.313 281.803 315.8 282.415C289.972 315.895 264.614 350.055 234.616 379.986C235.689 382.122 237.694 383.628 239.915 384.41C241.478 381.708 243.586 379.411 245.544 377.021C249.968 368.794 258.665 364.03 264.67 357.084C279.74 331.548 300.683 310.568 318.529 287.225C318.223 285.718 318.42 281.327 317.036 281.486L317.037 281.487ZM142.443 302.486C142.146 302.49 141.84 302.511 141.525 302.55C141.149 308.715 149.168 314.607 143.37 320.688C152.278 318.536 151.656 302.365 142.443 302.486L142.443 302.486ZM134.861 306.466C127.84 308.575 129.28 320.698 137.798 317.178C144.745 315.173 138.231 308.594 134.861 306.466ZM194.226 348.7C196.42 354.546 197.324 362.763 190.97 366.349C201.663 368.824 204.938 350.009 194.226 348.7ZM186.02 350.573C185.369 350.59 184.682 350.708 183.967 350.942C180.851 353.794 187.675 361.521 191.929 359.837C193.379 355.282 190.577 350.454 186.02 350.573L186.02 350.573Z" fill="#FDFEFE"/>
<path d="M263.012 110.135C262.185 110.145 261.363 110.164 260.545 110.194C223.573 112.584 197.679 149.633 194.968 184.253C190.695 224.905 235.866 260.211 274.25 247.288C289.216 240.068 303.289 230.224 314.527 217.95C332.872 198.193 336.119 168.646 330.942 143.232C318.508 119.241 288.651 109.827 263.011 110.134L263.012 110.135ZM253.797 123.456C257.435 123.435 260.92 124.541 263.704 127.523C277.418 122.948 282.904 144.982 270.498 149.698C263.872 149.961 255.25 155.638 249.762 155.082C248.002 156.183 246.233 157.266 244.538 158.471C240.105 165.464 232.434 170.425 230.325 178.962C226.993 189.692 229.949 208.094 215.858 211.219C209.771 209.547 210.152 208.123 214.357 207.358C206.395 207.491 199.422 200.631 200.677 192.242C200.818 166 217.534 140.333 240.162 127.541C244.186 125.376 249.119 123.483 253.797 123.456L253.797 123.456ZM214.356 207.359C215.355 207.342 216.368 207.221 217.383 206.974C216.224 207.071 215.216 207.203 214.356 207.359ZM145.296 146.394C110.94 148.163 74.1476 146.45 42.5958 162.376C27.5168 169.266 31.4795 188.628 35.7996 201.184C43.0473 217.892 52.4975 235.879 68.8565 245C74.7018 239.842 77.8453 230.542 83.2389 224.339C76.3772 227.511 71.0214 242.619 62.2207 237.018C46.257 219.737 30.6509 194.521 37.7763 170.463C49.5231 188.262 67.0305 200.432 84.8391 212.16C92.548 200.122 102.695 189.823 110.884 178.105C119.647 164.711 135.45 158.791 145.295 146.395L145.296 146.394ZM326.291 156.22C331.27 168.767 330.704 193.043 319.221 206.634C301.751 228.801 274.012 248.698 244.607 245.686C263.433 236.142 275.679 217.816 291.37 204.206C303.512 188.769 319.956 175.299 326.291 156.22H326.291ZM233.951 209.9C243.499 209.884 248.652 222.592 241.849 229.997C231.975 243.721 215.616 214.974 229.613 210.738C231.134 210.164 232.587 209.902 233.951 209.9V209.9ZM318.533 287.224C300.686 310.567 279.743 331.547 264.674 357.083C267.206 356.593 270.538 355.728 271.122 359.173C278.859 379.532 297.939 391.919 317.395 399.6C336.794 366.458 323.898 323.378 318.533 287.223L318.533 287.224ZM245.547 377.02C243.589 379.41 241.481 381.707 239.918 384.408C259.11 397.793 284.892 412.251 307.68 407.281C286.916 405.013 267.442 395.911 249.576 385.472C246.386 383.919 246.055 380.107 245.547 377.02L245.547 377.02Z" fill="#9AFDFD"/>
<path d="M326.292 156.222C331.271 168.768 330.707 193.043 319.223 206.635C301.754 228.802 274.015 248.7 244.61 245.688C263.435 236.144 275.681 217.817 291.372 204.207C303.514 188.77 319.957 175.301 326.292 156.222V156.222Z" fill="#08CCFA"/>
<path d="M37.778 170.463C30.6526 194.521 46.259 219.737 62.2224 237.018C71.0231 242.619 76.3789 227.511 83.2406 224.339C84.6525 222.655 86.5254 221.318 86.9866 219.002C87.5984 216.414 86.9492 213.864 84.8408 212.16C67.0322 200.432 49.5248 188.262 37.778 170.463V170.463ZM268.16 356.615C267.043 356.581 265.782 356.867 264.674 357.081C258.669 364.028 249.972 368.791 245.548 377.018C246.056 380.105 246.387 383.917 249.578 385.47C267.443 395.909 286.917 405.011 307.681 407.279C311.719 406.394 316.068 403.664 317.395 399.598C297.939 391.917 278.859 379.53 271.122 359.171C270.794 357.233 269.596 356.659 268.16 356.615L268.16 356.615Z" fill="#4AB895"/>
<path d="M71.8408 299.085C66.6357 306.983 58.09 317.053 64.6314 326.654C89.4147 354.581 125.899 366.977 155.689 388.278C160.264 391.629 165.572 384.437 165.534 380.258C131.621 356.473 101.255 328.095 71.8405 299.085L71.8408 299.085ZM80.0489 351.73C101.105 370.574 125.738 385.314 148.893 401.504C160.866 411.377 171.831 398.124 178.815 389.126C171.548 380.09 168.809 395.545 161.185 396.336C157.27 397.569 153.043 396.684 150.012 393.907C127.752 378.085 102.592 367.082 80.0489 351.731V351.73Z" fill="#E56739"/>
<path d="M61.6906 368.889C45.2064 368.703 25.4936 374.71 18.3608 390.564C17.156 394.226 22.8029 394.546 25.3349 394.631C27.9704 372.737 56.9884 370.553 74.4299 370.422C70.6681 369.479 66.306 368.941 61.691 368.889L61.6906 368.889ZM73.9429 377.891C72.1918 377.897 70.3797 378.092 68.5101 378.497C56.1608 379.984 39.9994 380.419 33.373 392.739C36.6109 395.29 40.9398 398.556 37.9278 403.29C25.2585 423.772 14.1244 447.153 15.188 471.832C38.6535 469.056 66.9759 465.423 79.0805 441.825C82.1584 430.605 90.5921 445.994 95.4584 438.587C112.621 420.506 100.209 377.812 73.9431 377.891L73.9429 377.891ZM97.4725 379.486C113.822 397.567 117.69 429.533 97.5563 446.259C93.8478 450.241 87.5329 447.529 83.7773 450.316C96.7384 461.902 110.047 441.845 113.087 430.578C115.035 413.692 114.472 389.04 97.4725 379.486L97.4725 379.486ZM69.4832 388.641C70.8643 388.606 72.2576 388.729 73.6483 389.031C94.5819 389.849 88.8025 426.934 69.7612 426.03C59.9627 437.081 42.0214 441.421 29.3898 449.262C33.7007 434.569 37.8052 417.324 47.4534 405.605C50.7561 396.859 59.8168 388.884 69.4835 388.641L69.4832 388.641ZM7.76035 453.525C3.4588 462.496 2.11337 479.702 2.85696 489.689C14.8203 484.295 29.391 481.48 40.6296 475.739C30.6146 476.05 20.6269 480.906 10.7061 479.494C5.03974 472.585 7.92026 461.837 7.76025 453.526L7.76035 453.525Z" fill="#FA9A36"/>
<path d="M66.5439 393.061C65.9782 393.067 65.3817 393.192 64.7453 393.478C52.2924 395.841 47.4826 418.704 62.6554 420.398C77.9132 428.324 89.7259 402.852 77.2637 395.021C72.9645 398.719 70.5032 393.013 66.5437 393.06L66.5439 393.061ZM47.4543 405.607C37.8064 417.326 33.7016 434.571 29.3906 449.264C42.0223 441.423 59.9636 437.083 69.7621 426.033C59.0317 426.334 43.1998 418.456 47.4543 405.607V405.607Z" fill="#E9E1AC"/>
</svg>
