<?xml version="1.0" encoding="UTF-8" standalone="no"?>
<svg
   xmlns:dc="http://purl.org/dc/elements/1.1/"
   xmlns:cc="http://creativecommons.org/ns#"
   xmlns:rdf="http://www.w3.org/1999/02/22-rdf-syntax-ns#"
   xmlns:svg="http://www.w3.org/2000/svg"
   xmlns="http://www.w3.org/2000/svg"
   xmlns:sodipodi="http://sodipodi.sourceforge.net/DTD/sodipodi-0.dtd"
   xmlns:inkscape="http://www.inkscape.org/namespaces/inkscape"
   version="1.1"
   id="svg2"
   xml:space="preserve"
   width="1978.7733"
   height="3850.0801"
   viewBox="0 0 1978.7733 3850.0801"
   sodipodi:docname="450.eps"><metadata
     id="metadata8"><rdf:RDF><cc:Work
         rdf:about=""><dc:format>image/svg+xml</dc:format><dc:type
           rdf:resource="http://purl.org/dc/dcmitype/StillImage" /></cc:Work></rdf:RDF></metadata><defs
     id="defs6" /><sodipodi:namedview
     pagecolor="#ffffff"
     bordercolor="#666666"
     borderopacity="1"
     objecttolerance="10"
     gridtolerance="10"
     guidetolerance="10"
     inkscape:pageopacity="0"
     inkscape:pageshadow="2"
     inkscape:window-width="640"
     inkscape:window-height="480"
     id="namedview4" /><g
     id="g10"
     inkscape:groupmode="layer"
     inkscape:label="ink_ext_XXXXXX"
     transform="matrix(1.3333333,0,0,-1.3333333,0,3850.08)"><g
       id="g12"
       transform="scale(0.1)"><path
         d="m 5584.51,0 c -6121.018,0.101563 -7093.62,1805 -3489.25,2587.3 1362.06,295.6 2649.78,417.8 3815.64,417.8 5123.7,0 7874.4,-2363.498 4036.43,-2758.897 C 8278.12,74.2031 6825.61,0 5584.51,0"
         style="fill:#e8e7e6;fill-opacity:1;fill-rule:nonzero;stroke:none"
         id="path14" /><path
         d="m 8452.61,8868.2 c 3.96,-366 -333.12,-1004.1 -365,-1610.7 -31.83,-606.5 230.2,-3236 218.72,-3746.5 -18.54,-829.3 933.12,-707.9 969.57,29.9 207.83,1162.4 717.2,3793.2 647.87,5204.7"
         style="fill:#f79074;fill-opacity:1;fill-rule:nonzero;stroke:none"
         id="path16" /><path
         d="m 9382.9,4300 c -51.4,-321.2 -131.69,-726.4 -131.69,-726.4 -197.44,89.7 -448.04,-108.2 -575.27,-296.5 -64.06,236.9 -87.23,933.5 -87.23,933.5 283.35,-60.6 681.13,-58.1 794.19,89.4"
         style="fill:#fabc8b;fill-opacity:1;fill-rule:nonzero;stroke:none"
         id="path18" /><path
         d="M 5026.07,9005.1 C 4092.6,7610.8 3847.62,5016.5 3615.48,3989.7 c 115.25,-598.6 638.68,-566.3 931.17,-281.2 759.85,1058.4 1638.88,3310.9 1869.06,4795"
         style="fill:#f79074;fill-opacity:1;fill-rule:nonzero;stroke:none"
         id="path20" /><path
         d="m 7302.1,16961 c -764.65,-461 -1253.77,-1513 -1399.68,-2421.5 -112.06,-697.5 1033.11,-1819.9 1916.55,-1948.1 883.41,-128.2 2053.99,605.3 2301.53,1305.7 247.6,700.3 -30.4,2290.7 -633.39,2810.3"
         style="fill:#f79074;fill-opacity:1;fill-rule:nonzero;stroke:none"
         id="path22" /><path
         d="m 10030.4,14386.1 c 426.1,-1307 29.5,-4737.3 -185.28,-5747.6 -163.64,-769.6 -999.89,-985.6 -1331.96,-142.6 -332.07,843 -917.47,4240.4 -760.49,4900.2"
         style="fill:#f79074;fill-opacity:1;fill-rule:nonzero;stroke:none"
         id="path24" /><path
         d="m 5962.27,14533.8 c -426.72,-666.2 -1115.18,-4526.5 -1049.05,-5494.4 66.32,-971.5 728.99,-1426.8 1391.34,-609.1 785.06,969.2 1890.74,4224.5 1933.73,4676.1"
         style="fill:#f79074;fill-opacity:1;fill-rule:nonzero;stroke:none"
         id="path26" /><path
         d="M 5512.47,20636.8 C 5043.45,19520.3 7110.32,15703.4 8605,16152.3 c 1221.39,366.8 2088.2,4605.3 904.96,5280.6 -961.61,548.8 -3607.87,131.4 -3997.49,-796.1"
         style="fill:#f79074;fill-opacity:1;fill-rule:nonzero;stroke:none"
         id="path28" /><path
         d="m 6690.97,22577.8 c 283.73,-216 428.44,-821.3 268.58,-1079.5 -399.48,-245.2 -466.79,-936.2 601.27,-891.7 1068.03,44.5 1116.7,740.7 741.78,915.9 -319.18,149.3 -380.81,965.8 -243.17,1112.7"
         style="fill:#f79074;fill-opacity:1;fill-rule:nonzero;stroke:none"
         id="path30" /><path
         d="m 7881.76,22407.3 c -90.47,-384.5 -530.84,-441.2 -550.5,-512 -65.12,-234.7 -244.98,-562.2 -428.85,-506.8 216.95,231.4 72.35,795.6 -32.83,1009.2"
         style="fill:#f25542;fill-opacity:1;fill-rule:nonzero;stroke:none"
         id="path32" /><path
         d="m 3615.45,4028.8 c -74.8,-284.6 -875.62,-1133.3 -1034.13,-1583.6 -181.44,-515.5 260.27,-932.6 500.53,-1057 240.29,-124.3 941.02,196 1101.2,536.4 160.18,340.4 442.19,1878.6 442.19,1878.6"
         style="fill:#f79074;fill-opacity:1;fill-rule:nonzero;stroke:none"
         id="path34" /><path
         d="m 3828.49,4697.4 c -48.67,-321.7 -182.71,-804.2 -182.71,-804.2 257.01,61.5 411.86,-143.1 545.58,-352.6 132.99,206.1 335.86,783.1 335.86,783.1 -293.29,-28.4 -635.88,198.7 -698.73,373.7"
         style="fill:#fabc8b;fill-opacity:1;fill-rule:nonzero;stroke:none"
         id="path36" /><path
         d="m 6141.5,15420.7 c -112.54,-292.6 -192.96,-594.1 -239.08,-881.2 -112.06,-697.5 1033.11,-1819.9 1916.55,-1948.1 883.41,-128.2 2053.99,605.3 2301.53,1305.7 74.7,211.2 101.6,503.5 86.1,822.9"
         style="fill:#151414;fill-opacity:1;fill-rule:nonzero;stroke:none"
         id="path38" /><path
         d="M 5662.47,14768.9 C 4908.8,13257 4743.52,10115.4 4488.28,9318.6 4232.99,8521.8 3702.53,6930.1 3952.01,5940.2 c 67.52,-442.4 1173.7,-765.5 1521.68,-544 811.67,372.7 1892.91,2975.5 2425.75,5288 180.22,782.3 465.25,2222.9 465.25,2222.9"
         style="fill:#151414;fill-opacity:1;fill-rule:nonzero;stroke:none"
         id="path40" /><path
         d="m 4052.98,6129.4 c -200.24,-30.1 -200.27,-190.3 -220.26,-500.6 -20,-310.3 -122.82,-472.1 -36.37,-796.7 286.67,-454.7 1057.47,-514.7 1237.69,-414.6 180.21,100.1 220.26,280.3 320.37,520.5 100.09,240.3 330.35,640.8 180.17,740.9"
         style="fill:#151414;fill-opacity:1;fill-rule:nonzero;stroke:none"
         id="path42" /><path
         d="m 10321.9,14426.1 c 500,-1955.4 88.1,-4721 -22,-5838.2 -110.2,-1117.2 -210.4,-2446.2 -637.13,-2991.1 -404.16,-319.8 -1262.95,-266.4 -1579.4,12.8 -336.44,519.5 -301.79,1913.2 -306.51,2822.2 -4.76,908.9 -156.65,3309.9 -128.32,4057.6"
         style="fill:#151414;fill-opacity:1;fill-rule:nonzero;stroke:none"
         id="path44" /><path
         d="m 8086.97,5859.1 c -189.41,-71.5 -125.68,-288.3 -79.96,-595.9 45.61,-307.5 -20.8,-427.3 131.9,-726.3 375.82,-384.4 1172.11,-281 1327.21,-145.2 155.13,135.8 126.32,320.4 173.73,576.3 47.32,255.9 158.16,695.8 -9.66,762.2"
         style="fill:#151414;fill-opacity:1;fill-rule:nonzero;stroke:none"
         id="path46" /><path
         d="m 8225.24,11052.5 c -204.38,-1180.8 1.52,-4486.6 263.75,-5255.6 184.62,-194.6 591.49,-286.5 1036.83,-167.8 569.58,429.2 1246.88,6510.1 849.18,8343.4 -249.1,-230.1 -803.03,-659.7 -1819.87,-597.9 -1016.83,61.7 -2365.12,889.6 -2365.12,889.6 0,0 -357.84,-14.7 -684.24,-693.7 -353.99,-816.6 -551.61,-3822.2 -739.39,-4350 -187.77,-527.8 -811.8,-2143.1 -594.37,-3197.9 173.68,-217.3 1019.25,-527.9 1562.23,91.1 557.8,636 1704.02,2878 2243.48,5280.9 342.09,108 1009.61,432.3 1226.97,627.2 -326.02,-550.2 -939.82,-740.4 -979.45,-969.3"
         style="fill:#201f26;fill-opacity:1;fill-rule:nonzero;stroke:none"
         id="path48" /><path
         d="M 6975.82,13707 C 6774.92,12918.5 6106,12387.1 5450.95,12387.3 5077.78,10015.6 5266.43,8242.6 5093.23,8009.7 c -173.19,-232.8 -307.44,729.7 -307.44,729.7 -269.36,-698.6 -606.34,-2526.8 -300.33,-2763.3 306.02,-236.6 884.84,31 1769.59,1738.7 999.66,1929.4 1289.07,3132.6 1358.65,3514.6 -445.98,-58.8 -687.54,99.9 -687.54,99.9 656.92,8.7 2239.79,587.4 2903,1327.3 -148.43,325.6 -131.58,612.1 -131.58,612.1 -849.96,-368.9 -1815.68,-90.6 -2721.76,438.3"
         style="fill:#292935;fill-opacity:1;fill-rule:nonzero;stroke:none"
         id="path50" /><path
         d="m 5260.12,12245 c -21.96,-9.8 80.07,-325.2 186.04,-346 114.06,-22.4 471.66,449.5 466.09,474.6 -5.56,25.1 -347.37,-271.2 -456.94,-253.1 -100.03,16.6 -173.23,134.2 -195.19,124.5"
         style="fill:#d9d7cb;fill-opacity:1;fill-rule:nonzero;stroke:none"
         id="path52" /><path
         d="m 6594.03,13742.4 c -220.28,-812.5 -950.88,-973.9 -1307.47,-827 -45.7,382.9 43.6,1272 608.23,1371.3 564.61,99.3 955.29,24.9 699.24,-544.3"
         style="fill:#151414;fill-opacity:1;fill-rule:nonzero;stroke:none"
         id="path54" /><path
         d="m 6438.78,13675.8 c 42.25,-152.1 -445.19,-660.6 -925.13,-566.3 -45.38,102.8 17.78,548.7 166.62,614.3 148.84,65.6 694.15,183.7 758.51,-48"
         style="fill:#201f26;fill-opacity:1;fill-rule:nonzero;stroke:none"
         id="path56" /><path
         d="m 4109.86,5913.9 c -202.08,66 -177.11,-191.5 -191.87,-460.5 -14.76,-269 -80.28,-374.4 -57.52,-571.8 163.07,-380.3 784.03,-465.7 943.14,-384.2 159.12,81.5 240.62,420 333.77,646.6 93.14,226.7 189.84,379.7 34.9,440.1 -162.99,-46.6 -834.6,50.4 -1062.42,329.8"
         style="fill:#201f26;fill-opacity:1;fill-rule:nonzero;stroke:none"
         id="path58" /><path
         d="m 9588.74,5545.1 c 149.89,14.4 82.65,-176.9 22.48,-439.5 -60.25,-262.7 -35.18,-453 -111.61,-636.4 -232.87,-262.9 -873.56,-159.8 -1003.9,-37.4 -130.37,122.3 -115.08,470.1 -141.9,713.7 -26.87,243.5 -77.44,479.5 88.14,494.6 176.65,-114.2 848.07,-262.2 1146.79,-95"
         style="fill:#201f26;fill-opacity:1;fill-rule:nonzero;stroke:none"
         id="path60" /><path
         d="m 5401.38,12759 c 131.41,-425.9 1003.33,-92.2 1192.65,676.4 -199.26,-481.2 -915.94,-729.7 -1192.65,-676.4"
         style="fill:#292935;fill-opacity:1;fill-rule:nonzero;stroke:none"
         id="path62" /><path
         d="m 9829.16,13716.1 c 81.82,-653.3 450.04,-1067.4 695.64,-1005.4 -0.6,344.3 -30.5,1119.4 -163.1,1308.5 -240.4,-124.7 -396.33,-215.2 -532.54,-303.1"
         style="fill:#151414;fill-opacity:1;fill-rule:nonzero;stroke:none"
         id="path64" /><path
         d="m 10016.9,13672.1 c -104.19,-111.5 126.2,-791.6 415.6,-791.5 52.1,93.2 60.2,841.5 -70.8,915.4 -62.6,35.3 -279.6,-54.1 -344.8,-123.9"
         style="fill:#201f26;fill-opacity:1;fill-rule:nonzero;stroke:none"
         id="path66" /><path
         d="m 10468.2,12576.9 c -166.8,-395.7 -759.03,222 -634.25,872.9 133.91,-520.4 388.65,-877 634.25,-872.9"
         style="fill:#292935;fill-opacity:1;fill-rule:nonzero;stroke:none"
         id="path68" /><path
         d="m 9717.05,12951.2 c 93.72,-422.6 442.55,-646.7 644.65,-688.1 90.7,-2211.1 -543.68,-6352.1 -991.96,-6582 -448.28,-229.9 -703.23,1128.1 -786.03,3022 -82.8,1893.9 -51.79,2338.9 51.72,2421.7 103.53,82.8 787.19,719.9 817.93,1327.6"
         style="fill:#292935;fill-opacity:1;fill-rule:nonzero;stroke:none"
         id="path70" /><path
         d="m 4144.12,5805.3 c -58.25,67.1 -60.64,-258.7 -89.96,-408.8 -29.32,-150.1 -144.7,-495.8 -86.42,-610.6 58.28,-114.8 321.97,-289.8 587.07,-263.9 204.84,98.3 215.18,750.3 308.32,848.6 93.15,98.4 155.25,210.7 15.53,205.6 -139.72,-5.2 -599.74,73.8 -734.54,229.1"
         style="fill:#292935;fill-opacity:1;fill-rule:nonzero;stroke:none"
         id="path72" /><path
         d="m 8751.6,5499.8 c -164.03,49.4 6.91,-265.6 16.62,-418.2 9.66,-152.7 -22.26,-531.6 51.81,-651.4 74.07,-119.9 526.98,-95.2 623.29,39 96.33,134.2 48.86,673.7 114.01,792.4 65.19,118.8 96.35,244.4 -37.12,202.7 -276.75,-86.4 -571.71,-23.8 -768.61,35.5"
         style="fill:#292935;fill-opacity:1;fill-rule:nonzero;stroke:none"
         id="path74" /><path
         d="m 12500,21308.3 c -289.1,-209.5 822.4,-1367.5 1025.9,-1053.7 212.2,327.2 -617.5,1349.6 -1025.9,1053.7"
         style="fill:#aba491;fill-opacity:1;fill-rule:nonzero;stroke:none"
         id="path76" /><path
         d="m 9413.07,21363.8 c 310.85,386.1 2170.43,-1340.8 2885.13,-1685.7 478.7,-230.9 241.6,-1080 -310.3,-1179.3 -551.8,-99.4 -2188.23,958.2 -2275.69,1052.4"
         style="fill:#f79074;fill-opacity:1;fill-rule:nonzero;stroke:none"
         id="path78" /><path
         d="m 11581.2,19703.2 c -94.5,761.8 1354.1,1768.7 1728,2536.3 219.1,496.6 1375.7,246.9 656.2,-529.6 -352,-1186.5 -1303.7,-3148.6 -2075,-3211.4"
         style="fill:#f79074;fill-opacity:1;fill-rule:nonzero;stroke:none"
         id="path80" /><path
         d="m 13556.1,22952.5 c 224.8,178.3 591.2,352.6 789.7,283.7 218.8,-76 378.1,-821.9 277.4,-1177 -242.6,-335.2 -493.6,-495.8 -793.7,-360.6"
         style="fill:#f79074;fill-opacity:1;fill-rule:nonzero;stroke:none"
         id="path82" /><path
         d="m 13949.7,23016.7 c 98.5,-254.8 76.2,-726 0,-882.7 254.5,-27.3 324,-147.2 438,-207.7 215.1,16.1 185.1,507.1 42.7,797.3 -142.5,290.1 -373.5,306.9 -480.7,293.1"
         style="fill:#f25542;fill-opacity:1;fill-rule:nonzero;stroke:none"
         id="path84" /><path
         d="m 13335.2,22104.2 c -78,295.1 -21.9,796.1 105.1,966.1 235.8,315.6 131.9,671.8 276.5,760.5 106.7,65.6 356.5,-328.5 170.3,-772.5 202.9,-261.9 137.6,-717.6 64.7,-833.9"
         style="fill:#f79074;fill-opacity:1;fill-rule:nonzero;stroke:none"
         id="path86" /><path
         d="m 14635.5,22366.3 c 364.7,-131.6 182.6,-449 -76.2,-516.9 -204.7,-53.7 -473.4,126.5 -49.3,249.9"
         style="fill:#f79074;fill-opacity:1;fill-rule:nonzero;stroke:none"
         id="path88" /><path
         d="m 14495.7,22700.1 c 492.9,-50.6 365.4,-500.3 65.5,-664.5 -237.3,-129.9 -626.3,10.4 -138.5,294.6"
         style="fill:#f79074;fill-opacity:1;fill-rule:nonzero;stroke:none"
         id="path90" /><path
         d="m 14351.9,23016.7 c 551.1,-18.7 443.7,-527.9 123.1,-733 -253.7,-162.3 -696.3,-36 -176.2,316.6"
         style="fill:#f79074;fill-opacity:1;fill-rule:nonzero;stroke:none"
         id="path92" /><path
         d="m 14158.1,23244.7 c 549.4,48.9 505.1,-469.7 211.9,-712.5 -231.8,-192.1 -653.7,-135.6 -213.6,292.7 61,59.3 110,161.6 110,161.6"
         style="fill:#f79074;fill-opacity:1;fill-rule:nonzero;stroke:none"
         id="path94" /><path
         d="m 11282.7,20415.4 c 154,-119.6 341.6,-191.9 341.6,-191.9 186.2,424.3 679.1,826.1 875.7,1084.8 -47.7,-319.2 785.3,-1012.3 1025.9,-1053.7 -214.7,-641.7 -1032.2,-1693.9 -1415.2,-1819.9 -382.9,-125.9 -1034.9,195 -1304.1,360.5"
         style="fill:#d9d7cb;fill-opacity:1;fill-rule:nonzero;stroke:none"
         id="path96" /><path
         d="m 12483.4,21144.6 c -274.3,-222.6 -805.6,-752.7 -853.9,-1097.1 -48.3,-344.3 31,-734.8 31,-734.8 -144.9,155.3 -221.3,447.3 -221.3,447.3 -109.9,-328.3 -218.8,-757.8 -218.8,-757.8 155.5,-196.6 565.1,-300.3 798,-222.7 232.8,77.7 833.5,677.3 1097.4,1603.5 -367.5,243.2 -559.9,545.6 -632.4,761.6"
         style="fill:#f3ebee;fill-opacity:1;fill-rule:nonzero;stroke:none"
         id="path98" /><path
         d="m 10882,18750.7 c 217.5,206.8 605.2,1258.2 597.6,1540.1 28.9,-7.3 99.7,-47.6 99.7,-47.6 115.5,-184.4 -120,-1335.6 -467.3,-1612 -128.6,32.3 -230,119.5 -230,119.5"
         style="fill:#1d1c22;fill-opacity:1;fill-rule:nonzero;stroke:none"
         id="path100" /><path
         d="m 9740.89,21521.4 c 457.81,-35.3 1153.01,-691.3 1334.91,-842.6 181.9,-151.3 325.9,-160.6 360.9,-383 35,-222.4 -306.6,-1495.3 -460,-1611.8 -189.2,-143.6 -832.4,419.1 -1018.65,403.5"
         style="fill:#c67a1b;fill-opacity:1;fill-rule:nonzero;stroke:none"
         id="path102" /><path
         d="m 9881.06,21452.9 c 241.54,11.3 1124.84,-805.1 1427.54,-913.7 178.6,-403.6 -151.5,-1312.6 -285.3,-1502.3 -289.1,112.9 -903.8,367.4 -1100.76,1471.3 -147.93,828.9 -41.48,944.7 -41.48,944.7"
         style="fill:#efa90f;fill-opacity:1;fill-rule:nonzero;stroke:none"
         id="path104" /><path
         d="m 10894.2,19192.5 c -19.7,-119.8 -72.3,-335.1 -72.3,-335.1 128,-15.3 283.8,163.6 429.2,727.4"
         style="fill:#efa90f;fill-opacity:1;fill-rule:nonzero;stroke:none"
         id="path106" /><path
         d="m 9971.04,21336.8 c 133.06,177.3 996.76,-637.5 1191.96,-727.1 -41.8,-351 -188.1,-835.6 -331.9,-849.7 -467.7,214.4 -1038.45,1339.2 -860.06,1576.8"
         style="fill:#fbc130;fill-opacity:1;fill-rule:nonzero;stroke:none"
         id="path108" /><path
         d="m 11331.8,20533.3 c 125.9,-60.7 63.8,-807.9 -282.8,-1073.9 207.3,507.8 142.3,1141.7 282.8,1073.9"
         style="fill:#fbc130;fill-opacity:1;fill-rule:nonzero;stroke:none"
         id="path110" /><path
         d="m 11566.5,20122.3 c -49.2,-404.6 -14.8,-1241.8 -228.6,-1588 131.9,-66.3 345.5,-103.2 345.5,-103.2 161.7,198.8 -52.8,1337.9 -60.9,1822.4"
         style="fill:#1d1c22;fill-opacity:1;fill-rule:nonzero;stroke:none"
         id="path112" /><path
         d="m 12139.8,18445.7 c 4.1,190.6 -289.6,645 -376.1,1086.9 141.6,-280 435.6,-563.9 652.9,-893.5 -127.4,-146.9 -276.8,-193.4 -276.8,-193.4"
         style="fill:#1d1c22;fill-opacity:1;fill-rule:nonzero;stroke:none"
         id="path114" /><path
         d="m 11617.8,20241.6 c 35.2,-284.5 231.4,-726.2 1054.3,-1342.7 69.1,44.8 179,213.8 179,213.8 -442.7,331.8 -1049.8,866.7 -1142.7,1270.3 -61.5,-50.9 -90.6,-141.4 -90.6,-141.4"
         style="fill:#1d1c22;fill-opacity:1;fill-rule:nonzero;stroke:none"
         id="path116" /><path
         d="m 13019.3,19336.4 c 95.7,98.8 162.6,236.7 162.6,236.7 -432.1,139.6 -1164.3,784.9 -1238.8,1132.9 0,0 -129.9,-149.4 -168.8,-222.7 66.7,-258.2 760.8,-913.9 1245,-1146.9"
         style="fill:#1d1c22;fill-opacity:1;fill-rule:nonzero;stroke:none"
         id="path118" /><path
         d="m 13325.7,19817.8 c -575.6,150.1 -1108.9,780.8 -1200.9,1082.6 74.3,96.7 190,197.7 190,197.7 143.4,-281.1 507.8,-766.7 1156.8,-991.1 0,0 -119,-250.2 -145.9,-289.2"
         style="fill:#1d1c22;fill-opacity:1;fill-rule:nonzero;stroke:none"
         id="path120" /><path
         d="m 12351.3,21030.9 c -36,57.5 -142.2,-134.3 -150.2,-208.7 -7.9,-74.4 353.1,-684.2 805.1,-823.3 43.2,31.6 100.2,250.1 100.2,250.1 -331.2,81.6 -620.1,566.4 -755.1,781.9"
         style="fill:#31303d;fill-opacity:1;fill-rule:nonzero;stroke:none"
         id="path122" /><path
         d="m 11948.5,20611.4 c -46.6,-35 -148.8,-192.9 -148.8,-192.9 129.4,-226.3 517.5,-734.3 925,-885.9 50.5,69.7 126.4,182.3 126.4,182.3 -284.3,142.3 -786.2,605.4 -902.6,896.5"
         style="fill:#31303d;fill-opacity:1;fill-rule:nonzero;stroke:none"
         id="path124" /><path
         d="m 11720.5,20290.8 c -47.5,-75.3 -70.8,-149 -70.8,-149 58.2,-357.1 497.6,-857.7 766.9,-989.7 79.1,31.1 139.3,184.3 139.3,184.3 -266.6,172.9 -687,575.6 -835.4,954.4"
         style="fill:#31303d;fill-opacity:1;fill-rule:nonzero;stroke:none"
         id="path126" /><path
         d="m 11481.5,20201 c 4.2,47.5 58.5,28.7 95.2,-69.6 36.8,-98.3 -35,-684.1 -143.1,-944.1 -86.6,-59.8 -182.5,95.4 -182.5,95.4 88.1,336.4 220.1,801.6 230.4,918.3"
         style="fill:#31303d;fill-opacity:1;fill-rule:nonzero;stroke:none"
         id="path128" /><path
         d="m 11649.7,19779.5 c -28.9,169.1 -90.6,0.4 -95.8,-246.9 -5.1,-247.2 -110.2,-714.3 113.9,-692.3 165.6,16.3 -7.6,877.6 -18.1,939.2"
         style="fill:#31303d;fill-opacity:1;fill-rule:nonzero;stroke:none"
         id="path130" /><path
         d="m 11763.7,19559.6 c -36.1,-25.5 155,-670.1 279.2,-758.1 142.4,18.1 158.1,108.7 158.1,108.7 -121.8,199.2 -419,662.3 -437.3,649.4"
         style="fill:#31303d;fill-opacity:1;fill-rule:nonzero;stroke:none"
         id="path132" /><path
         d="m 13407.8,22302.5 c -174.7,-390.5 -851.9,-1135.1 -851.9,-1135.1 121.1,-247.2 450.3,-525.3 646.2,-615.8 163,312 527.8,1099.1 527.8,1099.1 -337.7,312.1 -322.1,651.8 -322.1,651.8"
         style="fill:#fabc8b;fill-opacity:1;fill-rule:nonzero;stroke:none"
         id="path134" /><path
         d="m 13726,23786 c -67.4,-15.2 -34.9,-221.2 -93.1,-419.1 -58.3,-198 -147.5,-279.9 -190.2,-413.6 -42.7,-133.7 -201.7,-701.8 100.9,-990.5 410.4,-391.5 710.4,-134.8 730.1,-66.7 19.7,68.1 -154.2,152.7 -247.9,158 -134.6,7.6 -257.1,-53.4 -257.1,-53.4 133.7,280.6 214,787.9 -9.4,1047.9 159.5,335.1 87,764.6 -33.3,737.4"
         style="fill:#fabc8b;fill-opacity:1;fill-rule:nonzero;stroke:none"
         id="path136" /><path
         d="m 13983.5,23156 c 201.8,95.7 401,72.5 509.6,-33.6 108.7,-106.1 7.7,-374.5 -190.8,-533 -198.5,-158.6 -314.8,-113.9 -318.8,-38.8 -4.1,75 308.9,416.9 368.4,466.1 -72.5,-12.9 -386.5,9.9 -368.4,139.3"
         style="fill:#fabc8b;fill-opacity:1;fill-rule:nonzero;stroke:none"
         id="path138" /><path
         d="m 14614.7,22901.1 c 2,-147.4 -178.5,-442.4 -485.1,-506.4 -72.3,-63.8 36.7,-166.9 326,23.3 289.4,190.1 263.9,438.5 159.1,483.1"
         style="fill:#fabc8b;fill-opacity:1;fill-rule:nonzero;stroke:none"
         id="path140" /><path
         d="m 14733.1,22546 c -100.9,-221.2 -287.2,-345.4 -466.7,-362.8 -75.8,-74.9 4.9,-188.3 307.6,-35 302.7,153.3 227.1,405.6 159.1,397.8"
         style="fill:#fabc8b;fill-opacity:1;fill-rule:nonzero;stroke:none"
         id="path142" /><path
         d="m 14770,22171.5 c -60.2,-54.3 -199.9,-215.4 -382.3,-211.5 154,-114.6 508.4,89.6 382.3,211.5"
         style="fill:#fabc8b;fill-opacity:1;fill-rule:nonzero;stroke:none"
         id="path144" /><path
         d="m 14132.1,22631.8 c -59.4,12.9 -153.7,-87.1 -125.9,-143.2 27.6,-56.1 195.8,-15.4 197.6,32.6 1.8,47.9 -26.6,100.8 -71.7,110.6"
         style="fill:#f6838b;fill-opacity:1;fill-rule:nonzero;stroke:none"
         id="path146" /><path
         d="m 14260.1,22366.3 c -56.5,22.7 -184.5,-43.3 -155.5,-98.9 21.2,-40.6 190.5,-47.8 200.3,-0.8 9.8,47 -2,82.5 -44.8,99.7"
         style="fill:#f6838b;fill-opacity:1;fill-rule:nonzero;stroke:none"
         id="path148" /><path
         d="m 14382.4,22149 c -56.5,22.7 -184.5,-43.4 -155.6,-98.9 21.2,-40.6 190.5,-47.8 200.3,-0.8 9.8,46.9 -1.9,82.5 -44.7,99.7"
         style="fill:#f6838b;fill-opacity:1;fill-rule:nonzero;stroke:none"
         id="path150" /><path
         d="m 14451.8,21976.2 c -41.8,20 -130.4,-36.4 -111.1,-80 14,-31.9 112,-48.9 135,-20.6 16.7,20.6 7.7,85.5 -23.9,100.6"
         style="fill:#f6838b;fill-opacity:1;fill-rule:nonzero;stroke:none"
         id="path152" /><path
         d="m 13675.1,23797.7 c 42.5,-15.2 44.5,-142.3 31.5,-188.9 -12.9,-46.6 -68.4,-42 -85.9,-21 -9.8,77.9 35.3,197.3 54.4,209.9"
         style="fill:#f6838b;fill-opacity:1;fill-rule:nonzero;stroke:none"
         id="path154" /><path
         d="m 10241,19075.4 c 19.6,-378.3 -29.1,-1213.3 29.1,-2159.3 58.3,-946 270,-2282.5 179.9,-2500 -90.1,-217.4 -555.76,-713.6 -1964.92,-699.8 -1409.2,13.8 -2420.2,842.2 -3035.89,847.6 13.17,675.6 376.89,1811.8 389.32,1966.2 12.43,154.5 -123.02,1347 -270.22,1833.2 -172.94,1143.2 -373.9,2300.3 -211.15,2560.8 155.85,249.4 1154.6,620.2 1338,587.8 197.91,-13.7 189.08,-399.5 779.88,-464.2 640.22,-70.1 961.67,252.1 904.43,653.8 535.67,43.8 1223.72,-57.4 1457.56,-195.3 220.59,-130.1 -96.12,-1166.2 403.99,-2430.8"
         style="fill:#c67a1b;fill-opacity:1;fill-rule:nonzero;stroke:none"
         id="path156" /><path
         d="m 10361.7,14616.7 c 110.1,-7.7 114.5,-217.5 51.4,-301.1 -349.1,-549.3 -2174.81,-837.2 -3567.6,-173.7 -386.1,213.1 -62.09,253.1 -62.09,253.1 946.97,-476.9 2902.97,-577.9 3578.29,221.7"
         style="fill:#efa90f;fill-opacity:1;fill-rule:nonzero;stroke:none"
         id="path158" /><path
         d="m 6309.93,21315.4 c -48.3,135.6 -822.77,-201.9 -865.22,-431 -89.5,-492.8 333,-2112.9 485.04,-2495.6 206.78,-520.6 529.65,-1311.5 876.82,-1816.1 -93.59,-114.6 -492.27,489 -672.99,721.9 -64.27,-465.7 -96.05,-1746.4 -359.6,-2406.2 698.94,-256.2 1645.91,-788.5 2918.85,-751.3 1272.97,37.2 1630.07,484.1 1668.87,594.4 -46.6,428.5 -242.5,2316.6 -289.1,2960.9 -29.2,405.1 15.9,1457.7 1.3,2376 -8.7,542.1 -229.9,1137 -116.17,1325.3 -287.66,280.2 -1016.49,257.3 -1016.49,257.3 131.92,-1119.6 -2219.2,-1492.2 -2631.31,-335.6"
         style="fill:#efa90f;fill-opacity:1;fill-rule:nonzero;stroke:none"
         id="path160" /><path
         d="m 5563.9,20964.2 c -6.55,-702.9 890.96,-3048.6 1165.73,-3529.9 274.75,-481.2 526.81,-1158.4 371.51,-1282.6 -403.69,15.5 -753.28,479.3 -753.28,479.3 147.06,-545.2 -80.57,-1310.6 31.09,-1647.4 705.08,-667.6 3096.58,-1117.7 3764.15,-93.1 0,527.3 -395.06,1623.8 -344,3395.2 35.76,1241.3 142.93,2594.5 88.81,3099.8 -347.25,198.1 -862.89,207.2 -862.89,207.2 -248.04,-1191.1 -2184.03,-1323.3 -2795.74,-321.8 -277.69,0 -665.38,-306.7 -665.38,-306.7"
         style="fill:#fbc130;fill-opacity:1;fill-rule:nonzero;stroke:none"
         id="path162" /><path
         d="m 6780.83,21419.7 c -46.57,101.7 -380.91,13.1 -377.75,-111.4 5.33,-211 462.13,-892.6 1547.23,-696.8 975.37,176 958.19,979.7 885.74,1066.8 -72.43,87.2 -428.52,128.6 -409.7,-11.1 18.84,-139.7 51.7,-545.5 -595.07,-647.9 -646.82,-102.4 -942.35,164.5 -1050.45,400.4"
         style="fill:#efa90f;fill-opacity:1;fill-rule:nonzero;stroke:none"
         id="path164" /><path
         d="m 8515.1,21594.8 c -47.37,-702.3 -1353.84,-862.3 -1758.89,-229 -300.17,28.8 -65.24,-589.9 721.06,-712.2 634.46,-98.7 1079.07,193 1187.5,491.7 156.15,430.1 -137.95,623.5 -149.67,449.5"
         style="fill:#fbc130;fill-opacity:1;fill-rule:nonzero;stroke:none"
         id="path166" /><path
         d="m 7409.64,14135.2 c -269.33,58 328.2,-399 1484.71,-332.6 1156.55,66.5 1410.35,626.4 1159.35,506.8 -250.91,-119.6 -1050.89,-516.9 -2644.06,-174.2"
         style="fill:#fbc130;fill-opacity:1;fill-rule:nonzero;stroke:none"
         id="path168" /><path
         d="m 7590.29,19372.5 c -116.76,166 -419.18,338.9 -743.11,187.5 -324.02,-151.5 -191.27,-1466.5 245.98,-1709.1 437.28,-242.5 729.48,195.9 675.14,412.2 -54.33,216.3 -310.35,432.5 -358.51,333.4 -48.18,-99.1 -34.04,-319.8 -233.12,-345.3 -199.18,-25.5 -460.63,833.3 -147.12,998.3 313.54,165.1 257.12,-164 370.66,-180.1 113.58,-15.9 287.29,164.9 190.08,303.1"
         style="fill:#292935;fill-opacity:1;fill-rule:nonzero;stroke:none"
         id="path170" /><path
         d="m 7919.93,18630.6 c -151.08,179.1 -27.25,490.4 137.38,486.6 144.33,-3.3 237.25,-215.1 172.79,-439.3 -45.76,-159.4 -235.46,-135.9 -310.17,-47.3 z m 28.18,733.7 c -248.66,50.4 -411.94,-335.5 -305.37,-713.2 78.3,-277.7 238.32,-516.3 470.26,-422.5 336.91,136.1 427.23,1015.7 -164.89,1135.7"
         style="fill:#292935;fill-opacity:1;fill-rule:nonzero;stroke:none"
         id="path172" /><path
         d="m 8552.42,18351.8 c -58.78,95.4 -75.83,551.4 13.4,578.4 177.53,53.9 347.81,-106.8 290.17,-428.7 -23.02,-128.5 -205.88,-308.8 -303.57,-149.7 z m -63.18,-296.6 c 345.49,-175.4 638.97,148.7 655.12,663.8 13.77,441.8 -402.49,806.9 -657.13,677.1 -237.4,-121 -184.61,-359.9 -158.54,-600.4 40.64,-373.7 -61.56,-627.9 160.55,-740.5"
         style="fill:#292935;fill-opacity:1;fill-rule:nonzero;stroke:none"
         id="path174" /><path
         d="m 8829.29,19720.2 c -7.67,-128 249.54,-239.3 353.41,-803 68.3,-370.6 -62.75,-593.7 13.55,-669.8 76.29,-76 481.03,-4.3 594.28,149.8 113.23,153.9 113.48,604.1 16.38,635.4 -97.02,31.2 -82.31,-193 -126.21,-288.9 -43.9,-96 -253.96,-227.8 -292.45,-124 -38.46,103.8 76.32,919.5 -60.52,1077.6 -136.82,158 -494.08,95.6 -498.44,22.9"
         style="fill:#292935;fill-opacity:1;fill-rule:nonzero;stroke:none"
         id="path176" /><path
         d="m 7861.4,17253.7 c 79.31,35.2 413.63,50.8 446.77,-23.6 33.15,-74.5 93.3,-258.1 13.31,-339.7 -79.93,-81.4 -372.89,-130.4 -432.72,5.2 -59.81,135.6 -78.89,335.2 -27.36,358.1"
         style="fill:#292935;fill-opacity:1;fill-rule:nonzero;stroke:none"
         id="path178" /><path
         d="m 8493.78,17289.6 c -19.23,-65.2 15.81,-323.9 87.47,-375.8 71.71,-51.8 444.38,85 461.02,199.2 16.63,114.1 11.85,334.6 -107.36,332.8 -119.25,-1.9 -416.78,-73.2 -441.13,-156.2"
         style="fill:#292935;fill-opacity:1;fill-rule:nonzero;stroke:none"
         id="path180" /><path
         d="m 7180.54,17642.6 c 319.25,-567.3 1919.4,-349.8 2343.4,451.3 213.31,-12.9 285.07,136.1 90.17,198.7 -194.92,62.6 -246.98,-78 -224.54,-178.3 22.43,-100.4 -318.36,-519.3 -1120.18,-652.9 -801.8,-133.4 -1035.45,149.5 -1005.43,236.8 29.99,87.3 12.64,344.4 -212.76,148.3 -225.46,-196.2 45.96,-259.5 129.34,-203.9"
         style="fill:#292935;fill-opacity:1;fill-rule:nonzero;stroke:none"
         id="path182" /><path
         d="M 2395.18,1975 C 2107.06,1708.8 2162.26,680.203 2597.11,514.305 c 396.78,-151.301 844.25,59.297 1121.95,304.398 421.88,372.297 597.71,891.197 627.3,964.397 77.49,191.6 270.18,353.5 359.38,588.2 64.37,169.3 80.11,1031 14.26,1094.4"
         style="fill:#191317;fill-opacity:1;fill-rule:nonzero;stroke:none"
         id="path184" /><path
         d="M 2307.92,993.203 C 2389.43,756.504 2784.56,488.703 3386.48,826.305 3988.39,1164 4131.51,1761.9 4207.43,1992.7 4223.22,1496.8 3919.38,969.602 3479.98,690.504 3040.58,411.402 2412.71,333.402 2307.92,993.203"
         style="fill:#292935;fill-opacity:1;fill-rule:nonzero;stroke:none"
         id="path186" /><path
         d="m 4124.11,3375.4 c 142.26,277.1 -515.2,696.4 -680.59,340.6 -165.19,-355.9 -1220.95,-1682.7 -763.81,-1921.4 456.96,-238.7 1137.47,982.9 1444.4,1580.8"
         style="fill:#191317;fill-opacity:1;fill-rule:nonzero;stroke:none"
         id="path188" /><path
         d="m 3645.78,3819.4 c 57.55,42.7 396.47,-87.9 342.38,-211.2 -54.1,-123.4 -545.28,60.7 -342.38,211.2"
         style="fill:#292935;fill-opacity:1;fill-rule:nonzero;stroke:none"
         id="path190" /><path
         d="m 3492.24,3434.8 c 30.43,-144 -264.58,-611.3 -462.51,-889.2 -197.94,-277.8 -323.46,-528.9 -170.75,-584 237.51,-85.7 673.15,866.1 786.8,1148.1 113.63,282 -125.78,352.6 -153.54,325.1"
         style="fill:#292935;fill-opacity:1;fill-rule:nonzero;stroke:none"
         id="path192" /><path
         d="m 4662.84,3878.1 c -117.25,-178.2 -254.48,-419.1 -446.65,-442 -183.77,-21.9 -329,-9.5 -444.13,-199.3 -115.21,-189.8 -545.22,-1075.1 -672.35,-1232.3 -135.84,-190.9 -417.19,-60 -363.88,143.4 40.18,153.4 630.82,1077.3 717.87,1218.6 63.49,103 171.85,328.1 125.43,465.2 10.86,73.2 40.33,179.4 74.59,339.8 -101.36,97.8 -216.64,-57.3 -286.85,-316 -70.2,-258.6 -675.07,-1014.3 -964.99,-1409.9 -289.92,-395.8 -353.44,-1300 97,-1624.295 269.69,-194.102 1075.09,-133.403 1476.35,679.695 307.79,623.5 540.65,1568.9 691.19,1752.7 183.01,223.4 155.11,591.6 -3.58,624.4"
         style="fill:#2d5498;fill-opacity:1;fill-rule:nonzero;stroke:none"
         id="path194" /><path
         d="m 4654.17,3529.1 c -84.08,-288.1 -459.69,-434.9 -581.67,-429 -122.04,5.9 -267.88,-99 -93.89,-144.5 174.09,-45.4 307.62,-16.3 307.62,-16.3 -233.65,-414.7 -447.34,-1050 -619.77,-1326.2 -203.31,-326.1 -758.38,-601.1 -1145.42,-398 -394.16,206.8 -256.17,918.4 -86.47,1198.3 190.1,313.5 772.84,956.8 802.88,1030.4 31.56,-71 69.53,-86.2 117.53,-17.4 27.82,40.1 6.66,203.4 25.85,362.3 19.11,158.8 79.93,336.3 160.64,349.3 78.3,12.5 -28.77,-170.8 -20.28,-296.7 8.61,-127.4 -87.96,-415.9 -239.14,-663 -100.79,-164.8 -386.64,-610.1 -572.84,-969.1 -130.01,-250.6 261.82,-495 441.31,-215 117.07,182.6 293.2,512.7 396.62,715.8 232.62,457.3 315,707.6 525.27,676.3 311.54,-46.3 458.38,171.2 519.26,312.9 61.02,141.6 95.15,-58.1 62.5,-170.1"
         style="fill:#4079c5;fill-opacity:1;fill-rule:nonzero;stroke:none"
         id="path196" /><path
         d="m 3411.25,3609 c 85.49,-31.6 55.21,-163.8 -52.28,-139.3 -107.48,24.4 -51.54,177.7 52.28,139.3"
         style="fill:#253956;fill-opacity:1;fill-rule:nonzero;stroke:none"
         id="path198" /><path
         d="m 2645.6,2287.2 c 85.42,-31.6 55.09,-163.8 -52.33,-139.2 -107.46,24.6 -51.48,177.7 52.33,139.2"
         style="fill:#1a3353;fill-opacity:1;fill-rule:nonzero;stroke:none"
         id="path200" /><path
         d="m 2882.3,2715.9 c 85.4,-31.8 55.07,-163.7 -52.42,-139.3 -107.55,24.5 -51.57,177.7 52.42,139.3"
         style="fill:#1a3353;fill-opacity:1;fill-rule:nonzero;stroke:none"
         id="path202" /><path
         d="m 3140.13,3121.4 c 85.59,-31.7 55.14,-163.8 -52.38,-139.2 -107.35,24.5 -51.48,177.7 52.38,139.2"
         style="fill:#1a3353;fill-opacity:1;fill-rule:nonzero;stroke:none"
         id="path204" /><path
         d="m 3935.12,3287.1 c 87.15,-27.3 63.38,-160.7 -45.06,-141.5 -108.72,18.6 -60.7,174.4 45.06,141.5"
         style="fill:#1a3353;fill-opacity:1;fill-rule:nonzero;stroke:none"
         id="path206" /><path
         d="m 3238.75,1959.9 c 87.08,-27.1 63.26,-160.5 -45.11,-141.5 -108.73,18.8 -60.58,174.8 45.11,141.5"
         style="fill:#1a3353;fill-opacity:1;fill-rule:nonzero;stroke:none"
         id="path208" /><path
         d="m 3493.12,2391.7 c 87.1,-27.2 63.51,-160.6 -45.16,-141.6 -108.6,19 -60.51,174.8 45.16,141.6"
         style="fill:#1a3353;fill-opacity:1;fill-rule:nonzero;stroke:none"
         id="path210" /><path
         d="m 3712.17,2837.1 c 87.14,-27.2 63.44,-160.5 -45.17,-141.6 -108.55,18.9 -60.55,174.9 45.17,141.6"
         style="fill:#1a3353;fill-opacity:1;fill-rule:nonzero;stroke:none"
         id="path212" /><path
         d="M 3872.69,3275.7 C 3701.9,3129.8 3223.38,3090 3122,3098.2 c -66.53,-33.9 -5.16,-90.8 -5.16,-90.8 150.42,-44.7 529.76,-33.8 791.69,168 57.51,63.8 6.98,130.9 -35.84,100.3"
         style="fill:#eae7d1;fill-opacity:1;fill-rule:nonzero;stroke:none"
         id="path214" /><path
         d="m 3426.23,3494.4 c -17.65,-221.4 224.85,-619.1 289.13,-693.5 11.4,-72.4 -68.79,-59 -68.79,-59 -121.5,90.6 -330.05,393.1 -320.37,720 17.43,83.3 99.63,84.7 100.03,32.5"
         style="fill:#eae7d1;fill-opacity:1;fill-rule:nonzero;stroke:none"
         id="path216" /><path
         d="m 3645.32,2834.9 c -175.34,-140.5 -662.07,-162.5 -765.11,-150.4 -67.94,-31.5 -6.54,-91.6 -6.54,-91.6 152.15,-50.6 537.7,-54 806.67,139.5 59.24,62 8.91,131.8 -35.02,102.5"
         style="fill:#eae7d1;fill-opacity:1;fill-rule:nonzero;stroke:none"
         id="path218" /><path
         d="m 3194.97,3072.8 c -21.19,-222.8 219.68,-633.4 284.11,-710.7 10.42,-73.4 -70.95,-57 -70.95,-57 -122.11,95.9 -329.74,409.2 -315.31,738.6 18.89,83.3 102.45,81.6 102.15,29.1"
         style="fill:#eae7d1;fill-opacity:1;fill-rule:nonzero;stroke:none"
         id="path220" /><path
         d="m 3404.88,2392.6 c -173.77,-131.9 -660.9,-134.8 -764.17,-118.9 -67.72,-28.7 -5.24,-90.4 -5.24,-90.4 153.36,-55.7 539.34,-74.1 806.03,106.7 58.31,59 6.92,129.9 -36.62,102.6"
         style="fill:#eae7d1;fill-opacity:1;fill-rule:nonzero;stroke:none"
         id="path222" /><path
         d="m 2950.38,2645.2 c -18.08,-219.3 228.92,-634.5 294.5,-713.5 11.86,-72.9 -70.01,-53.4 -70.01,-53.4 -123.71,99.5 -336.07,417.2 -326.49,742.2 18.07,81.7 101.66,76.6 102,24.7"
         style="fill:#eae7d1;fill-opacity:1;fill-rule:nonzero;stroke:none"
         id="path224" /><path
         d="m 3647.32,3447.4 c 137.56,101.9 551.28,176.8 624.41,-91.3 73.08,-268.3 -88.68,-502.2 -268.05,-454.3 -179.44,48.1 -333.59,441.3 -357.9,481.8 1.54,63.8 32.92,61.6 93.26,21.8 60.54,-39.5 215.64,-417.9 308.02,-409.9 124.14,10.9 151.07,292.7 82.95,384.4 -68.25,91.7 -387.06,46.3 -426.99,8.8"
         style="fill:#eae7d1;fill-opacity:1;fill-rule:nonzero;stroke:none"
         id="path226" /><path
         d="m 3615.63,3450.7 c -91.34,39.1 -752.69,-60.6 -1060.44,-296.2 -24.42,-49.7 11.13,-163.9 56.96,-117.6 45.74,46.2 704.29,368.9 1033.63,346.7"
         style="fill:#eae7d1;fill-opacity:1;fill-rule:nonzero;stroke:none"
         id="path228" /><path
         d="m 3704.44,3461.8 c -2.69,211.9 -376.7,486.7 -604.22,290.2 -227.25,-196.3 -139.35,-394.6 54.24,-319.2 193.72,75.4 393.71,-42.1 472.91,-35.6 79.1,6.8 35.87,57.1 -60.82,123 -157.61,107.7 -461.99,-27.4 -500.56,11.4 -38.9,38.5 118.1,215.5 294.38,182.2 126.96,-23.8 244.5,-159.9 245.77,-276.1"
         style="fill:#eae7d1;fill-opacity:1;fill-rule:nonzero;stroke:none"
         id="path230" /><path
         d="m 3687.53,3378 c -33.51,-90.7 -6.19,-433 425.93,-705.9 60.97,-36.1 12.98,-134.2 -71.34,-97.2 -84.14,36.8 -590.36,508.8 -431.39,822.6 36.59,49.9 76.8,-19.5 76.8,-19.5"
         style="fill:#eae7d1;fill-opacity:1;fill-rule:nonzero;stroke:none"
         id="path232" /><path
         d="m 3663.39,3532.3 c 74.83,-5.8 199.08,-199 46.54,-195.4 -152.29,3.5 -180.98,205.9 -46.54,195.4"
         style="fill:#eae7d1;fill-opacity:1;fill-rule:nonzero;stroke:none"
         id="path234" /><path
         d="M 10899.1,1863 C 11232.9,1627.1 11032.2,974.602 10858,804.902 10521,476.305 9862.84,590.801 9430.13,976.004 9009.9,1349.9 8843.2,1716.2 8730.56,1690.7 c -112.68,-25.6 -415.02,277.6 -479.84,402.9 -64.81,125.4 -113.79,616 -65.04,646.3"
         style="fill:#191317;fill-opacity:1;fill-rule:nonzero;stroke:none"
         id="path236" /><path
         d="M 11027.1,1208.6 C 10960.3,1006.6 10610.7,668.703 9965.05,912.602 9319.41,1156.3 9046.58,1697.5 8937,1914.3 c 58.58,-492.7 467.87,-969.898 944.1,-1180.097 476.2,-210.199 1079.2,-109.703 1146,474.397"
         style="fill:#292935;fill-opacity:1;fill-rule:nonzero;stroke:none"
         id="path238" /><path
         d="m 8830.17,3087.2 c -163.33,238.7 460.13,650.9 652.62,343 192.39,-307.9 1347.71,-1421.7 910.61,-1672.3 -437.05,-250.6 -1210.83,814.3 -1563.23,1329.3"
         style="fill:#191317;fill-opacity:1;fill-rule:nonzero;stroke:none"
         id="path240" /><path
         d="m 9415.4,3265.7 c -8.58,-146.9 353.06,-564.8 590.3,-809.9 237.3,-245.1 341.2,-447.6 207.8,-540.2 -238.57,-165.6 -746.73,744 -901.28,1005.7 -154.54,261.8 71.61,367.5 103.18,344.4"
         style="fill:#292935;fill-opacity:1;fill-rule:nonzero;stroke:none"
         id="path242" /><path
         d="m 9234.36,3506.8 c -63.27,33.6 -366.92,-115.3 -294.99,-229.2 71.96,-113.8 518.15,110.7 294.99,229.2"
         style="fill:#292935;fill-opacity:1;fill-rule:nonzero;stroke:none"
         id="path244" /><path
         d="m 8193.48,3141.8 c -65.4,172.3 -23.47,363.1 108.83,408.9 7.59,-183.9 173.25,-437.9 431.95,-432.8 185.16,3.8 328.82,17 458.32,-145.1 129.49,-162.1 626.91,-926.6 765.82,-1058.4 150.2,-161.4 420.5,-21.6 351.5,157.6 -51.9,135.1 -712.33,921.8 -810.1,1042.5 -71.24,87.8 -255.01,386.5 -211.77,516 21.65,85.3 239.79,48 329.96,-179.7 90.07,-227.5 939.01,-879.4 1258.61,-1213.5 319.8,-334.2 324.8,-996.2 -91,-1258.198 -336.8,-212.297 -1139.89,-107.5 -1602.95,594.098 -93.41,141.5 -186.63,294.4 -276.55,445.6 -204.81,283.8 -660.51,452.2 -716.62,628.1 -42.58,133.4 -15.03,371.1 4,494.9"
         style="fill:#2d5498;fill-opacity:1;fill-rule:nonzero;stroke:none"
         id="path246" /><path
         d="m 8290.49,3167.9 c 106.21,-253.3 491.99,-356.4 613.15,-341.6 121.18,14.8 274.77,-68.4 104.85,-122.9 -169.99,-54.4 -305.41,-38.6 -305.41,-38.6 265.1,-355.6 621.77,-806.1 815.05,-1041.7 271.62,-331.2 988.77,-469.1 1274.57,-266.7 272.7,193.1 177.6,647 -35.7,914.2 -213.9,267.9 -1011.96,866.3 -1047.68,930.2 -25.89,-66.4 -89.11,-117.1 -142.32,-58.8 -30.81,33.9 -0.42,236.1 -31.86,377.8 -31.42,141.7 -248.22,111.8 -138.6,38.2 127.17,-85.4 119.01,-388.9 288.96,-599.8 113.32,-140.7 432.8,-519.8 646.3,-828.9 149,-215.9 -222.6,-466.5 -423.21,-228.1 -130.96,155.5 -332.13,439.4 -450.91,614.3 -267.43,394.1 -368.97,613.3 -576.2,568.8 -306.89,-66 -470.18,118.7 -541.84,241.6 -71.83,122.9 -90.4,-59.7 -49.15,-158"
         style="fill:#4079c5;fill-opacity:1;fill-rule:nonzero;stroke:none"
         id="path248" /><path
         d="m 9523.3,3336.2 c -82.79,-35.1 -42.29,-151.8 62.87,-121.5 105.32,30.5 37.6,164.2 -62.87,121.5"
         style="fill:#253956;fill-opacity:1;fill-rule:nonzero;stroke:none"
         id="path250" /><path
         d="m 10389.1,2204.5 c -82.7,-35.1 -42.2,-151.9 63,-121.5 105.2,30.6 37.5,164.3 -63,121.5"
         style="fill:#253956;fill-opacity:1;fill-rule:nonzero;stroke:none"
         id="path252" /><path
         d="m 10119.9,2572.4 c -82.7,-35.2 -42.2,-151.7 63.1,-121.4 105.3,30.4 37.6,164.2 -63.1,121.4"
         style="fill:#1a3353;fill-opacity:1;fill-rule:nonzero;stroke:none"
         id="path254" /><path
         d="m 9831.39,2918 c -82.87,-35.3 -42.23,-152 63.01,-121.5 105.11,30.4 37.55,164.1 -63.01,121.5"
         style="fill:#1a3353;fill-opacity:1;fill-rule:nonzero;stroke:none"
         id="path256" /><path
         d="m 9026.06,3005.4 c -84.79,-31.2 -50.7,-149.7 55.89,-124 106.96,25.4 46.97,162 -55.89,124"
         style="fill:#1a3353;fill-opacity:1;fill-rule:nonzero;stroke:none"
         id="path258" /><path
         d="m 9821.07,1889.3 c -84.73,-31.2 -50.62,-180.8 55.95,-155.2 106.94,25.5 46.83,193.4 -55.95,155.2"
         style="fill:#1a3353;fill-opacity:1;fill-rule:nonzero;stroke:none"
         id="path260" /><path
         d="m 9558,2234.5 c -84.77,-31.1 -50.85,-149.6 56,-124 106.75,25.5 46.74,162.2 -56,124"
         style="fill:#1a3353;fill-opacity:1;fill-rule:nonzero;stroke:none"
         id="path262" /><path
         d="m 9282.12,2630.8 c -84.8,-31.2 -50.81,-149.6 55.95,-124.2 106.77,25.5 46.83,162.3 -55.95,124.2"
         style="fill:#1a3353;fill-opacity:1;fill-rule:nonzero;stroke:none"
         id="path264" /><path
         d="m 9089.24,3000.1 c 181.52,-118.2 661.59,-117 761.98,-101.7 69.04,-25.4 12.23,-81.5 12.23,-81.5 -146.4,-51.9 -525.4,-71.5 -802.16,89.9 -62.33,53.1 -17.14,117.5 27.95,93.3"
         style="fill:#eae7d1;fill-opacity:1;fill-rule:nonzero;stroke:none"
         id="path266" /><path
         d="m 9517.24,3231.9 c 34.76,-198.2 -176.07,-575.4 -234.43,-647.5 -5.61,-66.1 73.24,-47.8 73.24,-47.8 114.01,91 298.4,379.8 263.43,673.8 -23.85,73.7 -105.9,68.5 -102.24,21.5"
         style="fill:#eae7d1;fill-opacity:1;fill-rule:nonzero;stroke:none"
         id="path268" /><path
         d="m 9349.98,2620.4 c 185.79,-112.9 672.72,-95 774.52,-76 70.1,-23.2 13.5,-82.1 13.5,-82.1 -147.76,-57.4 -531.79,-90.5 -814.93,63.1 -63.82,51.3 -19.14,118.1 26.91,95"
         style="fill:#eae7d1;fill-opacity:1;fill-rule:nonzero;stroke:none"
         id="path270" /><path
         d="m 9780.55,2869.8 c 38.41,-199.1 -169.89,-587.9 -228.05,-662.5 -4.72,-66.9 75.21,-45.9 75.21,-45.9 114.21,96 296.83,394.4 256.89,690.2 -25.31,73.6 -108.46,65.5 -104.05,18.2"
         style="fill:#eae7d1;fill-opacity:1;fill-rule:nonzero;stroke:none"
         id="path272" /><path
         d="m 9624.06,2240.5 c 183.46,-105.4 669.24,-70.1 771.04,-47.8 69.7,-20.7 12.2,-81 12.2,-81 -148.6,-62.2 -531.88,-108.7 -811.73,33.5 -62.8,48.7 -16.99,116.6 28.49,95.3"
         style="fill:#eae7d1;fill-opacity:1;fill-rule:nonzero;stroke:none"
         id="path274" /><path
         d="m 10057.5,2503.5 c 35,-196.3 -178.89,-589.7 -238.13,-666 -6.2,-66.6 73.95,-42.7 73.95,-42.7 115.58,99.4 302.58,402.1 267.78,694.3 -24.3,72.2 -107.3,61.2 -103.6,14.4"
         style="fill:#eae7d1;fill-opacity:1;fill-rule:nonzero;stroke:none"
         id="path276" /><path
         d="m 9300.49,3172.3 c -145.03,81.2 -563.23,116.6 -615.35,-130.7 -52.06,-247.6 127.44,-445.8 302.54,-388.6 175.05,57.2 298.16,423.6 319.35,462 -6.54,57.3 -37.59,52.9 -94.73,12.4 -57.21,-40.4 -182.44,-393.4 -275.18,-393.3 -124.54,0.1 -173.33,252 -112.54,339.9 60.91,87.9 382.3,71.9 425,41"
         style="fill:#eae7d1;fill-opacity:1;fill-rule:nonzero;stroke:none"
         id="path278" /><path
         d="m 9331.83,3177.8 c 88.01,42.3 755.07,3.8 1080.07,-184.7 28.2,-42.8 1.7,-148.5 -47.6,-110.3 -49.3,38 -730.76,277.6 -1057.27,232.2"
         style="fill:#eae7d1;fill-opacity:1;fill-rule:nonzero;stroke:none"
         id="path280" /><path
         d="m 9242.51,3180.8 c -13.8,191.3 337.65,467.9 579.67,308.5 241.82,-159.3 169.57,-344.7 -29.25,-291.8 -198.95,52.9 -389.17,-68.6 -468.61,-68.8 -79.38,-0.2 -40.21,48.6 51,115.5 148.8,109.3 462.74,11.1 498.19,49.1 35.75,37.8 -134.53,185 -307.63,141.4 -124.71,-31.3 -231.29,-163.2 -223.61,-268"
         style="fill:#eae7d1;fill-opacity:1;fill-rule:nonzero;stroke:none"
         id="path282" /><path
         d="m 9265.86,3106.6 c 40.39,-79 39.78,-389.7 -369.82,-669.2 -57.99,-37.3 -2.54,-121.9 78.63,-82.1 81.07,39.7 549.04,504.4 366.19,774.9 -40.37,42.1 -75,-23.6 -75,-23.6"
         style="fill:#eae7d1;fill-opacity:1;fill-rule:nonzero;stroke:none"
         id="path284" /><path
         d="m 9277.9,3247.6 c -74.15,-11 -182.97,-194.8 -31.24,-179.8 151.6,15 164.43,199.7 31.24,179.8"
         style="fill:#eae7d1;fill-opacity:1;fill-rule:nonzero;stroke:none"
         id="path286" /><path
         d="m 4104.22,15997.3 c 182.25,-307 1328.18,573.6 1182.34,918 -145.9,344.4 -1439.8,-484.3 -1182.34,-918"
         style="fill:#aba491;fill-opacity:1;fill-rule:nonzero;stroke:none"
         id="path288" /><path
         d="m 5432.37,20718.1 c -299.66,52.1 -421.79,-220.8 -697,-511.4 -571.41,-603.1 -1533.82,-1328.3 -1600.37,-1948.5 -47.45,-442.5 617.18,-899.2 1037.44,-591.2 456.96,334.9 985.19,880.3 1273.72,1032"
         style="fill:#f79074;fill-opacity:1;fill-rule:nonzero;stroke:none"
         id="path290" /><path
         d="m 4354.21,18455.4 c 560.32,-421.1 1187.43,-2625 1539.46,-3103 119.46,-311.5 -363.01,-818.6 -696.19,-472.5 -628.27,828.8 -2146.59,2435.9 -2059.63,3423.2"
         style="fill:#f79074;fill-opacity:1;fill-rule:nonzero;stroke:none"
         id="path292" /><path
         d="m 3886.91,19497 c -371.3,-292.9 -850.51,-837.2 -883.59,-1286.5 -62.1,-843.5 900.87,-1950.9 1100.9,-2213.2 40.08,396.9 950.69,893.5 1182.34,918 -148.57,275.9 -353.08,881.3 -497.98,1077.9 217.34,116.4 310.48,263.9 310.48,263.9"
         style="fill:#d9d7cb;fill-opacity:1;fill-rule:nonzero;stroke:none"
         id="path294" /><path
         d="m 5419.69,20977.6 c -450.05,-196.4 -1166.68,-1090.5 -1368.5,-1230.2 -201.81,-139.7 -263.9,-178.5 -240.62,-341.5 23.28,-163 884.86,-1218.7 1195.35,-1296.3 232.85,0 403.62,458 768.43,527.8"
         style="fill:#c67a1b;fill-opacity:1;fill-rule:nonzero;stroke:none"
         id="path296" /><path
         d="m 4790.16,18526.7 c 135.41,-192.2 296.31,-281.7 296.31,-281.7 -107.28,-71.5 -407.8,102.7 -792.23,539.9"
         style="fill:#efa90f;fill-opacity:1;fill-rule:nonzero;stroke:none"
         id="path298" /><path
         d="m 5438.58,20904.2 c -305.41,-156 -1335.31,-1199.8 -1547.64,-1333.5 -80.37,-296.8 563.87,-1132 1006.3,-1141.3 296.05,115.5 620.96,681.5 706.34,1488.8 85.38,807.2 -165,986 -165,986"
         style="fill:#efa90f;fill-opacity:1;fill-rule:nonzero;stroke:none"
         id="path300" /><path
         d="M 5478,20892.5 C 4901.07,20625.4 4261.89,19787 4076.42,19678.8 c 75.67,-345.4 521.42,-914.6 665.95,-914.6 444.62,258.8 931.08,1357.9 735.63,2128.3"
         style="fill:#fbc130;fill-opacity:1;fill-rule:nonzero;stroke:none"
         id="path302" /><path
         d="m 3919.78,19590.6 c -101.24,-96.2 308.12,-849.5 719.41,-997 -352.47,420.2 -606.34,1104.5 -719.41,997"
         style="fill:#fbc130;fill-opacity:1;fill-rule:nonzero;stroke:none"
         id="path304" /><path
         d="m 3805.92,19285 c -287.18,-241.6 -623.29,-627.1 -670.59,-981.3 -44.84,-335.8 542.43,-1420.5 1117.68,-1894 382.48,384.2 861.57,535.6 861.57,535.6 -86.81,292.1 -306.53,863.3 -475.39,994.4 -168.86,131.1 -782.06,289.8 -782.06,289.8 248.39,58.6 721.87,-119.9 721.87,-119.9 77.62,46.6 77.62,46.6 77.62,46.6 -266.45,183.7 -715.13,900.8 -850.7,1128.8"
         style="fill:#f3ebee;fill-opacity:1;fill-rule:nonzero;stroke:none"
         id="path306" /><path
         d="m 3670.37,19308.1 c 93.62,-285.1 918.18,-1167.5 1176.18,-1281.4 -36.96,-20.8 -57.97,-33.5 -57.97,-33.5 -216.1,-25.3 -1200.6,692.9 -1301.48,1125.2 84.33,102.2 183.27,189.7 183.27,189.7"
         style="fill:#1d1c22;fill-opacity:1;fill-rule:nonzero;stroke:none"
         id="path308" /><path
         d="m 4579,18109.6 c -366.44,178.3 -1067.28,397.6 -1324.93,712.5 -105.7,-103.2 -163.58,-290.4 -163.58,-290.4 135.32,-217.7 1133.65,-367.5 1594.39,-517.7"
         style="fill:#1d1c22;fill-opacity:1;fill-rule:nonzero;stroke:none"
         id="path310" /><path
         d="m 3000.43,18123.7 c 178.83,-66 640.73,85.5 1086.69,23.4 -310.85,-42.6 -655.44,-276.3 -1037.9,-374.4 -48.79,120.4 -48.79,351 -48.79,351"
         style="fill:#1d1c22;fill-opacity:1;fill-rule:nonzero;stroke:none"
         id="path312" /><path
         d="m 4752.71,18034.1 c -280.41,59.4 -753.43,18.9 -1604.34,-558.4 19.79,-79.9 103.39,-231.5 103.39,-231.5 457.9,310.4 1186.5,692.5 1598.4,648.9 -34.42,107.8 -97.45,141 -97.45,141"
         style="fill:#1d1c22;fill-opacity:1;fill-rule:nonzero;stroke:none"
         id="path314" /><path
         d="m 3393.87,16987.7 c 62.25,-122.6 162.19,-257.8 162.19,-257.8 326.98,321.5 1110.02,890.3 1452.01,833.6 0,0 -80.2,174.5 -108.89,232.7 -265.85,21 -1127.39,-426.6 -1505.31,-808.5"
         style="fill:#1d1c22;fill-opacity:1;fill-rule:nonzero;stroke:none"
         id="path316" /><path
         d="m 3764.48,16434.4 c 329.4,495.4 1019.67,909.4 1340.12,884.8 43.76,-104.3 101.25,-236.7 101.25,-236.7 -312.48,-44 -839.45,-340.6 -1262.9,-881.2 0,0 -150.36,194.9 -178.47,233.1"
         style="fill:#1d1c22;fill-opacity:1;fill-rule:nonzero;stroke:none"
         id="path318" /><path
         d="m 5057.18,17062.8 c 66.4,14 -20.94,197.2 -87.98,230.3 -67.17,33.1 -683.52,-216.6 -969.92,-593 14.92,-51.4 191.14,-191 191.14,-191 271.67,313.1 617.9,501.2 866.76,553.7"
         style="fill:#31303d;fill-opacity:1;fill-rule:nonzero;stroke:none"
         id="path320" /><path
         d="m 4873.48,17566.5 c -16.74,55.8 -129.81,206.2 -129.81,206.2 -256.97,-43.6 -842.39,-286.4 -1125.06,-616.8 48.08,-71.3 145.87,-181.1 145.87,-181.1 231.58,217.9 795.63,582.7 1109,591.7"
         style="fill:#31303d;fill-opacity:1;fill-rule:nonzero;stroke:none"
         id="path322" /><path
         d="m 4653.71,17910.1 c -54.33,70.5 -115.52,117.8 -115.52,117.8 -292.16,85.8 -946.14,-209.2 -1162.78,-416.6 1.88,-84.9 98.33,-186.3 98.33,-186.3 254.18,190.8 773.25,476.2 1179.97,485.1"
         style="fill:#31303d;fill-opacity:1;fill-rule:nonzero;stroke:none"
         id="path324" /><path
         d="m 4321.52,18429.4 c 35.99,-31.3 -53.51,-85.9 -154.69,-57.9 -101.15,28 -499.38,414.6 -646.34,654.7 56.74,106.5 183.5,160.8 183.5,160.8 220.49,-268.9 529.09,-680.7 617.53,-757.6"
         style="fill:#31303d;fill-opacity:1;fill-rule:nonzero;stroke:none"
         id="path326" /><path
         d="m 4032.72,18230 c 168.25,-33.2 32.53,84.5 -196.9,177.1 -229.25,92.6 -558.05,449.3 -672.47,173.2 -87.47,-211.1 808,-338.3 869.37,-350.3"
         style="fill:#31303d;fill-opacity:1;fill-rule:nonzero;stroke:none"
         id="path328" /><path
         d="m 4093.09,18162.4 c -11.5,42.6 -804.5,3.5 -929.83,-82.8 -32.08,-139.8 87.96,-209.5 87.96,-209.5 229.03,45.7 847.7,270.7 841.87,292.3"
         style="fill:#31303d;fill-opacity:1;fill-rule:nonzero;stroke:none"
         id="path330" /><path
         d="m 5291.65,13848.2 c -99.06,92.7 -259.84,455.4 -175.06,543.7 79.61,83 252.13,-140.8 252.13,-140.8 87.24,-119 124.83,-293.1 124.83,-293.1"
         style="fill:#f79074;fill-opacity:1;fill-rule:nonzero;stroke:none"
         id="path332" /><path
         d="m 5812.8,15482.6 c 26.74,-47.1 699.82,-449.3 894.71,-801.2 117.74,-212.6 -1045.59,-832.6 -1261.35,-610.7 -136.86,140.7 -252.87,833.2 -252.87,833.2"
         style="fill:#f79074;fill-opacity:1;fill-rule:nonzero;stroke:none"
         id="path334" /><path
         d="m 6701.03,14692.7 c 133.93,-207.1 356.2,-1096.9 285.06,-1184.7 -170.6,-210.7 -419.99,768.2 -526.69,878"
         style="fill:#f79074;fill-opacity:1;fill-rule:nonzero;stroke:none"
         id="path336" /><path
         d="m 6548.82,14492 c 40.99,-101.2 -21.26,-469.3 -84.86,-546.4 -63.65,-77 -326.62,-147.8 -364.97,-25.6 -38.41,122.3 -64.95,306.9 -64.95,306.9"
         style="fill:#f79074;fill-opacity:1;fill-rule:nonzero;stroke:none"
         id="path338" /><path
         d="m 6280.79,14346.7 c 28.83,-105.5 -59,-450 -131.25,-519.1 -72.2,-69.1 -341.72,-108.5 -365.43,17.4 -23.76,125.9 -28.53,312.4 -28.53,312.4"
         style="fill:#f79074;fill-opacity:1;fill-rule:nonzero;stroke:none"
         id="path340" /><path
         d="m 5964.4,14309.4 c 32.53,-104.3 -43.18,-451.7 -112.94,-523.4 -69.77,-71.5 -326.77,-91.3 -354.97,33.7 -28.1,125 -50.33,282 -50.33,282"
         style="fill:#f79074;fill-opacity:1;fill-rule:nonzero;stroke:none"
         id="path342" /><path
         d="m 5669.48,14258.1 c 25.25,-93.6 -53.68,-399.1 -118.01,-460.2 -64.31,-61.1 -179.47,-23.6 -239.96,27.9 -112.83,96.1 -182.7,314.3 -182.7,314.3"
         style="fill:#f79074;fill-opacity:1;fill-rule:nonzero;stroke:none"
         id="path344" /><path
         d="m 5358.84,14233.2 c 24.83,-56.4 29.96,-71.9 29.96,-71.9 -28.44,-25.9 -61.97,-104.2 -63.31,-137.9"
         style="fill:#f79074;fill-opacity:1;fill-rule:nonzero;stroke:none"
         id="path346" /><path
         d="m 5193.29,16797.4 c 244.57,-459.9 537.67,-1245.3 581.06,-1341.5 43.39,-96.3 -233.16,-348.9 -386.12,-294.8 -152.97,54.2 -897.88,1112.9 -897.88,1112.9 256.69,362.3 642.55,522.9 702.94,523.4"
         style="fill:#fabc8b;fill-opacity:1;fill-rule:nonzero;stroke:none"
         id="path348" /><path
         d="m 5755.58,15438 c 88.15,-15.5 744.76,-534.6 876.56,-704.7 131.81,-170 372,-1014.6 340.96,-1181.5 -31.06,-166.9 -201.82,243.5 -341.53,734.9 11.64,177.1 -26.72,280.4 -69.62,283.4 -53.27,3.7 -19.5,-601.8 -227.31,-622.4 21.38,180.6 74.92,520.9 -48.24,496.7 -93.36,-18.3 32.81,-535.5 -252.36,-620.9 49.91,237.5 61.47,586.2 -61.88,562.6 -60.28,-11.6 -17.59,-532.1 -193.26,-578.2 -128.92,-33.8 71.19,538.8 -86.53,538.8 -108.67,0 0.18,-451.4 -178.53,-498.5 -67.68,-17.9 -63.98,128.2 -40.08,237.4 59.37,271.2 -232.87,759.9 -69.17,1068"
         style="fill:#fabc8b;fill-opacity:1;fill-rule:nonzero;stroke:none"
         id="path350" /><path
         d="m 6975.82,13707 c -13.4,14.1 -107.99,-8 -115.53,-41.8 -7.51,-33.9 48.13,-159.2 101.17,-151.6 50.44,7.2 27.76,179.4 14.36,193.4"
         style="fill:#f6838b;fill-opacity:1;fill-rule:nonzero;stroke:none"
         id="path352" /><path
         d="m 5116.59,14391.9 c 93.23,-19.9 241.16,-306.6 254.02,-368.5 16.86,111.8 -0.03,208.9 -30.27,261.5 -161.57,191.1 -223.75,107 -223.75,107"
         style="fill:#f25542;fill-opacity:1;fill-rule:nonzero;stroke:none"
         id="path354" /><path
         d="m 5245.51,28574.7 c -211.15,230.9 -677.27,4.2 -551.08,-301.7 126.14,-305.7 686.66,136.7 551.08,301.7"
         style="fill:#c67a1b;fill-opacity:1;fill-rule:nonzero;stroke:none"
         id="path356" /><path
         d="m 4925.78,28656.8 c 127.1,40.1 274.66,-70.4 59.15,-171.9 -215.57,-101.5 -305.59,94.2 -59.15,171.9"
         style="fill:#efa90f;fill-opacity:1;fill-rule:nonzero;stroke:none"
         id="path358" /><path
         d="m 3910.56,24761.2 c 0,0 -1178.91,-1771.4 -716.7,-2533.6 264.81,-436.6 745.17,378.3 2902.49,347.9 1635.57,2058.1 -500.04,3554.2 -500.04,3554.2"
         style="fill:#395b84;fill-opacity:1;fill-rule:nonzero;stroke:none"
         id="path360" /><path
         d="m 3800.71,24442.6 c -620.38,-782.4 -797.7,-1809.6 -583.87,-2132.2 -54.55,327.1 321.28,1761.5 583.87,2132.2"
         style="fill:#477596;fill-opacity:1;fill-rule:nonzero;stroke:none"
         id="path362" /><path
         d="m 4056.34,24391.5 c -574.26,-711.4 -814.64,-1810.1 -677.26,-2090.1 137.29,-279.8 1251.53,458.7 2463.19,309.3 1211.72,-149.4 -989.45,1779 -1075.03,1772.1"
         style="fill:#b8891c;fill-opacity:1;fill-rule:nonzero;stroke:none"
         id="path364" /><path
         d="m 4025.41,24388.5 c -992.26,-1554.1 -106.99,-2012 1348.77,-1545.8 1455.95,466.1 -395.98,1197.8 -395.98,1197.8"
         style="fill:#8b631e;fill-opacity:1;fill-rule:nonzero;stroke:none"
         id="path366" /><path
         d="m 8995.74,25499.8 c 122.85,25.2 325.35,451.1 651.21,269.7 200.03,-111.1 173.4,-937.1 -317.15,-1081.1 -204.68,-60.2 -358.08,223.6 -359.66,231.9"
         style="fill:#fabc8b;fill-opacity:1;fill-rule:nonzero;stroke:none"
         id="path368" /><path
         d="m 9216.56,25133.9 c -14.28,316.5 257.71,472.8 379.67,520.8 -150.33,-219.2 -181.2,-755.8 -145.12,-847.4"
         style="fill:#f79074;fill-opacity:1;fill-rule:nonzero;stroke:none"
         id="path370" /><path
         d="m 8503.31,27159.6 c 794.58,-716.8 909.33,-1931.4 993.71,-2199.8 443.7,-1414 -592.64,-2492.8 -1464.32,-2664.6 -1576.47,-310.7 -3534.22,679.8 -3833.06,2156.2 -658.47,3255.8 2977.26,4063.5 4303.67,2708.2"
         style="fill:#f79074;fill-opacity:1;fill-rule:nonzero;stroke:none"
         id="path372" /><path
         d="m 4901,23861.4 c -200.29,87 -892.96,426.1 -1110.15,30.1 -166.48,-303.5 462.39,-1010.3 978.05,-948 265.25,32 309.75,404.6 307.56,414"
         style="fill:#f79074;fill-opacity:1;fill-rule:nonzero;stroke:none"
         id="path374" /><path
         d="m 5251.78,24950 c -29.19,-973.1 953.72,-3015.3 3008.7,-2448.8 855.81,235.9 1631.19,1543 1111.62,2652.7 -89.22,190.4 -28.74,511.8 -407.04,1109.8 -173.38,9.9 -433.7,150.6 -433.7,150.6 171.24,-532.1 36.12,-576.6 -91.52,-619 -127.63,-42.5 -708.59,311.3 -892.27,586.8 -61.21,-552.4 -437.94,-729.4 -630.24,-738.5 -192.19,-8.9 -308.89,268.6 -344.5,562.2 -600.98,-184.3 -1311.96,-952.2 -1321.05,-1255.8"
         style="fill:#fabc8b;fill-opacity:1;fill-rule:nonzero;stroke:none"
         id="path376" /><path
         d="m 8335.24,24870.3 c -125.53,125.6 -183.9,1067.5 360.41,1158.1 506.94,84.4 687.03,-586.7 645.29,-820.5 -80.5,-451.1 -760.14,-583.4 -1005.7,-337.6"
         style="fill:#772e19;fill-opacity:1;fill-rule:nonzero;stroke:none"
         id="path378" /><path
         d="m 8341.38,24853 c -117.94,118 -169.67,989.4 340.11,1084.6 446.02,83.2 637.32,-554.1 595.62,-773.3 -82.34,-433.4 -705.01,-542.3 -935.73,-311.3"
         style="fill:#fabfca;fill-opacity:1;fill-rule:nonzero;stroke:none"
         id="path380" /><path
         d="m 8341.38,24853 c -111.61,111.6 -202.44,950.6 229.74,1020.8 484.11,78.8 724.21,-565.4 652.83,-800.7 -98.64,-325.4 -664.43,-438.6 -882.57,-220.1"
         style="fill:#ffffff;fill-opacity:1;fill-rule:nonzero;stroke:none"
         id="path382" /><path
         d="m 8508.01,25782.2 c 494.18,194.7 780.55,-696.7 564.25,-913.6 -159.65,-121.2 -494.44,-194.7 -638.87,-67.2 -148.66,131.2 -266.51,846.4 74.62,980.8"
         style="fill:#5d9ac9;fill-opacity:1;fill-rule:nonzero;stroke:none"
         id="path384" /><path
         d="m 8298.51,26810.2 c -101.58,-17.6 -269.55,-369.2 -180.62,-333.3 432.53,174.9 607.45,39.6 620.24,91.6 26.32,107.1 -311.32,264 -439.62,241.7"
         style="fill:#772e19;fill-opacity:1;fill-rule:nonzero;stroke:none"
         id="path386" /><path
         d="m 5859.71,26188.8 c 115.15,60.9 433.45,-27.2 451.53,-100.3 18.15,-73.1 -414.36,-34.9 -872.87,-542 -44.27,207.3 301.69,579.1 421.34,642.3"
         style="fill:#772e19;fill-opacity:1;fill-rule:nonzero;stroke:none"
         id="path388" /><path
         d="m 8548.79,25596.1 c 484.53,136.2 717.46,-761 246.13,-826.6 -471.35,-65.7 -559.67,738.4 -246.13,826.6"
         style="fill:#131b22;fill-opacity:1;fill-rule:nonzero;stroke:none"
         id="path390" /><path
         d="m 9163.83,25421.4 c -92.65,90.3 -312.29,-114.2 -260.33,-207 51.84,-92.8 401.02,70.3 260.33,207"
         style="fill:#ffffff;fill-opacity:1;fill-rule:nonzero;stroke:none"
         id="path392" /><path
         d="m 7123.24,24523.1 c 75.23,177.2 -283.16,1108.5 -982.92,963.2 -622.75,-129.3 -582.03,-1027.4 -380.04,-1206.8 366.13,-325.2 1215.97,-103.1 1362.96,243.6"
         style="fill:#772e19;fill-opacity:1;fill-rule:nonzero;stroke:none"
         id="path394" /><path
         d="m 7129.21,24526.7 c 68.01,160.3 -253.69,995.4 -887.41,866 -633.88,-129.3 -529.05,-924.1 -346.29,-1086.5 331.43,-294.3 1100.51,-93.3 1233.7,220.5"
         style="fill:#fabfca;fill-opacity:1;fill-rule:nonzero;stroke:none"
         id="path396" /><path
         d="m 7019.91,24472.1 c 104.72,191.2 -198.59,973.7 -783.84,854.2 -585.22,-119.4 -444.52,-860 -275.64,-1009.9 305.97,-271.7 908.21,-120.3 1059.48,155.7"
         style="fill:#ffffff;fill-opacity:1;fill-rule:nonzero;stroke:none"
         id="path398" /><path
         d="m 6199.8,25233.7 c 459.97,131 902.25,-703.5 628.18,-958.6 -258.02,-151 -703.1,-156.7 -812.13,-51.2 -109.03,105.6 -315.18,867.7 183.95,1009.8"
         style="fill:#5d9ac9;fill-opacity:1;fill-rule:nonzero;stroke:none"
         id="path400" /><path
         d="m 6187.05,25007.9 c 376.11,171.6 819.01,-706.3 316.6,-856 -502.44,-149.8 -704.22,679.3 -316.6,856"
         style="fill:#131b22;fill-opacity:1;fill-rule:nonzero;stroke:none"
         id="path402" /><path
         d="m 6908.36,24801.2 c -98.57,95.9 -332.07,-121.6 -276.89,-220.3 55.1,-98.7 426.46,74.8 276.89,220.3"
         style="fill:#ffffff;fill-opacity:1;fill-rule:nonzero;stroke:none"
         id="path404" /><path
         d="m 6193.08,24520.5 c 94.42,49.6 140.07,-128.7 66.21,-168.1 -73.83,-39.5 -160.7,118.4 -66.21,168.1"
         style="fill:#ffffff;fill-opacity:1;fill-rule:nonzero;stroke:none"
         id="path406" /><path
         d="m 8544.87,25118.3 c 94.39,49.7 140.09,-128.7 66.22,-168 -73.84,-39.4 -160.69,118.4 -66.22,168"
         style="fill:#ffffff;fill-opacity:1;fill-rule:nonzero;stroke:none"
         id="path408" /><path
         d="m 5176.59,25844.9 c -504.99,-551 -233.17,-1641.9 120.98,-2232.9 -168.76,-101.9 -290.62,-49.1 -290.62,-49.1 -369.94,516.2 -918.01,549.2 -918.01,549.2 -307.11,219.1 -268.94,651.4 -153.09,1080.8"
         style="fill:#1a1515;fill-opacity:1;fill-rule:nonzero;stroke:none"
         id="path410" /><path
         d="m 5013.74,25595.9 c -244.36,-514.3 68.82,-1445 357.87,-1764.5 -321.87,99.3 -652.83,523 -714.62,746.4 49.35,-318 183.8,-484 183.8,-484 -295.17,102.6 -553.35,402.5 -553.35,402.5 227.25,664.6 726.3,1099.6 726.3,1099.6"
         style="fill:#392933;fill-opacity:1;fill-rule:nonzero;stroke:none"
         id="path412" /><path
         d="m 8087.16,26960.4 c 865.28,213.9 1606.6,-411.7 1500.36,-627.5 -106.17,-215.6 -1457.87,519.3 -1927.28,668 1111.16,-300.8 887.86,-866.7 750.69,-955.6 -137.34,-88.8 -1103.65,886 -1103.65,886 0,0 -67.49,-1007.7 -390.64,-1113.6 -323.25,-106 -337.49,705 -247.32,931.7 -926.62,-298.1 -1424.7,943.9 -271.56,1332.6 1153.3,388.6 2564.56,-329.3 1863.85,-863.7"
         style="fill:#1a1515;fill-opacity:1;fill-rule:nonzero;stroke:none"
         id="path414" /><path
         d="m 6115.48,27367.6 c 306.81,-33.3 597.5,-290.7 597.5,-290.7 75.92,275.2 -152.39,539.8 -152.39,539.8 323.73,-65.9 498.16,-559 498.16,-559 199.29,-8.7 679.48,76.7 679.48,76.7 -75.47,526.2 -249.41,528.7 -336.41,605.2 314.52,-40.5 528.36,-473.4 674.93,-650.7 -20.85,620.8 -558.23,1226.2 -1476.05,778.9 303.81,-49.8 504.16,-251.2 504.16,-251.2 -321.48,201.4 -706.3,231.5 -948.08,-9.6"
         style="fill:#392933;fill-opacity:1;fill-rule:nonzero;stroke:none"
         id="path416" /><path
         d="m 7101.41,26704.3 c 30.47,-452.6 -144.78,-842.7 -321.94,-832.5 -176.38,165.3 -156.73,581.7 5.33,809.7"
         style="fill:#392933;fill-opacity:1;fill-rule:nonzero;stroke:none"
         id="path418" /><path
         d="m 8077.15,26729.6 c 584.64,-156.8 756.23,-505.2 725.35,-599.8 159.91,230.2 102.81,634.6 -688.22,744.3"
         style="fill:#1a1515;fill-opacity:1;fill-rule:nonzero;stroke:none"
         id="path420" /><path
         d="m 7246.58,26829.1 c 365.21,-64.9 485.37,-707.6 428.37,-952.5 189.68,279.2 194.81,800.1 -364.75,1012"
         style="fill:#1a1515;fill-opacity:1;fill-rule:nonzero;stroke:none"
         id="path422" /><path
         d="m 6798.66,23610.1 c -132.87,-122.8 52.67,-193.4 256.48,-132.8 -90.41,39.5 -103.9,273.7 -256.48,132.8"
         style="fill:#f79074;fill-opacity:1;fill-rule:nonzero;stroke:none"
         id="path424" /><path
         d="m 8969.96,23928.1 c 128.2,-127.7 13.22,-180.4 -197.66,-153.4 82.88,53.5 80.86,269.9 197.66,153.4"
         style="fill:#f79074;fill-opacity:1;fill-rule:nonzero;stroke:none"
         id="path426" /><path
         d="m 6881.1,23563.6 c -107.6,-79.9 110.76,-155 627.6,-76.6 -265.6,-22 -469.56,-19.3 -543.97,29.8 -60.77,40 -55.94,67.4 -83.63,46.8"
         style="fill:#c22d32;fill-opacity:1;fill-rule:nonzero;stroke:none"
         id="path428" /><path
         d="m 8616.66,23723.2 c 108.65,16.5 210.52,69.5 236.47,128.4 16.28,36.9 36.67,58.8 58,34.7 51.04,-57.9 -35.44,-114 -288,-179.4"
         style="fill:#c22d32;fill-opacity:1;fill-rule:nonzero;stroke:none"
         id="path430" /><path
         d="m 8238.05,23549.2 -998.83,-92.3 c 0,0 617.31,-172.4 915.12,-114.4 297.94,58.1 441.08,223.2 599.1,403.6 -118.51,-65.9 -391.94,-162.2 -515.39,-196.9"
         style="fill:#f26473;fill-opacity:1;fill-rule:nonzero;stroke:none"
         id="path432" /><path
         d="m 8217.09,23675.7 c -113.55,-68.2 -158.35,15.5 -358.89,-42.2 -200.35,-57.6 -584.18,-196.7 -838.75,-147.9 857.8,-84.9 1514.07,92.9 1763.13,285.2 -213.63,-73.5 -358.08,29.4 -565.49,-95.1"
         style="fill:#e93b42;fill-opacity:1;fill-rule:nonzero;stroke:none"
         id="path434" /><path
         d="m 8111.81,24408.1 c 103.4,-7 118.6,-53.3 230.5,-67.5 148.9,-18.9 69.25,-131 -76.04,-174.8 -145.25,-43.6 -298.55,-88.4 -449.42,-105 -150.97,-16.6 -125.89,106.2 -17.8,163 80.56,42.4 190.38,192.8 312.76,184.3"
         style="fill:#f89d81;fill-opacity:1;fill-rule:nonzero;stroke:none"
         id="path436" /><path
         d="m 8221.02,24275 c 18.38,35.7 186.51,41.7 175.29,4.7 -19.13,-63.7 -212.59,-77 -175.29,-4.7"
         style="fill:#cf5a44;fill-opacity:1;fill-rule:nonzero;stroke:none"
         id="path438" /><path
         d="m 7633.9,24383.4 c -127.17,-126.4 -95.87,-359.7 155.87,-322.4 80.14,3.8 -19.17,65.5 -19.17,65.5 -129.34,14.8 -149.86,86 -136.7,256.9"
         style="fill:#f89d81;fill-opacity:1;fill-rule:nonzero;stroke:none"
         id="path440" /><path
         d="m 7919.51,24203 c -38.84,26.4 -204.18,-60 -174.29,-89.7 47.26,-46.8 241.52,43.9 174.29,89.7"
         style="fill:#cf5a44;fill-opacity:1;fill-rule:nonzero;stroke:none"
         id="path442" /><path
         d="m 4727.18,23603 c -384.77,249.3 -748.85,233.8 -840.96,46.5 222.81,8.3 647.31,-111.4 689.06,-217.3 -76.96,-176.8 147.83,-243.9 237.77,-208.5 -295.05,128.3 -85.87,379.3 -85.87,379.3"
         style="fill:#f25542;fill-opacity:1;fill-rule:nonzero;stroke:none"
         id="path444" /><path
         d="m 4643.83,23792 c -223.79,249.9 -577.97,416 -807.1,166.5 -66.01,-108.3 -22.01,-185 -22.01,-185 53.05,121.7 452.65,154.2 829.11,18.5"
         style="fill:#fabc8b;fill-opacity:1;fill-rule:nonzero;stroke:none"
         id="path446" /><path
         d="m 8821.07,26879.5 c 473.29,-17.6 792.11,-379.6 676.61,-534.1 -495.13,336.9 -931.97,487.2 -1128.8,499.2 372.53,-88.7 479.5,-416.6 402.72,-535.9 -33.47,259.8 -414.28,472 -616.39,525.2 313.83,-267.3 330.08,-542.7 230.85,-649.7 -157.09,174.7 -880.81,735.1 -880.81,735.1 311.6,24.4 692.88,-359 692.88,-359 -128.94,227.9 -292.16,417.1 -292.16,417.1 233.11,-13 915.1,-97.9 915.1,-97.9"
         style="fill:#392933;fill-opacity:1;fill-rule:nonzero;stroke:none"
         id="path448" /><path
         d="m 6923.27,27928.2 c 927.78,250.7 1326.93,-575.2 1061.1,-609.9 -939.72,-122.6 -1412.68,-418.1 -1584.97,-457.8 -172.37,-39.7 -326.78,837.8 523.87,1067.7 z M 3910.38,24198.6 c 326.85,1305.6 3287.56,3031.1 5114.64,2690.5 50.57,468.3 -1396.15,2709.5 -3712.81,1750.3 -2316.54,-959.3 -2100.38,-3238.1 -1401.83,-4440.8"
         style="fill:#395b84;fill-opacity:1;fill-rule:nonzero;stroke:none"
         id="path450" /><path
         d="m 5132.23,28530 c -1179.15,-574.5 -1229.25,-2020.8 -850.73,-2918.4 318.92,416.6 1528.96,1054.4 1964.33,1238.3 -272.07,682.5 326.49,1093.3 670.39,1192.5 344.04,99.1 1090,-37.4 1266.9,-625 254.91,61.2 600.95,-31.4 600.95,-31.4 -615.7,1149.8 -1932.98,1981.4 -3651.84,1144"
         style="fill:#477596;fill-opacity:1;fill-rule:nonzero;stroke:none"
         id="path452" /><path
         d="m 6470.81,26883.7 c 425.51,287.6 1138.65,623.1 1377.18,565.1 112.91,-27.4 147.71,-438.6 11.73,-471 -528.24,-106.2 -1182.92,-451.4 -1182.92,-451.4 -79.98,-32.7 -131.25,60.8 -131.25,60.8"
         style="fill:#efa90f;fill-opacity:1;fill-rule:nonzero;stroke:none"
         id="path454" /><path
         d="m 7820.76,27449.8 c 103.05,0.4 157.6,-365.6 43.48,-391 -114.24,-25.3 -124.62,390.6 -43.48,391"
         style="fill:#fbc130;fill-opacity:1;fill-rule:nonzero;stroke:none"
         id="path456" /><path
         d="m 6493.1,26892.3 c 388.88,292 1114.53,575 1211.56,543.1 96.94,-32 167.73,-316 67.29,-355.6 -100.52,-39.6 -751.98,-273.1 -1184.95,-504.1 -546.98,-224.9 -1600.1,-781.8 -2231.67,-1477.6 -83.36,105.5 -143.41,281.5 -15.83,452.6 127.68,171.1 956.4,869.2 2153.6,1341.6"
         style="fill:#477596;fill-opacity:1;fill-rule:nonzero;stroke:none"
         id="path458" /><path
         d="m 7999.1,27280.8 c 320.77,52.1 781.53,29.3 864.38,-21.6 82.83,-50.9 116.25,-279.3 82.32,-283.4 -276.7,81.4 -859.14,33 -972.07,16.3 157.3,122.4 25.37,288.7 25.37,288.7"
         style="fill:#477596;fill-opacity:1;fill-rule:nonzero;stroke:none"
         id="path460" /><path
         d="m 5369.45,28549.1 c 1142.38,635 2888.75,22.1 2667.29,-686.9 -946.85,641.2 -2212.33,-45.1 -1928.5,-945.8 -1061.19,-473.9 -1988.04,938.4 -738.79,1632.7"
         style="fill:#5285a7;fill-opacity:1;fill-rule:nonzero;stroke:none"
         id="path462" /><path
         d="m 7652.66,27409 c 103.76,-5.5 120.98,-189.2 58.01,-265.1 -63,-75.9 -728.12,-226.5 -764.6,-134.1 -36.47,92.4 540.43,408.1 706.59,399.2"
         style="fill:#5285a7;fill-opacity:1;fill-rule:nonzero;stroke:none"
         id="path464" /></g></g></svg>
