<svg width="473" height="441" viewBox="0 0 473 441" fill="none" xmlns="http://www.w3.org/2000/svg">
<g clip-path="url(#clip0_16_8)">
<path fill-rule="evenodd" clip-rule="evenodd" d="M218.52 241.62C230.4 256.17 371.59 363.28 371.59 363.28C371.27 382.41 373.48 386.32 380.67 395.72C399.33 414.01 440.84 445.95 442.93 439.78C443.57 428.66 436.06 416.89 436.56 403.47C442.68 408.99 448.37 407.58 454.28 409.64L438.16 392.08L471.67 388.27L411.69 359.08L382.89 348.99L229.58 229.78L218.52 241.62V241.62Z" fill="black" fill-opacity="0.0921"/>
<path fill-rule="evenodd" clip-rule="evenodd" d="M409.651 227.755C409.838 254.985 404.883 281.984 395.072 307.198C385.26 332.412 370.786 355.341 352.483 374.665C334.18 393.99 312.41 409.327 288.427 419.793C264.445 430.258 238.723 435.647 212.745 435.647C186.767 435.647 161.046 430.258 137.063 419.793C113.081 409.327 91.3106 393.99 73.0076 374.665C54.7046 355.341 40.2303 332.412 30.4187 307.198C20.6071 281.984 15.652 254.985 15.8391 227.755C15.652 200.525 20.6071 173.525 30.4187 148.312C40.2303 123.098 54.7046 100.169 73.0076 80.8444C91.3106 61.5202 113.081 46.1833 137.063 35.7174C161.046 25.2514 186.767 19.8632 212.745 19.8632C238.723 19.8632 264.445 25.2514 288.427 35.7174C312.41 46.1833 334.18 61.5202 352.483 80.8444C370.786 100.169 385.26 123.098 395.072 148.312C404.883 173.525 409.838 200.525 409.651 227.755V227.755Z" fill="#00002F" fill-opacity="0.2"/>
<path fill-rule="evenodd" clip-rule="evenodd" d="M393.816 206.405C394.003 233.635 389.048 260.634 379.237 285.848C369.425 311.062 354.951 333.991 336.648 353.316C318.345 372.64 296.575 387.977 272.592 398.443C248.61 408.909 222.888 414.297 196.91 414.297C170.932 414.297 145.211 408.909 121.228 398.443C97.2455 387.977 75.4756 372.64 57.1726 353.316C38.8696 333.991 24.3953 311.062 14.5837 285.848C4.7721 260.634 -0.182923 233.635 0.00412836 206.405C-0.182923 179.175 4.7721 152.175 14.5837 126.962C24.3953 101.748 38.8696 78.8185 57.1726 59.4944C75.4756 40.1702 97.2455 24.8334 121.228 14.3674C145.211 3.90141 170.932 -1.48682 196.91 -1.48682C222.888 -1.48682 248.61 3.90141 272.592 14.3674C296.575 24.8334 318.345 40.1702 336.648 59.4944C354.951 78.8185 369.425 101.748 379.237 126.962C389.048 152.175 394.003 179.175 393.816 206.405V206.405Z" fill="url(#paint0_linear_16_8)"/>
<path fill-rule="evenodd" clip-rule="evenodd" d="M381.332 206.411C381.508 231.914 376.867 257.201 367.678 280.815C358.488 304.43 344.932 325.905 327.79 344.003C310.648 362.101 290.259 376.465 267.798 386.267C245.337 396.069 221.247 401.116 196.917 401.116C172.587 401.116 148.497 396.069 126.036 386.267C103.574 376.465 83.1854 362.101 66.0434 344.003C48.9014 325.905 35.3453 304.43 26.1561 280.815C16.9669 257.201 12.3262 231.914 12.5014 206.411C12.3262 180.909 16.9669 155.622 26.1561 132.008C35.3453 108.393 48.9014 86.9184 66.0434 68.8201C83.1854 50.7217 103.574 36.3577 126.036 26.5557C148.497 16.7536 172.587 11.7072 196.917 11.7072C221.247 11.7072 245.337 16.7536 267.798 26.5557C290.259 36.3577 310.648 50.7217 327.79 68.8201C344.932 86.9184 358.488 108.393 367.678 132.008C376.867 155.622 381.508 180.909 381.332 206.411V206.411Z" fill="#F20000"/>
<path fill-rule="evenodd" clip-rule="evenodd" d="M361.031 206.412C361.187 229.107 357.057 251.61 348.88 272.625C340.702 293.64 328.638 312.751 313.383 328.856C298.128 344.962 279.984 357.745 259.996 366.468C240.007 375.191 218.569 379.682 196.918 379.682C175.266 379.682 153.828 375.191 133.84 366.468C113.851 357.745 95.7066 344.962 80.4517 328.856C65.1969 312.751 53.1332 293.64 44.9556 272.625C36.778 251.61 32.6482 229.107 32.8041 206.412C32.6482 183.717 36.778 161.214 44.9556 140.199C53.1332 119.185 65.1969 100.074 80.4517 83.9681C95.7066 67.8622 113.851 55.0795 133.84 46.3566C153.828 37.6336 175.266 33.1427 196.918 33.1427C218.569 33.1427 240.007 37.6336 259.996 46.3566C279.984 55.0795 298.128 67.8622 313.383 83.9681C328.638 100.074 340.702 119.185 348.88 140.199C357.057 161.214 361.187 183.717 361.031 206.412V206.412Z" fill="white"/>
<path fill-rule="evenodd" clip-rule="evenodd" d="M328.884 206.41C329.009 224.66 325.688 242.755 319.112 259.653C312.537 276.552 302.836 291.919 290.569 304.87C278.303 317.821 263.712 328.1 247.639 335.114C231.566 342.129 214.327 345.74 196.917 345.74C179.506 345.74 162.268 342.129 146.194 335.114C130.121 328.1 115.531 317.821 103.264 304.87C90.9975 291.919 81.2968 276.552 74.721 259.653C68.1452 242.755 64.8243 224.66 64.9497 206.41C64.8243 188.161 68.1452 170.065 74.721 153.167C81.2968 136.269 90.9975 120.901 103.264 107.95C115.531 94.9992 130.121 84.7204 146.194 77.7061C162.268 70.6918 179.506 67.0806 196.917 67.0806C214.327 67.0806 231.566 70.6918 247.639 77.7061C263.712 84.7204 278.303 94.9992 290.569 107.95C302.836 120.901 312.537 136.269 319.112 153.167C325.688 170.065 329.009 188.161 328.884 206.41V206.41Z" fill="#F20000"/>
<path fill-rule="evenodd" clip-rule="evenodd" d="M304.034 206.412C304.136 221.226 301.44 235.915 296.102 249.632C290.764 263.349 282.89 275.823 272.933 286.336C262.975 296.849 251.132 305.193 238.084 310.887C225.037 316.58 211.044 319.512 196.911 319.512C182.778 319.512 168.785 316.58 155.738 310.887C142.691 305.193 130.847 296.849 120.89 286.336C110.932 275.823 103.058 263.349 97.7202 249.632C92.3823 235.915 89.6867 221.226 89.7884 206.412C89.6867 191.599 92.3823 176.91 97.7202 163.193C103.058 149.476 110.932 137.002 120.89 126.489C130.847 115.976 142.691 107.632 155.738 101.938C168.785 96.2445 182.778 93.3132 196.911 93.3132C211.044 93.3132 225.037 96.2445 238.084 101.938C251.132 107.632 262.975 115.976 272.933 126.489C282.89 137.002 290.764 149.476 296.102 163.193C301.44 176.91 304.136 191.599 304.034 206.412V206.412Z" fill="white"/>
<path fill-rule="evenodd" clip-rule="evenodd" d="M267.129 206.41C267.196 216.12 265.429 225.748 261.931 234.738C258.432 243.729 253.271 251.906 246.744 258.796C240.217 265.687 232.454 271.156 223.903 274.888C215.351 278.62 206.179 280.542 196.915 280.542C187.652 280.542 178.48 278.62 169.928 274.888C161.376 271.156 153.613 265.687 147.087 258.796C140.56 251.906 135.399 243.729 131.9 234.738C128.401 225.748 126.634 216.12 126.701 206.41C126.634 196.7 128.401 187.072 131.9 178.082C135.399 169.091 140.56 160.914 147.087 154.024C153.613 147.133 161.376 141.664 169.928 137.932C178.48 134.2 187.652 132.278 196.915 132.278C206.179 132.278 215.351 134.2 223.903 137.932C232.454 141.664 240.217 147.133 246.744 154.024C253.271 160.914 258.432 169.091 261.931 178.082C265.429 187.072 267.196 196.7 267.129 206.41V206.41Z" fill="#F20000"/>
<path fill-rule="evenodd" clip-rule="evenodd" d="M240.266 206.41C240.307 212.405 239.216 218.349 237.056 223.899C234.896 229.45 231.71 234.498 227.68 238.752C223.651 243.006 218.858 246.383 213.578 248.687C208.299 250.991 202.636 252.177 196.917 252.177C191.198 252.177 185.536 250.991 180.256 248.687C174.976 246.383 170.183 243.006 166.154 238.752C162.125 234.498 158.938 229.45 156.778 223.899C154.618 218.349 153.527 212.405 153.569 206.41C153.527 200.415 154.618 194.471 156.778 188.921C158.938 183.37 162.125 178.322 166.154 174.068C170.183 169.814 174.976 166.437 180.256 164.133C185.536 161.829 191.198 160.643 196.917 160.643C202.636 160.643 208.299 161.829 213.578 164.133C218.858 166.437 223.651 169.814 227.68 174.068C231.71 178.322 234.896 183.37 237.056 188.921C239.216 194.471 240.307 200.415 240.266 206.41V206.41Z" fill="white"/>
<path d="M211.48 210.493L205.382 223.265L429.745 398.49L435.843 385.718L211.48 210.493Z" fill="url(#paint1_linear_16_8)"/>
<path fill-rule="evenodd" clip-rule="evenodd" d="M186.514 201.4L213.7 246.844L210.083 219.33L240.173 217.442L186.514 201.4V201.4Z" fill="#808080"/>
<path fill-rule="evenodd" clip-rule="evenodd" d="M378.93 341.358L435.778 386.152L472.81 388.114L422.049 349.507L378.93 341.358V341.358Z" fill="url(#paint2_linear_16_8)"/>
<path fill-rule="evenodd" clip-rule="evenodd" d="M371.293 350.883L428.089 395.735L438.632 431.289L389.256 390.909L371.293 350.883Z" fill="url(#paint3_linear_16_8)"/>
<path fill-rule="evenodd" clip-rule="evenodd" d="M373.789 344.893L426.935 382.419L461.058 414.89L413.63 380.977L373.789 344.893Z" fill="url(#paint4_linear_16_8)"/>
<path d="M65.8512 316.63C179.751 353.64 207.331 251.21 198.161 201.62C188.981 152.02 238.391 72.64 330.461 86.61C267.041 13.66 156.091 5.894 83.1412 69.311C10.1952 132.72 2.43819 243.671 65.8532 316.621L65.8522 316.631L65.8512 316.63Z" fill="url(#paint5_linear_16_8)"/>
</g>
<defs>
<linearGradient id="paint0_linear_16_8" x1="-54.4247" y1="6.42911" x2="388.31" y2="369.59" gradientUnits="userSpaceOnUse">
<stop stop-color="#FF0000"/>
<stop offset="1" stop-color="#9D0000" stop-opacity="0.9294"/>
</linearGradient>
<linearGradient id="paint1_linear_16_8" x1="294.816" y1="382.805" x2="298.493" y2="378.106" gradientUnits="userSpaceOnUse">
<stop stop-color="#754A3D"/>
<stop offset="1" stop-color="#7F352A"/>
</linearGradient>
<linearGradient id="paint2_linear_16_8" x1="382.816" y1="367.887" x2="506.88" y2="370.396" gradientUnits="userSpaceOnUse">
<stop stop-color="#DEDD07"/>
<stop offset="1" stop-color="#4DDD00"/>
</linearGradient>
<linearGradient id="paint3_linear_16_8" x1="412.488" y1="401.206" x2="480.064" y2="521.623" gradientUnits="userSpaceOnUse">
<stop stop-color="#DEDD07"/>
<stop offset="1" stop-color="#4DDD00"/>
</linearGradient>
<linearGradient id="paint4_linear_16_8" x1="378.993" y1="381.387" x2="489.94" y2="377.518" gradientUnits="userSpaceOnUse">
<stop stop-color="#DEDD07"/>
<stop offset="1" stop-color="#4DDD00"/>
</linearGradient>
<linearGradient id="paint5_linear_16_8" x1="-7.13417" y1="35.6999" x2="352.813" y2="361.196" gradientUnits="userSpaceOnUse">
<stop stop-color="white"/>
<stop offset="1" stop-color="white" stop-opacity="0"/>
</linearGradient>
<clipPath id="clip0_16_8">
<rect width="472.81" height="440.56" fill="white"/>
</clipPath>
</defs>
</svg>
