<svg width="802" height="441" viewBox="0 0 802 441" fill="none" xmlns="http://www.w3.org/2000/svg">
<g clip-path="url(#clip0_23_640)">
<path d="M325.997 354.067C347.701 351.024 367.837 340.799 379.125 333.295L366.997 319.447L325.997 354.067Z" fill="#0E232E" stroke="black" stroke-width="0.27729"/>
<path d="M106.563 255.411C122.46 258.051 128.532 251.74 134.282 245.602L132.549 238.679L123.887 224.254L73.6494 150.398C60.7522 153.86 75.1447 213.912 106.564 255.411L106.563 255.411Z" fill="#0E232E" stroke="black" stroke-width="0.27729"/>
<path d="M268.093 180.249C261.064 180.311 254.216 181.855 247.84 185.037C216.455 200.702 208.199 250.116 229.394 295.398C250.59 340.68 293.218 364.694 324.605 349.028C355.99 333.363 364.246 283.949 343.051 238.667C326.161 202.582 295.669 180.005 268.093 180.249V180.249ZM270.47 191.654C294.421 191.441 320.916 211.059 335.588 242.402C353.997 281.733 346.818 324.637 319.557 338.244C292.295 351.85 255.267 330.995 236.856 291.663C218.447 252.332 225.626 209.428 252.889 195.821C258.426 193.058 264.365 191.707 270.47 191.653L270.47 191.654Z" fill="#0E232E"/>
<path d="M92.8814 112.223C129.562 116.302 173.526 115.959 202.561 119.984L202.633 113.198L125.927 108.027C134.56 86.434 139.541 72.0269 173.784 49.9865C185.3 74.1854 188.05 109.39 203.724 118.754C207.531 121.028 209.959 116.79 213.624 118.714L180.73 48.8696C238.488 8.1469 308.981 6.30909 376.674 3.14672C343.096 -6.80064 152.066 7.55253 120.948 100.627C111.018 104.288 100.903 105.841 91.9995 111.333L92.8814 112.223Z" fill="url(#paint0_linear_23_640)" stroke="#C39D14" stroke-width="0.55459"/>
<path d="M96.9607 172.006C110.833 194.823 121.269 225.02 120.272 239.456C119.276 253.892 107.223 247.098 93.3518 224.283C79.4799 201.466 69.0437 171.269 70.0403 156.833C71.0369 142.397 83.0897 149.191 96.9607 172.006Z" fill="#2D2D2D"/>
<path d="M73.066 153.464C72.0866 154.62 71.4634 156.562 71.2723 159.33C70.3315 172.96 80.1871 201.473 93.2835 223.015C106.38 244.557 117.76 250.974 118.701 237.344C119.642 223.714 109.787 195.201 96.6902 173.659C86.2541 156.493 76.9088 148.93 73.0669 153.465L73.066 153.464ZM75.946 159.362C79.2834 155.424 87.4037 161.995 96.4687 176.904C107.844 195.615 116.4 220.376 115.583 232.215C114.766 244.053 104.881 238.482 93.5062 219.771C82.131 201.06 73.5746 176.299 74.3917 164.461C74.5577 162.056 75.0958 160.365 75.9465 159.361L75.946 159.362Z" fill="#2D2D2D"/>
<path d="M114.583 233.172C113.061 236.866 99.4802 203.545 95.5116 201.706C91.5434 199.868 98.7039 230.215 93.8057 223.548C88.9078 216.88 96.1347 206.118 92.178 197.168C88.2212 188.219 74.5933 184.501 73.0885 176.687C71.5842 168.873 89.6308 195.542 91.1534 191.849C92.6763 188.156 77.0935 155.512 81.0612 157.349C85.0294 159.187 88.9561 186.432 93.8541 193.099C98.752 199.766 102.749 183.308 106.706 192.258C110.663 201.208 95.0429 191.377 96.5472 199.191C98.0515 207.004 116.105 229.478 114.582 233.169L114.583 233.172Z" fill="#2D2D2D"/>
<path d="M82.8857 190.817L92.544 198.743L92.1931 215.616L82.8857 190.817Z" fill="#2D2D2D"/>
<path d="M79.8992 162.586L89.7402 187.391L79.2837 177.877L79.8992 162.586Z" fill="#2D2D2D"/>
<path d="M358.155 242.983C381.072 287.302 372.139 335.654 338.206 350.985C304.272 366.316 258.186 342.818 235.271 298.503C212.354 254.184 221.286 205.832 255.22 190.501C289.154 175.17 335.24 198.668 358.155 242.983Z" fill="#0E232E"/>
<path d="M276.963 190.544C269.787 190.6 262.798 192.005 256.289 194.899C224.251 209.149 215.823 254.094 237.459 295.284C259.094 336.473 302.608 358.316 334.646 344.066C366.684 329.817 375.11 284.871 353.477 243.682C336.235 210.859 305.111 190.321 276.963 190.544V190.544ZM279.389 200.918C303.838 200.725 330.882 218.569 345.858 247.079C364.651 282.854 357.322 321.88 329.494 334.256C301.667 346.632 263.87 327.662 245.077 291.886C226.285 256.11 233.614 217.084 261.443 204.709C267.095 202.195 273.158 200.967 279.389 200.918V200.918Z" fill="url(#paint1_linear_23_640)"/>
<path d="M325.243 331.953C324.18 332.121 298.567 276.031 297.432 275.493C296.297 274.955 251.739 297.748 250.965 296.709C250.192 295.669 290.97 267.791 290.855 266.649C290.739 265.506 242.787 222.682 243.373 221.87C243.958 221.059 294.771 259.918 295.834 259.75C296.898 259.582 311.82 210.322 312.954 210.86C314.089 211.398 304.717 263.291 305.49 264.33C306.263 265.37 363.439 277.749 363.554 278.892C363.67 280.036 307.063 273.248 306.477 274.059C305.892 274.87 326.305 331.78 325.242 331.947L325.243 331.953Z" fill="url(#paint2_linear_23_640)"/>
<path opacity="0.6878" d="M250.625 245.469L282.569 266.819L246.939 285.502L250.625 245.469Z" fill="url(#paint3_linear_23_640)"/>
<path opacity="0.88293" d="M292.506 209.643L291.454 250.366L258.742 226.193L292.506 209.643Z" fill="url(#paint4_linear_23_640)"/>
<path d="M212.145 116.857L180.816 47.1533C226.777 12.6912 359.084 -4.70343 379.696 2.67491L494.351 43.7392C386.726 65.592 276.977 85.1355 212.144 116.855L212.145 116.857Z" fill="url(#paint5_linear_23_640)"/>
<path d="M213.941 117.146C203.901 126.354 515.413 166.631 569.34 168.925C686.926 173.929 738.369 114.455 725.054 104.511C673.465 66.0041 589.16 47.0411 495.618 43.1827C403.331 63.3886 316.083 69.617 213.94 117.146H213.941Z" fill="url(#paint6_linear_23_640)" stroke="#A6940D" stroke-width="1.7747"/>
<path d="M303.669 210.846L381.21 212.116C402.229 216.051 400.639 206.085 400.278 196.875C338.837 158.742 352.989 140.751 392.651 129.557L204.518 119.396C183.847 129.177 198.624 186.625 218.123 247.062C216.819 216.961 229.075 198.08 243.925 187.347C264.687 177.965 282.907 179.587 303.669 210.845L303.669 210.846Z" fill="url(#paint7_linear_23_640)" stroke="#C5BC2C" stroke-width="0.97053"/>
<path d="M225.891 278.039C223.431 270.477 219.097 261.762 218.736 250.005L118.221 218.095L128.64 235.364L225.891 278.039Z" fill="url(#paint8_linear_23_640)"/>
<path d="M219.668 250.697C197.417 191.242 184.725 132.808 201.976 119.399C161.863 116.483 135.151 112.097 90.1126 113.048C76.5232 123.65 72.0083 137.289 71.0459 151.152C78.4185 139.98 97.3146 174.852 118.078 217.199L219.668 250.697Z" fill="url(#paint9_linear_23_640)" stroke="#DBBC11" stroke-width="0.11092"/>
<path d="M303.028 210.846L364.679 316.268C431.596 339.334 482.116 336.185 532.474 332.779L504.508 309.916C504.508 309.916 740.264 271.043 790.517 179.091C799.132 163.326 794.157 139.743 782.89 125.746C750.18 85.1098 719.946 65.5198 658.655 57.0542C613.817 50.8603 533.792 48.968 492.144 43.8679C573.98 60.844 725.302 86.7701 723.152 107.965C721.956 119.719 615.869 166.027 576.967 167.662C535.21 169.418 460.021 139.719 465.105 140.989C592.583 212.117 449.476 217.099 401.547 198.146C398.893 203.015 402.039 207.884 386.928 212.752L303.028 210.846Z" fill="url(#paint10_linear_23_640)" stroke="#747423" stroke-width="0.13865"/>
<path d="M363.402 315.002L381.832 338.5C444.125 367.885 523.87 360.748 565.346 355.462L537.558 331.513L648.151 317.542C704.411 274.632 814.037 254.033 795.608 153.698C794.885 222.169 655.529 281.085 505.781 309.925L532.857 331.518C471.124 333.45 408.951 335.984 363.41 315.007L363.402 315.002Z" fill="#FFC022" stroke="#D1D035" stroke-width="0.11092"/>
<path d="M562.988 355.093L537.557 330.872C726.62 281.315 813.862 218.795 796.154 155.691C796.154 155.691 805.556 190.021 800.515 201.954C764.885 286.289 664.643 315.804 564.903 354.458L562.988 355.093Z" fill="#2D2D2D"/>
<path d="M125.701 107.957C131.14 108.034 196.784 112.801 202.202 113.782C199.162 98.0422 185.968 76.6478 172.81 50.8004C153.062 59.0736 134.683 83.6829 125.701 107.957V107.957Z" fill="#2D2D2D"/>
<path d="M191.806 58.4204C217.4 43.1405 250.277 39.682 285.873 40.6394C274.503 51.2593 263.866 62.2452 259.178 76.2032L245.195 78.7435C239.9 59.4774 212.873 61.9278 191.806 58.4206L191.806 58.4204Z" fill="#BDCDD4"/>
<path d="M373.572 68.5876C368.487 63.507 329.082 43.1844 329.082 43.1844C338.374 31.4283 353.273 21.0719 376.116 12.7009C376.116 12.7009 452.692 46.2521 447.301 44.4545C435.853 40.6377 351.355 46.3885 373.572 68.5876Z" fill="#BDCDD4"/>
<path d="M97.7017 179.426C108.397 200.762 116.444 228.999 115.676 242.498C114.907 255.996 105.614 249.644 94.9191 228.309C84.2233 206.974 76.1766 178.737 76.945 165.238C77.7134 151.739 87.0067 158.092 97.7017 179.426Z" fill="#364E59"/>
<path d="M79.2784 162.087C78.5232 163.168 78.0427 164.984 77.8953 167.573C77.1699 180.318 84.769 206.98 94.8669 227.124C104.965 247.267 113.74 253.268 114.465 240.522C115.191 227.777 107.592 201.115 97.4936 180.972C89.447 164.92 82.2413 157.848 79.2791 162.089L79.2784 162.087ZM81.499 167.602C84.0722 163.92 90.3334 170.064 97.3228 184.006C106.094 201.503 112.691 224.656 112.061 235.726C111.431 246.796 103.809 241.586 95.0386 224.09C86.2679 206.594 79.6705 183.44 80.3006 172.37C80.4286 170.122 80.8434 168.541 81.4994 167.602L81.499 167.602Z" fill="#364E59"/>
<path d="M111.29 236.622C110.116 240.075 99.6446 208.918 96.5847 207.198C93.525 205.48 99.0461 233.856 95.2694 227.622C91.4929 221.387 97.0651 211.323 94.0143 202.955C90.9635 194.586 80.4558 191.11 79.2955 183.803C78.1356 176.496 92.0503 201.434 93.2243 197.98C94.3985 194.527 82.3836 164.003 85.4428 165.721C88.5024 167.439 91.5301 192.915 95.3066 199.149C99.0831 205.384 102.165 189.994 105.216 198.363C108.267 206.732 96.2232 197.539 97.3831 204.846C98.543 212.152 112.463 233.166 111.289 236.618L111.29 236.622Z" fill="#364E59"/>
<path d="M86.8495 197.015L94.2964 204.427L94.0259 220.205L86.8495 197.015Z" fill="#364E59"/>
<path d="M84.5468 170.617L92.1346 193.812L84.0722 184.916L84.5468 170.617Z" fill="#364E59"/>
<path d="M92.9241 184.963C102.349 204.223 109.44 229.713 108.763 241.899C108.086 254.085 99.8965 248.35 90.4718 229.092C81.0466 209.831 73.9557 184.341 74.6328 172.155C75.31 159.969 83.4994 165.704 92.9241 184.963Z" fill="#2D2D2D"/>
<path d="M76.689 169.311C76.0235 170.287 75.6 171.926 75.4701 174.263C74.8309 185.769 81.5273 209.837 90.4257 228.021C99.3241 246.205 107.057 251.622 107.696 240.116C108.335 228.611 101.639 204.542 92.7406 186.358C85.6497 171.868 79.3 165.484 76.6896 169.312L76.689 169.311ZM78.6458 174.29C80.9134 170.965 86.4308 176.512 92.59 189.097C100.319 204.892 106.133 225.793 105.577 235.786C105.022 245.779 98.306 241.077 90.5771 225.282C82.8481 209.488 77.0344 188.587 77.5897 178.594C77.7025 176.564 78.0681 175.137 78.6461 174.289L78.6458 174.29Z" fill="#CCCCCC"/>
<path d="M104.898 236.595C103.864 239.712 94.6364 211.586 91.9399 210.034C89.2436 208.482 94.1089 234.098 90.7808 228.471C87.4528 222.843 92.3632 213.758 89.6748 206.203C86.9864 198.648 77.7268 195.511 76.7043 188.914C75.6822 182.318 87.9441 204.83 88.9787 201.713C90.0134 198.595 79.4257 171.04 82.1215 172.591C84.8177 174.142 87.4857 197.14 90.8137 202.768C94.1416 208.396 96.8576 194.503 99.5461 202.058C102.235 209.612 91.6214 201.314 92.6435 207.91C93.6656 214.506 105.932 233.476 104.897 236.592L104.898 236.595Z" fill="#CCCCCC"/>
<path d="M83.3608 200.841L89.9232 207.532L89.6848 221.776L83.3608 200.841Z" fill="url(#paint11_linear_23_640)"/>
<path d="M81.3316 177.011L88.0182 197.95L80.9134 189.919L81.3316 177.011Z" fill="url(#paint12_linear_23_640)"/>
<path d="M210.333 116.857L181.701 49.3552C225.061 16.37 351.709 -7.27412 379.907 3.31149L485.216 42.8508C383.683 63.7686 271.5 86.4937 210.339 116.855L210.333 116.857Z" fill="url(#paint13_linear_23_640)"/>
<path d="M183.097 103.419C182.569 101.095 175.164 89.8346 175.164 89.8346C175.164 89.8346 150.444 96.394 141.313 103.911C136.068 108.229 127.073 114.62 129.149 120.842C129.922 123.161 133.441 123.986 136.024 124.327C156.049 126.961 200.551 110.654 200.551 110.654L199.493 102.885L183.097 103.419Z" fill="url(#paint14_linear_23_640)"/>
<path d="M513.399 181.626C517.789 204.833 452.394 212.06 421.878 204.489C394.793 197.772 346.912 173.442 359.587 148.605C383.417 101.928 507.548 150.704 513.399 181.626V181.626Z" fill="#0E232E"/>
<path d="M405.426 131.846C386.391 131.843 370.47 137.285 363.396 151.142C350.718 175.98 398.601 200.313 425.683 207.03C456.202 214.601 521.599 207.371 517.208 184.164C513.094 162.42 450.508 131.854 405.426 131.846L405.426 131.846ZM404.564 135.639C444.887 135.647 500.863 163.238 504.542 182.872C508.469 203.826 449.979 210.365 422.68 203.529C398.457 197.463 355.629 175.487 366.97 153.06C373.297 140.548 387.538 135.636 404.564 135.639V135.639Z" fill="url(#paint15_linear_23_640)"/>
<path d="M504.545 181.609C508.472 202.563 449.982 209.089 422.683 202.252C398.46 196.186 355.632 174.217 366.973 151.788C388.285 109.641 499.313 153.683 504.545 181.606V181.609Z" fill="#666666"/>
<path opacity="0.49268" d="M463.961 177.363C466.747 196.453 425.262 202.398 405.902 196.17C388.721 190.644 358.346 170.629 366.388 150.2C381.504 111.803 460.249 151.927 463.964 177.366L463.961 177.363Z" fill="url(#paint16_linear_23_640)"/>
<path d="M411.725 157.441C411.725 165.858 404.327 172.683 395.2 172.683C386.074 172.683 378.675 165.859 378.675 157.441C378.675 149.024 386.074 142.199 395.2 142.199C404.327 142.199 411.725 149.023 411.725 157.441Z" fill="url(#paint17_linear_23_640)"/>
<path d="M491.245 177.647C493.149 184.748 488.342 189.817 480.509 188.969C472.675 188.121 464.781 181.678 462.877 174.577C460.973 167.477 465.779 162.408 473.613 163.256C481.447 164.104 489.341 170.547 491.245 177.647Z" fill="url(#paint18_linear_23_640)"/>
<path d="M496.159 176.954C498.471 183.815 492.634 188.713 483.121 187.894C473.609 187.075 464.023 180.848 461.711 173.987C459.398 167.126 465.235 162.227 474.748 163.046C484.26 163.866 493.846 170.092 496.159 176.954Z" fill="url(#paint19_linear_23_640)"/>
<path d="M725.904 92.4363C725.856 100.561 696.695 90.9303 684.014 82.9822C672.759 75.9286 653.915 59.5278 661.551 53.9972C675.905 43.6047 725.967 81.6102 725.904 92.4361L725.904 92.4363Z" fill="#0E232E"/>
<path d="M682.981 57.057C674.671 53.5886 667.26 52.4066 662.999 55.4919C655.362 61.0221 674.205 77.4244 685.46 84.4774C698.142 92.4262 727.304 102.056 727.351 93.9311C727.396 86.3187 702.661 65.2711 682.981 57.0568L682.981 57.057ZM682.283 58.097C699.886 65.4443 721.987 84.349 721.931 91.2162C721.872 98.5455 695.784 89.9557 684.445 82.8255C674.384 76.4986 657.547 61.7611 664.397 56.7481C668.218 53.9511 674.851 54.995 682.283 58.0971L682.283 58.097Z" fill="url(#paint20_linear_23_640)"/>
<path d="M722.04 90.818C721.981 98.1473 695.894 89.5533 684.555 82.4229C674.494 76.096 657.657 61.3608 664.506 56.3469C677.378 46.9258 722.12 81.0507 722.04 90.8172L722.04 90.818Z" fill="#666666"/>
<path opacity="0.49268" d="M704.682 82.0853C704.282 88.6181 685.668 82.9382 677.743 77.446C670.711 72.5724 659.145 60.7225 664.385 55.7391C674.234 46.3731 705.214 73.3806 704.683 82.0865L704.682 82.0853Z" fill="url(#paint21_linear_23_640)"/>
<path d="M683.564 66.2825C682.851 68.9393 679.044 69.7456 675.059 68.0833C671.075 66.421 668.423 62.9196 669.136 60.2627C669.848 57.6059 673.656 56.7996 677.64 58.4619C681.624 60.1242 684.276 63.6256 683.564 66.2825Z" fill="url(#paint22_linear_23_640)"/>
<path d="M716.57 87.1455C716.8 89.7333 714.273 90.4577 710.924 88.7633C707.576 87.0689 704.675 83.5973 704.445 81.0093C704.215 78.4215 706.743 77.6971 710.091 79.3916C713.439 81.086 716.34 84.5575 716.57 87.1455Z" fill="url(#paint23_linear_23_640)"/>
<path d="M718.773 87.8216C719.202 90.4083 716.239 90.8912 712.155 88.9C708.072 86.9088 704.414 83.1975 703.985 80.6106C703.556 78.0238 706.519 77.5408 710.603 79.5321C714.686 81.5234 718.344 85.2347 718.773 87.8216Z" fill="url(#paint24_linear_23_640)"/>
<path d="M195.656 99.217L140.509 105.58C131.387 111.876 123.102 123.209 137.38 124.468C154.559 123.087 175.557 119.265 199.954 110.589L195.656 99.217Z" fill="url(#paint25_linear_23_640)"/>
<path d="M368.359 66.8395C373.958 48.6174 393.425 49.8458 407.702 59.6313L410.824 57.5112C400.728 45.5756 370.097 39.738 362.74 68.1115L368.359 66.8395Z" fill="#666666"/>
</g>
<defs>
<linearGradient id="paint0_linear_23_640" x1="115.679" y1="100.857" x2="185.212" y2="28.043" gradientUnits="userSpaceOnUse">
<stop stop-color="#FFC022"/>
<stop offset="1" stop-color="#FF9900"/>
</linearGradient>
<linearGradient id="paint1_linear_23_640" x1="244.738" y1="209.235" x2="236.609" y2="279.412" gradientUnits="userSpaceOnUse">
<stop stop-color="#666666"/>
<stop offset="1" stop-color="#CCCCCC"/>
</linearGradient>
<linearGradient id="paint2_linear_23_640" x1="296.499" y1="269.896" x2="275.071" y2="300.987" gradientUnits="userSpaceOnUse">
<stop stop-color="#CCCCCC"/>
<stop offset="1" stop-color="#B88100" stop-opacity="0"/>
</linearGradient>
<linearGradient id="paint3_linear_23_640" x1="275.18" y1="266.943" x2="259.587" y2="265.211" gradientUnits="userSpaceOnUse">
<stop stop-color="#999999"/>
<stop offset="1" stop-color="#999999" stop-opacity="0"/>
</linearGradient>
<linearGradient id="paint4_linear_23_640" x1="282.777" y1="240.402" x2="274.112" y2="224.815" gradientUnits="userSpaceOnUse">
<stop stop-color="#B88100"/>
<stop offset="1" stop-color="#B88100" stop-opacity="0"/>
</linearGradient>
<linearGradient id="paint5_linear_23_640" x1="301.119" y1="15.2425" x2="311.269" y2="57.1579" gradientUnits="userSpaceOnUse">
<stop stop-color="#0E232E"/>
<stop offset="1" stop-color="#2D2D2D"/>
</linearGradient>
<linearGradient id="paint6_linear_23_640" x1="332.706" y1="110.379" x2="452.993" y2="90.3168" gradientUnits="userSpaceOnUse">
<stop stop-color="#FFC022"/>
<stop offset="1" stop-color="#FFFF3E"/>
</linearGradient>
<linearGradient id="paint7_linear_23_640" x1="252.513" y1="124.947" x2="259.793" y2="181.406" gradientUnits="userSpaceOnUse">
<stop stop-color="#FFC022"/>
<stop offset="1" stop-color="#FFFF3E"/>
</linearGradient>
<linearGradient id="paint8_linear_23_640" x1="193.003" y1="254.096" x2="128.588" y2="217.995" gradientUnits="userSpaceOnUse">
<stop stop-color="#FFFF3E"/>
<stop offset="1" stop-color="#FFC022"/>
</linearGradient>
<linearGradient id="paint9_linear_23_640" x1="133.074" y1="209.028" x2="128.57" y2="120.172" gradientUnits="userSpaceOnUse">
<stop stop-color="#FFFF3E"/>
<stop offset="1" stop-color="#FFC022"/>
</linearGradient>
<linearGradient id="paint10_linear_23_640" x1="538.393" y1="200.013" x2="618.221" y2="297.942" gradientUnits="userSpaceOnUse">
<stop stop-color="#FFFF3E"/>
<stop offset="1" stop-color="#FFC022"/>
</linearGradient>
<linearGradient id="paint11_linear_23_640" x1="89.543" y1="212.039" x2="86.7399" y2="212.728" gradientUnits="userSpaceOnUse">
<stop stop-color="#B88100"/>
<stop offset="1" stop-color="#B88100" stop-opacity="0"/>
</linearGradient>
<linearGradient id="paint12_linear_23_640" x1="85.3107" y1="194.28" x2="78.4774" y2="192.531" gradientUnits="userSpaceOnUse">
<stop stop-color="#B88100"/>
<stop offset="1" stop-color="#B88100" stop-opacity="0"/>
</linearGradient>
<linearGradient id="paint13_linear_23_640" x1="397.724" y1="12.6997" x2="304.932" y2="19.0624" gradientUnits="userSpaceOnUse">
<stop stop-color="#CCCCCC"/>
<stop offset="1" stop-color="#CCCCCC" stop-opacity="0"/>
</linearGradient>
<linearGradient id="paint14_linear_23_640" x1="144.11" y1="106.884" x2="188.272" y2="122.476" gradientUnits="userSpaceOnUse">
<stop stop-color="white"/>
<stop offset="1" stop-color="white" stop-opacity="0"/>
</linearGradient>
<linearGradient id="paint15_linear_23_640" x1="512.522" y1="197.812" x2="367.192" y2="140.613" gradientUnits="userSpaceOnUse">
<stop stop-color="#666666"/>
<stop offset="1" stop-color="#666666" stop-opacity="0"/>
</linearGradient>
<linearGradient id="paint16_linear_23_640" x1="453.333" y1="189.713" x2="419.844" y2="166.505" gradientUnits="userSpaceOnUse">
<stop stop-color="white"/>
<stop offset="1" stop-color="#CCCCCC"/>
</linearGradient>
<linearGradient id="paint17_linear_23_640" x1="383.741" y1="145.927" x2="406.902" y2="169.124" gradientUnits="userSpaceOnUse">
<stop stop-color="white"/>
<stop offset="1" stop-color="white" stop-opacity="0"/>
</linearGradient>
<linearGradient id="paint18_linear_23_640" x1="464.621" y1="165.336" x2="489.998" y2="186.758" gradientUnits="userSpaceOnUse">
<stop stop-color="white"/>
<stop offset="1" stop-color="white" stop-opacity="0"/>
</linearGradient>
<linearGradient id="paint19_linear_23_640" x1="485.813" y1="183.933" x2="462.057" y2="168.504" gradientUnits="userSpaceOnUse">
<stop stop-color="#364E59"/>
<stop offset="1" stop-color="#364E59" stop-opacity="0"/>
</linearGradient>
<linearGradient id="paint20_linear_23_640" x1="718.755" y1="98.3696" x2="704.412" y2="74.0208" gradientUnits="userSpaceOnUse">
<stop stop-color="#0E232E"/>
<stop offset="1" stop-color="#0E232E" stop-opacity="0"/>
</linearGradient>
<linearGradient id="paint21_linear_23_640" x1="698.996" y1="84.0472" x2="691.254" y2="68.2192" gradientUnits="userSpaceOnUse">
<stop stop-color="white"/>
<stop offset="1" stop-color="#CCCCCC"/>
</linearGradient>
<linearGradient id="paint22_linear_23_640" x1="672.322" y1="57.5513" x2="675.585" y2="70.338" gradientUnits="userSpaceOnUse">
<stop stop-color="white"/>
<stop offset="1" stop-color="white" stop-opacity="0"/>
</linearGradient>
<linearGradient id="paint23_linear_23_640" x1="705.989" y1="78.4101" x2="710.643" y2="91.4409" gradientUnits="userSpaceOnUse">
<stop stop-color="white"/>
<stop offset="1" stop-color="white" stop-opacity="0"/>
</linearGradient>
<linearGradient id="paint24_linear_23_640" x1="713.666" y1="88.1402" x2="707.814" y2="77.2211" gradientUnits="userSpaceOnUse">
<stop stop-color="#364E59"/>
<stop offset="1" stop-color="#364E59" stop-opacity="0"/>
</linearGradient>
<linearGradient id="paint25_linear_23_640" x1="141.991" y1="121.153" x2="178.511" y2="108.332" gradientUnits="userSpaceOnUse">
<stop stop-color="#0E232E"/>
<stop offset="1" stop-color="#2D2D2D"/>
</linearGradient>
<clipPath id="clip0_23_640">
<rect width="802" height="441" fill="white"/>
</clipPath>
</defs>
</svg>
